<svg id="Layer_1" data-name="Layer 1" xmlns="http://www.w3.org/2000/svg" viewBox="0 0 499.02 92.93"><defs><style>.cls-1{fill:#0071bc;}.cls-2{fill:#112e51;}.cls-3{fill:none;stroke:#112e51;stroke-miterlimit:10;stroke-width:2px;}</style></defs><title>logo-2c</title><path class="cls-1" d="M147.22,28.44c-0.56,1.32-1.17,2.91-1.64,4a0.68,0.68,0,0,1-.85.52h-7.8c-0.38,0-.42-0.19-0.24-0.66C141.58,22,148.39,8.1,152.67.11a1.85,1.85,0,0,1,1.13,0c4.51,8.79,10.9,21.85,16.07,32.23,0.28,0.61.23,0.66-.19,0.66h-8.79a0.53,0.53,0,0,1-.56-0.38c-0.56-1.27-1.27-3-1.74-4.18H147.22Zm8.88-6.11-3.34-7.14-3.2,7.14h6.53Z" transform="translate(2.85)"/><path class="cls-1" d="M194.48,13.08c0.8-2.87,3.76-4.51,7.09-4.51,3.76,0,7.42,1.41,7.42,7.52V32.29c0,0.56,0,.7-0.42.7h-7.14c-0.28,0-.42,0-0.42-0.52V19c0-2.25-.89-3.66-3-3.66a3.35,3.35,0,0,0-3.19,2.07V32.29c0,0.56,0,.7-0.42.7h-7.14c-0.28,0-.42,0-0.42-0.52V19c0-2.58-1.32-3.66-3-3.66a3.38,3.38,0,0,0-3.19,2.07v15c0,0.42,0,.52-0.33.52H173.1c-0.33,0-.38,0-0.38-0.66V9.83c0-.56,0-0.56.33-0.56h7c0.38,0,.42,0,0.42.56v3.24a7.08,7.08,0,0,1,7-4.51C191.19,8.57,193.49,9.88,194.48,13.08Z" transform="translate(2.85)"/><path class="cls-1" d="M236.2,19.37a12.69,12.69,0,0,1-.28,3.2c-0.09.47-.23,0.56-0.94,0.56h-14c0,2.54,2,4.13,4.79,4.13a6,6,0,0,0,4.51-2.35c0.14-.19.42-0.09,0.66,0.23,1,1.36,2.3,3.24,3.24,4.7a0.74,0.74,0,0,1-.24,1.08,13.68,13.68,0,0,1-8.32,2.77c-7.14,0-12.36-4.7-12.36-12.69,0-7.14,4.75-12.36,12.36-12.36A10.29,10.29,0,0,1,236.2,19.37ZM228.87,19c-0.19-2.49-1.6-4-4-4-2.58,0-3.71,2-3.95,4h7.94Z" transform="translate(2.85)"/><path class="cls-1" d="M247.71,18.06V32.48c0,0.42-.09.52-0.38,0.52H240.1c-0.33,0-.38,0-0.38-0.66V9.83c0-.56,0-0.56.38-0.56h7c0.33,0,.38,0,0.38.56v2.3a6.27,6.27,0,0,1,5.64-3.57c3.48,0,5.92,1.93,6,5.68-1,1-4.32,4.46-4.89,5a1.75,1.75,0,0,1-1.17.28c0-2.11-.89-3.24-2.58-3.24A3.24,3.24,0,0,0,247.71,18.06Z" transform="translate(2.85)"/><path class="cls-1" d="M270.17,6.07c0,0.42-.09.52-0.42,0.52h-7.19c-0.33,0-.38-0.33-0.38-0.61V1.09c0-.28,0-0.61.33-0.61h7.19c0.38,0,.47,0,0.47.61v5Zm0,26.4c0,0.42-.09.52-0.42,0.52h-7.19c-0.33,0-.38,0-0.38-0.66V9.83c0-.56,0-0.56.33-0.56h7.19c0.38,0,.47,0,0.47.56V32.48Z" transform="translate(2.85)"/><path class="cls-1" d="M297.74,26.18a0.58,0.58,0,0,1,.28.8c-2.07,4.28-5.59,6.81-11,6.81-7.38,0-12.59-4.79-12.59-12.4,0-7.24,5-12.83,12.5-12.83,5.17,0,9.35,2.35,11.09,7a0.47,0.47,0,0,1-.28.7l-6.15,2.58c-0.19,0-.28,0-0.38-0.28A4.57,4.57,0,0,0,287,16.32c-3.1,0-4.84,2.11-4.84,5a4.69,4.69,0,0,0,4.89,4.89,4.45,4.45,0,0,0,4-2.3c0.14-.33.28-0.42,0.7-0.23Z" transform="translate(2.85)"/><path class="cls-1" d="M317.66,29.61c-0.8,2.44-3.76,3.71-6.62,3.71-6.3,0-11.09-4.51-11.09-12.22C299.95,14,304.93,9,310.9,9c3.19,0,5.64,1.88,6.34,3.71V9.83c0-.42.09-0.56,0.38-0.56h7.24a0.35,0.35,0,0,1,.33.42V32.34c0,0.52-.14.66-0.38,0.66h-6.67a0.41,0.41,0,0,1-.47-0.42v-3Zm-9.91-8.27a4.75,4.75,0,1,0,9.49-.09,4.6,4.6,0,0,0-4.7-4.93C309.58,16.32,307.75,18.43,307.75,21.34Z" transform="translate(2.85)"/><path class="cls-1" d="M332.32,14.2a2,2,0,0,1-1.36.28,1,1,0,0,1-1.17-.66V1.61c0-.47.14-0.47,0.33-0.47h8.6c0.28,0,.19,1.08.09,1.27C336.27,7.15,334.67,9.6,332.32,14.2Z" transform="translate(2.85)"/><path class="cls-1" d="M337.3,27.64l5.12-2a0.35,0.35,0,0,1,.42.19,4.11,4.11,0,0,0,3.81,2.54c2.11,0,3.05-.85,3.05-1.88,0-1.27-1-1.93-4.6-2.82-4.46-1.13-7.56-2.72-7.56-7.42,0-4.93,4-7.7,10.57-7.7,5.21,0,8.32,2,9.25,5.07a0.5,0.5,0,0,1-.23.66l-5.21,1.83c-0.28.14-.33,0.14-0.52-0.14a4.17,4.17,0,0,0-3.57-2.11c-1.83,0-2.63.61-2.63,1.64s1.08,1.41,5.12,2.21c4.7,1,7.94,3,7.94,7.38,0,5.26-3.95,8.74-10.81,8.74-6,0-8.79-2.16-10.29-5.5C337.07,28,337.07,27.73,337.3,27.64Z" transform="translate(2.85)"/><path class="cls-2" d="M159.33,62.92c-0.9-.14-1.66-0.28-2.28-0.35-6.22-1-8.77-2.35-8.77-5.53,0-2.56,1.52-4.35,6.35-4.35a8.62,8.62,0,0,1,7.74,5.46c0.14,0.35.35,0.48,0.83,0.28l8.08-3.25c0.41-.14.69-0.41,0.48-1.17-1.8-5.8-7.46-10.15-16.65-10.15-12.23,0-18.37,6.29-18.37,15.26,0,8.56,5.8,13.26,14.16,14.09l1.66,0.21c6.35,0.76,8.36,2.56,8.36,5.39,0,3.18-2.21,4.63-7,4.63a8.94,8.94,0,0,1-8.36-5.59c-0.14-.55-0.14-0.55-0.76-0.35l-8.5,3.45c-0.48.21-.55,0.55-0.28,1.31,2.35,6.77,8.22,10.57,17.61,10.57,10.84,0,19.62-4.7,19.62-15.33C173.28,68.86,168.17,64.16,159.33,62.92Z" transform="translate(2.85)"/><path class="cls-2" d="M212.25,81L192,81.18v-8h19.34c0.62,0,.69-0.14.69-1V63.78c0-.83-0.07-1-0.69-1H192V55l19.75,0.21c0.55,0,.76-0.35.76-1V45.82c0-.83-0.07-0.9-0.76-0.9H180.55c-0.69,0-.62.07-0.62,0.69V90.79c0,0.83.07,1,.76,1h31.57c0.69,0,.76-0.14.76-1V81.87C213,81,213,81,212.25,81Z" transform="translate(2.85)"/><path class="cls-2" d="M255.38,81l-20.24.21v-8h19.34c0.62,0,.69-0.14.69-1V63.78c0-.83-0.07-1-0.69-1H235.15V55l19.75,0.21c0.55,0,.76-0.35.76-1V45.82c0-.83-0.07-0.9-0.76-0.9H223.68c-0.69,0-.62.07-0.62,0.69V90.79c0,0.83.07,1,.76,1h31.57c0.69,0,.76-0.14.76-1V81.87C256.14,81,256.14,81,255.38,81Z" transform="translate(2.85)"/><path class="cls-2" d="M285,44.92h-19.2c-0.48,0-.55.14-0.55,0.69V91.13c0,0.69.07,0.62,0.55,0.62h17.61c13.68,0,22.79-8.43,22.79-23.42C306.24,53.14,298.3,44.92,285,44.92Zm-1.24,36.88h-6.35V54.73h6.49c6,0,9.39,5.87,9.39,13.4C293.32,76.21,290.7,81.81,283.79,81.81Z" transform="translate(2.85)"/><path class="cls-2" d="M358.79,44.92H328.47c-0.48,0-.55.07-0.55,0.9v45c0,1,.14,1,0.55,1h11.26c0.55,0,.62-0.21.62-1V75.52l16.3,0.14a0.76,0.76,0,0,0,1-.76,83.71,83.71,0,0,0,0-9.32,0.76,0.76,0,0,0-.9-0.83L340.35,65V55.56l18.44,0.14c0.55,0,.48-0.07.55-0.69a60.87,60.87,0,0,0,0-9.39C359.27,45.06,359.34,44.92,358.79,44.92Z" transform="translate(2.85)"/><path class="cls-2" d="M404.59,44.92H393.26c-0.41,0-.41.07-0.41,0.48V76.21c0,4.7-3.94,6.56-7.25,6.56s-7.25-1.93-7.25-6.56V45.47c0-.55,0-0.55-0.48-0.55h-11.6c-0.35,0-.35,0-0.35.41V74.07c0,11.4,6.35,18.86,19.55,18.86,13.75,0,19.48-7,19.48-18.17V45.4C404.94,44.92,404.94,44.92,404.59,44.92Z" transform="translate(2.85)"/><path class="cls-2" d="M475,44.92h-19.2c-0.48,0-.55.14-0.55,0.69V91.13c0,0.69.07,0.62,0.55,0.62h17.61c13.68,0,22.79-8.43,22.79-23.42C496.17,53.14,488.23,44.92,475,44.92Zm-1.24,36.88h-6.35V54.73h6.49c6,0,9.39,5.87,9.39,13.4C483.25,76.21,480.63,81.81,473.72,81.81Z" transform="translate(2.85)"/><path class="cls-2" d="M446.49,41.75c-5-4.22-7.55-6.16-11.69-9.11-0.45-.27-1-0.36-1,0.63s0,42.33,0,42.33c4.92,4.18,7.16,6.17,11.47,9.39,1,0.72,1.08.18,1.08-.9C446.59,68.07,446.49,41.75,446.49,41.75Z" transform="translate(2.85)"/><path class="cls-2" d="M425.81,91.75c0-12.29,0-23.58,0-23.58-5-4.22-7.55-6.16-11.69-9.11-0.45-.27-1-0.36-1,0.63,0,0.66,0,19.75,0,32.06h12.68Z" transform="translate(2.85)"/><line class="cls-3" x1="108.32" x2="108.32" y2="92.6"/><path class="cls-2" d="M13,52.81c1.73-.2,2.53-0.4,2.53-2.3V36.87c-1.61-2-2.07-2.07-2.44-2.07V34.08h6.07l10,12.28h0.06V37.65c0-1.73-.35-2.68-2.68-2.85V34.08h6.19V34.8c-2.07.26-2.24,0.92-2.24,2.3V54h-0.8L16.82,38.46H16.76V50c0,2.07.61,2.62,2.73,2.85v0.72H13V52.81Z" transform="translate(2.85)"/><path class="cls-2" d="M13,52.81c1.73-.2,2.53-0.4,2.53-2.3V36.87c-1.61-2-2.07-2.07-2.44-2.07V34.08h6.07l10,12.28h0.06V37.65c0-1.73-.35-2.68-2.68-2.85V34.08h6.19V34.8c-2.07.26-2.24,0.92-2.24,2.3V54h-0.8L16.82,38.46H16.76V50c0,2.07.61,2.62,2.73,2.85v0.72H13V52.81Z" transform="translate(2.85)"/><path class="cls-2" d="M46.38,39.87c-0.52-2-2.24-5.32-5.64-5.32a2.81,2.81,0,0,0-3.08,2.73c0,1.55.55,2.19,3,3.39l4.23,2.1A6,6,0,0,1,48,48.07c0,2.53-1.84,6-7.13,6-2.73,0-4-1-4.92-1a1,1,0,0,0-.86,1H34.27V47h0.83c0.58,2.9,2.24,6.16,5.9,6.16,3.45,0,3.6-2.85,3.6-3.22,0-1.93-1.35-2.62-3.22-3.51l-1.93-.92c-4.92-2.36-4.92-4.83-4.92-6.16,0-1.75.89-5.67,6.36-5.67,2.3,0,3.65.95,4.49,0.95a1,1,0,0,0,.95-1h0.86v6.24H46.38Z" transform="translate(2.85)"/><path class="cls-2" d="M46.38,39.87c-0.52-2-2.24-5.32-5.64-5.32a2.81,2.81,0,0,0-3.08,2.73c0,1.55.55,2.19,3,3.39l4.23,2.1A6,6,0,0,1,48,48.07c0,2.53-1.84,6-7.13,6-2.73,0-4-1-4.92-1a1,1,0,0,0-.86,1H34.27V47h0.83c0.58,2.9,2.24,6.16,5.9,6.16,3.45,0,3.6-2.85,3.6-3.22,0-1.93-1.35-2.62-3.22-3.51l-1.93-.92c-4.92-2.36-4.92-4.83-4.92-6.16,0-1.75.89-5.67,6.36-5.67,2.3,0,3.65.95,4.49,0.95a1,1,0,0,0,.95-1h0.86v6.24H46.38Z" transform="translate(2.85)"/><path class="cls-2" d="M49.72,34.08H66v5.78H65.34c-0.63-3-1.41-4.8-6.36-4.8-1.55,0-2.07.11-2.07,1.35v6.67c3.57,0.06,4-2,4.4-4.29H62v9.72H61.31c-0.32-2.36-.78-4.46-4.4-4.46v6.7c0,1.9,1.15,2,3.16,2v0.72H49.72V52.81c1.64-.17,2.53-0.26,2.53-2V36.84c0-1.9-1.18-2-2.53-2V34.08Z" transform="translate(2.85)"/><path class="cls-2" d="M49.72,34.08H66v5.78H65.34c-0.63-3-1.41-4.8-6.36-4.8-1.55,0-2.07.11-2.07,1.35v6.67c3.57,0.06,4-2,4.4-4.29H62v9.72H61.31c-0.32-2.36-.78-4.46-4.4-4.46v6.7c0,1.9,1.15,2,3.16,2v0.72H49.72V52.81c1.64-.17,2.53-0.26,2.53-2V36.84c0-1.9-1.18-2-2.53-2V34.08Z" transform="translate(2.85)"/><path class="cls-2" d="M39.49,14.11A29.74,29.74,0,1,0,69.23,43.85,29.74,29.74,0,0,0,39.49,14.11m0,58.88A29.14,29.14,0,1,1,68.63,43.85,29.14,29.14,0,0,1,39.49,73" transform="translate(2.85)"/><path class="cls-2" d="M39.49,14.11A29.74,29.74,0,1,0,69.23,43.85,29.74,29.74,0,0,0,39.49,14.11Zm0,58.88A29.14,29.14,0,1,1,68.63,43.85,29.14,29.14,0,0,1,39.49,73Z" transform="translate(2.85)"/><path class="cls-2" d="M75.28,39.19C75,38.48,74.76,37.77,74.54,37a31.7,31.7,0,0,1-.11-3.9c0.49-2.53,2.32-3.88,4.52-4.7-0.26-.64-0.57-1.41-0.79-1.94-2.37,1.15-5.22,1.36-7.37-.67q-0.68-.73-1.33-1.49a31,31,0,0,1-1.74-3.82c-0.52-2.53.66-4.47,2.38-6.07L68.61,13c-1.75,2-4.31,3.25-7.07,2.2C61,14.92,60.49,14.68,60,14.42a30.54,30.54,0,0,1-3.2-3c-1.45-2.14-1.1-4.38-.13-6.52l-1.93-.81C53.85,6.61,52,8.77,49,8.86c-0.9,0-1.8-.08-2.7-0.17a34.18,34.18,0,0,1-3.19-1.24C41,6,40.45,3.82,40.53,1.47h-2.1C38.59,4.09,37.69,6.8,35,8q-0.93.36-1.88,0.66a31.2,31.2,0,0,1-4.19.14c-2.53-.49-3.87-2.32-4.7-4.52l-1.94.79c1.15,2.37,1.35,5.22-.67,7.37q-0.81.77-1.67,1.49a31.47,31.47,0,0,1-3.72,1.68c-2.53.52-4.47-.66-6.07-2.38L8.66,14.73c2,1.75,3.25,4.31,2.2,7.07-0.26.58-.53,1.15-0.81,1.71a31.14,31.14,0,0,1-2.82,3C5.09,28,2.84,27.61.7,26.65,0.43,27.28.11,28-.11,28.58c2.49,0.87,4.65,2.74,4.74,5.69,0,0.78-.06,1.57-0.14,2.35a32.46,32.46,0,0,1-1.36,3.57c-1.42,2.15-3.63,2.69-6,2.61,0,0.69,0,1.52,0,2.09,2.63-.15,5.34.75,6.55,3.44q0.37,1,.68,1.93a31.12,31.12,0,0,1,.14,4.16C4,57,2.2,58.3,0,59.12c0.26,0.64.57,1.41,0.79,1.94,2.37-1.15,5.22-1.35,7.37.67q0.76,0.8,1.47,1.64a31.76,31.76,0,0,1,1.67,3.7c0.52,2.53-.66,4.47-2.38,6.07l1.48,1.49c1.75-2,4.31-3.25,7.07-2.2,0.62,0.28,1.22.56,1.82,0.87a31.47,31.47,0,0,1,3,2.8c1.45,2.14,1.1,4.38.13,6.52l1.93,0.81C25.2,81,27.08,78.8,30,78.71c0.75,0,1.51.06,2.26,0.13A31.76,31.76,0,0,1,36,80.26c2.15,1.42,2.69,3.63,2.61,6h2.1c-0.15-2.63.75-5.35,3.44-6.55,0.71-.27,1.43-0.52,2.16-0.75a32.35,32.35,0,0,1,3.88-.11c2.53,0.49,3.87,2.32,4.7,4.52l1.94-.79c-1.15-2.37-1.35-5.23.67-7.37q0.81-.77,1.67-1.49a32.36,32.36,0,0,1,3.53-1.58c2.53-.52,4.47.66,6.07,2.38L70.31,73c-2-1.75-3.25-4.31-2.2-7.07,0.34-.77.71-1.52,1.11-2.27a32.6,32.6,0,0,1,2.59-2.73c2.14-1.45,4.38-1.1,6.52-.13,0.27-.63.59-1.4,0.81-1.93-2.49-.86-4.65-2.74-4.74-5.68,0-.83.07-1.66,0.15-2.48a32.8,32.8,0,0,1,1.31-3.38c1.42-2.15,3.62-2.69,6-2.61,0-.69,0-1.52,0-2.1-2.63.15-5.35-.75-6.55-3.44m-1.85,1.23-0.36.46c-0.71.69-1.85,0.46-2.78,0.39l-1.82-.44q0.12,1.19.15,2.41l0,0a0.72,0.72,0,0,1,0,.8q0,1.27-.13,2.52c0.73-.18,1.48-0.34,2.22-0.47a2.48,2.48,0,0,1,2.21.46c0.64,1.08.41,2.83,0.29,4.07,0,0.08,0,.16,0,0.24a9.41,9.41,0,0,1-1,2.75l-0.5.29c-0.92.37-1.89-.28-2.71-0.71l-1.55-1.12q-0.34,1.16-.77,2.28l0,0.07a0.71,0.71,0,0,1-.37.74q-0.49,1.16-1.07,2.26c0.76,0.11,1.51.25,2.26,0.42a2.48,2.48,0,0,1,1.86,1.27c0.18,1.24-.7,2.77-1.3,3.88l-0.05.1a10.21,10.21,0,0,1-2.13,2.42l-0.58.07c-1,0-1.63-1-2.23-1.69l-1-1.65q-0.76.93-1.58,1.79l0,0.12a0.71,0.71,0,0,1-.69.54Q59,65.56,58,66.34c0.67,0.4,1.33.83,2,1.28a2.47,2.47,0,0,1,1.23,1.88c-0.29,1.13-1.51,2.13-2.45,2.9a10.8,10.8,0,0,1-3.07,1.54l-0.56-.15c-0.91-.39-1.13-1.53-1.42-2.42-0.1-.64-0.2-1.28-0.3-1.92q-1,.57-2.15,1.06l0,0.11a0.71,0.71,0,0,1-.83.24q-1.14.46-2.33,0.83c0.46,0.62.9,1.26,1.32,1.92a2.48,2.48,0,0,1,.42,2.21c-0.7.94-2.23,1.4-3.41,1.75a10.91,10.91,0,0,1-3.47.25l-0.46-.36c-0.69-.71-0.46-1.85-0.38-2.77,0.15-.63.3-1.25,0.45-1.88Q41.37,73,40.16,73l-0.06.09A0.71,0.71,0,0,1,39.25,73q-1.25,0-2.47-.12c0.19,0.75.35,1.51,0.48,2.27a2.48,2.48,0,0,1-.46,2.21c-1,.58-2.51.45-3.72,0.32a11.52,11.52,0,0,1-3.48-1.13L29.31,76c-0.37-.92.28-1.88,0.71-2.71l1.12-1.54Q30,71.43,28.86,71L28.79,71A0.72,0.72,0,0,1,28,70.66q-1.15-.49-2.25-1.08c-0.12.76-.26,1.52-0.42,2.28a2.47,2.47,0,0,1-1.27,1.86,5.91,5.91,0,0,1-3.26-1,12.25,12.25,0,0,1-2.94-2.49l-0.07-.58c0-1,1-1.64,1.69-2.24l1.6-1q-0.94-.76-1.81-1.6h0a0.72,0.72,0,0,1-.54-0.59q-0.88-.9-1.69-1.87-0.59,1-1.24,1.91a2.47,2.47,0,0,1-1.88,1.23,6.27,6.27,0,0,1-2.77-2.29A12,12,0,0,1,9.4,59.89l0.15-.56c0.39-.91,1.53-1.13,2.42-1.42l1.83-.29q-0.57-1.06-1.05-2.18h0a0.72,0.72,0,0,1-.27-0.73Q12,53.53,11.6,52.31,10.68,53,9.72,53.6A2.48,2.48,0,0,1,7.51,54a5.89,5.89,0,0,1-1.62-3,12.73,12.73,0,0,1-.34-4l0.36-.46c0.71-.69,1.85-0.46,2.77-0.38l1.81,0.43q-0.11-1.19-.13-2.41l0,0a0.72,0.72,0,0,1,0-.8q0-1.27.14-2.52c-0.74.18-1.49,0.34-2.24,0.47A2.48,2.48,0,0,1,6,40.95c-0.62-1.05-.43-2.74-0.3-4a10.41,10.41,0,0,1,1.06-3.14l0.51-.29c0.92-.37,1.88.28,2.71,0.71l1.57,1.14q0.35-1.15.78-2.25L12.3,33a0.71,0.71,0,0,1,.45-0.78q0.49-1.13,1.07-2.21c-0.78-.12-1.56-0.26-2.34-0.43a2.48,2.48,0,0,1-1.86-1.27,5.68,5.68,0,0,1,.89-3.13,12.37,12.37,0,0,1,2.51-3l0.58-.07c1,0,1.63,1,2.23,1.69l1,1.65q0.76-.93,1.58-1.8l0-.11a0.71,0.71,0,0,1,.67-0.54q0.88-.87,1.84-1.66-1-.6-2-1.27a2.48,2.48,0,0,1-1.23-1.88,6.32,6.32,0,0,1,2.32-2.79,12.07,12.07,0,0,1,3.41-1.75L24,13.85c0.91,0.39,1.13,1.53,1.42,2.42,0.1,0.63.2,1.26,0.3,1.89q1.05-.56,2.16-1l0-.1a0.71,0.71,0,0,1,.82-0.25q1.15-.46,2.35-0.82c-0.46-.63-0.91-1.27-1.33-1.93a2.49,2.49,0,0,1-.42-2.21,5.79,5.79,0,0,1,2.9-1.6,12.84,12.84,0,0,1,4-.35l0.46,0.36c0.69,0.71.46,1.85,0.38,2.78-0.15.62-.3,1.24-0.44,1.86q1.18-.12,2.39-0.13l0.05-.09a0.71,0.71,0,0,1,.86.09q1.25,0,2.47.14c-0.19-.76-0.35-1.52-0.49-2.29a2.48,2.48,0,0,1,.46-2.2c1.08-.64,2.83-0.41,4.08-0.29,0.27,0,.53.07,0.79,0.12a8.35,8.35,0,0,1,2.22.85l0.29,0.5c0.37,0.92-.28,1.89-0.71,2.71l-1.21,1.67q1.13,0.34,2.22.76l0.21-.15a0.73,0.73,0,0,1,.82.58q1.1,0.48,2.15,1c0.12-.82.27-1.63,0.45-2.43a2.48,2.48,0,0,1,1.27-1.86,5.27,5.27,0,0,1,2.89.77,13.94,13.94,0,0,1,3.27,2.72l0.07,0.58c0,1-1,1.63-1.69,2.23l-1.68,1q0.93,0.75,1.79,1.57l0.15,0a0.71,0.71,0,0,1,.54.72q0.86,0.87,1.64,1.81,0.61-1,1.29-2A2.48,2.48,0,0,1,65.1,22a5.77,5.77,0,0,1,2.58,2.06,13,13,0,0,1,1.86,3.57l-0.15.56c-0.39.91-1.53,1.13-2.42,1.42l-1.86.3q0.57,1.06,1.06,2.17h0.05a0.72,0.72,0,0,1,.27.75Q67,34,67.34,35.26c0.61-.45,1.24-0.88,1.88-1.29a2.47,2.47,0,0,1,2.21-.42c0.93,0.69,1.39,2.2,1.74,3.37a11,11,0,0,1,.26,3.5" transform="translate(2.85)"/></svg>
