<?xml version="1.0" encoding="utf-8"?>
<!-- Generator: Adobe Illustrator 22.1.0, SVG Export Plug-In . SVG Version: 6.00 Build 0)  -->
<svg version="1.1" id="Layer_1" xmlns="http://www.w3.org/2000/svg" xmlns:xlink="http://www.w3.org/1999/xlink" x="0px" y="0px"
	 viewBox="0 0 153.5 155.2" style="enable-background:new 0 0 153.5 155.2;" xml:space="preserve">
<style type="text/css">
	.st0{opacity:0.6;}
	.st1{fill:#FFFFFF;}
	.st2{fill:#FFFFFF;stroke:#939598;stroke-width:5.49;stroke-miterlimit:10;}
</style>
<title>Asset 1</title>
<g id="Layer_2_1_" class="st0">
	<g id="Layer_1-2">
		<g>
			<path class="st1" d="M69.5,122l-7.5,0l-6-2l-4.7-6.3l-6.4-1.6l-4-6l-1.5-6.1l-4.8-4.8l-2-8l3.1-7.6L34.4,77l0-7.9l4.9-6.5l0-4.3
				l2.1-4.2l2.8-2.7l0-4.3l2.4-4.6L50,41l4.9-7.9l7.8-3.8l7,0l8.5,4.2L78,117.8L69.5,122z M63,116.5l5.3,0l4.3-2.1l0.2-77.5
				l-4.3-2.1l-4.5,0l-5.2,2.5l-4.9,7.9l-3.2,1.5l-0.9,1.8l0,5.3L46,57.4l-1.1,2.2l0,4.8L40,70.9l0,4.8l1.8,3.7l-3.3,8.2l1.2,4.7
				l4.8,4.8l1.6,6.6l2.3,3.5l6.3,1.6l4.8,6.5L63,116.5z"/>
		</g>
		<g>
			
				<rect x="54.4" y="37.8" transform="matrix(0.7071 -0.7071 0.7071 0.7071 -13.1679 52.8197)" class="st1" width="5.5" height="9"/>
		</g>
		<g>
			<polygon class="st1" points="74.8,75.1 66.3,75.1 64.1,68.5 69.3,66.7 70.3,69.6 74.8,69.6 			"/>
		</g>
		<g>
			<polygon class="st1" points="50.1,70.5 45.2,68.1 47.6,63.3 42.3,56.7 46.6,53.3 54.1,62.6 			"/>
		</g>
		<g>
			
				<rect x="38.6" y="76.3" transform="matrix(0.2429 -0.9701 0.9701 0.2429 -45.9291 100.3246)" class="st1" width="5.5" height="6.5"/>
		</g>
		<g>
			
				<rect x="41.2" y="94.3" transform="matrix(0.9807 -0.1955 0.1955 0.9807 -18.0947 10.7216)" class="st1" width="8.1" height="5.5"/>
		</g>
		<g>
			<polygon class="st1" points="66.2,118.5 60.7,118.5 60.7,111.4 56.5,105.8 60.9,102.5 66.2,109.6 			"/>
		</g>
		<g>
			<polygon class="st1" points="74.8,100.7 63.5,100.7 56.4,88.2 61.1,85.5 66.7,95.2 74.8,95.2 			"/>
		</g>
		<g>
			<polygon class="st1" points="67.4,56.7 62.8,53.6 66.8,47.6 74.8,47.6 74.8,53.1 69.7,53.1 			"/>
		</g>
		<g>
			<path class="st2" d="M50.8,62.8L50.8,62.8z"/>
		</g>
		<g>
			<path class="st1" d="M84.6,122l-8.5-4.2l-0.3-84.3l8.5-4.2l7,0l7.8,3.8l4.9,7.9l3.4,1.6l2.4,4.6l0,4.3l2.8,2.7l2.2,4.2l0,4.4
				l4.9,6.5l0,7.9l-1.3,2.7l3.1,7.6l-2,8l-4.8,4.8l-1.5,6.1l-4,6l-6.4,1.6l-4.7,6.3l-6,2L84.6,122z M81.6,114.4l4.3,2.1l5.3,0
				l3.5-1.2l4.8-6.5l6.3-1.6l2.3-3.5l1.6-6.6l4.8-4.8l1.2-4.7l-3.3-8.2l1.8-3.7l0-4.8l-4.9-6.5l0-4.9l-1.1-2.2l-3.8-3.7l0-5.3
				l-0.9-1.8l-3.2-1.5l-4.9-7.9l-5.2-2.5l-4.5,0l-4.3,2.1L81.6,114.4z"/>
		</g>
		<g>
			<rect x="92.5" y="39.6" transform="matrix(0.707 -0.7072 0.7072 0.707 -1.5113 81.0019)" class="st1" width="9" height="5.5"/>
		</g>
		<g>
			<polygon class="st1" points="87.9,75.1 79.7,75.1 79.7,69.6 83.9,69.6 84.9,66.7 90.1,68.5 			"/>
		</g>
		<g>
			<polygon class="st1" points="104.1,70.5 100.1,62.6 107.6,53.3 111.8,56.7 106.6,63.3 109,68.1 			"/>
		</g>
		<g>
			<rect x="109.6" y="76.9" transform="matrix(0.97 -0.243 0.243 0.97 -15.9595 29.8114)" class="st1" width="6.5" height="5.5"/>
		</g>
		<g>
			
				<rect x="106.2" y="93" transform="matrix(0.1966 -0.9805 0.9805 0.1966 -7.6643 184.7559)" class="st1" width="5.5" height="8.1"/>
		</g>
		<g>
			<polygon class="st1" points="93.4,118.5 87.9,118.5 87.9,109.6 93.2,102.6 97.6,105.8 93.4,111.5 			"/>
		</g>
		<g>
			<polygon class="st1" points="90.7,100.7 79.7,100.7 79.7,95.2 87.5,95.2 93,85.5 97.8,88.2 			"/>
		</g>
		<g>
			<polygon class="st1" points="86.8,56.7 84.4,53.1 79.7,53.1 79.7,47.6 87.4,47.6 91.4,53.6 			"/>
		</g>
		<g>
			<path class="st2" d="M103.3,62.8L103.3,62.8z"/>
		</g>
		<g>
			<rect x="138.7" y="37.3" class="st1" width="14.8" height="3.6"/>
		</g>
		<g>
			<rect x="138.7" y="52" class="st1" width="14.8" height="3.6"/>
		</g>
		<g>
			<rect x="138.7" y="66.5" class="st1" width="14.8" height="3.6"/>
		</g>
		<g>
			<rect x="138.7" y="81.2" class="st1" width="14.8" height="3.6"/>
		</g>
		<g>
			<rect x="138.7" y="96" class="st1" width="14.8" height="3.6"/>
		</g>
		<g>
			<rect x="138.7" y="110.4" class="st1" width="14.8" height="3.6"/>
		</g>
		<g>
			<rect x="110.3" y="0" class="st1" width="3.6" height="14.8"/>
		</g>
		<g>
			<rect x="95.5" class="st1" width="3.6" height="14.8"/>
		</g>
		<g>
			<rect x="80.8" class="st1" width="3.6" height="14.8"/>
		</g>
		<g>
			<rect x="66.3" class="st1" width="3.6" height="14.8"/>
		</g>
		<g>
			<rect x="51.6" y="0" class="st1" width="3.6" height="14.8"/>
		</g>
		<g>
			<rect x="37.1" y="0" class="st1" width="3.6" height="14.8"/>
		</g>
		<g>
			<path class="st1" d="M140.1,141H13.4V14.2h126.8V141z M23.4,131h106.8V24.2H23.4V131z"/>
		</g>
		<g>
			<rect x="110.3" y="140.4" class="st1" width="3.6" height="14.8"/>
		</g>
		<g>
			<rect x="95.5" y="140.4" class="st1" width="3.6" height="14.8"/>
		</g>
		<g>
			<rect x="80.7" y="140.4" class="st1" width="3.6" height="14.8"/>
		</g>
		<g>
			<rect x="66.3" y="140.4" class="st1" width="3.6" height="14.8"/>
		</g>
		<g>
			<rect x="51.6" y="140.4" class="st1" width="3.6" height="14.8"/>
		</g>
		<g>
			<rect x="37.1" y="140.4" class="st1" width="3.6" height="14.8"/>
		</g>
		<g>
			<rect y="37.3" class="st1" width="14.8" height="3.6"/>
		</g>
		<g>
			<rect y="52" class="st1" width="14.8" height="3.6"/>
		</g>
		<g>
			<rect y="66.5" class="st1" width="14.8" height="3.6"/>
		</g>
		<g>
			<rect y="81.2" class="st1" width="14.8" height="3.6"/>
		</g>
		<g>
			<rect y="96" class="st1" width="14.8" height="3.6"/>
		</g>
		<g>
			<rect y="110.4" class="st1" width="14.8" height="3.6"/>
		</g>
	</g>
</g>
</svg>
