<svg id="Layer_1" data-name="Layer 1" xmlns="http://www.w3.org/2000/svg" viewBox="0 0 100 100"><defs><style>.cls-1{opacity:0.6;}.cls-2{fill:#fff;}</style></defs><title>bm-white</title><g class="cls-1"><polygon class="cls-2" points="73.33 22.93 67.78 17.38 62.23 23.23 67.78 28.79 73.33 22.93"/><polygon class="cls-2" points="82.17 7.3 76.63 1.75 71.08 7.62 76.63 13.16 82.17 7.3"/><path class="cls-2" d="M89.61,91.17V43.48H82.93v4.85h-8v-9.2h3.18V33H52.43v6.14h3.18v9.2H45.09V25.67h3.15V19.53H22.61v6.14h3.22V48.33h-8V44.71H11.19V91.17H5.4v7.08H94.61V91.17h-5Zm-21.73-52V69.71l-2.57,1.63-2.57-1.63V39.12h5.15v0ZM38,25.67V69.11l-2.57,1.63-2.57-1.63V25.67H38ZM17.86,55.41h7.92V73l9.65,6.1L45.08,73V55.41H55.61v18.2l9.65,6.1,9.65-6.1V55.41h8V91.17H17.86V55.41Z"/></g></svg>
