<?xml version="1.0" encoding="utf-8"?>
<!-- Generator: Adobe Illustrator 22.1.0, SVG Export Plug-In . SVG Version: 6.00 Build 0)  -->
<svg version="1.1" id="Layer_1" xmlns="http://www.w3.org/2000/svg" xmlns:xlink="http://www.w3.org/1999/xlink" x="0px" y="0px"
	 viewBox="0 0 150.7 158.7" style="enable-background:new 0 0 150.7 158.7;" xml:space="preserve">
<style type="text/css">
	.st0{opacity:0.6;}
	.st1{fill:#FFFFFF;}
</style>
<title>Asset 6</title>
<g id="Layer_2_1_" class="st0">
	<g id="Layer_1-2">
		<g>
			<path class="st1" d="M89.2,126H61.5l-11.3-63L61.5,0h27.7l11.3,63L89.2,126z M68.2,118h14.4l9.8-55L82.5,7.9H68.2l-9.8,55
				L68.2,118z"/>
		</g>
		<g>
			<polygon class="st1" points="78.7,57 72,57 68.6,62.9 72,68.9 78.7,68.9 82.1,62.9 			"/>
		</g>
		<g>
			<path class="st1" d="M119.5,109.9L61.2,83.6L15.5,38.9L31.2,16l58.4,26.3l45.7,44.9L119.5,109.9z M65.7,77.1l51,22.9l8.2-11.9
				L85,48.9L33.9,25.9l-8.1,11.9L65.7,77.1z"/>
		</g>
		<g>
			<path class="st1" d="M31.2,109.9L15.5,87.1l45.7-44.9l58.4-26.3l15.6,22.9L89.5,83.7L31.2,109.9z M25.8,88.1L34,100l51-22.9
				l39.9-39.2l-8.2-11.9l-51,22.9L25.8,88.1z"/>
		</g>
	</g>
</g>
</svg>
