<svg id="Layer_1" data-name="Layer 1" xmlns="http://www.w3.org/2000/svg" viewBox="0 0 100 100"><defs><style>.cls-1{fill:#fff;opacity:0.6;isolation:isolate;}</style></defs><title>sh-white</title><polygon class="cls-1" points="71.09 10.9 54.9 27.54 38.72 10.9 12.39 18.98 12.39 44.21 16.71 48.77 20.34 38.93 20.34 24.85 36.4 19.92 54.9 38.93 73.4 19.92 89.47 24.85 89.47 41.04 79.66 51.4 43.49 51.42 39.59 60.32 29.47 25.63 19.09 56.24 2.59 56.24 2.59 64.19 24.79 64.19 28.9 52.06 38.09 83.57 48.68 59.37 72.11 59.37 54.9 77.54 48.7 70.98 44.92 78.56 54.9 89.1 97.41 44.21 97.41 18.98 71.09 10.9"/></svg>
