<?xml version="1.0" encoding="utf-8"?>
<!-- Generator: Adobe Illustrator 19.2.1, SVG Export Plug-In . SVG Version: 6.00 Build 0)  -->
<svg version="1.1" id="Layer_1" xmlns="http://www.w3.org/2000/svg" xmlns:xlink="http://www.w3.org/1999/xlink" x="0px" y="0px"
	 viewBox="0 0 17.1 20" style="enable-background:new 0 0 17.1 20;" xml:space="preserve">
<style type="text/css">
	.st0{fill:#231F20;}
</style>
<title>file-acrobat</title>
<path class="st0" d="M14.6,7.2v9c0,0.4-0.3,0.8-0.7,0.8c0,0,0,0,0,0H3.3c-0.4,0-0.7-0.3-0.7-0.8c0,0,0,0,0,0V3.7
	C2.6,3.3,2.9,3,3.3,3c0,0,0,0,0,0h7c0.5,0,0.9,0.2,1.3,0.5L14,6C14.4,6.3,14.5,6.8,14.6,7.2z M13.6,8h-3.3C9.9,8,9.6,7.7,9.6,7.2V4
	h-6v12h10V8z M10.2,11.8c0.3,0,0.6-0.1,0.9-0.1c0.5-0.1,1,0.1,1.4,0.4c0.1,0.1,0.1,0.3,0,0.4l0,0l0,0c0,0.1-0.1,0.3-0.6,0.3
	c-0.7,0-1.3-0.2-1.9-0.6C9,12.4,8,12.6,7,12.9c-0.8,1.4-1.4,2-1.9,2c-0.1,0-0.2,0-0.2-0.1l-0.2-0.1c0,0,0,0,0,0
	c-0.1-0.1-0.1-0.2,0-0.3c0.3-0.7,0.8-1.2,1.5-1.5c0.1,0,0.1,0,0.2,0c0,0,0,0,0,0l0,0c0.2-0.4,0.5-0.9,0.8-1.5c0.3-0.6,0.6-1.3,0.8-2
	C7.6,8.8,7.6,8.1,7.7,7.3C7.7,7.1,7.9,7,8,7h0.1c0.1,0,0.2,0,0.3,0.1c0.1,0.2,0.1,0.4,0.1,0.5c0,0,0,0,0,0.1c0,0,0,0,0,0.1V8
	c0,0.5,0,1-0.1,1.5c0.2,0.7,0.6,1.4,1.2,1.9C9.8,11.5,10,11.7,10.2,11.8z M6.1,13.3c-0.4,0.3-0.8,0.7-1.1,1.2
	C5.5,14.3,5.9,13.8,6.1,13.3z M9.4,11.9l-0.2-0.2c-0.4-0.4-0.8-0.9-1-1.4c-0.2,0.5-0.4,1-0.7,1.5l-0.3,0.7
	C7.9,12.3,8.7,12.1,9.4,11.9L9.4,11.9z M8.2,8.4c0-0.1,0-0.2,0-0.3c0-0.1,0-0.2,0.1-0.3c0,0,0,0,0-0.1c0,0,0,0,0,0
	c0-0.1,0-0.2-0.1-0.3l0,0C8.1,7.7,8.1,8.1,8.2,8.4z M10.6,7h2.9c0-0.1-0.1-0.2-0.2-0.3l-2.5-2.5c-0.1-0.1-0.2-0.1-0.3-0.2L10.6,7
	L10.6,7z M11.2,12.3c0.3,0.1,0.6,0.2,1,0.2h0.1l0,0C11.9,12.3,11.5,12.2,11.2,12.3L11.2,12.3z"/>
</svg>
