<svg id="Layer_1" data-name="Layer 1" xmlns="http://www.w3.org/2000/svg" viewBox="0 0 12 14"><defs><style>.cls-1{fill:#fff;}</style></defs><title>file-word-inverse</title><path class="cls-1" d="M14.6,7.2v9a0.77,0.77,0,0,1-.7.8H3.3a0.71,0.71,0,0,1-.7-0.8h0V3.7A0.68,0.68,0,0,1,3.3,3h7a2.11,2.11,0,0,1,1.3.5L14,6A2,2,0,0,1,14.6,7.2Zm-1,.8H10.3a0.71,0.71,0,0,1-.7-0.8V4h-6V16h10V8ZM4.4,9.8H4.9L6.2,15H7.5l1-3.8a2.27,2.27,0,0,0,.1-0.4V10.6h0v0.2a0.76,0.76,0,0,0,.1.4l1,3.8h1.2l1.3-5.2h0.5V9H10.4V9.8h0.7l-0.8,3.4a0.76,0.76,0,0,1-.1.4v0.2h0V13.6a0.76,0.76,0,0,0-.1-0.4L9,9H8.1L7,13.3a0.6,0.6,0,0,1-.1.4v0.2h0V13.7a1.42,1.42,0,0,0-.2-0.4L6,9.8H6.7V9H4.4V9.8ZM10.6,7h2.9a0.53,0.53,0,0,0-.2-0.3L10.9,4.2c-0.1-.1-0.2-0.1-0.3-0.2V7h0Z" transform="translate(-2.6 -3)"/></svg>