<?xml version="1.0" encoding="UTF-8"?>
<svg width="214px" height="40px" viewBox="0 0 214 40" version="1.1" xmlns="http://www.w3.org/2000/svg" xmlns:xlink="http://www.w3.org/1999/xlink">
    <!-- Generator: Sketch 60 (88103) - https://sketch.com -->
    <title>univision</title>
    <desc>Created with Sketch.</desc>
    <defs>
        <polygon id="path-1" points="-1.98951966e-13 39.3842424 213.027879 39.3842424 213.027879 9.59232693e-14 -1.98951966e-13 9.59232693e-14"></polygon>
    </defs>
    <g id="Final" stroke="none" stroke-width="1" fill="none" fill-rule="evenodd">
        <g id="Homepage-" transform="translate(-1062.000000, -4057.000000)">
            <g id="univision" transform="translate(1062.000000, 4057.000000)">
                <path d="M65.8191515,1.00012121 L65.8191515,32.9625455 C65.8191515,37.868 61.9694545,39.2922424 58.4882424,39.2922424 C55.0603636,39.2922424 51.2082424,37.868 51.2082424,32.9625455 L51.2082424,1.00012121 L56.7997576,1.00012121 L56.7997576,32.4886061 C56.7997576,34.388 57.3803636,34.8098182 58.5403636,34.8098182 C59.6482424,34.8098182 60.2288485,34.388 60.2288485,32.4886061 L60.2288485,1.00012121 L65.8191515,1.00012121 Z" id="Fill-1" fill="#FFFBF5" opacity="0.4"></path>
                <path d="M80.6580606,1.00012121 L82.2410909,11.8122424 C83.5065455,18.7746667 84.402303,26.0013333 84.8774545,33.068 L85.0883636,33.068 L85.0883636,31.0643636 C85.141697,27.4255758 84.9307879,23.7334545 84.9307879,20.0934545 L84.9307879,1.00012121 L89.5198788,1.00012121 L89.5198788,38.5540606 L81.2386667,38.5540606 L78.6010909,19.7770909 C77.7041212,15.1358788 77.3877576,10.9164848 76.9126061,6.4849697 L76.701697,6.4849697 C76.701697,8.12133333 76.8071515,9.75648485 76.8604848,11.338303 L76.8604848,38.5540606 L72.2713939,38.5540606 L72.2713939,1.00012121 L80.6580606,1.00012121 Z" id="Fill-3" fill="#FFFBF5" opacity="0.4"></path>
                <mask id="mask-2" fill="white">
                    <use xlink:href="#path-1"></use>
                </mask>
                <g id="Clip-6" opacity="0.4"></g>
                <polygon id="Fill-5" fill="#FFFBF5" opacity="0.4" mask="url(#mask-2)" points="96.0848485 38.5539394 101.675152 38.5539394 101.675152 1 96.0848485 1"></polygon>
                <path d="M112.689333,1.00012121 L114.429939,16.6655758 C114.850545,20.357697 115.273576,27.6886061 115.694182,31.4328485 L115.800848,31.4328485 C116.117212,26.8970909 116.53903,22.4146667 116.907515,17.9310303 L118.596,1.00012121 L124.186303,1.00012121 L119.757212,38.5540606 L111.317212,38.5540606 L107.097818,1.00012121 L112.689333,1.00012121 Z" id="Fill-7" fill="#FFFBF5" opacity="0.4" mask="url(#mask-2)"></path>
                <polygon id="Fill-8" fill="#FFFBF5" opacity="0.4" mask="url(#mask-2)" points="130.043636 38.5539394 135.635152 38.5539394 135.635152 1 130.043636 1"></polygon>
                <path d="M147.557939,32.4881212 C147.557939,34.3875152 148.138545,34.8093333 149.298545,34.8093333 C150.406424,34.8093333 150.985818,34.3875152 150.985818,32.4881212 L150.985818,28.5317576 C150.985818,23.2578182 141.966424,18.0893333 141.966424,11.9705455 L141.966424,6.59115152 C141.966424,1.68569697 145.816121,0.261454545 149.245212,0.261454545 C152.726424,0.261454545 156.576121,1.68569697 156.576121,6.59115152 L156.576121,14.5026667 L150.985818,14.5026667 L150.985818,7.06630303 C150.985818,5.16690909 150.406424,4.74509091 149.298545,4.74509091 C148.138545,4.74509091 147.557939,5.16690909 147.557939,7.06630303 L147.557939,11.7075152 C147.557939,14.3972121 156.576121,22.5196364 156.576121,26.3172121 L156.576121,32.9632727 C156.576121,37.8675152 152.726424,39.2917576 149.245212,39.2917576 C145.816121,39.2917576 141.966424,37.8675152 141.966424,32.9632727 L141.966424,24.3135758 L147.557939,24.3135758 L147.557939,32.4881212 Z" id="Fill-9" fill="#FFFBF5" opacity="0.4" mask="url(#mask-2)"></path>
                <polygon id="Fill-10" fill="#FFFBF5" opacity="0.4" mask="url(#mask-2)" points="162.886061 38.5539394 168.476364 38.5539394 168.476364 1 162.886061 1"></polygon>
                <path d="M174.717091,32.9627879 L174.717091,6.59066667 C174.717091,1.68521212 178.568,0.260969697 181.995879,0.260969697 C185.478303,0.260969697 189.328,1.68521212 189.328,6.59066667 L189.328,32.9627879 C189.328,37.8682424 185.478303,39.2924848 181.995879,39.2924848 C178.568,39.2924848 174.717091,37.8682424 174.717091,32.9627879 L174.717091,32.9627879 Z M180.308606,32.4876364 C180.308606,34.3882424 180.889212,34.8088485 182.049212,34.8088485 C183.157091,34.8088485 183.736485,34.3882424 183.736485,32.4876364 L183.736485,7.06581818 C183.736485,5.16642424 183.157091,4.74460606 182.049212,4.74460606 C180.889212,4.74460606 180.308606,5.16642424 180.308606,7.06581818 L180.308606,32.4876364 Z" id="Fill-11" fill="#FFFBF5" opacity="0.4" mask="url(#mask-2)"></path>
                <path d="M204.166667,1.00012121 L205.749697,11.8122424 C207.015152,18.7746667 207.912121,26.0013333 208.386061,33.068 L208.59697,33.068 L208.59697,31.0643636 C208.650303,27.4255758 208.438182,23.7334545 208.438182,20.0934545 L208.438182,1.00012121 L213.028485,1.00012121 L213.028485,38.5540606 L204.747273,38.5540606 L202.109697,19.7770909 C201.212727,15.1358788 200.897576,10.9164848 200.421212,6.4849697 L200.210303,6.4849697 C200.210303,8.12133333 200.315758,9.75648485 200.369091,11.338303 L200.369091,38.5540606 L195.78,38.5540606 L195.78,1.00012121 L204.166667,1.00012121 Z" id="Fill-12" fill="#FFFBF5" opacity="0.4" mask="url(#mask-2)"></path>
                <path d="M0.0667878788,20.8947879 C0.572242424,30.8753939 8.57587879,38.8790303 18.5564848,39.3844848 L18.5564848,20.8972121 L0.0667878788,20.8947879 Z" id="Fill-13" fill="#FFFBF5" opacity="0.4" mask="url(#mask-2)"></path>
                <path d="M20.5621818,39.3843636 C30.5427879,38.8789091 38.5464242,30.8752727 39.0518788,20.8946667 L20.5646061,20.8946667 L20.5621818,39.3843636 Z" id="Fill-14" fill="#FFFBF5" opacity="0.4" mask="url(#mask-2)"></path>
                <polygon id="Fill-15" fill="#FFFBF5" opacity="0.4" mask="url(#mask-2)" points="20.5648485 18.8860606 39.1151515 18.8860606 39.1151515 6.57252031e-14 20.5648485 6.57252031e-14"></polygon>
                <path d="M18.4901818,18.8889697 C17.9847273,8.90836364 9.98109091,0.904727273 0.000484848485,0.399272727 L0.000484848485,18.8865455 L18.4901818,18.8889697 Z" id="Fill-16" fill="#FFFBF5" opacity="0.4" mask="url(#mask-2)"></path>
            </g>
        </g>
    </g>
</svg>