<?xml version="1.0" encoding="UTF-8"?>
<svg width="201px" height="40px" viewBox="0 0 201 40" version="1.1" xmlns="http://www.w3.org/2000/svg" xmlns:xlink="http://www.w3.org/1999/xlink">
    <!-- Generator: Sketch 60 (88103) - https://sketch.com -->
    <title>microsoft</title>
    <desc>Created with Sketch.</desc>
    <g id="Final" stroke="none" stroke-width="1" fill="none" fill-rule="evenodd" opacity="0.4">
        <g id="Homepage-" transform="translate(-248.000000, -4057.000000)" fill="#FFFBF5" fill-rule="nonzero">
            <g id="microsoft" transform="translate(248.000000, 4057.000000)">
                <path d="M201,18.3121361 L201,15.0285981 L196.617214,15.0285981 L196.617214,9.92394272 L196.469678,9.96620608 L192.353233,11.138021 L192.272089,11.1609588 L192.272089,15.0287787 L185.774881,15.0287787 L185.774881,12.8740698 C185.774881,11.8707665 186.015985,11.1029821 186.491206,10.5909452 C186.963127,10.0850492 187.638103,9.82785679 188.499053,9.82785679 C189.117927,9.82785679 189.758737,9.96349689 190.403624,10.2309842 L190.565331,10.2981721 L190.565331,6.84016232 L190.489234,6.8141541 C189.887637,6.6129516 189.069395,6.51162791 188.055086,6.51162791 C186.776766,6.51162791 185.615309,6.77044584 184.602359,7.28338576 C183.588826,7.79704814 182.79155,8.53033551 182.233049,9.46265801 C181.676489,10.3938968 181.394036,11.4694452 181.394036,12.6596825 L181.394036,15.0285981 L178.342373,15.0285981 L178.342373,18.3121361 L181.394036,18.3121361 L181.394036,32.1450784 L185.774881,32.1450784 L185.774881,18.3121361 L192.272089,18.3121361 L192.272089,27.1027344 C192.272089,30.723115 194.107551,32.5577783 197.727421,32.5577783 C198.322224,32.5577783 198.948281,32.4929384 199.587538,32.3659677 C200.238249,32.2355653 200.681439,32.1053436 200.942345,31.9662719 L201,31.9344841 L201,28.6206031 L200.821792,28.730235 C200.583988,28.8776149 200.287945,28.9980836 199.940848,29.0876674 C199.592197,29.1788768 199.301008,29.2245718 199.075433,29.2245718 C198.22749,29.2245718 197.600075,29.0119907 197.210852,28.5924276 C196.817164,28.1690715 196.617408,27.4287402 196.617408,26.3931073 L196.617408,18.3121361 L201,18.3121361 Z M168.559192,29.2251137 C166.969104,29.2251137 165.715438,28.7345697 164.83197,27.768292 C163.943066,26.7971378 163.492693,25.4125612 163.492693,23.653394 C163.492693,21.8384175 163.943066,20.417899 164.832358,19.4295865 C165.716408,18.4477762 166.958039,17.9494659 168.523473,17.9494659 C170.04251,17.9494659 171.251721,18.4253802 172.117912,19.3647466 C172.988374,20.3089895 173.430205,21.7181294 173.430205,23.5542377 C173.430205,25.4129224 173.014775,26.8406655 172.195563,27.7957452 C171.38198,28.7436003 170.158597,29.2251137 168.559192,29.2251137 M168.7539,14.6162594 C165.720291,14.6162594 163.310797,15.4432847 161.592781,17.0743976 C159.875929,18.705691 159.005468,20.9631686 159.005468,23.7846994 C159.005468,26.4646299 159.855158,28.6202419 161.531243,30.1906689 C163.207328,31.7616377 165.48831,32.5574171 168.310322,32.5574171 C171.250945,32.5574171 173.612489,31.7188325 175.329729,30.0651431 C177.046775,28.4132598 177.916654,26.1770946 177.916654,23.4214874 C177.916654,20.6996547 177.100354,18.5279682 175.489689,16.9680167 C173.878248,15.4073428 171.611631,14.6162594 168.7539,14.6162594 M151.942188,14.6162594 C149.878627,14.6162594 148.171676,15.1073452 146.86773,16.0756096 C145.555826,17.0496536 144.890362,18.3271269 144.890362,19.8729906 C144.890362,20.6765363 145.034015,21.3903175 145.316663,21.9957311 C145.601057,22.6031314 146.041141,23.1379255 146.625849,23.5867479 C147.206092,24.0319581 148.10179,24.4983 149.288678,24.9727694 C150.286486,25.3547652 151.030572,25.6778812 151.503269,25.932545 C151.965289,26.1821517 152.293168,26.4330227 152.478364,26.6773916 C152.658319,26.9165228 152.749559,27.2437929 152.749559,27.6476428 C152.749559,28.7976035 151.823965,29.3571415 149.919393,29.3571415 C149.212968,29.3571415 148.407151,29.2198759 147.524459,28.9493182 C146.648038,28.682851 145.820849,28.2926261 145.07187,27.7923135 L144.889973,27.6709418 L144.889973,31.5951129 L144.956753,31.6240109 C145.576597,31.890234 146.358149,32.1147355 147.279278,32.2913746 C148.198659,32.4681944 149.033984,32.5581395 149.759628,32.5581395 C151.998873,32.5581395 153.80211,32.0647058 155.117897,31.0906617 C156.442032,30.1099351 157.113126,28.8022995 157.113126,27.2029744 C157.113126,26.0492208 156.751857,25.0598247 156.039803,24.261878 C155.332601,23.4704334 154.105141,22.7438287 152.393143,22.1015701 C151.029213,21.5922424 150.155451,21.1694282 149.794959,20.8448673 C149.447473,20.5313237 149.271012,20.0879197 149.271012,19.5263949 C149.271012,19.0286265 149.488822,18.6298337 149.935894,18.3068983 C150.386461,17.9823374 151.013683,17.8172574 151.800282,17.8172574 C152.530196,17.8172574 153.276999,17.9245413 154.019726,18.1347745 C154.76187,18.3450076 155.413746,18.6265827 155.957881,18.971011 L156.136866,19.084797 L156.136866,15.3623703 L156.068145,15.3349171 C155.566135,15.1346177 154.904165,14.9632163 154.100094,14.8241446 C153.299712,14.6859759 152.57368,14.6162594 151.942188,14.6162594 M133.469726,29.2251137 C131.880027,29.2251137 130.625972,28.7345697 129.742699,27.768292 C128.853601,26.7971378 128.404005,25.4129224 128.404005,23.653394 C128.404005,21.8384175 128.854183,20.417899 129.743669,19.4295865 C130.626943,18.4477762 131.86838,17.9494659 133.43459,17.9494659 C134.953044,17.9494659 136.162256,18.4253802 137.028641,19.3647466 C137.899297,20.3089895 138.340934,21.7181294 138.340934,23.5542377 C138.340934,25.4129224 137.92531,26.8406655 137.106097,27.7957452 C136.292515,28.7436003 135.069714,29.2251137 133.469726,29.2251137 M133.665017,14.6162594 C130.630631,14.6162594 128.220944,15.4432847 126.503898,17.0743976 C124.787046,18.705691 123.916002,20.9631686 123.916002,23.7846994 C123.916002,26.4657136 124.766275,28.6202419 126.44236,30.1906689 C128.118445,31.7616377 130.399233,32.5574171 133.221245,32.5574171 C136.161479,32.5574171 138.523606,31.7188325 140.240846,30.0651431 C141.957504,28.4132598 142.827771,26.1770946 142.827771,23.4214874 C142.827771,20.6996547 142.011277,18.5279682 140.400224,16.9680167 C138.788394,15.4073428 136.522166,14.6162594 133.665017,14.6162594 M117.266017,17.9928129 L117.266017,15.0285981 L112.938557,15.0285981 L112.938557,32.1447172 L117.266017,32.1447172 L117.266017,23.3891577 C117.266017,21.9003676 117.628839,20.6772587 118.344776,19.753425 C119.051589,18.8406087 119.993489,18.3780597 121.143493,18.3780597 C121.533298,18.3780597 121.970858,18.4378425 122.44472,18.5561438 C122.913729,18.6737226 123.25345,18.8014157 123.453788,18.9357916 L123.635684,19.0584275 L123.635684,14.9993388 L123.565605,14.9713439 C123.162599,14.8120435 122.59245,14.7316709 121.871077,14.7316709 C120.783583,14.7316709 119.810428,15.0567737 118.976851,15.6968649 C118.245189,16.2594733 117.71639,17.0308699 117.312025,17.9928129 L117.266017,17.9928129 Z M105.188847,14.6162594 C103.203519,14.6162594 101.4327,15.0123429 99.9264757,15.7931314 C98.417145,16.575726 97.2498644,17.6929959 96.4556944,19.113695 C95.6650186,20.5309625 95.2635657,22.1864581 95.2635657,24.0326806 C95.2635657,25.6498862 95.6527887,27.1339804 96.4221106,28.4419772 C97.1918207,29.7521414 98.2812567,30.7771182 99.6603288,31.4880096 C101.03746,32.1979979 102.6291,32.5579589 104.391377,32.5579589 C106.447949,32.5579589 108.20382,32.1754213 109.611623,31.4210023 L109.668502,31.3906594 L109.668502,27.7020072 L109.486606,27.8255462 C108.848902,28.2577523 108.136265,28.6027225 107.369466,28.8512455 C106.604609,29.0995879 105.907308,29.2251137 105.295811,29.2251137 C103.597789,29.2251137 102.234636,28.7307768 101.245175,27.756191 C100.253578,26.7803408 99.7507916,25.4100326 99.7507916,23.6857237 C99.7507916,21.9505779 100.275126,20.5450503 101.30846,19.5079724 C102.338687,18.473965 103.704365,17.9494659 105.367249,17.9494659 C106.789611,17.9494659 108.175672,18.3975659 109.486994,19.2825678 L109.668502,19.4052038 L109.668502,15.5186002 L109.609876,15.487896 C109.116407,15.2308842 108.443372,15.0186644 107.607853,14.8577385 C106.775828,14.6971739 105.962052,14.6162594 105.188847,14.6162594 M92.283147,15.0287787 L87.955687,15.0287787 L87.955687,32.1447172 L92.283147,32.1447172 L92.283147,15.0287787 Z M90.1636778,7.73726536 C89.451429,7.73726536 88.8302253,7.96285056 88.3198677,8.40986687 C87.8073747,8.85814747 87.5474397,9.422562 87.5474397,10.0886615 C87.5474397,10.7442854 87.8042686,11.298405 88.3119085,11.7347652 C88.8162482,12.169861 89.4393931,12.3903891 90.1638719,12.3903891 C90.8881566,12.3903891 91.513631,12.169861 92.0239886,11.7354876 C92.5376464,11.298405 92.7981637,10.744466 92.7981637,10.0886615 C92.7981637,9.44586104 92.544635,8.88722611 92.0451484,8.42792813 C91.5460501,7.96953323 90.9128106,7.73726536 90.1636778,7.73726536 M79.3663816,13.765935 L79.3663816,32.1447172 L83.7827514,32.1447172 L83.7827514,8.26122266 L77.6703015,8.26122266 L69.900985,26.0011779 L62.3613196,8.26122266 L56,8.26122266 L56,32.1447172 L60.1502228,32.1447172 L60.1502228,13.7641289 L60.2927114,13.7641289 L68.254407,32.1447172 L71.3864382,32.1447172 L79.223893,13.765935 L79.3663816,13.765935 L79.3663816,13.765935 Z" id="Shape"></path>
                <polygon id="Path" points="20 18.6046512 0 18.6046512 0 0 20 0"></polygon>
                <polygon id="Path" points="43 18.6046512 23 18.6046512 23 0 43 0"></polygon>
                <polygon id="Path" points="20 40 0 40 0 21.3953488 20 21.3953488"></polygon>
                <polygon id="Path" points="43 40 23 40 23 21.3953488 43 21.3953488"></polygon>
            </g>
        </g>
    </g>
</svg>