<?xml version="1.0" encoding="UTF-8"?>
<svg width="102px" height="17px" viewBox="0 0 102 17" version="1.1" xmlns="http://www.w3.org/2000/svg" xmlns:xlink="http://www.w3.org/1999/xlink">
    <!-- Generator: Sketch 59.1 (86144) - https://sketch.com -->
    <title>Logo</title>
    <desc>Created with Sketch.</desc>
    <g id="Final" stroke="none" stroke-width="1" fill="none" fill-rule="evenodd">
        <g id="Nav---Dark" transform="translate(-41.000000, -47.000000)" fill="#000000" fill-rule="nonzero">
            <g id="Group">
                <g>
                    <g id="NAV" transform="translate(41.000000, 37.000000)">
                        <g id="Logo" transform="translate(0.000000, 10.000000)">
                            <path d="M4.04178665,17 L0.0183575119,17 C-0.0489990027,17 0.0857140266,16.3295692 0.153070541,16.3087114 C0.496882581,16.1735781 0.849427038,16.0615875 1.2083226,15.973496 C3.9699397,11.168742 7.38266978,5.17956035 10.3014521,0.058959007 C10.3463564,-0.00808407137 11.9479447,-0.0304317642 11.9629128,0.058959007 C12.2996953,2.60957568 13.4716987,11.5710005 14.0704233,16.0852344 C14.3816308,16.1406442 14.6890715,16.2152808 14.9909623,16.3087114 C15.0358667,16.3087114 14.9011536,17 14.8562493,17 L8.5501827,17 C8.50527836,17 8.66244356,16.3087114 8.7073479,16.3087114 L10.2789999,16.0852344 C10.2116434,15.0125452 10.0993825,14.0292467 9.94221734,12.4872559 L9.85240865,11.7423328 C9.15639133,11.7423328 8.37056533,11.7199851 7.65209584,11.7199851 L4.86802657,11.7199851 L2.53300073,15.9660467 L4.1914678,16.3087114 C4.21691359,16.3087114 4.08220056,17 4.04178665,17 Z M9.69973388,10.6770928 L8.93636005,4.75495419 L8.77470442,4.75495419 L5.48171926,10.6547451 C5.9981192,10.6770928 6.52948726,10.6770928 7.39015384,10.6770928 L9.69973388,10.6770928 Z" id="Shape"></path>
                            <path d="M25.9918312,5.51069866 C26.0783406,5.55325689 25.4511477,7.34070221 25.3646384,7.34070221 L25.148365,7.34070221 C24.5211721,6.63139851 23.8507245,5.93628088 22.9856309,5.93628088 C21.277071,5.93628088 19.3738651,8.23442487 19.3738651,11.9369902 C19.3738651,13.9372266 20.195704,14.958624 21.6014812,14.958624 C23.1370223,14.958624 24.066998,14.2138551 24.9320916,13.426528 C25.0402283,13.3414115 24.9969736,13.9372266 24.8888369,14.1074595 C24.3481534,15.0862986 22.6395935,17 19.9794306,17 C17.5571685,17 16,15.2352524 16,12.66048 C16,8.23442487 19.5901385,5 23.1370223,5 C24.4130354,5 25.278129,5.191512 25.9918312,5.51069866 Z" id="Path"></path>
                            <path d="M34.9918254,5.51069866 C35.0783971,5.55325689 34.4507518,7.34070221 34.36418,7.34070221 L34.1477506,7.34070221 C33.5201052,6.63139851 32.849174,5.93628088 31.9834563,5.93628088 C30.2736638,5.93628088 28.3690848,8.23442487 28.3690848,11.9369902 C28.3690848,13.9372266 29.1915166,14.958624 30.5983079,14.958624 C32.1349569,14.958624 33.0656034,14.2138551 33.9313211,13.426528 C34.0395359,13.3414115 33.99625,13.9372266 33.8880353,14.1074595 C33.3469617,15.0862986 31.6371692,17 28.9823015,17 C26.5582919,17 25,15.2352524 25,12.66048 C25,8.23442487 28.5927285,5 32.1421712,5 C33.4118905,5 34.2776082,5.191512 34.9918254,5.51069866 Z" id="Path"></path>
                            <path d="M38.9830508,17 C36.7372881,17 35,15.4906017 35,12.8732711 C35,8.36209954 38.6440678,5 41.8644068,5 C43.9618644,5 45,5.78732711 45,7.17046932 C45,8.73093746 43.4957627,9.61756709 41.8220339,10.2133822 C40.8050847,10.5751271 39.809322,10.8304764 38.220339,11.1071049 C38.1991525,11.3624542 38.1991525,11.5965244 38.1991525,11.8518737 C38.1991525,13.7882728 39.0254237,14.8522284 40.6355932,14.8522284 C41.9491525,14.8522284 43.0720339,14.1074595 44.0042373,13.3201324 C44.1101695,13.2562951 44.1454802,13.7882728 44.0466102,13.9797848 C43.3474576,15.1714151 41.6525424,17 38.9830508,17 Z M38.3050847,10.3807779 C39.0956662,10.2479707 39.8708126,10.0350375 40.6186441,9.74524175 C41.5932203,9.36221776 42.3347458,8.80896087 42.3347458,7.27686488 C42.3347458,6.2838397 42.059322,5.82988533 41.4237288,5.82988533 C40.2966102,5.82988533 38.7288136,7.55349332 38.3050847,10.3807779 Z" id="Shape"></path>
                            <path d="M48.2659588,15.067329 C48.137882,15.5615999 48.3299972,15.7335202 48.7355738,15.7335202 C49.1800587,15.7077815 49.6119362,15.575134 49.9949958,15.3466995 C50.0376881,15.3252095 50.1230726,15.8194804 49.8882651,16.0343808 C49.2905733,16.5272191 48.3086511,17 46.87846,17 C45.5336534,17 45,16.3123187 45,15.3466995 C45,14.8094485 45.0640384,14.4226277 45.2561536,13.6919664 L47.5615363,4.36528854 C47.8176899,3.33376658 47.988459,2.5601251 48.1805743,1.61456329 C47.9671129,1.55009317 47.4121134,1.42115292 47.1132675,1.3566828 C47.0919213,1.3566828 47.1773059,0.840921816 47.2626904,0.819431775 C48.7996122,0.561551282 50.5286492,0.246364014 51.8521096,0.00281021574 C51.9374942,-0.0186798253 52.0228787,0.0887703799 51.9944172,0.131750462 C51.8521096,0.669001488 51.5248022,1.8294637 51.2686486,2.9254558 L48.2659588,15.067329 Z" id="Path"></path>
                            <path d="M55.9830508,17 C53.7372881,17 52,15.4906017 52,12.8732711 C52,8.36209954 55.6440678,5 58.8644068,5 C60.9618644,5 62,5.78732711 62,7.17046932 C62,8.73093746 60.4957627,9.61756709 58.8220339,10.2133822 C57.8050847,10.5751271 56.809322,10.8304764 55.220339,11.1071049 C55.1991525,11.3624542 55.1991525,11.5965244 55.1991525,11.8518737 C55.1991525,13.7882728 56.0254237,14.8522284 57.6355932,14.8522284 C58.9491525,14.8522284 60.0720339,14.1074595 61.0042373,13.3201324 C61.1101695,13.2562951 61.1525424,13.7882728 61.0466102,13.9797848 C60.3474576,15.1714151 58.6525424,17 55.9830508,17 Z M55.3050847,10.3807779 C56.0943283,10.2467724 56.868044,10.0328917 57.6144068,9.74240454 C58.5889831,9.35938054 59.3305085,8.80612366 59.3305085,7.27402766 C59.3305085,6.28100248 59.0550847,5.82704811 58.4194915,5.82704811 C57.2966102,5.82988533 55.7288136,7.55349332 55.3050847,10.3807779 Z" id="Shape"></path>
                            <path d="M62.9816954,6.44682211 C62.5724535,6.44682211 62.0555164,6.66258611 61.6462745,6.96465571 C61.6031964,6.98623211 61.5385793,6.48997491 61.7539697,6.27421091 C62.335524,5.6269189 63.4770935,5.0012033 64.8340534,5.0012033 C66.1910134,5.0012033 66.5787162,5.6700717 66.5787162,6.70573891 C66.5370482,7.27268099 66.4506218,7.83542682 66.3202476,8.38869812 L66.4064038,8.38869812 C67.3541219,6.59785691 68.6680037,5.0012033 70.0680418,5.0012033 C70.3856202,4.99065526 70.7016787,5.04955882 70.9942208,5.1738145 C71.080377,5.2169673 70.175737,8.28081612 70.1111199,8.28081612 L69.9818856,8.28081612 C69.6659375,8.12818248 69.3203013,8.0471486 68.9695504,8.04347572 C67.9136127,8.05213641 66.9173555,8.53528782 66.2556305,9.35963613 L64.3601944,16.9113762 C64.3386553,17.0393962 60.9785641,17.0192582 61.0001031,16.9113762 L63.3952451,7.30987811 C63.5632497,6.70573891 63.4340154,6.44682211 62.9816954,6.44682211 Z" id="Path"></path>
                            <path d="M77.9625425,14.1393056 C77.3091,15.4341143 76.0097258,17 74.1770825,17 C72.44208,17 71,15.8202854 71,13.185236 C71,8.30130818 74.920655,4.18972247 78.6835825,4.18972247 C79.967935,4.18972247 80.8917675,4.50774568 81.5226775,4.98478048 L81.6128075,4.98478048 L82.4450078,4.00799493 C82.5126053,3.96256304 84.0222828,4.12157464 83.9997503,4.21243842 C83.8420228,4.75762105 83.5040353,6.02971387 83.3012428,6.82477188 L81.2282528,14.9570795 C81.1155903,15.4568303 81.2282528,15.6612738 81.6789028,15.6612738 C82.1623837,15.6346698 82.6330305,15.4946597 83.0533853,15.2523868 C83.0984503,15.2296708 83.1660478,15.7294216 82.9407228,15.979297 C82.4675403,16.4775333 81.410015,17 79.967935,17 C78.66105,17 77.9174775,16.342752 77.9174775,15.3432505 C77.9269494,14.9353419 77.9772772,14.5294417 78.0676941,14.1317336 L77.9625425,14.1393056 Z M78.1878675,12.9807925 L79.9273765,5.93885009 C79.6569865,5.59811095 79.1612715,5.18922397 78.688089,5.18922397 C76.705229,5.18922397 74.542109,9.39167345 74.542109,12.6627693 C74.542109,14.4118969 75.0152915,14.9570795 75.803929,14.9570795 C76.7908525,14.9570795 77.7372175,13.8894302 78.1878675,12.9807925 L78.1878675,12.9807925 Z" id="Shape"></path>
                            <path d="M84,14.5378533 C84.0073803,14.0730051 84.0773095,13.6109264 84.2081072,13.1627214 L85.9870379,6.28415134 L84.5087064,6.28415134 C84.4624603,6.28415134 84.5549524,5.80394654 84.6474445,5.73846406 C86.9597462,4.55977954 88.1606016,3.6866799 89.8023358,2.04961807 C89.9641969,1.91865312 90.6578874,2.07144556 90.6347644,2.22423799 L89.8948279,4.95267438 L92.9778968,4.95267438 C93.0935119,4.95267438 92.7235436,6.28415134 92.6079285,6.28415134 L89.5556903,6.28415134 L87.6596029,13.4653959 C87.5988279,13.6938112 87.5677682,13.9283667 87.5671108,14.1638756 C87.5671108,14.8405279 87.9833251,15.2552502 88.7695077,15.2552502 C89.7175514,15.2552502 90.6655951,14.8623554 91.1511785,14.6004255 C91.2205475,14.578598 91.1511785,15.0806303 91.0818094,15.1679402 C90.2725038,16.1283498 88.6770156,17 86.8271742,17 C84.8093056,17.0029046 84,15.8882474 84,14.5378533 Z" id="Path"></path>
                            <path d="M95.9822009,17 C93.7375335,17 92,15.4906017 92,12.8732711 C92,8.36209954 95.6445826,5 98.8639638,5 C100.961718,5 102,5.78732711 102,7.17046932 C102,8.73093746 100.49555,9.61756709 98.821585,10.2133822 C97.8044922,10.5751271 96.8085888,10.8304764 95.2207939,11.1071049 C95.1996045,11.3624542 95.1996045,11.5965244 95.1996045,11.8518737 C95.1996045,13.7882728 96.0245797,14.8522284 97.6349767,14.8522284 C98.9487216,14.8522284 100.071762,14.1074595 101.004097,13.3201324 C101.110044,13.2562951 101.14536,13.7882728 101.046475,13.9797848 C100.347224,15.1714151 98.6520695,17 95.9822009,17 Z M95.3055516,10.3807779 C96.0943998,10.2465562 96.8677348,10.0326801 97.6137873,9.74240454 C98.5885012,9.35938054 99.3301314,8.80612366 99.3301314,7.27402766 C99.3301314,6.28100248 99.0476056,5.82704811 98.4189857,5.82704811 C97.3015963,5.82988533 95.7293403,7.55349332 95.3055516,10.3807779 Z" id="Shape"></path>
                        </g>
                    </g>
                </g>
            </g>
        </g>
    </g>
</svg>