<?xml version="1.0" encoding="utf-8"?>
<!-- Generator: Adobe Illustrator 19.2.1, SVG Export Plug-In . SVG Version: 6.00 Build 0)  -->
<svg version="1.1" id="Layer_1" xmlns="http://www.w3.org/2000/svg" xmlns:xlink="http://www.w3.org/1999/xlink" x="0px" y="0px"
	 viewBox="0 0 64.4 35.6" style="enable-background:new 0 0 64.4 35.6;" xml:space="preserve">
<style type="text/css">
	.st0{opacity:0.5;fill:#AEB0B5;}
</style>
<title>map-us</title>
<path class="st0" d="M64.3,3.2c-0.1,0-0.2,0.1-0.3,0c0-0.1,0-0.2,0-0.3c-0.1,0-0.2,0-0.3,0c-0.1-0.5-0.3-0.9-0.4-1.4
	c-0.1,0-0.3-0.1-0.4-0.1c-0.1,0.1-0.2,0.2-0.4,0.3c-0.1,0-0.1-0.2-0.2-0.1c-0.3,0.5-0.4,1.1-0.3,1.7c-0.2,0.2-0.2,0.5-0.2,0.7
	c-0.1,0-0.2,0-0.3,0c0,0.1-0.1,0.3-0.2,0.4c-0.5,0.1-1,0.3-1.5,0.4c-0.2,0-0.5,0.1-0.7,0.1c-0.2,0.2-0.4,0.5-0.5,0.7
	c-0.1,0.2-0.3,0.2-0.3,0.4c0.2,0.1,0.2,0.3,0.2,0.5c-0.4,0.6-1.3,0.3-2,0.7c0,0.2,0.1,0.3,0.2,0.5c-0.6,0.8-1.5,1.4-2.4,1.8
	c-0.2-0.2-0.6-0.1-0.7-0.3c0.2-0.2,0.2-0.9,0.6-0.8c0-0.5-0.1-1-0.5-1.4c-0.3,0-0.3,0.4-0.5,0.5c-0.2,0.1-0.1-0.2-0.1-0.3
	c0.5-0.1,0.2-1,0.3-1.2c-0.1,0-0.1-0.1-0.1-0.2c-0.5,0-0.9-0.6-1.2,0c0,0.2,0.2,0.1,0.1,0.2c-0.1,0-0.2,0-0.3,0.1
	c0,0.3,0.1,0.5-0.1,0.5c-0.1-0.2,0.2-0.4,0-0.5c-0.4,0.5-0.6,1.1-0.5,1.8c0.5,0.5,0.4,1.8-0.3,2c-1-0.9-0.4-2.7-0.2-3.7
	c-0.1,0.3-0.4,0.5-0.6,0.7c0.2-0.4,0.4-0.8,0.6-1.3c0.4,0.1,0.6-0.2,1.1-0.3c0.4,0,0.7,0,1.1,0c-0.2,0-0.3-0.2-0.2-0.5
	c-0.2,0.1-0.4,0.1-0.7,0.1V4.2c-0.7,0.1-1,0.5-1.6,0.4c-0.1-0.3-0.3-0.4-0.6-0.4c0,0-0.1,0-0.1,0.1c0.1-0.2,0.3-0.5,0.5-0.7
	c-0.4,0-0.7,0.2-0.8,0.6c-0.3,0.2-0.7,0.3-1,0.5c-0.1-0.2-0.3,0-0.3-0.1c0.1-0.1,0.1-0.2,0.1-0.3c-0.2-0.1-0.5,0.4-0.9,0.2
	c0.3-0.3,0.6-0.5,0.8-0.8c0.3-0.1,0.6-0.3,0.8-0.5c-0.3,0-0.6-0.1-0.9-0.2c-0.2,0.2-0.5,0.2-0.7,0.1C47.1,3.1,47,3,47,3
	c-0.4,0.1-0.7-0.4-1.1-0.1c-0.2-0.1-0.4-0.2-0.6-0.2c-0.2-0.1,0-0.7-0.4-0.7c-0.1,0.1,0,0.3-0.1,0.4c-6.1,0-12.1-0.8-18-2.4
	C27,0.3,27,0.7,27,1c-0.1-0.1-0.2-0.3-0.1-0.5c-0.1,0-0.2,0.1-0.3,0.2c-0.4-0.1-0.8-0.3-1.1-0.5c-0.1,0.5,0,1,0.1,1.5
	c-0.1,0-0.1,0-0.2,0c0,0.1,0,0.2,0.1,0.3c-0.2,0.2-0.3,0.4,0,0.5c-0.2,0-0.1,0.1-0.2,0.1c-0.3,1-0.7,2-1.3,2.9c0,0.2,0,0.5-0.1,0.7
	c0.3,0.7-0.3,1.3-0.6,1.8c0.5,0.3,0,0.9,0.1,1.4c0.1,0.3,0.3,0.5,0.4,0.8c0,0.2,0.1,0.4,0.2,0.6c-0.2,0.4-0.1,0.8,0.3,1.1
	c0,0.2-0.2,0.2-0.2,0.3c0,0.6,0.6,1.1,0.7,1.6c-0.1,0.2-0.1,0.4,0,0.7c0.8,0,0.9,0.7,1.5,0.9c0,0.2-0.1,0.1,0,0.2
	c0.5,0.1,0.7,0.6,0.7,1.3c0.7,0.2,1.3,0.3,2,0.3c0,0.1-0.1,0.1-0.1,0.2c0.7,0.4,1.4,0.9,2.1,1.3c1,0.4,2.1,0.7,3.2,0.7
	c0-0.2,0-0.3,0.1-0.5c0.5,0.1,1,0.1,1.4,0.2c0.3,0.5,0.6,0.8,1.1,1.1c0.2,0.3,0.3,0.6,0.3,1c0.1,0.5,0.8,0.6,1.2,0.9
	c0.3-0.2,0.3-0.8,0.8-0.8c0.9,0.1,1.5,0.8,1.6,1.7c0.3,0.2,0.4,0.6,0.7,0.8c-0.2,1.2,1.1,1.4,1.9,1.6c-0.1-0.6-0.1-1.3,0-1.9
	c0.8-0.4,1.6-1,2.4-1.6c0.7-0.6,1.8-0.1,2.5-0.1c0-0.3-0.3,0-0.4-0.2c0.3-0.3,0.5,0.2,0.8,0.2c0,0.1-0.1,0.1,0,0.2
	c0.2,0.1,0.3,0.2,0.5,0.2c0.1-0.1,0.2-0.2,0.4-0.2c0.2,0.1-0.1,0.2,0,0.2c0.4-0.1,0.1-0.4,0.4-0.5c0.1,0.2,0.7,0.5,0.7,0.2
	c-0.1-0.2-0.5-0.1-0.6-0.3c0.2-0.1,0.3-0.3,0.2-0.5c0,0,0,0,0,0c-0.2,0-0.1,0.3-0.4,0.2c0.2-0.6,0.7-0.5,1.4-0.5
	c0.1-0.1,0-0.3,0.2-0.3c0.2,0,0.2,0.3,0,0.4c0.8-0.3,1.9-0.5,2.3,0.3c0.3,0,0.7-0.2,0.8-0.5c0.8-0.1,0.7,0.7,1.4,0.7
	c0.4,0.3-0.1,1.2,0.3,1.5c0-0.1,0-0.2,0-0.3c0.1,0,0.2,0,0.2,0c0,0.1-0.1,0.3-0.2,0.4c0.2,0.3,0.5,0.6,0.6,0.9c0.1,0,0.2,0,0.2,0
	c0.1,0.2,0.1,0.4,0.2,0.5c0.4,0,0.7,0.3,0.7,0.7c0.2-0.1,0.4-0.2,0.6-0.2c-0.1,0.3-0.5,0.4-0.5,0.6c0.4-0.2,0.6-0.6,0.7-1
	c-0.2-0.1,0,0.2-0.1,0.1c0.4-1.2-0.3-2.1-0.7-2.8c0-0.1,0.1-0.1,0.1-0.2c-0.9-0.8-1.3-2-1-3.1c0.2-0.2,0.3-0.5,0.4-0.7
	c0.4-0.1,0.6-0.6,0.9-0.8c-0.1-0.4,0.2-0.9,0.7-0.9c0,0,0.1,0,0.1,0c0-0.9,1.1-0.7,1.2-1.4c-0.1,0.1-0.3,0.1-0.5,0
	c0.2,0.2,0.3-0.3,0.1-0.3c0.2,0.1,0.5,0,0.6-0.3c0,0,0-0.1,0-0.1c-0.1-0.1-0.3,0.1-0.4,0c0.1,0,0.3,0,0.3-0.1v-0.1h0.1
	c-0.2-0.3-0.4-0.6-0.5-1c-0.1,0-0.2,0-0.3,0c0.2-0.2-0.2-0.3-0.1-0.4c0,0,0.1,0,0.1,0c0-0.3-0.1-0.6-0.4-0.7c0.1,0,0.1-0.1,0.1-0.1
	c-0.3-0.2-0.4-1.1,0-1.1c-0.2,0.2,0.1,0.4-0.1,0.7c0.2,0,0.1,0.1,0.1,0.3c0.2,0.1,0.3,0.2,0.4,0.4c0-0.1,0-0.2,0-0.3
	c0.5,0.2-0.1,0.9,0.3,1.1c0.1-0.6,0.5-1.2,0.3-1.8c-0.3-0.2-0.5-0.4-0.6-0.7c0.1,0.2,0.4,0.3,0.6,0.3c0,0.1,0,0.2,0,0.2
	c0.4-0.4,0.6-1,0.5-1.6c-0.1,0-0.2,0-0.2,0c0.1,0,0.1-0.1,0.2-0.1V8.7l0.1-0.1c0.3-0.7,1.3-0.7,1.9-1.1c0.1-0.1,0-0.2,0.2-0.3
	c0,0.1,0,0.2-0.1,0.3c0.1-0.1,0.3-0.2,0.5-0.3c0-0.2-0.1-0.4-0.3-0.4C63,6.8,63.1,6.9,63.2,7c-0.4,0.4-0.5-0.4-0.8-0.3
	c0-0.5,0-1.1,0.2-1.6c0.3,0,0.5-0.2,0.7-0.4c0-0.2,0-0.3,0-0.5c0.1,0,0.2,0,0.2,0.2c0,0.1-0.2,0.1-0.1,0.2c0.2-0.1,0.1-0.4,0.3-0.5
	c0,0.1,0,0.2,0.1,0.2c0.1-0.3-0.1-0.1-0.1-0.3C64,4.2,64.7,3.5,64.3,3.2z"/>
</svg>
