<svg id="Layer_1" data-name="Layer 1" xmlns="http://www.w3.org/2000/svg" viewBox="0 0 14 11.9"><defs><style>.cls-1{fill:#fff;}</style></defs><title>external-link-inverse</title><path class="cls-1" d="M14,12.3a2.22,2.22,0,0,1-2.2,2.2H5.2A2.22,2.22,0,0,1,3,12.3V5.8A2.22,2.22,0,0,1,5.2,3.6h5.5a0.22,0.22,0,0,1,.2.2V4.3a0.22,0.22,0,0,1-.2.2H5.2A1.39,1.39,0,0,0,4,5.8v6.5a1.22,1.22,0,0,0,1.2,1.2h6.5a1.22,1.22,0,0,0,1.2-1.2V9.8a0.22,0.22,0,0,1,.2-0.2h0.5a0.22,0.22,0,0,1,.2.2v2.5H14Zm3-5.2a0.47,0.47,0,0,1-.5.5c-0.1,0-.3-0.1-0.4-0.1L14.8,6,9.7,11.1a0.35,0.35,0,0,1-.2.1,0.2,0.2,0,0,1-.2-0.1l-0.9-.9A0.35,0.35,0,0,1,8.3,10a0.2,0.2,0,0,1,.1-0.2l5.1-5.1L12.1,3.3C12,3.3,12,3.2,12,3.1a0.47,0.47,0,0,1,.5-0.5h4a0.47,0.47,0,0,1,.5.5v4Z" transform="translate(-3 -2.6)"/></svg>
