<?xml version="1.0" encoding="utf-8"?>
<!-- Generator: Adobe Illustrator 19.2.1, SVG Export Plug-In . SVG Version: 6.00 Build 0)  -->
<svg version="1.1" id="Layer_1" xmlns="http://www.w3.org/2000/svg" xmlns:xlink="http://www.w3.org/1999/xlink" x="0px" y="0px"
	 viewBox="0 0 17.1 20" style="enable-background:new 0 0 17.1 20;" xml:space="preserve">
<style type="text/css">
	.st0{fill:#231F20;}
</style>
<title>file-powerpoint</title>
<path class="st0" d="M14.6,7.2v9c0,0.4-0.3,0.8-0.7,0.8c0,0,0,0,0,0H3.3c-0.4,0-0.7-0.3-0.7-0.8c0,0,0,0,0,0V3.7
	C2.6,3.3,2.9,3,3.3,3c0,0,0,0,0,0h7c0.5,0,0.9,0.2,1.3,0.5L14,6C14.4,6.3,14.5,6.8,14.6,7.2z M13.6,8h-3.3C9.9,8,9.6,7.7,9.6,7.2V4
	h-6v12h10V8z M5.8,15h2.5v-0.8H7.7v-1.3h1c0.3,0,0.6,0,0.9-0.1c0.7-0.3,1.2-1,1.1-1.8c0-0.8-0.4-1.5-1.1-1.8C9.4,9,9,9,8.7,9H5.8
	v0.8h0.7v4.4H5.8L5.8,15L5.8,15z M7.7,12V9.9h0.9c0.2,0,0.5,0,0.7,0.1c0.3,0.2,0.5,0.5,0.4,0.9c0,0.4-0.2,0.7-0.5,0.9
	C9,11.9,8.8,12,8.6,12L7.7,12L7.7,12z M10.6,7h2.9c0-0.1-0.1-0.2-0.2-0.3l-2.4-2.4c-0.1-0.1-0.2-0.1-0.3-0.2L10.6,7L10.6,7z"/>
</svg>
