<svg id="Layer_1" data-name="Layer 1" xmlns="http://www.w3.org/2000/svg" viewBox="0 0 12 14"><defs><style>.cls-1{fill:#fff;}</style></defs><title>file-powerpoint-inverse</title><path class="cls-1" d="M14.6,7.2v9a0.77,0.77,0,0,1-.7.8H3.3a0.71,0.71,0,0,1-.7-0.8h0V3.7A0.68,0.68,0,0,1,3.3,3h7a2.11,2.11,0,0,1,1.3.5L14,6A2,2,0,0,1,14.6,7.2Zm-1,.8H10.3a0.71,0.71,0,0,1-.7-0.8V4h-6V16h10V8ZM5.8,15H8.3V14.2H7.7V12.9h1a2.77,2.77,0,0,0,.9-0.1A1.75,1.75,0,0,0,10.7,11,1.89,1.89,0,0,0,9.6,9.2,1.34,1.34,0,0,0,8.7,9H5.8V9.8H6.5v4.4H5.8V15h0Zm1.9-3V9.9H8.6a1.7,1.7,0,0,1,.7.1,0.81,0.81,0,0,1,.4.9,1.05,1.05,0,0,1-.5.9,1.42,1.42,0,0,1-.6.2H7.7Zm2.9-5h2.9a0.53,0.53,0,0,0-.2-0.3L10.9,4.3c-0.1-.1-0.2-0.1-0.3-0.2V7h0Z" transform="translate(-2.6 -3)"/></svg>
