<svg id="Layer_1" data-name="Layer 1" xmlns="http://www.w3.org/2000/svg" viewBox="0 0 12 14"><defs><style>.cls-1{fill:#fff;}</style></defs><title>file-acrobat-inverse</title><path class="cls-1" d="M14.6,7.2v9a0.77,0.77,0,0,1-.7.8H3.3a0.71,0.71,0,0,1-.7-0.8h0V3.7A0.68,0.68,0,0,1,3.3,3h7a2.11,2.11,0,0,1,1.3.5L14,6A2,2,0,0,1,14.6,7.2Zm-1,.8H10.3a0.71,0.71,0,0,1-.7-0.8V4h-6V16h10V8Zm-3.4,3.8c0.3,0,.6-0.1.9-0.1a1.79,1.79,0,0,1,1.4.4,0.3,0.3,0,0,1,0,.4h0c0,0.1-.1.3-0.6,0.3a3.29,3.29,0,0,1-1.9-.6c-1,.2-2,0.4-3,0.7-0.8,1.4-1.4,2-1.9,2-0.1,0-.2,0-0.2-0.1l-0.2-.1h0a0.19,0.19,0,0,1,0-.3,2.76,2.76,0,0,1,1.5-1.5H6.4c0.2-.4.5-0.9,0.8-1.5a11.92,11.92,0,0,0,.8-2,3,3,0,0,1-.3-2.1A0.32,0.32,0,0,1,8,7H8.1a0.37,0.37,0,0,1,.3.1,1.09,1.09,0,0,1,.1.5V8a7.57,7.57,0,0,1-.1,1.5,3.87,3.87,0,0,0,1.2,1.9C9.8,11.5,10,11.7,10.2,11.8ZM6.1,13.3A4.26,4.26,0,0,0,5,14.5,2.16,2.16,0,0,0,6.1,13.3Zm3.3-1.4-0.2-.2a4.51,4.51,0,0,1-1-1.4,10.09,10.09,0,0,1-.7,1.5l-0.3.7,2.2-.6h0ZM8.2,8.4V8.1a0.37,0.37,0,0,1,.1-0.3V7.7h0a0.37,0.37,0,0,0-.1-0.3h0A1.7,1.7,0,0,0,8.2,8.4ZM10.6,7h2.9a0.53,0.53,0,0,0-.2-0.3L10.8,4.2c-0.1-.1-0.2-0.1-0.3-0.2l0.1,3h0Zm0.6,5.3a3,3,0,0,0,1,.2h0.1a1.54,1.54,0,0,0-1.1-.2h0Z" transform="translate(-2.6 -3)"/></svg>