<svg id="Layer_1" data-name="Layer 1" xmlns="http://www.w3.org/2000/svg" viewBox="0 0 12 14"><defs><style>.cls-1{fill:#fff;}</style></defs><title>file-excel-inverse</title><path class="cls-1" d="M14.6,7.2v9a0.77,0.77,0,0,1-.7.8H3.3a0.71,0.71,0,0,1-.7-0.8h0V3.7A0.68,0.68,0,0,1,3.3,3h7a2.11,2.11,0,0,1,1.3.5L14,6A2,2,0,0,1,14.6,7.2Zm-1,.8H10.3a0.71,0.71,0,0,1-.7-0.8V4h-6V16h10V8ZM5.9,15H8.1V14.2H7.5l0.8-1.3a0.53,0.53,0,0,1,.2-0.3h0v0.1c0,0.1.1,0.1,0.1,0.2l0.9,1.3H8.9V15h2.3V14.2H10.7L9.2,12.1l1.5-2.3h0.5V9H9V9.8H9.6L8.8,11a1.44,1.44,0,0,0-.2.3h0V11.2c0-.1-0.1-0.1-0.1-0.2L7.6,9.8H8.2V9H6V9.8H6.5L8,11.9,6.5,14.2H5.9V15h0Zm4.7-8h2.9a0.53,0.53,0,0,0-.2-0.3L10.9,4.3c-0.1-.1-0.2-0.1-0.3-0.2V7Z" transform="translate(-2.6 -3)"/></svg>
