<svg version="1.1" width="100%" height="100%" viewBox="0 0 1440 1128" preserveAspectRatio="xMinYMax slice" xmlns="http://www.w3.org/2000/svg">
<title>Group 2</title>
<desc>Created with Sketch.</desc>
<g fill="none" fill-rule="evenodd">
<g transform="translate(0 -2743)" fill-rule="nonzero">
<g transform="translate(-2 1512)">
<g transform="translate(0 1230)">
<g transform="translate(0 .009721)">
<path d="m1442 1126.4c-495.21 21.13-880.88-96.51-848.07-248.3 32.06-148.23 432.99-1293.2 848.03-621.71l0.03911 870.01z" fill="#F7C636"/>
<g transform="translate(0 .99028)" fill="#004280">
<path d="m1098.9 158.39c-215.79-105.33-620.36-166-1096.9-157.62l-2 923.92c321.89 132.3 705.01 198.03 1149.4 197.2-342.5-26.228-578.09-124.24-552.3-243.53 34.43-159.17 710.93-131.91 750.93-388.06 12.44-79.57-33.29-226.57-249.07-331.91z"/>
</g>
</g>
</g>
</g>
</g>
</g>
</svg>
