<svg xmlns="http://www.w3.org/2000/svg" viewBox="0 0 1347.92 389.86"><defs><style>.cls-1{fill:#2371b5;}.cls-2{fill:#de4828;}.cls-3{fill:#231f20;}.cls-4{fill:#010101;}</style></defs><title>Content-upload</title><g id="Layer_2" data-name="Layer 2"><g id="Layer_1-2" data-name="Layer 1"><path class="cls-1" d="M640.52,90.22a80.85,80.85,0,0,0,.43,14.42,5.94,5.94,0,0,1-.34,3.79,5.63,5.63,0,0,1-2,1.73L609.94,128a3.94,3.94,0,0,1-5.14.18l-11.85-6.6c-1.72-1-1.2-1.88-.08-3s2.24-2.24,3.38-3.33q3.52-3.36,7.18-6.57c11.84-10.4,24.55-19.82,35.77-30.9l.27-.26A1.73,1.73,0,0,1,641,76.9c1.75.55.34,4.68.18,5.89C640.91,85.25,640.66,87.73,640.52,90.22Z"/><path class="cls-1" d="M637.11,78.7,588,110c-1,.61-2.5,1.1-3,.09a2.1,2.1,0,0,1-.13-1.15c.44-5.36,1.32-10.61,2-15.93.59-4.31,3.86-7.23,7-10Q605,73.36,615.33,62.83a1.51,1.51,0,0,1,2.27-.32l20.35,10.94a5,5,0,0,1,1,.66,2,2,0,0,1,.4.48A2.32,2.32,0,0,1,639.1,77,6.84,6.84,0,0,1,637.11,78.7Z"/><circle class="cls-1" cx="500.31" cy="264.62" r="19.14"/><circle class="cls-2" cx="1326.31" cy="150.62" r="19.14"/><polygon class="cls-1" points="1184.98 278.62 1155.92 259.48 1123.69 272.57 1132.91 239.03 1110.51 212.42 1145.25 210.82 1163.63 181.29 1175.89 213.85 1209.66 222.2 1182.49 243.92 1184.98 278.62"/><path class="cls-3" d="M1209.22,221.2a144.61,144.61,0,0,1-17.46-3.43q-4.21-1.1-8.35-2.46c-2.59-.85-5.72-1.63-7.16-4.17-1.25-2.21-1.51-5.06-2.15-7.5q-1.11-4.19-2.59-8.28-1.32-3.64-2.91-7.16c-.66-1.46-1.49-2.85-2.17-4.3-.38-.81-.58-3.13-1.62-3.41s-2.49,2.13-3,2.87l-7.54,11.6-4.42,6.8-2.41,3.71c-.87,1.33-1.53,2.94-3.24,3.21-2.56.4-5.5-.06-8.1-.11l-8.53-.17-17.07-.35a1.13,1.13,0,0,0-.56,2.08,99.4,99.4,0,0,1,12.68,11.45q2.85,3.06,5.45,6.36c1.61,2,4.39,4.85,4.65,7.52.16,1.65-.56,3.48-1,5.06q-.57,2.06-1.17,4.12-1.3,4.45-2.77,8.85-2.93,8.81-6.48,17.38c-.32.78.62,1.64,1.37,1.37a348.31,348.31,0,0,1,38.43-11.07l20.3,21.17a1.13,1.13,0,0,0,1.9-.79,163.2,163.2,0,0,1,2.06-35.64c.26-1.51.21-2.61,1.46-3.56s2.19-1.68,3.28-2.53q3.32-2.59,6.58-5.26,6.79-5.56,13.29-11.46C1210.81,222.38,1210.09,221.31,1209.22,221.2Zm-14.63,12.23q-3.7,3-7.48,5.93a16.37,16.37,0,0,0-3,2.3c-.7.91-.67,2.56-.86,3.65a165.72,165.72,0,0,0-2.25,33.34l-10.87-11.34-6.32-6.59c-.71-.74-1.35-1.86-2.45-1.89a19.83,19.83,0,0,0-4.32,1q-16.56,3.93-32.67,9.49,3.3-8.2,6.06-16.6,1.55-4.75,2.92-9.55c.79-2.79,2.28-6.22,1.44-9.14-.73-2.56-3-5-4.61-7q-2.71-3.49-5.71-6.74a101,101,0,0,0-10.62-9.89l15.26.31,8.9.18c2.41,0,5.69.71,8-.26s3.43-4,4.64-5.83l4.82-7.42,8.65-13.31a98.16,98.16,0,0,1,6.16,14.47c.95,2.85,1.76,5.75,2.44,8.67.56,2.4,1.09,4.92,2.88,6.75s4.06,2.49,6.27,3.23q4.62,1.55,9.34,2.78a146.63,146.63,0,0,0,15.54,3.15Q1200.76,228.38,1194.6,233.43Z"/><path class="cls-3" d="M898,108a2.18,2.18,0,0,0-1.41.06,1.76,1.76,0,0,0-1.15-.11c-12.19,1.32-22.61,6.32-25.09,19.44-2.18,11.52,7.28,18.22,16.64,22,11.4,4.62,22.78-6.59,25.4-16.95S908.35,110.08,898,108Zm-10.31,38.84c-9.52-2.81-16.36-10.43-14.43-20.63,2.07-11,12.59-14.56,22.17-15.6a8.38,8.38,0,0,1,1.86,0C919.48,115,909.55,153.28,887.67,146.82Z"/><path class="cls-3" d="M28,252a2.18,2.18,0,0,0-1.41.06,1.76,1.76,0,0,0-1.15-.11C13.21,253.25,2.79,258.25.32,271.37c-2.18,11.52,7.28,18.22,16.64,22,11.4,4.62,22.78-6.59,25.4-16.95S38.35,254.08,28,252ZM17.67,290.82C8.14,288,1.31,280.39,3.24,270.18c2.07-11,12.59-14.56,22.17-15.6a8.38,8.38,0,0,1,1.86,0C49.48,259,39.55,297.28,17.67,290.82Z"/><path class="cls-3" d="M154,88a2.18,2.18,0,0,0-1.41.06,1.76,1.76,0,0,0-1.15-.11c-12.19,1.32-22.61,6.32-25.09,19.44-2.18,11.52,7.28,18.22,16.64,22,11.4,4.62,22.78-6.59,25.4-16.95S164.35,90.08,154,88Zm-10.31,38.84c-9.52-2.81-16.36-10.43-14.43-20.63,2.07-11,12.59-14.56,22.17-15.6a8.38,8.38,0,0,1,1.86,0C175.48,95,165.55,133.28,143.67,126.82Z"/><path class="cls-3" d="M506,242a2.18,2.18,0,0,0-1.41.06,1.76,1.76,0,0,0-1.15-.11c-12.19,1.32-22.61,6.32-25.09,19.44-2.18,11.52,7.28,18.22,16.64,22,11.4,4.62,22.78-6.59,25.4-16.95S516.35,244.08,506,242Zm-10.31,38.84c-9.52-2.81-16.36-10.43-14.43-20.63,2.07-11,12.59-14.56,22.17-15.6a8.38,8.38,0,0,1,1.86,0C527.48,249,517.55,287.28,495.67,280.82Z"/><path class="cls-3" d="M1333,129a2.18,2.18,0,0,0-1.41.06,1.76,1.76,0,0,0-1.15-.11c-12.19,1.32-22.61,6.32-25.09,19.44-2.18,11.52,7.28,18.22,16.64,22,11.4,4.62,22.78-6.59,25.4-16.95S1343.35,131.08,1333,129Zm-10.31,38.84c-9.52-2.81-16.36-10.43-14.43-20.63,2.07-11,12.59-14.56,22.17-15.6a8.38,8.38,0,0,1,1.86,0C1354.48,136,1344.55,174.28,1322.67,167.82Z"/><path class="cls-4" d="M642.89,96.63l-.14-21.3a1.17,1.17,0,0,0-.14-.77.84.84,0,0,0-.54-.74q-6.91-3.13-13.62-6.67-3.21-1.69-6.36-3.49-1.71-1-3.42-2a7.89,7.89,0,0,0-1.46-.82,1,1,0,0,0-1.1,0,1,1,0,0,0-.46.4L586.9,87.9a1,1,0,0,0-.32.58,1.05,1.05,0,0,0-.1.29,122.78,122.78,0,0,0-1.63,22s0,0,0,0a.86.86,0,0,0-.11.3L570.37,121.8,556,132.48l-14.38,10.67-14.38,10.67-4.46,3.31c-1.42,1.05-2.79,2.17-4.2,3.24a14.46,14.46,0,0,0-2.33,2.19c-.88,1-1.74,2.1-2.62,3.14-1.05,1.32-2.17,2.59-3.26,3.88-.51.6-1,1.22-1.55,1.82s-.83,1.18-1.34,1.69a6.68,6.68,0,0,1-1.11.84l-10.46,6.78c-1.14.73-.08,2.56,1.06,1.82,3.63-2.5,7.41-4.81,11.12-7.19a17.66,17.66,0,0,1,3.3-1.39l3.78-1.48c2.51-1,5-2,7.52-3l-.47.13c2.5-.88,4.76-2.6,7-4s4.76-3,7.12-4.5q7.09-4.55,14-9.3t13.77-9.7Q571,137.12,577.63,132t13.19-10.48c.07-.06.31-.32.39-.32a1,1,0,0,0,.57-.18l.16.1,8.58,4.47,4,2.08a9.91,9.91,0,0,0,3.22,1.32c2.53.3,5-1.86,7-3.08l8.34-5.06,16.38-9.94c2.06-1.25,3.45-2,3.49-4.59C643,103.07,642.91,99.85,642.89,96.63Zm-54.37-7.29s0,0,0-.07l28.12-26.05a.87.87,0,0,0,.42-.12c.63.35,1.56,1,2,1.24q1.57.91,3.15,1.8,3,1.7,6.09,3.3,5.73,3,11.63,5.69l-.1.07a1.06,1.06,0,0,0-.68.27l-1,.89q-25.14,17.17-51.13,33A118.71,118.71,0,0,1,588.52,89.34Zm-77.24,82.4q3.35-4,6.66-7.94a8,8,0,0,0,2,4.49Q515.65,170.06,511.29,171.73Zm12.32-5.22-.2.15c-.4.3-1.17.89-1.34.74a6,6,0,0,1-2-5.28,1,1,0,0,0,0-.38.84.84,0,0,0,.2-.12l2.13-1.58a8.8,8.8,0,0,0,2.38,5.8C524.61,165.72,523.71,166.44,523.61,166.51Zm3-1.81a6.72,6.72,0,0,1-2.07-6,1.34,1.34,0,0,0,0-.26l2-1.45c-.21,2.45.34,4.88,2.33,6.33Zm4.23-2.63-.16-.08c-2.54-1-2.33-4.25-1.81-6.43a1.14,1.14,0,0,0,0-.34l2.27-1.69a8.44,8.44,0,0,0,2.55,6.72Zm59-42.45a580,580,0,0,1-54.3,39.48,6.35,6.35,0,0,1-1.85-7.3,1.32,1.32,0,0,0,.06-.17l51.9-38.52a11.27,11.27,0,0,0,4.21,6.5Zm1.83-1.33a9.1,9.1,0,0,1-4.16-6.74Q606.9,99.7,625.87,87.12,608.56,102.5,591.62,118.29Zm48.87-10.54a10.62,10.62,0,0,1-2.4,1.5l-2.38,1.44-4.47,2.71-18.47,11.2c-1.39.85-3.39,2.6-5.13,2.21s-3.35-1.65-4.84-2.42l-9.39-4.89q22.64-21.11,46-41.48l1.28-.87.13,19.48q0,2.76,0,5.53v2.76C640.84,105.71,641.07,107.08,640.49,107.75Z"/><path class="cls-4" d="M678.89,44.73c-1.55,1.12-3.09,2.26-4.6,3.43a166.67,166.67,0,0,0-20.68,19c-1.07,1.16.67,2.91,1.74,1.74a165.86,165.86,0,0,1,24.91-22Z"/><path class="cls-4" d="M741.28,14.27a232.59,232.59,0,0,0-41,17.07q.7,1.06,1.39,2.13a231.53,231.53,0,0,1,40.18-16.77Q741.58,15.47,741.28,14.27Z"/><path class="cls-4" d="M806.66,1.44c-8.33.81-16.61,1.92-24.78,3.27q-8.08,1.34-16.13,3.09l.57,2.36A323.56,323.56,0,0,1,806.66,3.7Q806.66,2.57,806.66,1.44Z"/><path class="cls-4" d="M872.62,5.27q.32-1.22.64-2.45A243.78,243.78,0,0,0,832,0q0,1.18,0,2.36A253.77,253.77,0,0,1,872,5.17Z"/><path class="cls-4" d="M940,27.39A156.77,156.77,0,0,0,905,10.54q-3.5-1.18-7-2.21-.32,1.26-.64,2.51a165.22,165.22,0,0,1,41.18,18.64Z"/><path class="cls-4" d="M971.61,57.87q4.6,5.29,8.71,10.95l2.37-.9A161.32,161.32,0,0,0,960,42.73l-1.39,2A149.68,149.68,0,0,1,971.61,57.87Z"/><path class="cls-4" d="M1010.38,130.25A166.78,166.78,0,0,0,996.17,90l-2.37.83a166.6,166.6,0,0,1,14.19,39.7Z"/><path class="cls-4" d="M1010.65,187.8l2.35.87a179.63,179.63,0,0,0,.88-33.5l-2.34.29c.14,2.12.24,4.25.3,6.38A179.89,179.89,0,0,1,1010.65,187.8Z"/><path class="cls-4" d="M994.15,251.1a189.5,189.5,0,0,0,14.08-37.35l-2.31-.85a186.12,186.12,0,0,1-14,37.05Z"/><path class="cls-4" d="M872.48,301.75a9.79,9.79,0,0,1,1.48.63,26,26,0,0,1,9.44-13.05l-1.54-2a29,29,0,0,0-6,6,28.09,28.09,0,0,0-4.11,8C872,301.5,872.23,301.62,872.48,301.75Z"/><path class="cls-4" d="M904.82,326.46a38.79,38.79,0,0,1-18.48-.75,19.9,19.9,0,0,1-8.12-4.76L876.61,323c7.12,6.71,18.82,7.39,28.71,5.65C905.16,327.94,905,327.2,904.82,326.46Z"/><path class="cls-4" d="M1052,335.75c-13.57-9.1-27.08-18.36-41.06-26.75q-.63,1-1.25,2.08c14,8.41,27.58,17.71,41.14,26.82Z"/><path class="cls-4" d="M1184.13,387.37a218,218,0,0,1-40.34-5.84q-.1,1.23-.21,2.46a216.24,216.24,0,0,0,32.34,5.28q4.32.38,8.66.59Q1184.35,388.62,1184.13,387.37Z"/><path class="cls-4" d="M1253.32,382.12a309.33,309.33,0,0,1-43.49,5.28q.25,1.23.52,2.46a311.88,311.88,0,0,0,43.54-5.35C1253.7,383.71,1253.5,382.92,1253.32,382.12Z"/><path class="cls-4" d="M1323.64,362c-14.95,5.55-30.21,10.51-45.7,14.56.19.79.39,1.58.59,2.37q10.95-2.86,21.7-6.26,12.07-3.81,23.93-8.24Q1323.89,363.2,1323.64,362Z"/><path class="cls-4" d="M1119,373.64c-15.95-6.32-31-14.68-45.55-23.81l-.36-.23-1.16,2.17c14.26,9,29,17.23,44.64,23.56l2.29.9Q1119,374.94,1119,373.64Z"/><path class="cls-4" d="M933.45,279.08a107.83,107.83,0,0,0-26.52-.38,12.79,12.79,0,0,1,1,2.38,111,111,0,0,1,13.2-.36,122.37,122.37,0,0,1,12.47,1Q933.54,280.39,933.45,279.08Z"/><path class="cls-4" d="M939,311.29c-1.17.77-2.36,1.53-3.56,2.26-2.16,1.32-4.44,2.64-6.81,3.92q.35,1.26.65,2.54a119,119,0,0,0,10.48-6.17C939.48,313,939.22,312.14,939,311.29Z"/><path class="cls-4" d="M969.06,288.25a166.55,166.55,0,0,0,12.13-15.4l-2.27-1.16q-1.19,1.71-2.43,3.39c-3.11,4.23-6.42,8.33-9.93,12.25q-3.13-1.13-6.31-2.14l-1-.32q.13,1.23.27,2.46l0,.22c1.75.56,3.49,1.14,5.22,1.74q-2,2.2-4.16,4.31.28,1.43.59,2.85,3.13-3.05,6.08-6.26a210.48,210.48,0,0,1,20.09,8.67c.41-.7.83-1.4,1.26-2.09C982.27,293.65,975.76,290.77,969.06,288.25Z"/><path class="cls-2" d="M362.06,150.09h-150a20.22,20.22,0,0,0-19.21,14.05,9.67,9.67,0,0,0-.36,1.48,17.92,17.92,0,0,0-.59,4.64v85.61A20.19,20.19,0,0,0,212.06,276h150a20.13,20.13,0,0,0,18.79-12.93,8.61,8.61,0,0,0,.49-1.38,19.08,19.08,0,0,0,.89-5.85V170.26A20.19,20.19,0,0,0,362.06,150.09Zm-90.61,37,44.65,25.76-44.65,25.79Z"/><path class="cls-3" d="M361.56,146.56h-150A23.42,23.42,0,0,0,188.2,170v85.61A23.42,23.42,0,0,0,211.6,279h150a23.42,23.42,0,0,0,23.39-23.39V170A23.42,23.42,0,0,0,361.56,146.56Zm20.2,109a19,19,0,0,1-1.09,6.45,8.61,8.61,0,0,1-.49,1.38,20.28,20.28,0,0,1-18.62,12.34h-150a20.22,20.22,0,0,1-20.2-20.17V170a18.34,18.34,0,0,1,.43-4,9.57,9.57,0,0,1,.36-1.48,20.19,20.19,0,0,1,19.41-14.64h150A20.2,20.2,0,0,1,381.76,170Z"/><path class="cls-3" d="M319.44,211.77,270,183.21a1.56,1.56,0,0,0-1.61,0,1.64,1.64,0,0,0-.82,1.38v57.11a1.59,1.59,0,0,0,1.61,1.61,1.78,1.78,0,0,0,.82-.2l49.45-28.56a1.6,1.6,0,0,0,0-2.8Zm-48.66,27.17V187.39l44.65,25.76Z"/></g></g></svg>