<?xml version="1.0" encoding="UTF-8"?>
<svg version="1.1" width="100%" height="866" viewBox="0 0 1440 866" preserveAspectRatio="xMinYMax slice" xmlns="http://www.w3.org/2000/svg" xmlns:xlink="http://www.w3.org/1999/xlink">
<title>hero-blue-icon</title>
<desc>Created with Sketch.</desc>
<defs>
<rect id="b" width="1440" height="866"/>
</defs>
<g fill="none" fill-rule="evenodd">
<mask id="a" fill="white">
<use xlink:href="#b"/>
</mask>
<g mask="url(#a)">
<g transform="translate(0)">
<path d="m0 825.19c146.43 45.922 318.1 53.085 515 21.488 295.35-47.396 296.06-81.218 475-127.42 119.29-30.798 269.29-34.051 450-9.7576v-708.25l-1440-1.2602v825.19z" fill="#004789"/>
<rect x="134" y="156" width="16" height="16" fill="#F5F8FB"/>
<rect x="157" y="109" width="16" height="16" fill="#DF4317"/>
<rect x="1320" y="601" width="16" height="16" fill="#DF4317"/>
<rect x="1354" y="554" width="16" height="16" fill="#F7C636"/>
<rect x="1320" y="476" width="16" height="16" fill="#0166C5"/>
<g transform="translate(35 139)" fill="none">
<circle cx="32.749" cy="32.749" r="19.5" fill="#F7C636"/>
<line x1="32.999" x2="56.334" y1="32.999" y2="9.6645" stroke="#F7C636" stroke-linecap="square" stroke-width="7"/>
<line x1="32.999" x2="62.915" y1="32.999" y2="19.069" stroke="#F7C636" stroke-linecap="square" stroke-width="7"/>
<line x1="32.999" x2="63.825" y1="32.999" y2="44.778" stroke="#F7C636" stroke-linecap="square" stroke-width="7"/>
<line x1="32.999" x2="46.377" y1="32.999" y2="63.166" stroke="#F7C636" stroke-linecap="square" stroke-width="7"/>
<line x1="32.999" x2="19.187" y1="32.999" y2="62.969" stroke="#F7C636" stroke-linecap="square" stroke-width="7"/>
<line x1="32.999" x2="2.3774" y1="32.999" y2="45.3" stroke="#F7C636" stroke-linecap="square" stroke-width="7"/>
<line x1="32.999" x2="2.9393" y1="32.999" y2="19.382" stroke="#F7C636" stroke-linecap="square" stroke-width="7"/>
<line x1="32.999" x2="20.117" y1="32.999" y2="2.6172" stroke="#F7C636" stroke-linecap="square" stroke-width="7"/>
<line x1="32.999" x2="65.998" y1="32.999" y2="32.747" stroke="#F7C636" stroke-linecap="square" stroke-width="7"/>
<line x1="32.999" x2="56.83" y1="32.999" y2="55.826" stroke="#F7C636" stroke-linecap="square" stroke-width="7"/>
<line x1="32.999" x2="32.731" y1="32.999" y2="65.998" stroke="#F7C636" stroke-linecap="square" stroke-width="7"/>
<line x1="32.999" x2="9.9252" y1="32.999" y2="56.591" stroke="#F7C636" stroke-linecap="square" stroke-width="7"/>
<line x1="32.999" x2="7.816e-14" y1="32.999" y2="32.743" stroke="#F7C636" stroke-linecap="square" stroke-width="7"/>
<line x1="32.999" x2="9.6645" y1="32.999" y2="9.6645" stroke="#F7C636" stroke-linecap="square" stroke-width="7"/>
<line x1="32.999" x2="32.751" y1="32.999" y2="-7.1512e-14" stroke="#F7C636" stroke-linecap="square" stroke-width="7"/>
<line x1="32.999" x2="45.465" y1="32.999" y2="2.4443" stroke="#F7C636" stroke-linecap="square" stroke-width="7"/>
</g>
</g>
</g>
<path d="m100.5-146.81l-307.5 148.09-75.947 332.74 212.8 266.84h341.3l212.8-266.84-75.947-332.74-307.5-148.09z" mask="url(#a)" stroke="#013B71" stroke-width="240"/>
</g>
</svg>
