<svg id="Layer_1" data-name="Layer 1" xmlns="http://www.w3.org/2000/svg" viewBox="0 0 1920 1153.85"><defs><style>.cls-1,.cls-7{fill:none;}.cls-2{fill:#f7c636;}.cls-3{fill:#e3b630;}.cls-4{fill:#fff;}.cls-5{fill:#1b447f;}.cls-10,.cls-6{fill:#de4828;}.cls-10,.cls-7,.cls-8,.cls-9{stroke:#231f20;stroke-miterlimit:10;stroke-width:3px;}.cls-8{fill:#2472b5;}.cls-9{fill:#db452c;}.cls-11{fill:#231f20;}.cls-12{fill:#2371b5;}</style></defs><title>hero-yellow-merged-trimmed</title><rect class="cls-1" y="-1.85" width="1920" height="1154.7"/><path class="cls-2" d="M0,1098.45q292.8,91.8,686.7,28.7c393.9-63.2,394.8-108.3,633.3-169.9q238.65-61.65,600-13.1V-.15L0-1.85Z"/><polygon class="cls-3" points="1351.22 0.09 1363.7 54.77 1140.12 335.35 781.28 335.35 557.7 54.77 570.18 0.09 365.04 0.09 341.3 104.13 684.92 535.35 1236.48 535.35 1580.1 104.13 1556.36 0.09 1351.22 0.09"/><g id="Layer_2" data-name="Layer 2"><path class="cls-4" d="M575,376.15l-59.8,34.5a1.8,1.8,0,0,1-1,.2,3.55,3.55,0,0,1-1-.2,2.06,2.06,0,0,1-1-1.7V340a2.06,2.06,0,0,1,1-1.7,1.65,1.65,0,0,1,1.9,0l59.8,34.4a2,2,0,0,1,.8,2.6,3.11,3.11,0,0,1-.7.9Z"/><g id="Layer_2-2" data-name="Layer 2-2"><g id="Layer_1-2" data-name="Layer 1-2"><path class="cls-5" d="M359.5,394.55l11.7-.1v-4.7l-11.6.1a2.35,2.35,0,0,0-.2-.8l10.6-4.9-2-4.2-10,4.7,7.8-7.8-3.3-3.3-8.2,8.2-.4-.3,4.3-10.6-4.3-1.8-4.3,10.6-.5-.1-.1-11.4h-4.7l.1,11.3-.5.1-4.4-10.4-4.3,1.8,4.4,10.4-.3.2-8-8-3.3,3.3,8,8v.1l-10.3-4.6-1.9,4.2,10.3,4.7c-.1.3-.1.5-.2.8l-11.4-.1v4.7l11.4.1a.6.6,0,0,0,.1.4l-10.6,4.2,1.7,4.3,10.7-4.2c.1.2.3.4.4.6l-8,8.2,3.3,3.2,7.6-7.7-4.5,9.8,4.2,1.9,4.9-10.6.7.2-.1,11.6H349l.1-11.7.7-.2,4.8,10.7,4.2-1.9-4.8-10.8.2-.2,8.4,8.2,3.2-3.4-8.5-8.1.2-.3,11,4.2,1.7-4.4-10.7-4.2Z"/><path class="cls-6" d="M1729.8,402l11.7-.1v-4.7l-11.6.1a2.35,2.35,0,0,0-.2-.8l10.6-4.9-2-4.2-10,4.7,7.8-7.8-3.3-3.3-8.1,8.1-.4-.3,4.3-10.6-4.3-1.8-4.3,10.5-.5-.1-.2-11.3h-4.7l.1,11.3-.5.1-4.4-10.4-4.3,1.8,4.4,10.4-.3.2-8-8-3.3,3.3,8,8v.1l-10.3-4.7-1.9,4.2,10.3,4.7c-.1.3-.1.5-.2.8l-11.2-.1v4.7l11.4.1a.6.6,0,0,0,.1.4l-10.6,4.2,1.7,4.3,10.6-4.2c.1.2.3.4.4.6l-8,8.2,3.3,3.3,7.6-7.7-4.6,9.7,4.2,1.9,4.9-10.6.7.2-.1,11.6h4.7l.1-11.7.7-.2,4.8,10.7,4.2-1.9-4.8-10.8.2-.2,8.4,8.1,3.2-3.4-8.4-8.1.2-.3,11,4.2,1.7-4.4-10.8-3.9Z"/><circle class="cls-7" cx="279.4" cy="464.05" r="19.5"/><circle class="cls-7" cx="391.3" cy="296.25" r="15.3"/><circle class="cls-7" cx="1445.9" cy="432.35" r="15.3"/><circle class="cls-7" cx="1319.2" cy="371.15" r="11.1"/><circle class="cls-8" cx="760.8" cy="464.05" r="19.5"/><circle class="cls-8" cx="1608.5" cy="340.55" r="19.5"/><path class="cls-9" d="M538,287.85a86.6,86.6,0,1,0,86.6,86.6h0A86.57,86.57,0,0,0,538,287.85Zm37,88.2-59.8,34.5a1.8,1.8,0,0,1-1,.2,3.55,3.55,0,0,1-1-.2,2.06,2.06,0,0,1-1-1.7v-69a2.06,2.06,0,0,1,1-1.7,1.65,1.65,0,0,1,1.9,0l59.8,34.5a2,2,0,0,1,.8,2.6,2.85,2.85,0,0,1-.7.8Z"/><circle class="cls-10" cx="1245.3" cy="370.15" r="19.5"/><path class="cls-11" d="M694.9,370.65a1.47,1.47,0,0,0-1.5,1.5,1.63,1.63,0,0,0,1.5,1.6,1.47,1.47,0,0,0,1.5-1.5h0A1.56,1.56,0,0,0,694.9,370.65Z"/><path class="cls-11" d="M712.8,370.35a1.47,1.47,0,0,0-1.5,1.5,1.63,1.63,0,0,0,1.5,1.6,1.47,1.47,0,0,0,1.5-1.5h0A1.5,1.5,0,0,0,712.8,370.35Z"/><path class="cls-11" d="M732.9,371a1.47,1.47,0,0,0-1.5,1.5,1.56,1.56,0,0,0,1.5,1.6,1.47,1.47,0,0,0,1.5-1.5h0A1.44,1.44,0,0,0,732.9,371Z"/><path class="cls-11" d="M754,370.65a1.47,1.47,0,0,0-1.5,1.5,1.63,1.63,0,0,0,1.5,1.6,1.47,1.47,0,0,0,1.5-1.5h0A1.5,1.5,0,0,0,754,370.65Z"/><path class="cls-11" d="M771.9,370.35a1.47,1.47,0,0,0-1.5,1.5,1.63,1.63,0,0,0,1.5,1.6,1.47,1.47,0,0,0,1.5-1.5h0A1.44,1.44,0,0,0,771.9,370.35Z"/><path class="cls-11" d="M792,371a1.47,1.47,0,0,0-1.5,1.5,1.56,1.56,0,0,0,1.5,1.6,1.47,1.47,0,0,0,1.5-1.5h0A1.5,1.5,0,0,0,792,371Z"/><path class="cls-11" d="M808.9,370.65a1.47,1.47,0,0,0-1.5,1.5,1.63,1.63,0,0,0,1.5,1.6,1.47,1.47,0,0,0,1.5-1.5h0A1.44,1.44,0,0,0,808.9,370.65Z"/><path class="cls-11" d="M826.8,370.35a1.47,1.47,0,0,0-1.5,1.5,1.63,1.63,0,0,0,1.5,1.6,1.47,1.47,0,0,0,1.5-1.5h0A1.44,1.44,0,0,0,826.8,370.35Z"/><path class="cls-11" d="M846.9,371a1.47,1.47,0,0,0-1.5,1.5,1.56,1.56,0,0,0,1.5,1.6,1.47,1.47,0,0,0,1.5-1.5h0A1.44,1.44,0,0,0,846.9,371Z"/><path class="cls-11" d="M846.9,370.65a1.47,1.47,0,0,0-1.5,1.5,1.56,1.56,0,0,0,1.5,1.6h0a1.5,1.5,0,0,0,1.5-1.6A1.42,1.42,0,0,0,846.9,370.65Z"/><path class="cls-11" d="M864.8,370.35a1.47,1.47,0,0,0-1.5,1.5,1.63,1.63,0,0,0,1.5,1.6,1.47,1.47,0,0,0,1.5-1.5h0A1.44,1.44,0,0,0,864.8,370.35Z"/><path class="cls-11" d="M884.9,371a1.47,1.47,0,0,0-1.5,1.5,1.56,1.56,0,0,0,1.5,1.6,1.47,1.47,0,0,0,1.5-1.5h0A1.44,1.44,0,0,0,884.9,371Z"/><path class="cls-11" d="M906,370.65a1.47,1.47,0,0,0-1.5,1.5,1.63,1.63,0,0,0,1.5,1.6,1.47,1.47,0,0,0,1.5-1.5h0A1.5,1.5,0,0,0,906,370.65Z"/><path class="cls-11" d="M923.9,370.35a1.47,1.47,0,0,0-1.5,1.5,1.63,1.63,0,0,0,1.5,1.6,1.47,1.47,0,0,0,1.5-1.5h0A1.44,1.44,0,0,0,923.9,370.35Z"/><path class="cls-11" d="M944,371a1.47,1.47,0,0,0-1.5,1.5,1.56,1.56,0,0,0,1.5,1.6,1.47,1.47,0,0,0,1.5-1.5h0A1.44,1.44,0,0,0,944,371Z"/><path class="cls-11" d="M960.9,370.65a1.47,1.47,0,0,0-1.5,1.5,1.63,1.63,0,0,0,1.5,1.6,1.47,1.47,0,0,0,1.5-1.5h0A1.44,1.44,0,0,0,960.9,370.65Z"/><path class="cls-11" d="M978.8,370.35a1.47,1.47,0,0,0-1.5,1.5,1.63,1.63,0,0,0,1.5,1.6,1.47,1.47,0,0,0,1.5-1.5h0A1.44,1.44,0,0,0,978.8,370.35Z"/><path class="cls-11" d="M999,371a1.47,1.47,0,0,0-1.5,1.5,1.56,1.56,0,0,0,1.5,1.6,1.47,1.47,0,0,0,1.5-1.5h0A1.56,1.56,0,0,0,999,371Z"/><path class="cls-11" d="M1015.8,370.65a1.47,1.47,0,0,0-1.5,1.5,1.63,1.63,0,0,0,1.5,1.6,1.47,1.47,0,0,0,1.5-1.5h0A1.5,1.5,0,0,0,1015.8,370.65Z"/><path class="cls-11" d="M1033.7,370.35a1.55,1.55,0,1,0,1.6,1.5,1.5,1.5,0,0,0-1.6-1.5Z"/><path class="cls-11" d="M1053.8,371a1.55,1.55,0,0,0,.1,3.1,1.47,1.47,0,0,0,1.5-1.5,1.58,1.58,0,0,0-1.6-1.6Z"/><path class="cls-11" d="M1376.8,370.65a1.55,1.55,0,1,0,1.6,1.5,1.5,1.5,0,0,0-1.6-1.5Z"/><path class="cls-11" d="M1394.8,370.35a1.55,1.55,0,1,0,1.6,1.5,1.56,1.56,0,0,0-1.6-1.5Z"/><path class="cls-11" d="M1414.9,371a1.55,1.55,0,0,0,.1,3.1,1.47,1.47,0,0,0,1.5-1.5,1.72,1.72,0,0,0-1.6-1.6Z"/><path class="cls-11" d="M1431.7,370.65a1.55,1.55,0,1,0,1.6,1.5,1.5,1.5,0,0,0-1.6-1.5Z"/><path class="cls-11" d="M1449.7,370.35a1.55,1.55,0,1,0,1.6,1.5,1.56,1.56,0,0,0-1.6-1.5Z"/><path class="cls-11" d="M1469.8,371a1.55,1.55,0,0,0,.1,3.1,1.47,1.47,0,0,0,1.5-1.5,1.72,1.72,0,0,0-1.6-1.6Z"/><path class="cls-11" d="M1486.6,370.65a1.55,1.55,0,1,0,1.6,1.5,1.5,1.5,0,0,0-1.6-1.5Z"/><path class="cls-11" d="M1504.5,370.35a1.55,1.55,0,1,0,1.6,1.5,1.5,1.5,0,0,0-1.6-1.5Z"/><path class="cls-11" d="M1524.7,371a1.55,1.55,0,0,0,.1,3.1,1.47,1.47,0,0,0,1.5-1.5,1.72,1.72,0,0,0-1.6-1.6Z"/><path class="cls-11" d="M1072.8,370.65a1.55,1.55,0,1,0,1.6,1.5,1.5,1.5,0,0,0-1.6-1.5Z"/><path class="cls-11" d="M1090.7,370.35a1.56,1.56,0,0,0-1.6,1.5,1.58,1.58,0,0,0,1.6,1.6h0a1.58,1.58,0,0,0,1.6-1.6,1.56,1.56,0,0,0-1.6-1.5Z"/><path class="cls-11" d="M1110.8,371a1.55,1.55,0,0,0,.1,3.1,1.47,1.47,0,0,0,1.5-1.5,1.58,1.58,0,0,0-1.6-1.6Z"/><path class="cls-11" d="M1127.7,370.65a1.55,1.55,0,1,0,1.6,1.5,1.5,1.5,0,0,0-1.6-1.5Z"/><path class="cls-11" d="M1145.6,370.35a1.55,1.55,0,1,0,1.6,1.5,1.5,1.5,0,0,0-1.6-1.5Z"/><path class="cls-11" d="M1165.7,371a1.58,1.58,0,0,0-1.6,1.6,1.5,1.5,0,0,0,1.6,1.5h0a1.56,1.56,0,0,0,1.6-1.5A1.58,1.58,0,0,0,1165.7,371Z"/><rect class="cls-6" x="1548.3" y="367.95" width="12.7" height="12.7"/><rect class="cls-12" x="1158.8" y="417.65" width="17.9" height="17.9"/><rect class="cls-6" x="200.2" y="363.75" width="17.9" height="17.9"/></g></g></g></svg>