<svg width="1500" height="900" xmlns="http://www.w3.org/2000/svg">
 <!-- Created with Method Draw - http://github.com/duopixel/Method-Draw/ -->

 <g>
  <title>background</title>
  <rect fill="#fff" id="canvas_background" height="902" width="1502" y="-1" x="-1"/>
  <g display="none" overflow="visible" y="0" x="0" height="100%" width="100%" id="canvasGrid">
   <rect fill="url(#gridpattern)" stroke-width="0" y="0" x="0" height="100%" width="100%"/>
  </g>
 </g>
 <g>
  <title>Layer 1</title>
  <desc transform="matrix(0.013129322065253747,0,0,0.013129322065253747,0,0) ">Created with Sketch.</desc>
  <g stroke="null" id="svg_8">
   <g stroke="null" transform="matrix(1.0459576558329122,0,0,1.0459576558329122,-58980.00836593914,-35443.96895319136) " id="svg_4" fill="none">
    <rect stroke="null" x="56382.095547" y="33843.864254" id="svg_5" height="866" width="1440"/>
    <path stroke="null" id="svg_6" fill="#F7C636" d="m56382.095547,34669.064254c146.4,45.9 318.1,53.1 515,21.5c295.4,-47.4 296.1,-81.2 475,-127.4c119.3,-30.8 269.3,-34.1 450,-9.8l0,-708.2l-1440,-1.3l0,825.2z"/>
    <path stroke="#E3B630" id="svg_7" stroke-width="200" d="m57102.595547,33424.064254l-307.5,148.1l-75.9,332.7l212.7,266.9l341.4,0l212.7,-266.9l-75.9,-332.7l-307.5,-148.1z"/>
   </g>
  </g>
  <defs>
   <style>.cls-1{fill:#1b447f;}.cls-2,.cls-5{fill:#de4828;}.cls-3{fill:none;}.cls-3,.cls-4,.cls-5{stroke:#231f20;stroke-miterlimit:10;stroke-width:3px;}.cls-4{fill:#2472b5;}.cls-6{fill:#231f20;}.cls-7{fill:#2371b5;}</style>
  </defs>
  <g stroke="null" id="svg_65">
   <g stroke="null" transform="matrix(0.9642051310541543,0,0,0.9642051310541543,-55897.56459461358,-33563.28014622874) " id="svg_13">
    <g stroke="null" id="svg_14">
     <path stroke="null" id="svg_16" d="m58133.715865,35092.98529l11.1,-0.11l0,-4.41l-11,0.08c0,-0.25 -0.1,-0.5 -0.16,-0.75l10,-4.66l-1.86,-4l-9.52,4.43l7.43,-7.43l-3.12,-3.12l-7.77,7.74l-0.38,-0.27l4.1,-10.06l-4.08,-1.67l-4.08,10l-0.45,-0.1l-0.11,-10.78l-4.41,0l0.08,10.73l-0.46,0.08l-4.15,-9.81l-4.06,1.7l4.17,9.84l-0.31,0.2l-7.56,-7.56l-3.12,3.12l7.56,7.56l0,0.05l-9.74,-4.4l-1.82,4l9.77,4.42c-0.06,0.25 -0.11,0.5 -0.16,0.75l-10.79,-0.06l0,4.41l10.78,0.08c0,0.13 0.05,0.26 0.08,0.39l-10,4l1.64,4.09l10.08,-4c0.12,0.19 0.26,0.37 0.39,0.55l-7.61,7.78l3.14,3.08l7.16,-7.32l-4.29,9.3l4,1.84l4.62,-10l0.7,0.15l-0.09,11l4.41,0l0.09,-11.1l0.69,-0.16l4.5,10.16l4,-1.79l-4.51,-10.18l0.21,-0.16l8,7.71l3,-3.18l-8,-7.7l0.19,-0.32l10.4,4l1.57,-4.12l-10.36,-4l0.11,-0.02z" class="cls-1"/>
     <path stroke="null" id="svg_17" d="m59431.715865,35099.98529l11.1,-0.11l0,-4.41l-11,0.08c0,-0.25 -0.1,-0.5 -0.16,-0.75l10,-4.66l-1.86,-4l-9.52,4.43l7.43,-7.43l-3.12,-3.12l-7.69,7.69l-0.38,-0.27l4.1,-10.06l-4.08,-1.67l-4.08,10l-0.45,-0.1l-0.19,-10.73l-4.41,0l0.08,10.73l-0.46,0.08l-4.15,-9.81l-4.06,1.7l4.17,9.84l-0.31,0.2l-7.56,-7.56l-3.12,3.12l7.56,7.56l0,0.05l-9.73,-4.41l-1.82,4l9.77,4.42c-0.06,0.25 -0.11,0.5 -0.16,0.75l-10.73,-0.08l0,4.41l10.78,0.08c0,0.13 0.05,0.26 0.08,0.39l-10,4l1.64,4.09l10.08,-4c0.12,0.19 0.26,0.37 0.39,0.55l-7.61,7.78l3.15,3.08l7.16,-7.32l-4.29,9.3l4,1.84l4.62,-10l0.7,0.15l-0.09,11l4.41,0l0.09,-11.1l0.69,-0.16l4.5,10.16l4,-1.79l-4.51,-10.18l0.21,-0.16l8,7.71l3,-3.18l-8,-7.7l0.19,-0.32l10.4,4l1.57,-4.12l-10.36,-4l0.03,0.01z" class="cls-2"/>
     <circle stroke="null" id="svg_18" r="18.5" cy="35158.87529" cx="58057.815865" class="cls-3"/>
     <circle stroke="null" id="svg_19" r="14.5" cy="34999.87529" cx="58163.815865" class="cls-3"/>
     <circle stroke="null" id="svg_20" r="14.5" cy="35128.87529" cx="59162.815865" class="cls-3"/>
     <circle stroke="null" id="svg_21" r="10.5" cy="35070.87529" cx="59042.815865" class="cls-3"/>
     <circle stroke="null" id="svg_22" r="18.5" cy="35158.87529" cx="58513.815865" class="cls-4"/>
     <circle stroke="null" id="svg_23" r="18.5" cy="35041.87529" cx="59316.815865" class="cls-4"/>
     <path stroke="null" id="svg_24" d="m58302.735865,34991.93529a82,82 0 1 0 82,82a82,82 0 0 0 -82,-82zm35,83.59l-56.61,32.7a2,2 0 0 1 -0.94,0.22a1.88,1.88 0 0 1 -0.9,-0.22a1.9,1.9 0 0 1 -0.94,-1.62l0,-65.4a1.88,1.88 0 0 1 0.94,-1.58a1.79,1.79 0 0 1 1.84,0l56.59,32.69a1.83,1.83 0 0 1 0,3.2l0.02,0.01z" class="cls-5"/>
     <circle stroke="null" id="svg_25" r="18.5" cy="35069.87529" cx="58972.815865" class="cls-5"/>
     <path stroke="null" id="svg_26" d="m58451.385865,35070.46529a1.47,1.47 0 0 0 0,2.94a1.47,1.47 0 0 0 0,-2.94z" class="cls-6"/>
     <path stroke="null" id="svg_27" d="m58468.355865,35070.12529a1.47,1.47 0 0 0 0,2.94a1.47,1.47 0 0 0 0,-2.94z" class="cls-6"/>
     <path stroke="null" id="svg_28" d="m58487.415865,35070.63529a1.47,1.47 0 0 0 0,2.94a1.47,1.47 0 0 0 0,-2.94z" class="cls-6"/>
     <path stroke="null" id="svg_29" d="m58507.385865,35070.46529a1.47,1.47 0 0 0 0,2.94a1.47,1.47 0 0 0 0,-2.94z" class="cls-6"/>
     <path stroke="null" id="svg_30" d="m58524.355865,35070.12529a1.47,1.47 0 0 0 0,2.94a1.47,1.47 0 0 0 0,-2.94z" class="cls-6"/>
     <path stroke="null" id="svg_31" d="m58543.415865,35070.63529a1.47,1.47 0 0 0 0,2.94a1.47,1.47 0 0 0 0,-2.94z" class="cls-6"/>
     <path stroke="null" id="svg_32" d="m58559.385865,35070.46529a1.47,1.47 0 0 0 0,2.94a1.47,1.47 0 0 0 0,-2.94z" class="cls-6"/>
     <path stroke="null" id="svg_33" d="m58576.355865,35070.12529a1.47,1.47 0 0 0 0,2.94a1.47,1.47 0 0 0 0,-2.94z" class="cls-6"/>
     <path stroke="null" id="svg_34" d="m58595.415865,35070.63529a1.47,1.47 0 0 0 0,2.94a1.47,1.47 0 0 0 0,-2.94z" class="cls-6"/>
     <path stroke="null" id="svg_35" d="m58595.385865,35070.46529a1.47,1.47 0 0 0 0,2.94a1.47,1.47 0 0 0 0,-2.94z" class="cls-6"/>
     <path stroke="null" id="svg_36" d="m58612.355865,35070.12529a1.47,1.47 0 0 0 0,2.94a1.47,1.47 0 0 0 0,-2.94z" class="cls-6"/>
     <path stroke="null" id="svg_37" d="m58631.415865,35070.63529a1.47,1.47 0 0 0 0,2.94a1.47,1.47 0 0 0 0,-2.94z" class="cls-6"/>
     <path stroke="null" id="svg_38" d="m58651.385865,35070.46529a1.47,1.47 0 0 0 0,2.94a1.47,1.47 0 0 0 0,-2.94z" class="cls-6"/>
     <path stroke="null" id="svg_39" d="m58668.355865,35070.12529a1.47,1.47 0 0 0 0,2.94a1.47,1.47 0 0 0 0,-2.94z" class="cls-6"/>
     <path stroke="null" id="svg_40" d="m58687.415865,35070.63529a1.47,1.47 0 0 0 0,2.94a1.47,1.47 0 0 0 0,-2.94z" class="cls-6"/>
     <path stroke="null" id="svg_41" d="m58703.385865,35070.46529a1.47,1.47 0 0 0 0,2.94a1.47,1.47 0 0 0 0,-2.94z" class="cls-6"/>
     <path stroke="null" id="svg_42" d="m58720.355865,35070.12529a1.47,1.47 0 0 0 0,2.94a1.47,1.47 0 0 0 0,-2.94z" class="cls-6"/>
     <path stroke="null" id="svg_43" d="m58739.415865,35070.63529a1.47,1.47 0 0 0 0,2.94a1.47,1.47 0 0 0 0,-2.94z" class="cls-6"/>
     <path stroke="null" id="svg_44" d="m58755.385865,35070.46529a1.47,1.47 0 0 0 0,2.94a1.47,1.47 0 0 0 0,-2.94z" class="cls-6"/>
     <path stroke="null" id="svg_45" d="m58772.355865,35070.12529a1.47,1.47 0 0 0 0,2.94a1.47,1.47 0 0 0 0,-2.94z" class="cls-6"/>
     <path stroke="null" id="svg_46" d="m58791.415865,35070.63529a1.47,1.47 0 0 0 0,2.94a1.47,1.47 0 0 0 0,-2.94z" class="cls-6"/>
     <path stroke="null" id="svg_47" d="m59097.385865,35070.46529a1.47,1.47 0 0 0 0,2.94a1.47,1.47 0 0 0 0,-2.94z" class="cls-6"/>
     <path stroke="null" id="svg_48" d="m59114.355865,35070.12529a1.47,1.47 0 0 0 0,2.94a1.47,1.47 0 0 0 0,-2.94z" class="cls-6"/>
     <path stroke="null" id="svg_49" d="m59133.415865,35070.63529a1.47,1.47 0 0 0 0,2.94a1.47,1.47 0 0 0 0,-2.94z" class="cls-6"/>
     <path stroke="null" id="svg_50" d="m59149.385865,35070.46529a1.47,1.47 0 0 0 0,2.94a1.47,1.47 0 0 0 0,-2.94z" class="cls-6"/>
     <path stroke="null" id="svg_51" d="m59166.355865,35070.12529a1.47,1.47 0 0 0 0,2.94a1.47,1.47 0 0 0 0,-2.94z" class="cls-6"/>
     <path stroke="null" id="svg_52" d="m59185.415865,35070.63529a1.47,1.47 0 0 0 0,2.94a1.47,1.47 0 0 0 0,-2.94z" class="cls-6"/>
     <path stroke="null" id="svg_53" d="m59201.385865,35070.46529a1.47,1.47 0 0 0 0,2.94a1.47,1.47 0 0 0 0,-2.94z" class="cls-6"/>
     <path stroke="null" id="svg_54" d="m59218.355865,35070.12529a1.47,1.47 0 0 0 0,2.94a1.47,1.47 0 0 0 0,-2.94z" class="cls-6"/>
     <path stroke="null" id="svg_55" d="m59237.415865,35070.63529a1.47,1.47 0 0 0 0,2.94a1.47,1.47 0 0 0 0,-2.94z" class="cls-6"/>
     <path stroke="null" id="svg_56" d="m58809.385865,35070.46529a1.47,1.47 0 0 0 0,2.94a1.47,1.47 0 0 0 0,-2.94z" class="cls-6"/>
     <path stroke="null" id="svg_57" d="m58826.355865,35070.12529a1.47,1.47 0 0 0 0,2.94a1.47,1.47 0 0 0 0,-2.94z" class="cls-6"/>
     <path stroke="null" id="svg_58" d="m58845.415865,35070.63529a1.47,1.47 0 0 0 0,2.94a1.47,1.47 0 0 0 0,-2.94z" class="cls-6"/>
     <path stroke="null" id="svg_59" d="m58861.385865,35070.46529a1.47,1.47 0 0 0 0,2.94a1.47,1.47 0 0 0 0,-2.94z" class="cls-6"/>
     <path stroke="null" id="svg_60" d="m58878.355865,35070.12529a1.47,1.47 0 0 0 0,2.94a1.47,1.47 0 0 0 0,-2.94z" class="cls-6"/>
     <path stroke="null" id="svg_61" d="m58897.415865,35070.63529a1.47,1.47 0 0 0 0,2.94a1.47,1.47 0 0 0 0,-2.94z" class="cls-6"/>
     <rect stroke="null" id="svg_62" height="12" width="12" y="35067.87529" x="59259.815865" class="cls-2"/>
     <rect stroke="null" id="svg_63" height="17" width="17" y="35114.87529" x="58890.815865" class="cls-7"/>
     <rect stroke="null" x="57982.815865" id="svg_64" height="17" width="17" y="35063.87529" class="cls-2"/>
    </g>
   </g>
  </g>
 </g>
</svg>