<?xml version="1.0" encoding="UTF-8"?>
<svg width="1440px" height="1128px" viewBox="0 0 1440 1128" version="1.1" xmlns="http://www.w3.org/2000/svg" xmlns:xlink="http://www.w3.org/1999/xlink">
    <!-- Generator: Sketch 60 (88103) - https://sketch.com -->
    <title>Group 2</title>
    <desc>Created with Sketch.</desc>
    <g id="Final" stroke="none" stroke-width="1" fill="none" fill-rule="evenodd">
        <g id="Homepage-" transform="translate(0.000000, -2743.000000)" fill-rule="nonzero">
            <g id="Section-3" transform="translate(-2.000000, 1512.000000)">
                <g id="yellow" transform="translate(0.000000, 1230.000000)">
                    <g id="Group-2" transform="translate(0.000000, 0.009721)">
                        <path d="M1442,1126.43001 C946.79,1147.56001 561.12,1029.92028 593.93,878.130279 C625.989869,729.902287 1026.92079,-415.035788 1441.96089,256.417098 L1442,1126.43001 Z" id="Rectangle" fill="#F7C636"></path>
                        <g id="blue" transform="translate(0.000000, 0.990279)" fill="#004280">
                            <path d="M1098.93,158.39 C883.14,53.06 478.57,-7.61 2,0.77 L0,924.69 C321.886667,1056.99 705.01,1122.72 1149.37,1121.88795 C806.87,1095.66 571.28,997.65 597.07,878.36 C631.5,719.19 1308,746.45 1348,490.3 C1360.44,410.73 1314.71,263.73 1098.93,158.39 Z" id="Path"></path>
                        </g>
                    </g>
                </g>
            </g>
        </g>
    </g>
</svg>