<?xml version="1.0" encoding="UTF-8"?>
<svg width="135px" height="119px" viewBox="0 0 135 119" version="1.1" xmlns="http://www.w3.org/2000/svg" xmlns:xlink="http://www.w3.org/1999/xlink">
    <!-- Generator: Sketch 59.1 (86144) - https://sketch.com -->
    <title>ambassador</title>
    <desc>Created with Sketch.</desc>
    <defs>
        <ellipse id="path-1" cx="55" cy="54.5" rx="55" ry="54.5"></ellipse>
    </defs>
    <g id="Final" stroke="none" stroke-width="1" fill="none" fill-rule="evenodd">
        <g id="Homepage-" transform="translate(-1033.000000, -4844.000000)">
            <g id="Section-4" transform="translate(67.000000, 4520.000000)">
                <g id="ambassador" transform="translate(964.000000, 324.000000)">
                    <ellipse id="Oval" fill="#223B7C" fill-rule="nonzero" cx="71" cy="64.5" rx="55" ry="54.5"></ellipse>
                    <g id="Group" transform="translate(16.000000, 10.000000)">
                        <mask id="mask-2" fill="white">
                            <use xlink:href="#path-1"></use>
                        </mask>
                        <use id="Mask" fill="#223B7C" fill-rule="nonzero" xlink:href="#path-1"></use>
                        <g mask="url(#mask-2)" fill-rule="nonzero">
                            <g transform="translate(16.000000, 20.000000)">
                                <path d="M18.9583801,70.1080472 L108.142734,70.2774293 C109.34513,70.2797129 110.319294,71.2538831 110.32157,72.4562793 C110.323835,73.6527978 109.355701,74.6246038 108.159183,74.6268687 C108.156444,74.6268739 108.153706,74.6268739 108.150967,74.6268687 L18.9666133,74.4574866 C17.7642171,74.455203 16.7900531,73.4810328 16.787777,72.2786366 C16.7855121,71.0821181 17.7536459,70.1103121 18.9501644,70.1080472 C18.952903,70.108042 18.9556415,70.108042 18.9583801,70.1080472 Z" id="Rectangle" fill="#0D182D" transform="translate(63.554674, 72.367458) rotate(-65.610000) translate(-63.554674, -72.367458) "></path>
                                <path d="M68.5193793,45.2608944 C69.0865669,42.470539 69.3713226,39.6306588 69.3693892,36.7838089 C69.3693892,16.4770653 55.1433103,0.0151647327 37.5969655,0.0151647327 C20.0506207,0.0151647327 5.82452657,16.4770653 5.82452657,36.7838089 C5.8214507,39.6305413 6.10502795,42.4704204 6.67103448,45.2608944 L68.5193793,45.2608944 Z" id="Path" fill="#FAF3E9"></path>
                                <ellipse id="Oval" fill="#AA8565" cx="37.4070345" cy="30.5452712" rx="20.4011724" ry="24.9763147"></ellipse>
                                <ellipse id="Oval" fill="#AA8565" cx="19.4151724" cy="24.5983629" rx="3.85372414" ry="5.214335"></ellipse>
                                <ellipse id="Oval" fill="#AA8565" cx="55.0565517" cy="24.5983629" rx="3.85372414" ry="5.214335"></ellipse>
                                <rect id="Rectangle" fill="#AA8565" x="17.1277931" y="27.4528322" width="40.6792414" height="45.1955694"></rect>
                                <rect id="Rectangle" fill="#F7C635" x="17.1277931" y="50.3877406" width="40.6792414" height="22.260661"></rect>
                                <rect id="Rectangle" fill="#F7C635" x="0.0551034483" y="60.8269093" width="74.8246207" height="33.6272114" rx="16.8136057"></rect>
                                <path d="M48.2377931,26.2058246 C48.0111659,26.2058246 47.8274483,26.0230308 47.8274483,25.7975433 C47.8274483,24.9948699 47.3970628,24.253169 46.6984138,23.8518322 C45.9997649,23.4504955 45.1389938,23.4504955 44.4403448,23.8518322 C43.7416958,24.253169 43.3113103,24.9948699 43.3113103,25.7975433 C43.3113103,26.0230308 43.1275927,26.2058246 42.9009655,26.2058246 C42.6743383,26.2058246 42.4906207,26.0230308 42.4906207,25.7975433 C42.4906207,24.1057427 43.8690279,22.7342673 45.5693793,22.7342673 C47.2697307,22.7342673 48.6481379,24.1057427 48.6481379,25.7975433 C48.6481379,26.0230308 48.4644203,26.2058246 48.2377931,26.2058246 Z" id="Path" fill="#332E29"></path>
                                <path d="M32.8791724,26.2058246 C32.6525452,26.2058246 32.4688276,26.0230308 32.4688276,25.7975433 C32.4688276,24.5567177 31.4578557,23.5508298 30.2107586,23.5508298 C28.9636616,23.5508298 27.9526897,24.5567177 27.9526897,25.7975433 C27.9526897,26.0230308 27.768972,26.2058246 27.5423448,26.2058246 C27.3157176,26.2058246 27.132,26.0230308 27.132,25.7975433 C27.132,24.7031402 27.718808,23.6918699 28.6713793,23.1446683 C29.6239505,22.5974667 30.7975667,22.5974667 31.750138,23.1446683 C32.7027092,23.6918699 33.2895172,24.7031402 33.2895172,25.7975433 C33.2895172,26.0230308 33.1057996,26.2058246 32.8791724,26.2058246 Z" id="Path" fill="#332E29"></path>
                                <path d="M38.065931,29.9795116 C37.0960073,29.9763091 36.3105274,29.1947793 36.3073103,28.2297331 C36.3073103,28.0042456 36.491028,27.8214519 36.7176552,27.8214519 C36.9442824,27.8214519 37.128,28.0042456 37.128,28.2297331 C37.128,28.747388 37.5497632,29.1670303 38.0700345,29.1670303 C38.5903058,29.1670303 39.012069,28.747388 39.012069,28.2297331 C39.012069,28.0042456 39.1957866,27.8214519 39.4224138,27.8214519 C39.649041,27.8214519 39.8327586,28.0042456 39.8327586,28.2297331 C39.8295265,29.1979621 39.0390582,29.980802 38.065931,29.9795116 L38.065931,29.9795116 Z" id="Path" fill="#332E29"></path>
                                <path d="M63.5166897,19.5975007 C57.7589655,7.74684536 48.294069,0.0151647327 37.5946207,0.0151647327 C26.8951724,0.0151647327 17.4291034,7.74684536 11.6725517,19.5975007 L42.1435862,19.5975007 L41.9536552,10.2653575 L55.7717241,19.5975007 L63.5166897,19.5975007 Z" id="Path" fill="#FAF3E9"></path>
                                <path d="M42.4038621,33.6972025 C42.4038621,36.9459549 40.4576552,39.5799523 38.0565517,39.5799523 C35.6554483,39.5799523 33.7092414,36.9459549 33.7092414,33.6972025" id="Path" fill="#89684E"></path>
                                <path d="M49.3422842,85.1942734 L67.6868882,85.1942734 C67.9462144,85.1942734 68.1564399,85.4044988 68.1564399,85.6638251 C68.1564399,85.9231514 67.9462144,86.1333768 67.6868882,86.1333768 L49.3422842,86.1333768 C49.082958,86.1333768 48.8727325,85.9231514 48.8727325,85.6638251 C48.8727325,85.4044988 49.082958,85.1942734 49.3422842,85.1942734 Z" id="Rectangle" fill="#BE932D" transform="translate(58.514586, 85.663825) rotate(90.000000) translate(-58.514586, -85.663825) "></path>
                            </g>
                        </g>
                    </g>
                    <path d="M0.714628124,80.7289348 L40.3060114,80.5969646 C43.8011463,80.5853142 46.6439575,83.4092365 46.6556079,86.9043714 C46.6556547,86.9184185 46.6556548,86.9324657 46.655608,86.9465127 C46.643884,90.471841 43.7889654,93.3267814 40.2636372,93.3385324 L0.672253954,93.4705026 C-2.82288101,93.482153 -5.6656922,90.6582308 -5.67734256,87.1630958 C-5.67738938,87.1490487 -5.67738943,87.1350015 -5.67734272,87.1209545 C-5.66561866,83.5956262 -2.81070005,80.7406858 0.714628124,80.7289348 Z" id="Rectangle" fill="#AA8565" fill-rule="nonzero" transform="translate(20.489133, 87.033734) rotate(54.510000) translate(-20.489133, -87.033734) "></path>
                    <path d="M10.3746016,79.8886016 L32.0663601,79.8463579 C33.8635715,79.8428579 35.3233365,81.2969483 35.3268365,83.0941597 C35.3268447,83.0983722 35.3268447,83.1025846 35.3268366,83.1067971 C35.3233396,84.9130502 33.8599638,86.3764427 32.0537108,86.3799603 L10.3619522,86.422204 C8.56474083,86.425704 7.10497583,84.9716136 7.10147584,83.1744022 C7.10146763,83.1701897 7.10146761,83.1659773 7.10147577,83.1617648 C7.10497275,81.3555117 8.56834858,79.8921192 10.3746016,79.8886016 Z" id="Rectangle" fill="#AA8565" fill-rule="nonzero" transform="translate(21.214156, 83.134281) rotate(73.270000) translate(-21.214156, -83.134281) "></path>
                    <path d="M61.5,9 L79.5,9 C80.3284271,9 81,9.67157288 81,10.5 C81,11.3284271 80.3284271,12 79.5,12 L61.5,12 C60.6715729,12 60,11.3284271 60,10.5 C60,9.67157288 60.6715729,9 61.5,9 Z" id="Rectangle" fill="#F7C635" fill-rule="nonzero" transform="translate(70.500000, 10.500000) rotate(-90.000000) translate(-70.500000, -10.500000) "></path>
                    <path d="M27.210242,19.821672 L44.3741999,19.7612248 C45.4156157,19.7575572 46.2628232,20.5988183 46.2664908,21.6402341 C46.2665064,21.6446613 46.2665064,21.6490885 46.2664908,21.6535157 C46.2627897,22.7044493 45.4117581,23.555481 44.3608245,23.5591821 L27.1968665,23.6196293 C26.1554507,23.6232969 25.3082432,22.7820358 25.3045756,21.74062 C25.30456,21.7361928 25.30456,21.7317656 25.3045756,21.7273384 C25.3082767,20.6764048 26.1593084,19.8253731 27.210242,19.821672 Z" id="Rectangle" fill="#F7C635" fill-rule="nonzero" transform="translate(35.785533, 21.690427) rotate(-135.000000) translate(-35.785533, -21.690427) "></path>
                    <path d="M97.080718,19.7602592 L114.244676,19.8207064 C115.29561,19.8244075 116.146641,20.6754392 116.150342,21.7263728 C116.15401,22.7677886 115.312749,23.6149961 114.271333,23.6186637 C114.266906,23.6186793 114.262479,23.6186793 114.258051,23.6186637 L97.0940935,23.5582165 C96.0431599,23.5545154 95.1921282,22.7034837 95.1884271,21.6525501 C95.1847595,20.6111343 96.0260206,19.7639268 97.0674364,19.7602592 C97.0718636,19.7602436 97.0762908,19.7602436 97.080718,19.7602592 Z" id="Rectangle" fill="#F7C635" fill-rule="nonzero" transform="translate(105.669385, 21.689461) rotate(-45.000000) translate(-105.669385, -21.689461) "></path>
                    <rect id="Rectangle" fill="#F7C635" fill-rule="nonzero" transform="translate(16.500000, 47.500000) rotate(-180.000000) translate(-16.500000, -47.500000) " x="6" y="46" width="21" height="3" rx="1.5"></rect>
                    <rect id="Rectangle" fill="#F7C635" fill-rule="nonzero" transform="translate(126.500000, 47.500000) rotate(-180.000000) translate(-126.500000, -47.500000) " x="116" y="46" width="21" height="3" rx="1.5"></rect>
                    <path d="M13.0308258,87.6880302 L43.7008317,87.5857977 C48.488723,87.5698382 52.3830136,91.4382532 52.3989731,96.2261446 C52.3990372,96.2453873 52.3990373,96.2646301 52.3989733,96.2838728 C52.3829128,101.113125 48.4720367,105.024031 43.6427844,105.040129 L12.9727785,105.142361 C8.18488721,105.158321 4.29059665,101.289906 4.27463714,96.5020142 C4.274573,96.4827715 4.27457293,96.4635287 4.27463692,96.444286 C4.29069739,91.6150336 8.20157358,87.7041276 13.0308258,87.6880302 Z" id="Rectangle" fill="#F7C635" fill-rule="nonzero" transform="translate(28.336805, 96.364079) rotate(54.510000) translate(-28.336805, -96.364079) "></path>
                    <polygon id="Path" fill="#DD4727" fill-rule="nonzero" points="131 87 113 78.7681673 119.334402 64"></polygon>
                    <path d="M130.584769,86.9976851 C130.527349,86.9975943 130.47058,86.9857683 130.418096,86.9629638 L111.246014,78.6645788 C111.145673,78.6210133 111.067126,78.5401926 111.027663,78.4399074 C110.9882,78.3396222 110.991057,78.2280933 111.035605,78.1298711 L117.78171,63.2413878 C117.845947,63.0992356 117.9876,63.0056118 118.146274,63.0002072 C118.304948,62.9952545 118.452654,63.0794346 118.526417,63.2170829 L130.952394,86.406266 C131.019913,86.531881 131.01535,86.6829343 130.940369,86.8044234 C130.865388,86.9259125 130.730928,87 130.585951,87 L130.584769,86.9976851 Z M111.958806,78.0858908 L129.667478,85.7523487 L118.189526,64.3339506 L111.958806,78.0858908 Z" id="Shape" fill="#DD4727" fill-rule="nonzero"></path>
                    <path d="M61.9577132,96.8006764 C61.7788592,96.2702378 61.051193,96.0050185 60.7167606,95.5645865 C60.3823281,95.1241545 60.3370021,94.3753 59.8739418,94.0500764 C59.4108815,93.7248527 58.66729,93.9204669 58.1111276,93.7476544 C57.5782408,93.5808422 57.091905,93 56.5002168,93 C55.9085287,93 55.4221929,93.5808422 54.890531,93.7476544 C54.3380438,93.9192669 53.5871021,93.728453 53.1277169,94.0488763 C52.6683316,94.3692996 52.6217806,95.118154 52.2848981,95.5633864 C51.9480156,96.0086188 51.2215745,96.2690377 51.0427205,96.7994763 C50.8699917,97.3107135 51.287726,97.9335588 51.287726,98.5 C51.287726,99.0664412 50.8675416,99.6880864 51.0427205,100.199324 C51.2215745,100.728562 51.9504657,100.994981 52.2848981,101.436614 C52.6193306,101.878246 52.6634315,102.6259 53.1277169,102.949924 C53.5920022,103.273947 54.3380438,103.079533 54.890531,103.252346 C55.4221929,103.417958 55.9097537,104 56.5002168,104 C57.09068,104 57.5782408,103.417958 58.1111276,103.252346 C58.6636149,103.079533 59.4145566,103.270347 59.8739418,102.949924 C60.3333271,102.6295 60.3798781,101.880646 60.7167606,101.435413 C61.0536431,100.990181 61.7788592,100.728562 61.9577132,100.199324 C62.131667,99.6880864 61.7127077,99.0652411 61.7127077,98.5 C61.7127077,97.9347589 62.131667,97.3107135 61.9577132,96.8006764 Z" id="Path" fill="#DD4727" fill-rule="nonzero"></path>
                    <path d="M55.059871,100.327016 L57.0399466,100.320988 C57.2968006,100.320206 57.5056559,100.527793 57.5064379,100.784647 C57.5064408,100.785593 57.5064408,100.786538 57.5064379,100.787484 C57.5056469,101.04637 57.2959733,101.256041 57.0370873,101.25683 L55.0570117,101.262858 C54.8001577,101.26364 54.5913024,101.056053 54.5905204,100.799199 C54.5905175,100.798253 54.5905175,100.797307 54.5905204,100.796362 C54.5913114,100.537476 54.800985,100.327804 55.059871,100.327016 Z" id="Rectangle" fill="#FAF3E9" fill-rule="nonzero" transform="translate(56.048479, 100.791923) rotate(-150.000000) translate(-56.048479, -100.791923) "></path>
                    <path d="M56.0330082,99.0357894 L60.2624043,99.0494536 C60.5221398,99.0502928 60.7324881,99.2606429 60.7333249,99.5203785 C60.7341547,99.7779581 60.5260178,99.9874404 60.2684382,99.9882703 C60.2674351,99.9882735 60.266432,99.9882735 60.2654288,99.9882702 L56.0360328,99.974606 C55.7762972,99.9737668 55.565949,99.7634167 55.5651122,99.5036811 C55.5642824,99.2461015 55.7724192,99.0366192 56.0299988,99.0357894 C56.031002,99.0357861 56.0320051,99.0357862 56.0330082,99.0357894 Z" id="Rectangle" fill="#FAF3E9" fill-rule="nonzero" transform="translate(58.149219, 99.512030) rotate(123.180000) translate(-58.149219, -99.512030) "></path>
                </g>
            </g>
        </g>
    </g>
</svg>