<?xml version="1.0" encoding="UTF-8"?>
<svg width="138px" height="132px" viewBox="0 0 138 132" version="1.1" xmlns="http://www.w3.org/2000/svg" xmlns:xlink="http://www.w3.org/1999/xlink">
    <!-- Generator: Sketch 59.1 (86144) - https://sketch.com -->
    <title>create-a-thon</title>
    <desc>Created with Sketch.</desc>
    <g id="Final" stroke="none" stroke-width="1" fill="none" fill-rule="evenodd">
        <g id="Homepage-" transform="translate(-636.000000, -4799.000000)">
            <g id="Section-4" transform="translate(67.000000, 4520.000000)">
                <g id="create-a-thon" transform="translate(566.000000, 279.000000)">
                    <ellipse id="Oval" fill="#DD4727" fill-rule="nonzero" cx="69.5" cy="77" rx="55.5" ry="55"></ellipse>
                    <rect id="Rectangle" fill="#223B7C" fill-rule="nonzero" x="48" y="66" width="91" height="56" rx="12"></rect>
                    <path d="M117.326923,117 L102.673077,117 C101.749589,116.998704 101.001271,116.235713 101,115.294118 L101,96.7058824 C101.001271,95.7642869 101.749589,95.0012961 102.673077,95 L117.326923,95 C118.250411,95.0012961 118.998729,95.7642869 119,96.7058824 L119,115.294118 C118.998729,116.235713 118.250411,116.998704 117.326923,117 L117.326923,117 Z M102.673077,95.5882353 C102.067951,95.5888837 101.577559,96.0888917 101.576923,96.7058824 L101.576923,115.294118 C101.577559,115.911108 102.067951,116.411116 102.673077,116.411765 L117.326923,116.411765 C117.932049,116.411116 118.422441,115.911108 118.423077,115.294118 L118.423077,96.7058824 C118.422441,96.0888917 117.932049,95.5888837 117.326923,95.5882353 L102.673077,95.5882353 Z" id="Shape" fill="#7997C9" fill-rule="nonzero"></path>
                    <path d="M132.25659,117 L102.73981,117 C101.779488,116.998721 101.001322,116.246546 101,115.318298 L101,96.993556 C101.001322,96.065308 101.779488,95.3131327 102.73981,95.311855 L115.282042,95.311855 L115.282042,73.681701 C115.283364,72.7534529 116.06153,72.0012777 117.021852,72 L132.26019,72 C133.220512,72.0012777 133.998678,72.7534529 134,73.681701 L134,115.318298 C133.998676,116.247904 133.218318,117.00064 132.25659,117 L132.25659,117 Z M102.73981,95.8917519 C102.110548,95.8923912 101.600596,96.3853114 101.599935,96.993556 L101.599935,115.318298 C101.600596,115.926542 102.110548,116.419463 102.73981,116.420102 L132.25659,116.420102 C132.885852,116.419463 133.395805,115.926542 133.396466,115.318298 L133.396466,73.681701 C133.395805,73.0734564 132.885852,72.5805361 132.25659,72.5798969 L117.018253,72.5798969 C116.388991,72.5805361 115.879038,73.0734564 115.878377,73.681701 L115.878377,95.8917519 L102.73981,95.8917519 Z" id="Shape" fill="#7997C9" fill-rule="nonzero"></path>
                    <path d="M110.706993,85 L102.293007,85 C102.131184,85 102,84.7761424 102,84.5 C102,84.2238576 102.131184,84 102.293007,84 L110.706993,84 C110.868816,84 111,84.2238576 111,84.5 C111,84.7761424 110.868816,85 110.706993,85 L110.706993,85 Z" id="Path" fill="#7997C9" fill-rule="nonzero"></path>
                    <path d="M110.706993,88 L102.293007,88 C102.131184,88 102,87.7761424 102,87.5 C102,87.2238576 102.131184,87 102.293007,87 L110.706993,87 C110.868816,87 111,87.2238576 111,87.5 C111,87.7761424 110.868816,88 110.706993,88 L110.706993,88 Z" id="Path" fill="#7997C9" fill-rule="nonzero"></path>
                    <path d="M110.706993,91 L102.293007,91 C102.131184,91 102,90.7761424 102,90.5 C102,90.2238576 102.131184,90 102.293007,90 L110.706993,90 C110.868816,90 111,90.2238576 111,90.5 C111,90.7761424 110.868816,91 110.706993,91 L110.706993,91 Z" id="Path" fill="#7997C9" fill-rule="nonzero"></path>
                    <path d="M110.706993,76 L102.293007,76 C102.131184,76 102,75.7761424 102,75.5 C102,75.2238576 102.131184,75 102.293007,75 L110.706993,75 C110.868816,75 111,75.2238576 111,75.5 C111,75.7761424 110.868816,76 110.706993,76 L110.706993,76 Z" id="Path" fill="#7997C9" fill-rule="nonzero"></path>
                    <path d="M110.706993,79 L102.293007,79 C102.131184,79 102,78.7761424 102,78.5 C102,78.2238576 102.131184,78 102.293007,78 L110.706993,78 C110.868816,78 111,78.2238576 111,78.5 C111,78.7761424 110.868816,79 110.706993,79 L110.706993,79 Z" id="Path" fill="#7997C9" fill-rule="nonzero"></path>
                    <path d="M110.706993,82 L102.293007,82 C102.131184,82 102,81.7761424 102,81.5 C102,81.2238576 102.131184,81 102.293007,81 L110.706993,81 C110.868816,81 111,81.2238576 111,81.5 C111,81.7761424 110.868816,82 110.706993,82 L110.706993,82 Z" id="Path" fill="#7997C9" fill-rule="nonzero"></path>
                    <path d="M93.6748855,84.999951 L81.3113773,84.999951 C81.1381199,84.9954668 81,84.8510145 81,84.6743739 L81,71.324358 C81.0006279,71.1454858 81.1427443,71.00064 81.3182459,71 L93.6817541,71 C93.8572557,71.00064 93.9993721,71.1454858 94,71.324358 L94,84.6743739 C94,84.7617288 93.9655792,84.8454238 93.9044381,84.906642 C93.843297,84.9678603 93.7605805,85.0014642 93.6748855,84.999951 Z M81.5689503,84.416521 L93.4207467,84.416521 L93.4207467,71.582211 L81.5723847,71.582211 L81.5689503,84.416521 Z" id="Shape" fill="#7997C9" fill-rule="nonzero"></path>
                    <path d="M93.6817541,101 L81.3182459,101 C81.1427443,100.99936 81.0006279,100.854513 81,100.67564 L81,87.3243604 C81.0006279,87.1454868 81.1427443,87.00064 81.3182459,87 L93.6817541,87 C93.8572557,87.00064 93.9993721,87.1454868 94,87.3243604 L94,100.67564 C93.9993721,100.854513 93.8572557,100.99936 93.6817541,101 L93.6817541,101 Z M81.575819,100.416618 L93.4276154,100.416618 L93.4276154,87.5822152 L81.5792533,87.5822152 L81.575819,100.416618 Z" id="Shape" fill="#7997C9" fill-rule="nonzero"></path>
                    <path d="M93.6748855,115.999951 L81.3113773,115.999951 C81.1381199,115.995467 81,115.851014 81,115.674374 L81,102.324358 C81.0006279,102.145486 81.1427443,102.00064 81.3182459,102 L93.6817541,102 C93.8572557,102.00064 93.9993721,102.145486 94,102.324358 L94,115.674374 C94,115.761729 93.9655792,115.845424 93.9044381,115.906642 C93.843297,115.96786 93.7605805,116.001464 93.6748855,115.999951 Z M81.5689503,115.416521 L93.4207467,115.416521 L93.4207467,102.582211 L81.5723847,102.582211 L81.5689503,115.416521 Z" id="Shape" fill="#7997C9" fill-rule="nonzero"></path>
                    <path d="M77.6546213,85.9999446 L71.3307853,85.9999446 C71.1467288,85.9948761 71,85.8315986 71,85.6319382 L71,78.3666284 C71.0006671,78.1644455 71.1516415,78.0007234 71.338082,78 L77.661918,78 C77.8483585,78.0007234 77.9993329,78.1644455 78,78.3666284 L78,85.6319382 C78,85.7306772 77.9634338,85.8252794 77.8984818,85.8944756 C77.8335298,85.9636718 77.7456576,86.001655 77.6546213,85.9999446 Z M71.6044128,85.3404818 L77.3846421,85.3404818 L77.3846421,78.6594037 L71.6080612,78.6594037 L71.6044128,85.3404818 Z" id="Shape" fill="#7997C9" fill-rule="nonzero"></path>
                    <path d="M126.654621,85.9999446 L120.330785,85.9999446 C120.146729,85.9948761 120,85.8315986 120,85.6319382 L120,78.3666284 C120.000667,78.1644455 120.151641,78.0007234 120.338082,78 L126.661918,78 C126.848359,78.0007234 126.999333,78.1644455 127,78.3666284 L127,85.6319382 C127,85.7306772 126.963434,85.8252794 126.898482,85.8944756 C126.83353,85.9636718 126.745658,86.001655 126.654621,85.9999446 Z M120.604413,85.3404818 L126.384642,85.3404818 L126.384642,78.6594037 L120.608061,78.6594037 L120.604413,85.3404818 Z" id="Shape" fill="#7997C9" fill-rule="nonzero"></path>
                    <path d="M62.6546213,116.999945 L56.3307853,116.999945 C56.1467288,116.994876 56,116.831599 56,116.631938 L56,109.366628 C56.0006671,109.164446 56.1516415,109.000723 56.338082,109 L62.661918,109 C62.8483585,109.000723 62.9993329,109.164446 63,109.366628 L63,116.631938 C63,116.730677 62.9634338,116.825279 62.8984818,116.894476 C62.8335298,116.963672 62.7456576,117.001655 62.6546213,116.999945 Z M56.6044128,116.340482 L62.3846421,116.340482 L62.3846421,109.659404 L56.6080612,109.659404 L56.6044128,116.340482 Z" id="Shape" fill="#7997C9" fill-rule="nonzero"></path>
                    <path d="M77.6817541,101 L65.3182459,101 C65.1427443,100.99936 65.0006279,100.854513 65,100.67564 L65,87.3243604 C65.0006279,87.1454868 65.1427443,87.00064 65.3182459,87 L77.6817541,87 C77.8572557,87.00064 77.9993721,87.1454868 78,87.3243604 L78,100.67564 C77.9993721,100.854513 77.8572557,100.99936 77.6817541,101 L77.6817541,101 Z M65.575819,100.416618 L77.4276154,100.416618 L77.4276154,87.5822152 L65.5792533,87.5822152 L65.575819,100.416618 Z" id="Shape" fill="#7997C9" fill-rule="nonzero"></path>
                    <path d="M77.6748855,115.999951 L65.3113773,115.999951 C65.1381199,115.995467 65,115.851014 65,115.674374 L65,102.324358 C65.0006279,102.145486 65.1427443,102.00064 65.3182459,102 L77.6817541,102 C77.8572557,102.00064 77.9993721,102.145486 78,102.324358 L78,115.674374 C78,115.761729 77.9655792,115.845424 77.9044381,115.906642 C77.843297,115.96786 77.7605805,116.001464 77.6748855,115.999951 Z M65.5689503,115.416521 L77.4207467,115.416521 L77.4207467,102.582211 L65.5723847,102.582211 L65.5689503,115.416521 Z" id="Shape" fill="#7997C9" fill-rule="nonzero"></path>
                    <polygon id="Rectangle" fill="#7997C9" fill-rule="nonzero" transform="translate(87.537742, 77.971317) rotate(-46.540000) translate(-87.537742, -77.971317) " points="78.261501 77.6816662 96.8141759 77.6755469 96.8139828 78.2609686 78.2613079 78.2670879"></polygon>
                    <polygon id="Rectangle" fill="#7997C9" fill-rule="nonzero" transform="translate(87.538075, 93.621266) rotate(-46.280000) translate(-87.538075, -93.621266) " points="78.3045992 93.3316009 96.7717442 93.3255071 96.771551 93.9109306 78.304406 93.9170245"></polygon>
                    <polygon id="Rectangle" fill="#7997C9" fill-rule="nonzero" transform="translate(87.540460, 109.240843) rotate(-46.540000) translate(-87.540460, -109.240843) " points="78.2642188 108.951191 96.8168938 108.945072 96.8167007 109.530494 78.2640257 109.536613"></polygon>
                    <path d="M18.5536055,44.5695769 L77.3109194,44.558856 C83.9383355,44.5532697 89.3118987,49.9248723 89.3131079,56.5522892 C89.3131082,56.5537485 89.3131082,56.5552078 89.3087309,56.5566663 L89.3036247,84.5573601 C89.2980378,91.1830666 83.927143,96.5539619 77.3014365,96.5595494 L18.5441226,96.5702703 C11.9167065,96.5758566 6.54314335,91.204254 6.54193411,84.5768371 C6.54193384,84.5753778 6.54193384,84.5739185 6.54631116,84.57246 L6.55141737,56.5717662 C6.55700428,49.9460597 11.927899,44.5751645 18.5536055,44.5695769 Z" id="Rectangle" fill="#2C4DA1" fill-rule="nonzero" transform="translate(47.927521, 70.564563) rotate(-16.760000) translate(-47.927521, -70.564563) "></path>
                    <path d="M13.555276,80 L8,61.5555556 L26.444724,56 L32,74.4444444 L13.555276,80 Z M8.75720827,61.9601449 L13.9586373,79.2439614 L31.2464147,74.0374396 L26.040155,56.7536232 L8.75720827,61.9601449 Z" id="Shape" fill="#F5F8FB" fill-rule="nonzero"></path>
                    <path d="M30.5540683,76 L25,57.5558351 L43.444724,52 L49,70.4453727 L30.5540683,76 Z M25.7523776,57.9592371 L30.9574297,75.2487545 L48.2452071,70.0419707 L43.0341166,52.7524533 L25.7523776,57.9592371 Z" id="Shape" fill="#F5F8FB" fill-rule="nonzero"></path>
                    <path d="M18.085475,94 L15,83.6356771 L49.914525,73 L53,83.3643229 L18.085475,94 Z M15.7234667,84.0291995 L18.4744981,93.2681658 L52.2765333,82.9708005 L49.5255019,73.7318342 L15.7234667,84.0291995 Z" id="Shape" fill="#F5F8FB" fill-rule="nonzero"></path>
                    <path d="M19.9460014,100 L19,96.9057451 L22.0539986,96 L23,99.0942549 L19.9460014,100 Z M19.5677831,97.2055655 L20.2513101,99.440754 L22.4331283,98.7935368 L21.7496013,96.5583483 L19.5677831,97.2055655 Z" id="Shape" fill="#F5F8FB" fill-rule="nonzero"></path>
                    <path d="M29.9460014,97 L29,93.9057451 L32.0539986,93 L33,96.0942549 L29.9460014,97 Z M29.5677831,94.2064632 L30.2513101,96.4416517 L32.4331283,95.7944345 L31.7496013,93.559246 L29.5677831,94.2064632 Z" id="Shape" fill="#F5F8FB" fill-rule="nonzero"></path>
                    <path d="M40.9460014,94 L40,90.9057451 L43.0539986,90 L44,93.0942549 L40.9460014,94 Z M40.5677831,91.2064632 L41.2513101,93.4416517 L43.4331283,92.7944345 L42.7496013,90.559246 L40.5677831,91.2064632 Z" id="Shape" fill="#F5F8FB" fill-rule="nonzero"></path>
                    <path d="M51.9460014,91 L51,87.9064393 L54.0539986,87 L55,90.0935607 L51.9460014,91 Z M51.5677831,88.20709 L52.2513101,90.441777 L54.4331283,89.794705 L53.7496013,87.5600179 L51.5677831,88.20709 Z" id="Shape" fill="#F5F8FB" fill-rule="nonzero"></path>
                    <path d="M61.6285637,89 L61.5443835,88.719712 L50,50.2756919 L50.2654016,50.1830444 C53.0562469,49.2892174 55.9248005,48.6609761 58.8330785,48.3066394 C63.3215217,47.7542727 69.7613095,47.676871 74.9489163,50.4469138 C79.0819318,52.6540352 81.8528645,56.3306163 83.1868873,61.3758002 C83.26756,61.6689885 88.8585304,80.268853 88.9158198,80.4564935 L89,80.7367815 L61.6285637,89 Z M50.7237162,50.6451091 L62.0190665,88.2728931 L88.2680996,80.3403909 C87.5350301,77.90341 82.6759601,61.7381809 82.6186707,61.5212216 C81.3325839,56.6402231 78.6551848,53.0867811 74.6683155,50.9605797 C69.6151632,48.2632475 63.302815,48.341822 58.898552,48.8848067 C56.1270485,49.227794 53.3913677,49.8168731 50.7237162,50.6451091 Z" id="Shape" fill="#F5F8FB" fill-rule="nonzero"></path>
                    <path d="M69.0109899,81.999989 C61.8054034,82.0051679 55.7726608,76.5406441 55.0678987,69.3701817 C54.3631366,62.1997194 59.216551,55.6654019 66.2852842,54.2678327 C73.3540175,52.8702635 80.3292139,57.0659297 82.4066084,63.9650069 L82.4066084,63.9650069 C83.6811508,68.2028435 82.8772224,72.7937179 80.2384501,76.3463871 C77.5996779,79.8990563 73.4366638,81.9953459 69.0109899,81.999989 L69.0109899,81.999989 Z M69.0212749,54.567575 C67.7051755,54.5672799 66.3961316,54.7597709 65.135837,55.1389173 C58.4465763,57.1618043 54.4509022,64.0022472 55.9749713,70.821973 C57.4990404,77.6416987 64.0266325,82.1307861 70.9407551,81.1140852 C77.8548778,80.0973844 82.8136365,73.9192639 82.309681,66.9495335 C81.8057255,59.9798032 76.0097514,54.5791925 69.0212749,54.567575 L69.0212749,54.567575 Z" id="Shape" fill="#F5F8FB" fill-rule="nonzero"></path>
                    <polygon id="Rectangle" fill="#F5F8FB" fill-rule="nonzero" transform="translate(37.117435, 63.484801) rotate(-61.770000) translate(-37.117435, -63.484801) " points="24.3650609 63.1956488 49.8699696 63.1886281 49.8698084 63.7739534 24.3648997 63.7809742"></polygon>
                    <line x1="62" y1="87" x2="72" y2="69" id="Path" stroke="#F5F8FB" stroke-width="5"></line>
                    <polygon id="Path" fill="#FAF3E9" fill-rule="nonzero" points="81.9504881 43.8031152 125.633692 0 141 15.4069108 97.3156319 59.210026 71 70"></polygon>
                    <path d="M74.5781377,59.0010984 L70,70 L81,65.4690623 C81,65.4690623 80.9821862,64.0779456 78.3958502,61.4739456 C75.8095142,58.8699455 74.5781377,59.0010984 74.5781377,59.0010984 Z" id="Path" fill="#0D182D" fill-rule="nonzero"></path>
                    <path d="M98.0198981,60.0316238 L98.0433077,60.0081988 C98.0135936,59.9968415 97.9846592,59.9835385 97.9566923,59.9683762 L98.0198981,60.0316238 Z" id="Path" fill="#FDE893" fill-rule="nonzero"></path>
                    <path d="M92.2044639,48.6742826 L92.2127817,48.7308582 L92.1581221,48.7308582 C92.1581221,48.7308582 91.4178416,50.4080874 93.1408059,54.9447391 C93.8133561,56.712725 94.4621412,57.871345 95.0039838,58.6256857 C95.6587102,59.5367877 96.1565875,59.8597398 96.3490841,59.9599257 C96.3774757,59.9751839 96.4068495,59.9885709 96.4370147,60 L107.238218,49.2860057 L141,15.7968176 L133.139718,8 L92.2044639,48.6742826 Z" id="Path" fill="#F7C635" fill-rule="nonzero"></path>
                    <path d="M92.325204,48.7955311 L92.268631,48.7872132 L92.268631,48.841874 C92.268631,48.841874 90.5914778,49.5821725 86.0550317,47.8591665 C84.287126,47.1866 83.1285585,46.5377991 82.374252,45.9959434 C81.4631913,45.3412011 81.1402539,44.8433117 81.0400725,44.6508104 C81.024815,44.6224181 81.0114285,44.5930436 81,44.5628777 L91.7135086,33.7614122 L125.203536,0 L133,7.86047239 L92.325204,48.7955311 Z" id="Path" fill="#FDE893" fill-rule="nonzero"></path>
                </g>
            </g>
        </g>
    </g>
</svg>