<?xml version="1.0" encoding="UTF-8"?>
<svg width="63px" height="66px" viewBox="0 0 63 66" version="1.1" xmlns="http://www.w3.org/2000/svg" xmlns:xlink="http://www.w3.org/1999/xlink">
    <!-- Generator: Sketch 59.1 (86144) - https://sketch.com -->
    <title>doodle-01</title>
    <desc>Created with Sketch.</desc>
    <g id="Final" stroke="none" stroke-width="1" fill="none" fill-rule="evenodd">
        <g id="Homepage-" transform="translate(-128.000000, -4582.000000)" fill="#13192F" fill-rule="nonzero">
            <g id="Section-4" transform="translate(67.000000, 4520.000000)">
                <g id="doodle-01" transform="translate(61.000000, 62.000000)">
                    <g id="Group">
                        <path d="M43.2209302,21.34 C44.6127907,20.3866667 45.8581395,19.58 47.1034884,18.7 C49.594186,16.94 52.0116279,15.0333333 54.5023256,13.3466667 C55.9674419,12.3933333 57.505814,11.5133333 59.1174419,10.78 C59.85,10.4866667 60.8023256,10.4866667 61.5348837,10.7066667 C62.9267442,11.1466667 63.1465116,12.6866667 62.0476744,13.5666667 C58.6046512,16.4266667 55.1616279,19.2866667 51.572093,21.9266667 C50.1802326,23.0266667 48.422093,23.6866667 46.8104651,24.4933333 C45.9313953,24.9333333 45.272093,24.5666667 44.7593023,23.9066667 C44.2465116,23.1733333 43.8069767,22.3666667 43.2209302,21.34 Z" id="Path"></path>
                        <path d="M37.0674419,41.14 C37.5802326,41.8 38.1662791,42.3866667 38.605814,43.0466667 C41.5360465,47.96 44.4662791,52.8733333 46.8104651,58.08 C47.4697674,59.62 47.1767442,61.16 46.8837209,62.6266667 C46.8104651,62.9933333 46.2244186,63.4333333 45.7848837,63.58 C45.6383721,63.6533333 45.1255814,63.2866667 44.905814,62.9933333 C42.5616279,59.1066667 40.2174419,55.22 37.9465116,51.26 C36.994186,49.5733333 36.7744186,47.74 36.8476744,45.76 C36.9209302,44.2933333 36.7744186,42.7533333 36.7011628,41.2866667 C36.9209302,41.2866667 36.994186,41.2133333 37.0674419,41.14 Z" id="Path"></path>
                        <path d="M18.3139535,40.4066667 C18.5337209,40.7 18.6069767,40.7 18.6069767,40.7733333 C17.1418605,45.4666667 15.0906977,49.6466667 10.0360465,51.5533333 C8.57093023,52.14 7.17906977,52.7266667 5.71395349,53.3866667 C4.90813953,53.7533333 4.24883721,53.7533333 3.58953488,53.0933333 C2.93023256,52.4333333 2.56395349,51.6266667 3.00348837,50.82 C3.58953488,49.7933333 4.1755814,48.84 4.98139535,47.96 C7.25232558,45.6133333 10.255814,44.5133333 13.0395349,42.9 C14.1383721,42.24 15.3104651,41.7266667 16.4825581,41.14 C17.0686047,40.8466667 17.727907,40.6266667 18.3139535,40.4066667 Z" id="Path"></path>
                        <path d="M52.5244186,34.54 C53.4034884,34.76 55.0883721,35.2 56.7,35.7133333 C57.3593023,35.9333333 58.1651163,36.2266667 58.4581395,36.74 C59.1174419,37.9133333 59.6302326,39.16 59.9232558,40.48 C60.1430233,41.36 59.1174419,42.0933333 58.0186047,41.9466667 C53.8430233,41.36 49.8139535,40.1133333 46.0046512,38.28 C44.905814,37.6933333 44.1,35.5666667 44.3930233,34.32 C44.6127907,33.3666667 45.4186047,33.1466667 46.2244186,33.2933333 C48.1290698,33.5866667 49.9604651,34.0266667 52.5244186,34.54 Z" id="Path"></path>
                        <path d="M37.2872093,18.1866667 C36.1151163,16.94 35.6755814,15.9866667 35.822093,14.5933333 C36.0418605,12.8333333 35.822093,11.0733333 35.9686047,9.38666667 C36.2616279,7.04 36.627907,4.62 37.1406977,2.34666667 C37.4337209,1.02666667 38.6790698,0.44 39.9976744,0.513333333 C41.2430233,0.586666667 42.5616279,1.32 42.8546512,2.49333333 C43.0744186,3.52 43.294186,4.76666667 43.0011628,5.72 C41.755814,9.02 40.2906977,12.1733333 38.8988372,15.4 C38.5325581,16.2066667 37.9465116,17.0133333 37.2872093,18.1866667 Z" id="Path"></path>
                        <path d="M27.8372093,44 C27.7639535,48.2533333 27.4709302,52.36 25.5662791,56.1733333 C24.4674419,58.4466667 23.8813953,61.0866667 23.0755814,63.5066667 C22.9290698,63.9466667 22.855814,64.3866667 22.7093023,64.8266667 C22.4895349,65.4866667 21.9767442,66.1466667 21.3174419,65.9266667 C20.8046512,65.78 20.1453488,65.12 20.072093,64.68 C19.9988372,63.0666667 19.9255814,61.38 20.2918605,59.84 C21.1709302,56.6133333 22.4162791,53.5333333 24.027907,50.6733333 C24.9069767,49.1333333 25.4930233,47.52 26.2988372,45.9066667 C26.7383721,45.2466667 27.3244186,44.66 27.8372093,44 Z" id="Path"></path>
                        <path d="M25.5662791,15.1066667 C23.8081395,16.06 23.6616279,16.06 22.7093023,14.96 C19.5593023,11.5133333 16.6290698,7.92 14.3581395,3.81333333 C13.5523256,2.34666667 13.6255814,1.39333333 14.6511628,0.513333333 C15.6034884,-0.22 16.9953488,-0.146666667 17.9476744,0.953333333 C18.6802326,1.83333333 19.2662791,2.86 19.8523256,3.88666667 C21.7569767,7.55333333 23.6616279,11.2933333 25.5662791,15.1066667 Z" id="Path"></path>
                        <path d="M18.6069767,21.2666667 C18.5337209,23.8333333 16.555814,24.5666667 14.3581395,23.76 C11.5011628,22.66 8.57093023,21.4133333 5.71395349,20.24 C4.83488372,19.8733333 3.88255814,19.4333333 3.22325581,18.7733333 C2.1244186,17.6733333 2.34418605,16.94 3.73604651,16.28 C4.90813953,15.6933333 6.00697674,15.62 7.25232558,16.1333333 C10.7686047,17.6733333 14.4313953,18.8466667 17.727907,20.8266667 C18.0209302,20.9 18.3139535,21.12 18.6069767,21.2666667 Z" id="Path"></path>
                        <path d="M16.922093,31.02 C15.2372093,33 13.4790698,34.4666667 11.1348837,34.6866667 C7.98488372,34.98 4.76162791,35.0533333 1.61162791,35.1266667 C0.586046512,35.2 -0.146511628,34.0266667 0.512790698,33.0733333 C1.24534884,31.9733333 2.1244186,30.8 3.58953488,30.58 C7.54534884,30.0666667 11.5011628,29.6266667 15.3837209,30.58 C15.75,30.6533333 16.1162791,30.8 16.922093,31.02 Z" id="Path"></path>
                    </g>
                </g>
            </g>
        </g>
    </g>
</svg>