<svg id="Layer_1" data-name="Layer 1" xmlns="http://www.w3.org/2000/svg" viewBox="0 0 100 100"><defs><style>.cls-1{opacity:0.6;}.cls-2{fill:#fff;}</style></defs><title>bt-white</title><g class="cls-1"><polygon class="cls-2" points="41.3 52.51 30.86 61.83 30.86 98.39 37.87 98.39 37.87 64.97 46.55 57.22 41.3 52.51"/><polygon class="cls-2" points="62.13 1.61 62.13 33.89 53.48 41.88 58.47 46.82 69.14 37.03 69.14 1.61 62.13 1.61"/><polygon class="cls-2" points="48.52 40.32 55.98 33.71 37.87 33.72 37.87 27.16 59.26 27.16 59.26 20.56 37.87 20.56 37.87 14.01 59.26 14.01 59.26 7.41 37.87 7.41 37.87 1.61 30.86 1.61 30.86 37.03 55.2 58.78 51.13 58.78 43.7 65.38 62.13 65.38 62.13 71.88 41.38 71.88 41.38 78.49 62.13 78.49 62.13 85.42 40.87 85.42 40.87 92.02 62.13 92.02 62.13 98.39 69.14 98.39 69.14 61.83 45.05 40.32 48.52 40.32"/></g></svg>
