<svg id="Layer_1" data-name="Layer 1" xmlns="http://www.w3.org/2000/svg" viewBox="0 0 100 100"><defs><style>.cls-1{opacity:0.6;}.cls-2{fill:#fff;}</style></defs><title>ct-white</title><g class="cls-1"><polygon class="cls-2" points="56.14 78.85 51.43 74.14 46.72 79.11 51.43 83.82 56.14 78.85"/><path class="cls-2" d="M26,97.76l47.33-.15L58.82,63.19,59,48.27h3.84V42.44H52.53V38l6-17.46L47.79,5.94,27.37,1.52l4.83,32.11,14.32,3.82v5h-10v5.83h3.24l0.16,14.94ZM34,8.53l10.65,2.31,7.8,10.67L50.3,27.68,48.13,21,44.07,15.6l-6.74.12,5.42,7.22-4.52,1.67,6.19,2.65,1.42,4.36-8.77-2.34ZM53,48.27L52.8,64.37,64.3,91.64,49,91.69l-4.78-4.53-4.56,4.56H34.91l11-27.39L45.77,48.27H53Z"/></g></svg>
