<?xml version="1.0" encoding="utf-8"?>
<!-- Generator: Adobe Illustrator 22.1.0, SVG Export Plug-In . SVG Version: 6.00 Build 0)  -->
<svg version="1.1" id="Layer_1" xmlns="http://www.w3.org/2000/svg" xmlns:xlink="http://www.w3.org/1999/xlink" x="0px" y="0px"
	 viewBox="0 0 127.1 104.8" style="enable-background:new 0 0 127.1 104.8;" xml:space="preserve">
<style type="text/css">
	.st0{opacity:0.6;}
	.st1{fill:#FFFFFF;}
</style>
<title>Asset 2</title>
<g id="Layer_2_1_" class="st0">
	<g id="Layer_1-2">
		<polygon class="st1" points="91.8,0 70.1,22.3 48.4,0 13.1,10.8 13.1,44.6 18.9,50.7 23.8,37.6 23.8,18.7 45.3,12.1 70.1,37.6 
			94.9,12.1 116.4,18.7 116.4,40.4 103.3,54.3 54.8,54.3 49.6,66.2 36,19.7 22.1,60.8 0,60.8 0,71.4 29.7,71.4 35.3,55.2 47.6,97.4 
			61.8,64.9 93.1,64.9 70.1,89.3 61.8,80.5 56.7,90.7 70.1,104.8 127.1,44.6 127.1,10.8 		"/>
	</g>
</g>
</svg>
