<?xml version="1.0" encoding="utf-8"?>
<!-- Generator: Adobe Illustrator 22.1.0, SVG Export Plug-In . SVG Version: 6.00 Build 0)  -->
<svg version="1.1" id="Layer_1" xmlns="http://www.w3.org/2000/svg" xmlns:xlink="http://www.w3.org/1999/xlink" x="0px" y="0px"
	 viewBox="0 0 138.7 146.9" style="enable-background:new 0 0 138.7 146.9;" xml:space="preserve">
<style type="text/css">
	.st0{opacity:0.6;}
	.st1{fill:#FFFFFF;}
	.st2{fill:#FFFFFF;stroke:#939598;stroke-width:10;stroke-miterlimit:10;}
</style>
<title>Asset 3</title>
<g id="Layer_2_1_" class="st0">
	<g id="Layer_1-2">
		<g>
			<path class="st1" d="M44.9,31.2H13.6V0h31.2V31.2z M21.7,23.2h15.2V8H21.7V23.2z"/>
		</g>
		<g>
			<path class="st2" d="M83.8,15.6L83.8,15.6z"/>
		</g>
		<g>
			<path class="st2" d="M29.3,44.5L29.3,44.5z"/>
		</g>
		<g>
			<rect x="65.3" y="29.3" transform="matrix(0.7322 -0.681 0.681 0.7322 -21.6078 62.9769)" class="st1" width="8" height="59.3"/>
		</g>
		<g>
			<rect x="39.7" y="55" transform="matrix(0.6811 -0.7322 0.7322 0.6811 -21.0835 69.5433)" class="st1" width="59.3" height="8"/>
		</g>
		<g>
			<path class="st1" d="M44.9,118H13.6V86.7h31.2V118z M21.7,109.9h15.2V94.8H21.7V109.9z"/>
		</g>
		<g>
			<path class="st1" d="M125.1,31.2H93.7V0H125L125.1,31.2L125.1,31.2z M101.8,23.2h15.2V8h-15.2C101.8,8,101.8,23.2,101.8,23.2z"/>
		</g>
		<g>
			<path class="st1" d="M125.1,118H93.7V86.7H125L125.1,118L125.1,118z M101.8,109.9h15.2V94.8h-15.2
				C101.8,94.8,101.8,109.9,101.8,109.9z"/>
		</g>
		<g>
			<path class="st2" d="M109.4,44.5L109.4,44.5z"/>
		</g>
		<g>
			<path class="st2" d="M83.8,102.3L83.8,102.3z"/>
		</g>
	</g>
</g>
</svg>
