<svg id="Layer_1" data-name="Layer 1" xmlns="http://www.w3.org/2000/svg" viewBox="0 0 100 100"><defs><style>.cls-1{fill:#fff;}</style></defs><title>i-white</title><path class="cls-1" d="M87.05,52.8V32.42L97.17,22.3,82.78,8.67,69,22.44,79.8,32.67v12.9H53.66V29.67h6V9.79H39.73V29.67h7.1V45.54h-27V33.41L31,22.3,16.6,8.67,2.83,22.44l9.79,9.23V52.8H46.83V65.17H17.2V91.32H83.33V65.17H53.66V52.8H87.05Zm-4.13-34,3.85,3.65L83.27,26,79.42,22.3ZM47,17h5.34v5.37H47V17ZM16.74,18.79l3.85,3.65-3.5,3.5L13.23,22.3ZM76,84.06H24.45V72.42H76V84.06Z"/></svg>
