<svg id="Layer_1" data-name="Layer 1" xmlns="http://www.w3.org/2000/svg" viewBox="0 0 100 100"><defs><style>.cls-1{opacity:0.6;}.cls-2{fill:#fff;}</style></defs><title>it-white</title><g class="cls-1"><path class="cls-2" d="M93.13,35.64V1.5H6.88V35.64H45.1v9.78H6.88V79.5H45.54v9.88l-38.67.16v9H93.13V89.58l-38.67-.16V79.5H93.13V45.41H54V35.64H93.13Zm-9.5,34.44H16.34V54.89H83.63V70.08ZM16.34,11H83.63V26.17H16.34V11Z"/><rect class="cls-2" x="26.03" y="14.97" width="7.8" height="7.8"/><rect class="cls-2" x="45.65" y="14.97" width="7.8" height="7.8"/><rect class="cls-2" x="65.28" y="14.97" width="7.8" height="7.8"/><rect class="cls-2" x="26.03" y="58.58" width="7.8" height="7.8"/><rect class="cls-2" x="45.65" y="58.58" width="7.8" height="7.8"/><rect class="cls-2" x="65.28" y="58.58" width="7.8" height="7.8"/></g></svg>
