<svg id="Layer_1" data-name="Layer 1" xmlns="http://www.w3.org/2000/svg" viewBox="0 0 100 100"><defs><style>.cls-1{fill:#fff;opacity:0.6;isolation:isolate;}</style></defs><title>mn-white</title><path class="cls-1" d="M99.55,26.7V20H94.83l-4-6.93,2.44-4.11-5.8-3.45-0.8,1.35h0L85.08,9.47H76L74.2,5.42l-5.82,3.4,1.78,4.1-3.44,7H59.55l-4-6.93L58,8.88l-5.8-3.45-2.38,4H41.34L39,5.42l-5.83,3.4,2.4,4.1-4,7H16.09L0.46,47,14.27,71,1.08,90.83,6.7,94.57,20.28,74.11H47.36L63,47,55.28,33.65l4.31-7h7.13l4,6.93-1.64,2.76h0l-0.8,1.35,5.8,3.45,0.8-1.35h0l1.58-2.65H85l2.37,4,5.83-3.41-2.4-4.1,4.06-7h4.72v0ZM50.87,39.52l-10.1,3.4L29.89,36.75l-0.08-10.1H43.46Zm-7.4,27.84H20L8.25,47,20,26.65h3.07l0.08,9.45-8,4.56,3.41,5.9L26,42.29l9.83,5.57-2,9.25,6.6,1.4,1.91-9,12-4,0.89,1.55ZM47.37,20H39.28l2.15-3.72h8.21l4.1,7.11-2.19,3.75Zm25.18,3.38L76,16.22h8.82L89,23.33l-4.1,7.11H76.67Z"/></svg>
