<?xml version="1.0" encoding="utf-8"?>
<!-- Generator: Adobe Illustrator 19.2.1, SVG Export Plug-In . SVG Version: 6.00 Build 0)  -->
<svg version="1.1" id="Layer_1" xmlns="http://www.w3.org/2000/svg" xmlns:xlink="http://www.w3.org/1999/xlink" x="0px" y="0px"
	 viewBox="0 0 100 100" style="enable-background:new 0 0 100 100;" xml:space="preserve">
<style type="text/css">
	.st0{opacity:0.6;}
	.st1{fill:#FFFFFF;}
</style>
<title>MI-white</title>
<g class="st0">
	<polygon class="st1" points="30.8,35.7 26.6,40 30.8,44.2 34.9,39.8 	"/>
	<path class="st1" d="M88.4,28.8l-10,10.4l10.1,9.9l10-10.4L88.4,28.8z M88.4,41.5L85.8,39l2.7-2.8l2.6,2.5L88.4,41.5z"/>
	<path class="st1" d="M50.2,30L50.2,30V23h-5.3v5.5l-12-3.3L6.7,29.8V50l3.8,0.7l-9,15.7l16.9,10.6l11.3-23l3.2,0.6l11.9-3.3v5.5
		h5.3v-6.9l0,0v-7h8.1V38h-8.1v-8C50.1,30,50.2,30,50.2,30z M16.3,69.3l-7.6-4.8l7.5-13l8.2,1.4L16.3,69.3z M32.7,49.2L12,45.5V34.2
		l20.5-3.5L44.7,34v11.9L32.7,49.2z"/>
	<path class="st1" d="M58.2,30.9v19.4l15.7,6.1l-0.1-31.6L58.2,30.9z M63.6,46.7V34.3l5-1.9l0.1,16.2L63.6,46.7z"/>
</g>
</svg>
