<?xml version="1.0" encoding="utf-8"?>
<!-- Generator: Adobe Illustrator 22.1.0, SVG Export Plug-In . SVG Version: 6.00 Build 0)  -->
<svg version="1.1" id="Layer_1" xmlns="http://www.w3.org/2000/svg" xmlns:xlink="http://www.w3.org/1999/xlink" x="0px" y="0px"
	 viewBox="0 0 210.9 182.7" style="enable-background:new 0 0 210.9 182.7;" xml:space="preserve">
<style type="text/css">
	.st0{opacity:0.6;}
	.st1{fill:#FFFFFF;}
	.st2{fill:#FFFFFF;stroke:#939598;stroke-width:10;stroke-miterlimit:10;}
</style>
<title>Asset 7</title>
<g id="Layer_2_1_" class="st0">
	<g id="Layer_1-2">
		<g>
			<polygon class="st1" points="107.7,85.5 104.8,80.5 107.7,75.4 113.6,75.4 116.5,80.5 113.6,85.5 			"/>
		</g>
		<g>
			<polygon class="st1" points="114,111.7 116.9,116.7 114,121.8 108.1,121.8 105.2,116.7 108.1,111.7 			"/>
		</g>
		<g>
			<polygon class="st1" points="114,93.6 116.9,98.6 114,103.6 108.1,103.6 105.2,98.6 108.1,93.6 			"/>
		</g>
		<g>
			<polygon class="st1" points="114,57.8 116.9,62.8 114,67.9 108.1,67.9 105.2,62.8 108.1,57.8 			"/>
		</g>
		<g>
			<polygon class="st1" points="61.5,77.5 41.9,62.5 29.5,75.1 0,74.1 28.7,36.4 35.1,41.2 15.7,66.7 26.3,67 41.1,51.9 66.4,71.1 
							"/>
		</g>
		<g>
			<polygon class="st1" points="71.3,64.8 46.1,45.6 56.7,27.2 53.5,17.1 34.2,42.6 27.8,37.7 56.5,0 65.4,28.2 56.5,43.5 
				76.2,58.4 			"/>
		</g>
		<g>
			<polygon class="st1" points="16.6,65 12.5,58.2 37.4,43.4 45.3,15.6 53,17.7 44.3,48.7 			"/>
		</g>
		<g>
			<path class="st1" d="M139.2,140H81.8L53.1,90.5l28.7-49.5h57.4l28.7,49.5L139.2,140z M87.6,130h45.8l22.9-39.5l-22.9-39.5H87.6
				L64.7,90.5L87.6,130z"/>
		</g>
		<g>
			<path class="st1" d="M176.1,80.7l-27.4-37l15.6-11.6l27.4,37L176.1,80.7z M160,45.4l17.8,24.1l2.8-2l-17.8-24.1L160,45.4z"/>
		</g>
		<g>
			
				<rect x="144.7" y="45.5" transform="matrix(0.8041 -0.5945 0.5945 0.8041 4.395 115.1881)" class="st1" width="64.6" height="10.8"/>
		</g>
		<g>
			<path class="st1" d="M195.3,65.7l-27.4-37l15.6-11.6l27.4,37L195.3,65.7z M179.1,30.4l17.8,24.1l2.8-2l-17.8-24.1L179.1,30.4z"/>
		</g>
		<g>
			
				<rect x="53.6" y="154" transform="matrix(0.3338 -0.9427 0.9427 0.3338 -98.5471 178.5232)" class="st1" width="46.8" height="10"/>
		</g>
		<g>
			
				<rect x="138.5" y="135.6" transform="matrix(0.9426 -0.334 0.334 0.9426 -44.8558 57.0713)" class="st1" width="10" height="46.8"/>
		</g>
		<g>
			<path class="st2" d="M110.8,136.9L110.8,136.9z"/>
		</g>
	</g>
</g>
</svg>
