<svg id="Layer_1" data-name="Layer 1" xmlns="http://www.w3.org/2000/svg" viewBox="0 0 100 100"><defs><style>.cls-1{opacity:0.6;}.cls-2{fill:#fff;}</style></defs><title>ew-white</title><g class="cls-1"><polygon class="cls-2" points="54.59 42.41 50.05 37.88 45.52 42.67 50.05 47.22 54.59 42.41"/><path class="cls-2" d="M34.39,66.52H65.72V50.65H34.39V66.52Zm5.78-10.08H59.92v4.29H40.16V56.45Z"/><path class="cls-2" d="M98.16,38.06l-5.25-2.44-2.75,5.87H84.54l-3.7-6-4.92,3,5.4,8.69H84V58.81H75.43v-7.9l-9.08-21.1H52.94v-5l8-8.49-11-11L39.16,16.73l8,8v5H33.75L24.67,50.91v10H16V49.38h2.68l5.4-8.69-4.92-3.05-3.7,6H9.8L7.08,37.72,1.83,40.15l4.33,9.22h4.1V66.74H24.67v9.43H33l5.22,18.59H61.86l5.22-18.59h8.33V64.65H89.79V47.27h4.1ZM50.1,13.54l2.8,2.8L50,19.41l-2.83-2.79ZM39.25,77h8.08V89H42.61ZM57.48,89H53.11V77h7.73ZM69.64,70.38H30.46V52.11l7.1-16.55h25l7.1,16.55V70.38h0Z"/></g></svg>
