<?xml version="1.0" encoding="UTF-8"?>
<svg width="55px" height="60px" viewBox="0 0 55 60" version="1.1" xmlns="http://www.w3.org/2000/svg" xmlns:xlink="http://www.w3.org/1999/xlink">
    <!-- Generator: Sketch 59.1 (86144) - https://sketch.com -->
    <title>doodle-04</title>
    <desc>Created with Sketch.</desc>
    <g id="Final" stroke="none" stroke-width="1" fill="none" fill-rule="evenodd">
        <g id="Homepage-" transform="translate(-1321.000000, -4711.000000)" fill="#13192F" fill-rule="nonzero">
            <g id="Section-4" transform="translate(67.000000, 4520.000000)">
                <g id="doodle-04" transform="translate(1254.000000, 191.000000)">
                    <path d="M53.2814237,0.150400208 L48.1256949,3.60408499 C47.064529,3.87695402 45.9800249,4.05114574 44.8862546,4.12439994 C44.3269259,4.143371 43.862863,4.55945198 43.7876656,5.10940018 C43.7124682,5.65934837 44.0480432,6.18294907 44.5820818,6.3489349 C45.8803886,6.8204309 47.1223241,7.43241803 48.2853856,8.17380764 C47.5933925,9.3200087 46.8861908,10.4360466 46.1485717,11.5747068 C45.7683557,12.1528346 45.3805354,12.7284487 44.9851108,13.3015492 C44.2956525,15.07615 43.0891004,15.3275099 41.3654546,14.0556289 C41.2057638,14.0556289 41.0688861,14.0556289 40.924404,14.0556289 C40.503107,11.7472695 39.806211,9.49684774 38.8484247,7.35186082 C38.6122196,6.96612615 38.16858,6.75512178 37.7173738,6.81390912 C37.2661676,6.87269647 36.8925493,7.19018081 36.7648411,7.6233295 C36.2705603,10.6396481 36.1793084,15.2923195 38.8256117,17.2076818 C39.3807271,22.3354234 38.8256117,27.6064401 34.551984,26.9654724 C34.5063581,26.4828614 34.4531278,26.0454952 34.3998976,25.6684554 C33.8541222,22.0889372 32.831267,18.5971726 31.3581697,15.2847787 C30.247939,12.6982855 28.7955139,8.42265392 25.7842033,7.32923843 C19.8908554,5.18765224 20.6132658,14.5457806 21.9212088,17.4489873 C23.3204036,20.5482546 27.822161,26.7166261 32.4151701,28.9034571 C32.7497602,33.5712101 32.103393,38.465187 28.0426862,38.0881472 C26.0235715,37.7757 24.1397306,36.887499 22.6208062,35.5318172 C22.5143457,33.0735175 22.1569427,30.7434114 21.9516261,29.2277113 C21.5333885,26.1586072 19.8300208,11.9592875 14.0431335,13.8218642 C9.26001628,15.3300235 12.7351904,25.3819052 14.0431335,28.2247854 C15.5365777,31.287995 17.6006542,34.0435453 20.1265893,36.3462232 C20.1265893,36.3462232 20.1265893,36.3462232 20.1265893,36.3462232 C20.1265893,39.1740219 20.0733591,45.5535357 14.9936734,43.1857256 C14.7591438,43.0753001 14.5351706,42.9440579 14.3244933,42.7936042 C14.6064158,39.3928998 13.99054,35.9780038 12.5374781,32.8849976 C12.0127801,31.723715 10.537542,32.500417 10.4082686,33.4580982 C10.0204483,36.3613048 10.1345131,41.0441394 12.0203844,43.8643973 C11.9291196,44.2332685 11.8070283,44.5939602 11.655377,44.9427312 C11.6465652,45.9196009 10.9854456,46.7721847 10.0356569,47.0315318 C9.55658476,47.7856114 9.11553421,48.0646209 8.71250526,47.9439681 C9.6071593,44.7570227 9.91118802,41.4355338 9.609815,38.1409328 C9.59767826,37.5212864 9.09403327,37.0218486 8.46916702,37.0098133 C2.03591246,37.1606292 2.49977596,45.0332207 6.043389,48.8714861 C4.83053153,52.3076111 2.87939005,55.4414383 0.324940496,58.0561762 C-0.69403836,59.1043469 0.918077442,60.7105365 1.9370563,59.654825 C4.55321832,56.9731468 6.59650513,53.7953187 7.94446896,50.3117782 C8.20806339,50.4518399 8.48272757,50.5703711 8.7657355,50.6661957 C11.8074634,51.65404 13.2674928,47.8459378 13.8530255,45.6214028 C15.0677682,46.2618964 16.4762391,46.441511 17.8148761,46.1266362 C21.2976546,45.4781277 22.4154896,42.0319837 22.6132019,38.2691263 C24.50129,39.6078288 26.7129345,40.4273405 29.0236435,40.6444772 C34.0424946,40.9611906 34.8561568,34.5665952 34.7040704,29.6801591 C35.7153685,29.8466466 36.7538408,29.6991564 37.6773595,29.2578745 C40.6354399,27.8175824 41.0232602,23.2252374 41.2437854,20.3823571 C41.30462,19.6282775 41.3122243,18.8741978 41.2970157,18.1201182 L41.5631669,18.1201182 C43.6315419,18.1729037 45.1067799,16.8080196 46.3234711,15.2923195 C47.7337056,13.4731845 49.0094864,11.555338 50.1408396,9.55377339 C50.4855688,9.84032365 50.8226936,10.1394419 51.1522142,10.4511282 L51.1902358,10.5566993 C51.3050424,10.9433216 51.6276867,11.2341844 52.026711,11.310779 C52.2624449,11.5596252 52.4905745,11.8084715 52.7110997,12.0648586 C53.4183015,12.9094278 54.7034315,12.2156745 54.7034315,11.310779 L55,1.13070375 C54.9971489,0.726101145 54.7779939,0.353388831 54.4243118,0.151642881 C54.0706297,-0.0501030686 53.6355511,-0.0505761337 53.2814237,0.150400208 Z M7.42737521,39.4228682 C7.52264673,41.6116902 7.33610422,43.8036264 6.87225986,45.9456571 C5.48066933,43.8643973 4.75825895,40.2297334 7.42737521,39.4228682 Z M17.0392355,28.9637835 C15.8246219,26.8992393 14.9637881,24.6491899 14.4917883,22.3052602 C14.3244933,21.4531502 13.91386,19.3643496 14.1343853,18.384046 C13.8200734,17.3132529 14.1977546,16.9613491 15.2674289,17.3283345 C16.5196069,17.0065939 17.1406264,17.619912 17.1304873,19.1682889 C18.7993726,23.6191581 19.7812497,28.294323 20.0429418,33.0358136 C18.9124772,31.77702 17.9066184,30.4134088 17.0392355,28.9637835 Z M27.7689307,21.8452716 C25.8526421,19.7866342 23.9211449,17.3207937 23.2975907,14.5533214 C22.9553963,13.0451621 22.4915328,8.40003153 26.0731674,10.3229346 C27.0693333,10.8583312 27.8753912,13.2035189 28.3544634,14.0933329 C29.5363775,16.5182169 30.5007775,19.0415515 31.2365006,21.6341293 C31.6165838,23.0689897 31.9136369,24.5242239 32.126206,25.9927097 C30.5278394,24.7667246 29.0647388,23.3765101 27.7613264,21.8452716 L27.7689307,21.8452716 Z" id="Shape"></path>
                </g>
            </g>
        </g>
    </g>
</svg>