<?xml version="1.0" encoding="UTF-8"?>
<svg width="34px" height="58px" viewBox="0 0 34 58" version="1.1" xmlns="http://www.w3.org/2000/svg" xmlns:xlink="http://www.w3.org/1999/xlink">
    <!-- Generator: Sketch 59.1 (86144) - https://sketch.com -->
    <title>doodle-05</title>
    <desc>Created with Sketch.</desc>
    <g id="Final" stroke="none" stroke-width="1" fill="none" fill-rule="evenodd">
        <g id="Homepage-" transform="translate(-1197.000000, -4586.000000)" fill="#13192F" fill-rule="nonzero">
            <g id="Section-4" transform="translate(67.000000, 4520.000000)">
                <g id="doodle-05" transform="translate(1130.000000, 66.000000)">
                    <path d="M25.5347619,0 C28.2371897,0.748173624 31.0576851,1.24066523 33.0639881,3.64584307 C34.1268437,4.78862339 34.3042153,6.52898569 33.4949884,7.87479996 C31.6906898,11.5155556 29.9552324,15.1925933 28.1494808,18.8325707 C25.8883428,23.3905159 23.5338516,27.8997848 21.3162048,32.4798234 C19.6535425,35.913631 18.1477657,39.4280878 16.5636754,42.902573 C15.5686136,44.9970682 14.0998134,46.8139612 12.2811878,48.1999726 C10.2215721,49.8464921 8.11553833,51.4403 6.15200707,53.202115 C5.01215626,54.3447847 3.93945318,55.5566345 2.93962271,56.831197 C2.66317477,57.1469912 2.42469259,57.5695345 2.07657426,57.7293339 C1.63668189,57.9889681 1.11724961,58.0654187 0.624522326,57.9430484 C0.222360922,57.6144892 -0.00829635897,57.1112828 0.000228251792,56.5821589 C0.10366685,54.8782234 0.290840079,53.1808176 0.561513852,51.4965642 C0.881718446,49.5097646 1.33288566,47.5456855 1.70476838,45.5672664 C1.89777735,44.7976557 2.00602071,44.0080431 2.02744582,43.2134023 C1.94417963,40.9341558 2.74549094,38.994195 3.73933436,37.005875 C5.66302778,33.1573426 7.30543935,29.1602736 9.17640683,25.2822688 C11.6014647,20.2558351 14.1346009,15.2848873 16.6238408,10.2914857 C17.894223,7.74311097 19.2581469,5.23874303 20.4015551,2.63130099 C20.7513197,1.65680586 21.5362664,0.916908765 22.5085668,0.64521481 C23.4727152,0.372360984 24.4693598,0.221662659 25.5347619,0 Z M11.5762892,41.3009827 C11.8559994,39.2324098 12.223139,37.5944798 14.2059849,37.0345836 C14.8150645,36.8625916 14.7298214,36.2252962 14.5887859,35.6286279 C14.0464589,33.3339031 14.5420394,32.018685 16.410073,30.843385 C17.2594999,30.3089691 17.7449097,29.7263309 17.451103,28.6140255 C17.1371328,27.5177012 17.556885,26.3386809 18.4840717,25.7125729 C19.2320493,25.1238817 19.9700588,24.5217009 20.7462785,23.8983706 C20.7181482,23.5285533 20.6819358,23.1684065 20.6647726,22.8072436 C20.5771406,20.9610179 20.9334668,19.3923372 22.9249327,18.7614407 C23.5287354,18.5835211 23.8925898,17.9499647 23.7537875,17.3182086 C23.7208166,16.8934996 23.6620634,16.4713411 23.5778737,16.0542176 C23.3196864,14.9479796 23.8021907,13.7989914 24.7610849,13.2366353 C25.1889479,12.9451625 25.6369473,12.6864356 26.1014819,12.4625346 C26.380235,10.8769271 26.6243614,9.48813603 26.877485,8.04827634 L24.1934567,6.89676329 C23.9451433,8.01629389 23.6211593,9.11651892 23.2238807,10.18937 C22.7277518,11.1506613 22.1566357,12.0687242 21.5161834,12.9344748 C21.1545133,13.4834756 20.7449932,13.9986876 20.3726005,14.5405689 C20.2121105,14.7741142 19.9662238,15.0399998 19.9722383,15.2856655 C20.0244403,17.4212611 18.8009582,18.8043378 17.3521196,20.0245381 C16.6313535,20.5015163 16.3481591,21.4445324 16.6813029,22.2583076 C17.1651948,23.4564971 16.6452337,24.835019 15.5035613,25.3807383 C14.6002379,25.7704913 14.1072476,26.7814096 14.3423333,27.7619347 C14.641758,29.1457166 13.8404168,30.5295864 12.5173438,30.9135855 C11.6425303,31.2158272 11.08183,32.0963658 11.1603704,33.0446125 C11.1467908,33.5928999 11.1936909,34.1425492 11.1870478,34.6912401 C11.1736008,35.8032717 11.101672,36.7797591 9.91955756,37.451427 C9.40167254,37.7649212 9.08759513,38.3418396 9.0976417,38.9611773 C9.10768827,39.580515 9.44030141,40.1462703 9.9680643,40.4417147 C10.3948734,40.7303424 10.8770139,40.9318716 11.5762892,41.3009827 Z M21.5227636,3.76399926 C21.0654213,4.69890824 20.7454402,5.35140107 20.4268213,6.00458568 C18.7239719,9.49603377 17.1144407,13.0400494 15.2989584,16.4680273 C11.8020999,23.0706143 8.78386125,29.9002613 5.93543116,36.8159907 C5.74789628,37.3690908 5.59205959,37.9330907 5.46872837,38.5050686 L7.64523805,39.0288846 C7.83166489,37.3812697 8.31342824,36.1732331 9.71351565,35.6201537 C9.68487544,35.1172711 9.65360172,34.6973219 9.63828968,34.2767459 C9.56386704,32.2366798 9.75455499,30.3545397 11.9019494,29.3678991 C12.6273268,28.9949628 13.0038795,28.1519911 12.8074203,27.3408614 C12.6144551,25.8966997 13.0167035,24.8257854 14.4036304,24.2484147 C14.7561234,24.1412596 15.0449198,23.8792936 15.1930216,23.532361 C15.3411235,23.1854284 15.3334757,22.7887965 15.1721172,22.4482136 C14.4557695,20.656811 15.3409268,19.5958336 16.5596099,18.5268289 C17.0953322,18.0816659 17.4410335,17.4380185 17.5228432,16.733423 C17.4757319,15.3726294 17.9597176,14.0492066 18.8663906,13.0595919 C19.8747187,12.0135381 20.6914592,10.7880898 21.2772262,9.44234213 C21.3809107,9.18297787 21.665357,9.00054448 21.9110272,8.73416881 C20.8677829,7.35365023 22.095044,6.66743348 22.8533182,5.760671 C22.4276897,5.12192715 22.0328249,4.52940955 21.5227636,3.76399926 Z M14.3499265,43.4240686 C19.970457,31.8232232 25.5260929,20.3563367 31.1174873,8.81561782 C28.5475519,8.58498374 27.6658384,9.47236218 27.9628723,11.7517815 C28.148412,13.1758674 28.0626032,13.3352849 26.7646984,13.9782515 C25.2070479,14.7498877 25.0526562,14.835091 25.3032581,16.4323722 C25.6037568,18.3475949 25.0698194,19.6489704 23.29224,20.3771331 C22.6005753,20.6534957 22.1776997,21.3774925 22.2640702,22.137442 C22.27517,22.6260064 22.307778,23.1140159 22.324068,23.6024865 C22.4173837,24.4840498 21.9436547,25.3256506 21.1551979,25.6790364 C20.7854696,25.8723246 20.4286913,26.0909132 20.0872532,26.3333379 C19.2186653,26.9228795 18.6928728,27.6431083 19.1549513,28.7920561 C19.4185287,29.5054172 19.2090359,30.3127307 18.6352362,30.7948601 C18.0962534,31.3555677 17.5005298,31.8550276 16.8582854,32.2846715 C16.1519569,32.6607808 15.7649694,33.4671724 15.9033019,34.2746345 C15.9458362,34.7005081 16.0375049,35.1196206 16.1763619,35.523075 C16.6545766,36.738822 16.055123,37.5084189 15.1963985,38.1718648 C14.9146277,38.3895498 14.5635964,38.5102857 14.2748262,38.7201739 C13.306745,39.4238434 13.1092393,40.4972222 12.9944549,41.6138512 C12.9013463,42.5197418 13.477301,42.9145493 14.3499265,43.4240686 Z M4.6855512,52.1170265 L12.5197748,44.5115855 C9.89559059,42.387642 7.56728078,40.0195677 3.94613069,40.4985841 C3.5083615,43.2877246 3.08125905,45.9894206 2.66110709,48.6922624 C2.31400863,50.925297 2.31746642,50.9262626 4.29337584,52.0358297 C4.42167778,52.0741273 4.55286018,52.1012876 4.6855512,52.1170265 L4.6855512,52.1170265 Z M29.6429074,3.28977477 C30.1344643,4.17948794 30.0766599,4.85130717 29.2489298,5.39047902 C28.3427329,6.06454984 27.0926645,5.94184858 26.3259653,5.10357356 C25.858716,4.66766769 25.5252458,4.10031647 25.3666158,3.47137948 C25.3280985,2.86446592 25.3880155,2.25517601 25.5438988,1.66860582 C25.1308692,1.63952794 24.7162855,1.64318489 24.3037984,1.67954447 C23.9093794,1.6854949 23.5482151,1.90875733 23.3571379,2.26474554 C23.1660605,2.62073375 23.1742996,3.05499186 23.3787334,3.40299488 C23.5119311,3.74222652 23.7117814,4.04933074 23.9656972,4.30496539 C25.7879807,6.18104845 28.2942739,7.17484901 30.8655372,7.04090419 C31.4792694,6.91186317 32.0721944,6.69381488 32.626652,6.39325376 C31.9436527,4.84636388 31.1989303,3.73934766 29.6429074,3.28977477 L29.6429074,3.28977477 Z" id="Shape"></path>
                </g>
            </g>
        </g>
    </g>
</svg>