<?xml version="1.0" encoding="UTF-8"?>
<svg width="131px" height="146px" viewBox="0 0 131 146" version="1.1" xmlns="http://www.w3.org/2000/svg" xmlns:xlink="http://www.w3.org/1999/xlink">
    <!-- Generator: Sketch 59.1 (86144) - https://sketch.com -->
    <title>partner-with-us</title>
    <desc>Created with Sketch.</desc>
    <g id="Final" stroke="none" stroke-width="1" fill="none" fill-rule="evenodd">
        <g id="Homepage-" transform="translate(-257.000000, -4753.000000)" fill-rule="nonzero">
            <g id="Section-4" transform="translate(67.000000, 4520.000000)">
                <g id="partner-with-us" transform="translate(190.000000, 233.000000)">
                    <ellipse id="Oval" fill="#F7C635" cx="62" cy="71.5" rx="51" ry="51.5"></ellipse>
                    <path d="M19.62056,118 C19.5351479,118 19.4522872,117.971237 19.3854749,117.918685 C9.94711218,110.530529 3.44138633,100.09845 1.00766812,88.4494543 C0.98057527,88.3183422 1.02636437,88.1829146 1.12778711,88.0941858 C1.22920984,88.005457 1.37085769,87.976907 1.49937328,88.0192903 C1.62788886,88.0616736 1.72374761,88.1685512 1.75084045,88.2996634 C4.14854575,99.7761618 10.5580251,110.053728 19.8567285,117.33236 C19.9830007,117.431477 20.03196,117.598642 19.9787626,117.749029 C19.9255651,117.899417 19.7818566,118 19.62056,118 L19.62056,118 Z" id="Path" fill="#F7C635"></path>
                    <circle id="Oval" fill="#FDE893" cx="63.5" cy="83.5" r="38.5"></circle>
                    <path d="M0.0684158341,70.8094796 L0.350356347,69.5090418 C0.517211112,68.7375872 0.982877121,68.0643002 1.64480418,67.6374538 C2.30673124,67.2106074 3.11063361,67.065208 3.8794738,67.2332758 L9.9676605,68.5662245 L1.78058331,56.4981623 C0.859968633,55.139796 1.21105486,53.2899511 2.56483164,52.3660214 L3.03041156,52.0484979 C3.68072669,51.6046349 4.4801853,51.4381635 5.25286445,51.5857159 C6.0255436,51.7332684 6.70812895,52.1827542 7.15041583,52.8352627 L9.94929655,56.958734 L9.97522212,56.9338089 L6.12959674,47.4406135 C5.83330731,46.7097229 5.83859619,45.8906847 6.14429968,45.1637065 C6.45000317,44.4367282 7.03107526,43.8613704 7.7596666,43.5642253 L8.28141858,43.3474857 C9.00997139,43.0502456 9.8263898,43.0555514 10.5510428,43.3622358 C11.2756958,43.6689203 11.8492132,44.2518569 12.1454079,44.9827862 L15.3915046,52.9945663 L14.4808692,46.4663689 C14.3715475,45.6848618 14.5762479,44.8918021 15.0499163,44.2617407 C15.5235846,43.6316793 16.227399,43.216256 17.0064512,43.1069047 L17.5649311,43.0288785 C18.3439384,42.919206 19.1344615,43.1245633 19.7625077,43.5997515 C20.3905538,44.0749398 20.8046483,44.7810126 20.9136498,45.5625647 L22.1310711,54.2863345 C22.1973253,54.3434092 22.2621392,54.4022902 22.3255128,54.4629773 L22.9153194,51.3939442 C23.2308267,49.7859773 24.7832606,48.7368783 26.3871846,49.0477378 L26.9402633,49.1561076 C28.5479847,49.4674903 29.5998129,51.0272506 29.2897676,52.640197 L27.2373271,63.3102886 L44.3773658,96.4183496 C45.0534767,97.7235672 45.1848549,99.2448286 44.7425797,100.647252 C44.3003045,102.049676 43.3206314,103.218299 42.0192197,103.895867 L37.2672798,106.375368 C35.966237,107.053648 34.4498414,107.185448 33.0519033,106.741754 C31.6539652,106.298059 30.4890805,105.315243 29.81368,104.009655 L16.0126379,77.3506814 L2.33258179,74.351005 C1.56416138,74.1826514 0.893894755,73.7149221 0.469268357,73.0507371 C0.0446419594,72.386552 -0.0995517448,71.5803323 0.0684158341,70.8094796 Z" id="Path" fill="#DD4727"></path>
                    <g id="Group" transform="translate(29.000000, 29.000000)">
                        <path d="M11.3539336,59.6515149 L28.6497156,92.8736431 C29.33197,94.1832719 29.464542,95.7096745 29.0182481,97.116838 C28.5719541,98.5240015 27.5833792,99.6965736 26.2701422,100.376431 L21.4739336,102.864312 C20.1610689,103.544885 18.6308946,103.67713 17.2202541,103.231936 C15.8096136,102.786742 14.6341442,101.800604 13.9526066,100.490604 L0.0261611374,73.7415335 L11.3539336,59.6515149 Z" id="Path" fill="#DD4727"></path>
                        <path d="M66.6226066,23.2249349 L65.918436,22.0929926 C65.0467093,20.6925597 63.2019613,20.2622058 61.7980569,21.1317658 L56.4568246,24.4406041 L60.1858768,10.2657714 C60.6054599,8.67136019 59.6499042,7.03952795 58.051564,6.62093866 L57.5065403,6.47740706 C56.7383763,6.27509847 55.9210915,6.38584237 55.2348614,6.78522458 C54.5486313,7.18460679 54.0498012,7.83983466 53.8483412,8.60645911 L52.5740758,13.4517379 L52.5402844,13.4365149 L53.0079147,3.16530669 C53.0440025,2.37438378 52.7635941,1.60156264 52.2283939,1.01690376 C51.6931937,0.432244881 50.9470564,0.0836557201 50.1541706,0.0478438662 L49.5862559,0.0217472119 C48.7933787,-0.0142516403 48.018648,0.265465557 47.4325444,0.799346597 C46.8464409,1.33322764 46.4969904,2.07752585 46.46109,2.86845725 L46.0664929,11.5379833 L44.7388152,5.05731413 C44.5797728,4.28097352 44.1177978,3.59957745 43.4547016,3.1632942 C42.7916055,2.72701094 41.981814,2.57164982 41.2037915,2.73144981 L40.6467773,2.84018587 C39.8692379,2.99863777 39.1866485,3.4587234 38.7491792,4.11922371 C38.3117098,4.77972403 38.1551978,5.58653103 38.3140758,6.36214684 L40.088673,15.0218866 C40.0450711,15.0980019 40.0029226,15.1755669 39.9622275,15.2545818 L38.3696682,12.5557528 C37.5324775,11.1347068 35.6990522,10.6595903 34.2743602,11.4944888 L33.7838389,11.781552 C32.3592815,12.6166792 31.8829911,14.4455854 32.7199526,15.8667658 L38.2606635,25.2680855 L29.1914692,92.4832807 C28.9873984,93.9446944 29.3737216,95.4271154 30.2654371,96.60437 C31.1571526,97.7816247 32.4812013,98.5572595 33.9462559,98.7606134 L39.3016588,99.504368 C40.7666836,99.7079358 42.2527675,99.3225648 43.4329311,98.4330473 C44.6130946,97.5435297 45.390646,96.2227446 45.5945024,94.7613011 L53.6608531,34.768355 L65.6633649,27.335158 C67.0657138,26.4641358 67.4951063,24.6242461 66.6226066,23.2249349 L66.6226066,23.2249349 Z" id="Path" fill="#AA8565"></path>
                        <path d="M56.8525118,46.4302974 L57.9698104,45.7006784 C59.3520712,44.7976393 61.2064645,45.1831813 62.1119905,46.561868 L65.5576303,51.8083829 L68.1672038,37.3834572 C68.3081034,36.6043641 68.7535093,35.9130225 69.4054257,35.4615376 C70.0573421,35.0100527 70.8623604,34.8354127 71.6433649,34.9760409 L72.2025592,35.0771654 C72.9835775,35.2177178 73.6766273,35.6620258 74.1292278,36.3123353 C74.5818283,36.9626448 74.7568998,37.7656789 74.6159242,38.5447584 L73.7231754,43.4748513 L73.760237,43.4748513 L77.6778673,33.9647955 C77.9785914,33.2318209 78.5590136,32.6481183 79.2913383,32.3422055 C80.0236629,32.0362928 80.8478445,32.0332527 81.5824171,32.3337546 L82.1078199,32.5512268 C82.8426056,32.8512096 83.4277506,33.4302012 83.7344192,34.1607208 C84.0410878,34.8912403 84.0441354,35.7133905 83.742891,36.4461524 L80.4324171,44.4730483 L84.3751185,39.1547677 C85.3576555,37.8294683 87.2311383,37.5495524 88.5598104,38.5295353 L89.0165403,38.8666171 C90.3447549,39.8470676 90.6248668,41.7158811 89.6422275,43.0409944 L84.3729384,50.1468959 C84.3802054,50.2346097 84.3856556,50.3226859 84.3892891,50.4111245 L86.9759716,48.6289405 C87.6291505,48.1790792 88.4347504,48.0065382 89.2154813,48.1492888 C89.9962123,48.2920394 90.6880939,48.7383833 91.1388626,49.3900929 L91.4658768,49.8565706 C91.9168497,50.5081396 92.0898171,51.3117538 91.9467137,52.0905604 C91.8036104,52.8693669 91.3561635,53.5595431 90.7028436,54.0092007 L81.7088626,60.2071561 L70.7277251,96.0052416 C70.2960644,97.4170141 69.3196619,98.5997931 68.0134759,99.2931858 C66.7072899,99.9865785 65.1784056,100.133738 63.7634123,99.7022677 L58.5922275,98.1245074 C57.1769667,97.6939107 55.991265,96.7199148 55.296159,95.4169484 C54.601053,94.113982 54.4535295,92.5888662 54.8860664,91.1773606 L63.7274408,62.3536059 L55.9891943,50.5622677 C55.0839238,49.1834139 55.4704185,47.3335914 56.8525118,46.4302974 Z" id="Path" fill="#7EA1D4"></path>
                        <path d="M43.8460664,64.8066914 L42.8279621,63.9455019 C42.2225992,63.4335948 41.4381679,63.1825514 40.6472462,63.2476024 C39.8563245,63.3126533 39.1237057,63.6884695 38.6105687,64.2923699 L34.5446919,69.0767565 L33.7293365,54.4452323 C33.6373762,52.7995458 32.2255997,51.5397215 30.5758294,51.6311431 L30.0079147,51.6626766 C28.3581618,51.7544102 27.0952245,53.1627069 27.186872,54.8084108 L27.4659242,59.8102695 L27.4299526,59.8102695 L24.7113744,49.8913662 C24.2760645,48.3017287 22.6316973,47.364754 21.0379147,47.798197 L20.492891,47.9526022 C19.727327,48.1613447 19.0762594,48.6649331 18.6829401,49.352565 C18.2896208,50.0401969 18.1862744,50.8555344 18.3956398,51.6191822 L20.6847393,59.9918587 L17.4254976,54.2288476 C17.0353825,53.5394364 16.3866884,53.0328637 15.6221348,52.8205807 C14.8575812,52.6082976 14.0398032,52.7076953 13.3487204,53.0969052 L12.8538389,53.3752695 C12.1627242,53.7644231 11.6548998,54.4115182 11.4420922,55.1741873 C11.2292846,55.9368565 11.3289279,56.7526188 11.7190995,57.4419981 L16.0792891,65.1394238 C16.0611216,65.2256877 16.0451343,65.3123141 16.031327,65.399303 L13.6833649,63.3148327 C12.4491569,62.219073 10.5582097,62.3285993 9.45943128,63.5594888 L9.08118483,63.9835595 C7.98271759,65.2147253 8.09251453,67.1010117 9.3264455,68.1970818 L17.4898104,75.4465149 L23.9810427,112.316738 C24.2368609,113.769932 25.0609249,115.062227 26.2719391,115.909316 C27.4829533,116.756404 28.9817112,117.088893 30.4384834,116.833634 L35.764455,115.900678 C37.2212398,115.645491 38.516728,114.823458 39.3659098,113.615429 C40.2150916,112.407399 40.5484019,110.912336 40.2925118,109.459154 L35.0602844,79.77421 L44.1948815,69.0223885 C44.7106533,68.4179014 44.9637967,67.6333692 44.8983389,66.8422613 C44.832881,66.0511534 44.4542143,65.3186411 43.8460664,64.8066914 Z" id="Path" fill="#2C4DA1"></path>
                    </g>
                    <path d="M92.3445827,91 L84.4961476,79.3073735 C83.5783743,77.939306 83.9702069,76.1039538 85.3713884,75.2077259 L86.5041181,74.4838144 C87.9054693,73.5878394 89.7854738,73.9703655 90.7035061,75.3382673 L94.1967338,80.5437409 L96.8423483,66.2316554 C96.9851939,65.4586567 97.4367513,64.7727232 98.0976713,64.3247701 C98.7585914,63.876817 99.5747279,63.7035431 100.366519,63.8430712 L100.933436,63.9434047 C101.725241,64.0828575 102.427863,64.5236899 102.886714,65.1689124 C103.345566,65.8141348 103.523055,66.6108871 103.380132,67.3838721 L102.475054,72.275399 L102.512627,72.275399 L106.484364,62.8397364 C106.789241,62.1124956 107.37768,61.5333589 108.120119,61.2298392 C108.862558,60.9263195 109.698122,60.9233032 110.44284,61.2214545 L110.975499,61.4372254 C111.720433,61.7348616 112.313659,62.309324 112.624563,63.034129 C112.935467,63.758934 112.938557,64.5746528 112.633152,65.3016827 L109.276957,73.2657876 L113.274111,67.9891096 C114.270218,66.6741775 116.169576,66.3964512 117.516598,67.3687681 L117.979636,67.7032131 C119.326195,68.6759939 119.610175,70.5301885 118.613965,71.844936 L113.271901,78.895251 C113.279269,78.9822786 113.284794,79.0696659 113.288478,79.1574127 L115.910885,77.38917 C116.573085,76.9428277 117.389811,76.7716364 118.181325,76.9132703 C118.972838,77.0549042 119.674276,77.4977567 120.13127,78.1443682 L120.462801,78.6071968 C120.920002,79.2536689 121.095358,80.0509968 120.950278,80.823711 C120.805199,81.5964253 120.351572,82.2812026 119.689229,82.7273427 L110.571032,88.8768141" id="Path" fill="#7EA1D4"></path>
                    <path d="M125.604166,69 C125.387412,69 125.211698,68.8299692 125.211698,68.6202427 C125.21687,51.807162 116.58122,36.0921982 102.172714,26.6944137 C102.056536,26.6184389 101.991073,26.4882644 102.000985,26.3529257 C102.010896,26.217587 102.094677,26.0976452 102.220767,26.0382813 C102.346857,25.9789173 102.4961,25.98915 102.612278,26.0651248 C117.238197,35.6032922 126.004635,51.5542602 126,68.6202427 C126,68.7215234 125.958191,68.8186092 125.88386,68.8899192 C125.809529,68.9612292 125.708837,69.0008542 125.604166,69 Z" id="Path" fill="#F7C635"></path>
                    <path d="M130.625314,46 C130.471672,46 130.333501,45.9079338 130.276434,45.7674923 C127.066213,37.8975499 121.853897,30.9727982 115.140423,25.6587483 C114.978571,25.5306297 114.952858,25.2975939 115.082992,25.1382482 C115.213125,24.9789025 115.449827,24.9535879 115.611679,25.0817065 C122.425198,30.4755495 127.715125,37.5039994 130.97312,45.4916537 C131.01943,45.6056233 131.005297,45.7347872 130.935393,45.8364309 C130.865489,45.9380747 130.748922,45.9989566 130.62424,45.9989431 L130.625314,46 Z" id="Path" fill="#F7C635"></path>
                    <path d="M19.3832737,25 C19.2318337,25.0002389 19.0944872,24.9097049 19.0329815,24.7690632 C18.9714757,24.6284214 18.9973885,24.464146 19.0990701,24.3500906 C34.1641679,7.39294582 58.2782348,2.25967856 78.7730928,11.6470195 C78.8983602,11.7037308 78.9841796,11.8242426 78.9980369,11.9628971 C79.0118942,12.1015515 78.9516697,12.2371385 78.8401803,12.3182886 C78.728691,12.3994387 78.5829915,12.4137383 78.4582826,12.3557698 C58.2689776,3.08203136 34.4960479,8.14468074 19.6685705,24.8755434 C19.5951278,24.9562456 19.4914282,25.0014698 19.3832737,25 Z" id="Path" fill="#F7C635"></path>
                    <path d="M23.3812857,11 C23.2166942,11.0002518 23.0705513,10.8915128 23.0190969,10.7304254 C22.9676425,10.569338 23.0225426,10.3924247 23.1551568,10.2919779 C32.0285394,3.55873026 42.562012,0 53.6194947,0 C53.829642,0 54,0.175528559 54,0.392054011 C54,0.608579462 53.829642,0.784108021 53.6194947,0.784108021 C42.7294343,0.784108021 32.3525124,4.29019103 23.6139375,10.9237449 C23.5466857,10.9749245 23.4648744,11.0017096 23.3812857,11 Z" id="Path" fill="#F7C635"></path>
                </g>
            </g>
        </g>
    </g>
</svg>