<?xml version="1.0" encoding="utf-8"?>
<!-- Generator: Adobe Illustrator 19.2.1, SVG Export Plug-In . SVG Version: 6.00 Build 0)  -->
<svg version="1.1" id="Layer_1" xmlns="http://www.w3.org/2000/svg" xmlns:xlink="http://www.w3.org/1999/xlink" x="0px" y="0px"
	 viewBox="0 0 512 512" style="enable-background:new 0 0 512 512;" xml:space="preserve">
<style type="text/css">
	.st0{fill:#5B616B;}
</style>
<path class="st0" d="M5.1,374.5l25.6,25.6c3.4,3.4,7.4,5.1,11.8,5.1c4.4,0,8.4-1.7,11.8-5.1L256,198.5l201.6,201.6
	c3.4,3.4,7.4,5.1,11.8,5.1c4.4,0,8.4-1.7,11.8-5.1l25.6-25.7c3.4-3.4,5.1-7.4,5.1-11.8c0-4.4-1.7-8.4-5.1-11.8L267.8,111.8
	c-3.4-3.4-7.4-5.1-11.8-5.1s-8.4,1.7-11.8,5.1L5.1,350.9c-3.4,3.4-5.1,7.4-5.1,11.8C0,367.2,1.7,371.1,5.1,374.5L5.1,374.5z"/>
</svg>
