<?xml version="1.0" encoding="UTF-8"?>
<svg width="49px" height="47px" viewBox="0 0 49 47" version="1.1" xmlns="http://www.w3.org/2000/svg" xmlns:xlink="http://www.w3.org/1999/xlink">
    <!-- Generator: Sketch 59.1 (86144) - https://sketch.com -->
    <title>doodle-02</title>
    <desc>Created with Sketch.</desc>
    <g id="Final" stroke="none" stroke-width="1" fill="none" fill-rule="evenodd">
        <g id="Homepage-" transform="translate(-67.000000, -5158.000000)" fill="#13192F" fill-rule="nonzero">
            <g id="Section-4" transform="translate(67.000000, 4520.000000)">
                <g id="doodle-02" transform="translate(0.000000, 638.000000)">
                    <path d="M18.7372917,6.58645515 C19.0093429,5.94531541 19.1725736,5.25074736 19.5534452,4.60960761 C19.9887271,3.86161125 20.5328294,3.2204715 21.131342,2.57933176 C21.6754444,1.99162033 22.2739569,1.51076552 22.9268797,1.02991071 C23.4165718,0.709340842 23.9606742,0.495627594 24.5047765,0.335342658 C26.6811859,-0.305797085 28.8575953,0.0682010989 30.9251841,0.65591253 C33.8089265,1.4039089 36.5294382,2.41904682 39.032309,4.1287528 C41.2087184,5.67817385 43.0586663,7.60159308 45.071845,9.31129906 C46.9762032,10.9675767 47.9555874,13.2115658 48.8261511,15.4555549 C49.2070228,16.4706929 48.9893818,16.6844061 47.9011772,16.7378344 C46.8129725,15.2418417 45.779178,13.745849 44.6365631,12.3567128 C44.0380505,11.6087165 43.2763073,11.021005 42.6233845,10.3798653 C41.7528207,9.57844062 40.882257,8.72358763 40.0116932,7.92216295 C38.9234885,6.90702502 37.6720532,6.05217203 36.3117973,5.4644606 C36.2573871,5.41103229 36.1485666,5.41103229 36.0941564,5.35760398 C33.4824651,3.59446969 30.4899023,3.11361488 27.4973394,2.63276007 C26.3547245,2.41904682 25.32093,2.25876189 24.1783151,2.57933176 C22.5460081,3.00675825 21.8386751,3.75475462 21.7842648,5.35760398 C21.7842648,5.62474554 21.7842648,5.83845879 21.7842648,6.10560035 C21.7842648,7.49473646 22.3283672,8.34958945 23.7974435,8.83044425 C28.4223134,10.3798653 32.6119014,12.7841393 36.7470792,15.29527 C39.1955397,16.7912627 41.5351798,18.4475404 43.8204096,20.2106747 C45.6703576,21.5998108 47.0306134,23.52323 48.2276386,25.5000776 C48.5541,25.9809324 48.5541,26.5686438 48.336459,27.0494986 C47.7923567,28.1714932 47.1394339,29.2934877 46.5409213,30.4154823 C46.4321008,30.5757672 46.3232804,30.7894805 46.1600497,30.8963371 C44.8542041,31.3771919 43.6571789,32.2320449 42.1336924,31.7511901 C41.9160514,31.6977618 41.6440002,31.5374768 41.4263593,31.5374768 C38.2705657,31.4306202 35.9853359,29.6140576 33.8089265,27.6372101 C30.4899023,24.6452246 27.0076473,21.8135241 23.9606742,18.5009687 C22.3827774,16.7912627 21.348983,14.7609869 20.4784192,12.730711 C19.8799066,11.3415749 19.0093429,10.7004352 17.649087,10.2730087 C15.309447,9.52501231 12.9153967,8.93730088 10.4125259,8.77701594 C9.16109053,8.67015932 7.90965515,8.83044425 6.65821977,8.93730088 C5.84206626,8.99072919 5.13473322,9.41815569 4.64504111,10.0592954 C4.04652853,10.8607201 3.50242619,11.6621448 3.01273409,12.5169978 C2.79509315,12.890996 2.79509315,13.4787074 2.90391362,13.9595622 C3.12155456,14.7075586 3.39360573,15.4555549 3.8288876,16.0966947 C4.69945134,17.4324025 5.73324579,18.714682 6.65821977,19.9969614 C6.82145047,20.2106747 7.03909141,20.3175313 7.20232211,20.4778163 C10.4669361,19.1421085 13.7315502,19.7298199 16.9961642,20.3709596 C17.8123177,20.5312446 18.574061,20.9586711 19.2269838,21.4395259 C21.2401625,22.8820903 23.1989309,24.4315113 24.7768277,26.4083589 C25.2665198,27.0494986 25.7018017,27.797495 26.0826733,28.492063 C26.1914938,28.7592046 26.1914938,29.1332028 26.0826733,29.4537727 C25.7562119,30.6826238 25.32093,31.911475 24.9944686,33.1403262 C24.5591868,34.6363189 23.5253923,35.2240303 22.056316,35.330887 C19.499035,35.4911719 17.1593949,34.8500322 15.091806,33.4074677 C12.2080636,31.4306202 9.81401334,29.0263462 7.41996304,26.5686438 C7.14791187,26.3015023 6.8758607,26.0343607 6.60380953,25.7672191 C6.5493993,25.7137908 6.44057883,25.7672191 6.33175836,25.7137908 C6.16852766,26.3015023 6.44057883,26.8892137 6.71263,27.3166402 C7.36555281,28.2783498 8.01847562,29.2400594 8.83462913,30.0414841 C11.3374999,32.6060431 14.3300628,34.5828906 17.5402666,36.3460249 C20.9681113,38.1625875 24.3959561,39.9791501 27.7693906,41.7957127 C28.9120055,42.3834241 30.0002102,43.0779922 31.1428251,43.6122753 C32.0677991,44.0397018 33.1015935,44.3068434 34.0809777,44.6808416 C34.6250801,44.8945548 35.1147722,45.1616964 35.7132847,45.4822662 C33.7001061,46.817974 31.6869274,47.2988288 29.5105181,46.817974 C28.9664157,46.7111174 28.3679031,46.6576891 27.7693906,46.4974042 C27.1164678,46.3371192 26.4091347,46.123406 25.7562119,45.8562644 C25.2665198,45.6959795 24.7224175,45.4822662 24.2327254,45.268553 C22.056316,44.4137 19.8799066,43.6122753 17.8123177,42.5971374 C15.6359084,41.5285711 13.5139093,40.1928634 11.4463204,38.9105839 C10.4669361,38.2694441 9.65078264,37.4145911 8.83462913,36.6131665 C7.20232211,34.9568888 5.67883556,33.1937545 4.37298994,31.2703353 C3.17596479,29.5606293 3.01273409,27.6906384 3.33919549,25.7137908 C3.44801596,25.1795077 3.77447736,24.6452246 4.04652853,24.1643698 C4.37298994,23.5766583 4.42740017,23.0423752 3.93770807,22.5080921 C3.12155456,21.5998108 2.35981128,20.5846729 1.54365777,19.6763916 C-0.143059485,17.7529723 -0.523931123,14.9747001 0.781914493,12.6772827 C2.03334988,10.4867219 3.55683643,8.45644607 5.67883556,6.96045334 C6.2229379,6.58645515 6.8758607,6.21245697 7.58319375,5.99874372 C9.32432124,5.51788891 11.119859,5.41103229 12.9153967,5.62474554 C14.8197549,5.94531541 16.7241131,6.26588528 18.7372917,6.58645515 Z M45.6159473,28.7592046 C45.6703576,28.3852064 45.7247678,28.2249215 45.7247678,28.1180649 C45.6703576,27.9043516 45.6703576,27.6906384 45.5615371,27.5303534 C44.4189222,25.5535059 43.0586663,23.7903716 41.0454877,22.5080921 C39.1411295,21.2792409 37.2367713,19.9969614 35.2780029,18.8215386 C32.0677991,16.9515477 28.8575953,15.1349851 25.6473914,13.3718508 C25.4297505,13.2649941 25.1576993,13.2649941 24.7224175,13.2115658 C24.9400584,13.585564 25.0488789,13.745849 25.1576993,13.9061339 C27.3341087,16.0432664 29.4561078,18.2872555 31.6869274,20.3709596 C33.3192344,21.9203807 35.1147722,23.2560885 36.8014894,24.6986529 C38.4882067,26.1946456 40.3381546,27.4234968 42.6233845,27.9043516 C43.1130766,28.0112082 43.5483584,28.2783498 44.0380505,28.3852064 C44.4733324,28.5454914 45.0174348,28.5989197 45.6159473,28.7592046 Z M9.4331417,22.828662 C9.59637241,23.1492318 9.59637241,23.3095168 9.70519287,23.3629451 C11.7727818,25.1795077 13.7859604,26.9960703 15.8535493,28.7057763 C17.7579075,30.2551973 20.0431373,31.0031937 22.3827774,31.6977618 C22.763649,31.8046184 23.2533411,31.7511901 23.688623,31.8046184 C23.688623,30.7360521 23.7430333,30.6291955 23.1989309,29.9346275 C22.4371876,29.0263462 21.6754444,28.0646365 20.8048806,27.3166402 C19.7166759,26.3549306 18.4652406,25.6069342 17.3226256,24.6986529 C15.0373958,22.9889469 12.3168841,22.9355186 9.4331417,22.828662 Z" id="Shape"></path>
                </g>
            </g>
        </g>
    </g>
</svg>