<?xml version="1.0" encoding="UTF-8"?>
<svg width="34px" height="34px" viewBox="0 0 34 34" version="1.1" xmlns="http://www.w3.org/2000/svg" xmlns:xlink="http://www.w3.org/1999/xlink">
    <!-- Generator: Sketch 59.1 (86144) - https://sketch.com -->
    <title>doodle-03</title>
    <desc>Created with Sketch.</desc>
    <g id="Final" stroke="none" stroke-width="1" fill="none" fill-rule="evenodd">
        <g id="Homepage-" transform="translate(-474.000000, -5314.000000)" fill="#13192F" fill-rule="nonzero">
            <g id="Section-4" transform="translate(67.000000, 4520.000000)">
                <g id="doodle-03" transform="translate(407.000000, 794.000000)">
                    <path d="M18.7971239,21.111558 C18.7594543,22.1015589 18.7217847,22.9011751 18.7217847,23.6627142 C18.7594543,25.1857926 18.9101327,26.7088709 18.6841151,28.2319492 C18.6464455,28.498488 18.7217847,28.7269497 18.7217847,28.9934884 C18.7594543,29.7169506 18.7594543,30.4404128 18.7971239,31.1257981 C18.8347935,31.7731064 18.9101327,32.4204147 18.9478022,33.1819538 C18.7217847,33.3342617 18.420428,33.5246465 18.1190713,33.6388773 C17.6293667,33.8292621 17.32801,33.6769543 17.2526708,33.1438769 C17.1773317,32.4965686 17.1396621,31.8111833 17.2150012,31.163875 C17.2903404,30.5546437 17.2150012,29.9454124 17.0643229,29.374258 C16.8383054,28.6127188 16.8006358,27.8511797 16.875975,27.0896405 C16.9136445,26.7850248 16.875975,26.4804092 16.8383054,26.1377165 C16.7629662,25.2238695 16.687627,24.3100225 16.6122879,23.3961755 C16.4992791,22.2157898 16.4239399,20.9973272 16.3109312,19.7407875 C15.7835569,19.7788645 15.5198698,20.0834802 15.1808435,20.3500189 C14.7288085,20.6927115 14.2391039,20.9973272 13.7870688,21.3019428 C13.7117297,21.3780967 13.5987209,21.4161737 13.4857121,21.4923276 C11.5645632,23.2438677 9.60574468,24.9573308 7.72226533,26.7088709 C6.85586483,27.508487 5.98946433,28.3461801 5.16073341,29.1838732 C4.52035044,29.8311815 3.87996746,30.5165667 3.31492365,31.201952 C2.86288861,31.7350294 2.52386233,32.3061838 2.07182728,32.8392612 C1.4314443,33.6008004 0.941739674,33.6388773 0,32.9534921 C0.8664005,32.115799 0.941739674,30.7831055 1.80814017,29.9073354 C2.52386233,29.1838732 3.23958448,28.422334 3.91763704,27.6607949 C5.38675094,25.9473317 7.15722152,24.5384843 8.81468335,23.0154059 C10.3214668,21.6446354 11.9035895,20.3880958 13.222025,18.8269405 C13.3350338,18.7127097 13.410373,18.5604018 13.5987209,18.3319401 C13.2973642,18.2938631 13.0713467,18.2557862 12.8829987,18.2557862 C11.2632065,18.4461709 9.64341426,18.2177092 8.02362202,18.2177092 C7.19489111,18.2177092 6.3661602,18.2557862 5.53742928,18.2177092 C5.12306383,18.2177092 4.67102878,18.1415553 4.29433291,17.9892474 C3.50327159,17.6465548 2.71221026,17.4180931 1.80814017,17.45617 C0.941739674,17.45617 0.602713392,17.1515544 0.527374218,16.2377074 C0.828730913,16.1615534 1.09241802,16.0853995 1.39377472,16.0473226 C2.67454067,15.9330917 3.95530663,15.8188608 5.198403,15.7427069 C6.29082102,15.7046299 7.34556946,15.666553 8.43798748,15.7427069 C9.79409261,15.8188608 11.1501977,15.628476 12.6193116,15.5142451 C12.4309637,14.752706 11.8659199,14.3719364 11.4138849,13.9530899 C11.1878673,13.7627051 10.9618498,13.6484742 10.7358323,13.4580894 C8.77701376,11.8207802 6.81819524,10.145394 4.85937672,8.47000785 C3.42793241,7.25154518 2.07182728,5.9569286 1.01707885,4.35769635 C0.941739674,4.24346547 0.828730913,4.1292346 0.753391739,4.05308068 C0.0753391739,3.29154151 -0.037669587,2.79654105 0.715722152,1.69230926 C0.941739674,1.34961664 1.24309637,1.23538576 1.58212265,1.46384751 C2.07182728,1.76846318 2.56153191,2.07307884 2.93822778,2.49192539 C4.06831539,3.74846501 5.31141176,4.85269681 6.59217772,5.9569286 C6.70518648,6.07115947 6.85586483,6.18539035 6.96887359,6.29962122 C8.77701376,8.08923827 10.5851539,9.87885531 12.3932941,11.6684724 C13.2973642,12.5442424 14.2014343,13.4200124 15.143174,14.2577055 C15.3691915,14.4480903 15.6328786,14.6003981 16.047244,14.9050138 C16.047244,14.4480903 16.0849136,14.1815516 16.047244,13.9150129 C15.7082178,11.2877028 15.6328786,8.58423873 15.4822002,5.84269772 C15.4445307,5.0430816 15.2938523,4.24346547 15.1808435,3.44384935 C15.0678348,2.68231018 15.0301652,1.99692493 15.2938523,1.23538576 C15.5575394,0.435769635 16.1225832,0.0930770094 16.875975,0.0169230926 C17.1019925,-0.0211538658 17.32801,0.0169230926 17.6293667,0.0169230926 C18.0060626,4.62423506 18.3450889,9.1553931 18.7217847,13.800782 C18.9854718,13.7246281 19.1738198,13.6865511 19.3244981,13.5723203 C20.8312816,12.3157806 22.4510738,11.1353949 23.6565006,9.57423964 C23.8825181,9.26962398 24.1462052,9.00308527 24.4098924,8.73654656 C25.9543454,7.17539127 27.4611289,5.57615901 29.0432516,4.01500372 C30.2110087,2.83461801 31.4541051,1.73038622 32.6595319,0.626154427 C32.923219,0.397692676 33.1492365,0.131153968 33.563602,0.397692676 C33.9402979,0.626154427 34.0533066,0.930770094 33.9779674,1.42577055 C33.9026283,1.95884797 33.6766108,2.37769451 33.2622453,2.7584641 C32.0944881,3.86269589 30.9267309,4.96692768 29.8343129,6.10923643 C28.817234,7.21346822 27.8378248,8.35577698 26.8584155,9.49808573 C26.7830763,9.6123166 26.7077372,9.72654748 26.5947284,9.84077835 C26.0296846,10.3357788 25.3139624,10.7546254 24.8619274,11.3638567 C24.4098924,11.973088 24.0331965,12.5823194 23.4681527,13.0773198 C22.6394218,13.800782 21.88603,14.6384751 21.0949687,15.4380912 C21.3586558,15.7427069 21.6976821,15.628476 21.9613692,15.628476 C23.6941702,15.666553 25.4269712,15.7046299 27.1597722,15.7046299 C28.7042253,15.7046299 30.2110087,15.7046299 31.7554618,15.7046299 C32.0944881,15.7046299 32.4335144,15.7427069 32.7725407,15.7807839 C33.1115669,15.8188608 33.4129236,15.9711686 33.4129236,16.3519382 C33.4505932,16.7327078 33.3752541,17.1134774 32.9608886,17.3038622 C32.6595319,17.45617 32.3205056,17.5323239 31.9814793,17.5704009 C31.3787659,17.6465548 30.738383,17.7227087 30.098,17.6846318 C29.005582,17.6465548 27.9508335,17.7988627 26.8960851,18.0654014 C26.6700676,18.1034783 26.4440501,18.1415553 26.2180325,18.1034783 C24.3345532,17.8750166 22.4887434,18.370017 20.6052641,18.370017 C20.5675945,18.370017 20.4922553,18.408094 20.3792466,18.4842479 C20.4922553,18.6365557 20.5675945,18.8269405 20.7182728,18.9411714 C21.1703079,19.3600179 21.5846733,19.7788645 22.074378,20.1215571 C23.3174743,21.0354041 24.3345532,22.1396359 25.3139624,23.2819447 C26.7077372,24.8811769 28.1391815,26.4423322 29.4952866,28.0415645 C30.5123654,29.2600271 31.4541051,30.5927207 32.3958448,31.8492603 C32.7348711,32.3061838 33.1115669,32.7631073 33.4505932,33.1819538 C33.6389412,33.4104156 33.8272891,33.7150313 33.5259324,33.943493 C33.3752541,34.0577239 32.9985582,33.98157 32.8478798,33.8673391 C31.4917747,32.8773382 30.1356696,31.8873372 29.0809211,30.5546437 C28.1391815,29.336181 27.084433,28.1938723 26.0296846,27.0896405 C25.3893016,26.4423322 24.6359099,25.9092548 23.9578573,25.3381004 C23.618831,25.0334847 23.2421352,24.7288691 22.9784481,24.3861764 C22.1873867,23.4342525 21.2456471,22.6727133 20.1155594,22.1015589 C19.7388636,21.8730972 19.3998373,21.5304046 18.7971239,21.111558 Z" id="Path"></path>
                </g>
            </g>
        </g>
    </g>
</svg>