<?xml version="1.0" encoding="UTF-8"?>
<svg width="970px" height="409px" viewBox="0 0 970 409" version="1.1" xmlns="http://www.w3.org/2000/svg" xmlns:xlink="http://www.w3.org/1999/xlink">
    <!-- Generator: Sketch 58 (84663) - https://sketch.com -->
    <title>Graphic</title>
    <desc>Created with Sketch.</desc>
    <g id="Final" stroke="none" stroke-width="1" fill="none" fill-rule="evenodd">
        <g id="Homepage-" transform="translate(-249.000000, -5512.000000)">
            <g id="Graphic" transform="translate(251.000000, 5514.000000)">
                <g id="noun_USA_2554196" transform="translate(157.000000, 0.000000)" fill="#0166C5" stroke="#0166C5" stroke-width="3">
                    <g id="Group">
                        <ellipse id="Oval" cx="21.7475778" cy="5.15200543" rx="4.72746667" ry="4.71824467"></ellipse>
                        <ellipse id="Oval" cx="55.7754889" cy="5.15200543" rx="4.72746667" ry="4.71824467"></ellipse>
                        <ellipse id="Oval" cx="72.7956" cy="5.15200543" rx="4.72746667" ry="4.71824467"></ellipse>
                        <ellipse id="Oval" cx="89.8095556" cy="5.15200543" rx="4.72746667" ry="4.71824467"></ellipse>
                        <ellipse id="Oval" cx="21.7475778" cy="22.1327714" rx="4.72746667" ry="4.71824467"></ellipse>
                        <ellipse id="Oval" cx="38.7615333" cy="22.1327714" rx="4.72746667" ry="4.71824467"></ellipse>
                        <ellipse id="Oval" cx="55.7754889" cy="22.1327714" rx="4.72746667" ry="4.71824467"></ellipse>
                        <ellipse id="Oval" cx="72.7956" cy="22.1327714" rx="4.72746667" ry="4.71824467"></ellipse>
                        <ellipse id="Oval" cx="89.8095556" cy="22.1327714" rx="4.72746667" ry="4.71824467"></ellipse>
                        <ellipse id="Oval" cx="106.829667" cy="22.1327714" rx="4.72746667" ry="4.71824467"></ellipse>
                        <ellipse id="Oval" cx="123.849778" cy="22.1327714" rx="4.72746667" ry="4.71824467"></ellipse>
                        <ellipse id="Oval" cx="140.863733" cy="22.1327714" rx="4.72746667" ry="4.71824467"></ellipse>
                        <ellipse id="Oval" cx="157.883844" cy="22.1327714" rx="4.72746667" ry="4.71824467"></ellipse>
                        <ellipse id="Oval" cx="174.891644" cy="22.1327714" rx="4.72746667" ry="4.71824467"></ellipse>
                        <ellipse id="Oval" cx="191.911756" cy="22.1327714" rx="4.72746667" ry="4.71824467"></ellipse>
                        <ellipse id="Oval" cx="532.252422" cy="22.1327714" rx="4.72746667" ry="4.71824467"></ellipse>
                        <ellipse id="Oval" cx="21.7475778" cy="39.1196809" rx="4.72746667" ry="4.71824467"></ellipse>
                        <ellipse id="Oval" cx="38.7615333" cy="39.1196809" rx="4.72746667" ry="4.71824467"></ellipse>
                        <ellipse id="Oval" cx="55.7754889" cy="39.1196809" rx="4.72746667" ry="4.71824467"></ellipse>
                        <ellipse id="Oval" cx="72.7956" cy="39.1196809" rx="4.72746667" ry="4.71824467"></ellipse>
                        <ellipse id="Oval" cx="89.8095556" cy="39.1196809" rx="4.72746667" ry="4.71824467"></ellipse>
                        <ellipse id="Oval" cx="106.829667" cy="39.1196809" rx="4.72746667" ry="4.71824467"></ellipse>
                        <ellipse id="Oval" cx="123.849778" cy="39.1196809" rx="4.72746667" ry="4.71824467"></ellipse>
                        <ellipse id="Oval" cx="140.863733" cy="39.1196809" rx="4.72746667" ry="4.71824467"></ellipse>
                        <ellipse id="Oval" cx="157.883844" cy="39.1196809" rx="4.72746667" ry="4.71824467"></ellipse>
                        <ellipse id="Oval" cx="174.891644" cy="39.1196809" rx="4.72746667" ry="4.71824467"></ellipse>
                        <ellipse id="Oval" cx="191.911756" cy="39.1196809" rx="4.72746667" ry="4.71824467"></ellipse>
                        <ellipse id="Oval" cx="208.931867" cy="39.1196809" rx="4.72746667" ry="4.71824467"></ellipse>
                        <ellipse id="Oval" cx="225.945822" cy="39.1196809" rx="4.72746667" ry="4.71824467"></ellipse>
                        <ellipse id="Oval" cx="242.965933" cy="39.1196809" rx="4.72746667" ry="4.71824467"></ellipse>
                        <ellipse id="Oval" cx="259.986044" cy="39.1196809" rx="4.72746667" ry="4.71824467"></ellipse>
                        <ellipse id="Oval" cx="277" cy="39.1196809" rx="4.72746667" ry="4.71824467"></ellipse>
                        <ellipse id="Oval" cx="294.013956" cy="39.1196809" rx="4.72746667" ry="4.71824467"></ellipse>
                        <ellipse id="Oval" cx="311.034067" cy="39.1196809" rx="4.72746667" ry="4.71824467"></ellipse>
                        <ellipse id="Oval" cx="328.048022" cy="39.1196809" rx="4.72746667" ry="4.71824467"></ellipse>
                        <ellipse id="Oval" cx="532.252422" cy="39.1196809" rx="4.72746667" ry="4.71824467"></ellipse>
                        <ellipse id="Oval" cx="549.272533" cy="39.1196809" rx="4.72746667" ry="4.71824467"></ellipse>
                        <ellipse id="Oval" cx="21.7475778" cy="56.1065905" rx="4.72746667" ry="4.71824467"></ellipse>
                        <ellipse id="Oval" cx="38.7615333" cy="56.1065905" rx="4.72746667" ry="4.71824467"></ellipse>
                        <ellipse id="Oval" cx="55.7754889" cy="56.1065905" rx="4.72746667" ry="4.71824467"></ellipse>
                        <ellipse id="Oval" cx="72.7956" cy="56.1065905" rx="4.72746667" ry="4.71824467"></ellipse>
                        <ellipse id="Oval" cx="89.8095556" cy="56.1065905" rx="4.72746667" ry="4.71824467"></ellipse>
                        <ellipse id="Oval" cx="106.829667" cy="56.1065905" rx="4.72746667" ry="4.71824467"></ellipse>
                        <ellipse id="Oval" cx="123.849778" cy="56.1065905" rx="4.72746667" ry="4.71824467"></ellipse>
                        <ellipse id="Oval" cx="140.863733" cy="56.1065905" rx="4.72746667" ry="4.71824467"></ellipse>
                        <ellipse id="Oval" cx="157.883844" cy="56.1065905" rx="4.72746667" ry="4.71824467"></ellipse>
                        <ellipse id="Oval" cx="174.891644" cy="56.1065905" rx="4.72746667" ry="4.71824467"></ellipse>
                        <ellipse id="Oval" cx="191.911756" cy="56.1065905" rx="4.72746667" ry="4.71824467"></ellipse>
                        <ellipse id="Oval" cx="208.931867" cy="56.1065905" rx="4.72746667" ry="4.71824467"></ellipse>
                        <ellipse id="Oval" cx="225.945822" cy="56.1065905" rx="4.72746667" ry="4.71824467"></ellipse>
                        <ellipse id="Oval" cx="242.965933" cy="56.1065905" rx="4.72746667" ry="4.71824467"></ellipse>
                        <ellipse id="Oval" cx="259.986044" cy="56.1065905" rx="4.72746667" ry="4.71824467"></ellipse>
                        <ellipse id="Oval" cx="277" cy="56.1065905" rx="4.72746667" ry="4.71824467"></ellipse>
                        <ellipse id="Oval" cx="294.013956" cy="56.1065905" rx="4.72746667" ry="4.71824467"></ellipse>
                        <ellipse id="Oval" cx="311.034067" cy="56.1065905" rx="4.72746667" ry="4.71824467"></ellipse>
                        <ellipse id="Oval" cx="328.048022" cy="56.1065905" rx="4.72746667" ry="4.71824467"></ellipse>
                        <ellipse id="Oval" cx="345.068133" cy="56.1065905" rx="4.72746667" ry="4.71824467"></ellipse>
                        <ellipse id="Oval" cx="362.088244" cy="56.1065905" rx="4.72746667" ry="4.71824467"></ellipse>
                        <ellipse id="Oval" cx="379.1022" cy="56.1065905" rx="4.72746667" ry="4.71824467"></ellipse>
                        <ellipse id="Oval" cx="498.224511" cy="56.1065905" rx="4.72746667" ry="4.71824467"></ellipse>
                        <ellipse id="Oval" cx="515.238467" cy="56.1065905" rx="4.72746667" ry="4.71824467"></ellipse>
                        <ellipse id="Oval" cx="532.252422" cy="56.1065905" rx="4.72746667" ry="4.71824467"></ellipse>
                        <ellipse id="Oval" cx="4.72746667" cy="73.0873565" rx="4.72746667" ry="4.71824467"></ellipse>
                        <ellipse id="Oval" cx="21.7475778" cy="73.0873565" rx="4.72746667" ry="4.71824467"></ellipse>
                        <ellipse id="Oval" cx="38.7615333" cy="73.0873565" rx="4.72746667" ry="4.71824467"></ellipse>
                        <ellipse id="Oval" cx="55.7754889" cy="73.0873565" rx="4.72746667" ry="4.71824467"></ellipse>
                        <ellipse id="Oval" cx="72.7956" cy="73.0873565" rx="4.72746667" ry="4.71824467"></ellipse>
                        <ellipse id="Oval" cx="89.8095556" cy="73.0873565" rx="4.72746667" ry="4.71824467"></ellipse>
                        <ellipse id="Oval" cx="106.829667" cy="73.0873565" rx="4.72746667" ry="4.71824467"></ellipse>
                        <ellipse id="Oval" cx="123.849778" cy="73.0873565" rx="4.72746667" ry="4.71824467"></ellipse>
                        <ellipse id="Oval" cx="140.863733" cy="73.0873565" rx="4.72746667" ry="4.71824467"></ellipse>
                        <ellipse id="Oval" cx="157.883844" cy="73.0873565" rx="4.72746667" ry="4.71824467"></ellipse>
                        <ellipse id="Oval" cx="174.891644" cy="73.0873565" rx="4.72746667" ry="4.71824467"></ellipse>
                        <ellipse id="Oval" cx="191.911756" cy="73.0873565" rx="4.72746667" ry="4.71824467"></ellipse>
                        <ellipse id="Oval" cx="208.931867" cy="73.0873565" rx="4.72746667" ry="4.71824467"></ellipse>
                        <ellipse id="Oval" cx="225.945822" cy="73.0873565" rx="4.72746667" ry="4.71824467"></ellipse>
                        <ellipse id="Oval" cx="242.965933" cy="73.0873565" rx="4.72746667" ry="4.71824467"></ellipse>
                        <ellipse id="Oval" cx="259.986044" cy="73.0873565" rx="4.72746667" ry="4.71824467"></ellipse>
                        <ellipse id="Oval" cx="277" cy="73.0873565" rx="4.72746667" ry="4.71824467"></ellipse>
                        <ellipse id="Oval" cx="294.013956" cy="73.0873565" rx="4.72746667" ry="4.71824467"></ellipse>
                        <ellipse id="Oval" cx="311.034067" cy="73.0873565" rx="4.72746667" ry="4.71824467"></ellipse>
                        <ellipse id="Oval" cx="328.048022" cy="73.0873565" rx="4.72746667" ry="4.71824467"></ellipse>
                        <ellipse id="Oval" cx="345.068133" cy="73.0873565" rx="4.72746667" ry="4.71824467"></ellipse>
                        <ellipse id="Oval" cx="362.088244" cy="73.0873565" rx="4.72746667" ry="4.71824467"></ellipse>
                        <ellipse id="Oval" cx="396.116156" cy="73.0873565" rx="4.72746667" ry="4.71824467"></ellipse>
                        <ellipse id="Oval" cx="481.2044" cy="73.0873565" rx="4.72746667" ry="4.71824467"></ellipse>
                        <ellipse id="Oval" cx="498.224511" cy="73.0873565" rx="4.72746667" ry="4.71824467"></ellipse>
                        <ellipse id="Oval" cx="515.238467" cy="73.0873565" rx="4.72746667" ry="4.71824467"></ellipse>
                        <ellipse id="Oval" cx="532.252422" cy="73.0873565" rx="4.72746667" ry="4.71824467"></ellipse>
                        <ellipse id="Oval" cx="4.72746667" cy="90.074266" rx="4.72746667" ry="4.71824467"></ellipse>
                        <ellipse id="Oval" cx="21.7475778" cy="90.074266" rx="4.72746667" ry="4.71824467"></ellipse>
                        <ellipse id="Oval" cx="38.7615333" cy="90.074266" rx="4.72746667" ry="4.71824467"></ellipse>
                        <ellipse id="Oval" cx="55.7754889" cy="90.074266" rx="4.72746667" ry="4.71824467"></ellipse>
                        <ellipse id="Oval" cx="72.7956" cy="90.074266" rx="4.72746667" ry="4.71824467"></ellipse>
                        <ellipse id="Oval" cx="89.8095556" cy="90.074266" rx="4.72746667" ry="4.71824467"></ellipse>
                        <ellipse id="Oval" cx="106.829667" cy="90.074266" rx="4.72746667" ry="4.71824467"></ellipse>
                        <ellipse id="Oval" cx="123.849778" cy="90.074266" rx="4.72746667" ry="4.71824467"></ellipse>
                        <ellipse id="Oval" cx="140.863733" cy="90.074266" rx="4.72746667" ry="4.71824467"></ellipse>
                        <ellipse id="Oval" cx="157.883844" cy="90.074266" rx="4.72746667" ry="4.71824467"></ellipse>
                        <ellipse id="Oval" cx="174.891644" cy="90.074266" rx="4.72746667" ry="4.71824467"></ellipse>
                        <ellipse id="Oval" cx="191.911756" cy="90.074266" rx="4.72746667" ry="4.71824467"></ellipse>
                        <ellipse id="Oval" cx="208.931867" cy="90.074266" rx="4.72746667" ry="4.71824467"></ellipse>
                        <ellipse id="Oval" cx="225.945822" cy="90.074266" rx="4.72746667" ry="4.71824467"></ellipse>
                        <ellipse id="Oval" cx="242.965933" cy="90.074266" rx="4.72746667" ry="4.71824467"></ellipse>
                        <ellipse id="Oval" cx="259.986044" cy="90.074266" rx="4.72746667" ry="4.71824467"></ellipse>
                        <ellipse id="Oval" cx="277" cy="90.074266" rx="4.72746667" ry="4.71824467"></ellipse>
                        <ellipse id="Oval" cx="294.013956" cy="90.074266" rx="4.72746667" ry="4.71824467"></ellipse>
                        <ellipse id="Oval" cx="311.034067" cy="90.074266" rx="4.72746667" ry="4.71824467"></ellipse>
                        <ellipse id="Oval" cx="328.048022" cy="90.074266" rx="4.72746667" ry="4.71824467"></ellipse>
                        <ellipse id="Oval" cx="345.068133" cy="90.074266" rx="4.72746667" ry="4.71824467"></ellipse>
                        <ellipse id="Oval" cx="362.088244" cy="90.074266" rx="4.72746667" ry="4.71824467"></ellipse>
                        <ellipse id="Oval" cx="379.1022" cy="90.074266" rx="4.72746667" ry="4.71824467"></ellipse>
                        <ellipse id="Oval" cx="396.116156" cy="90.074266" rx="4.72746667" ry="4.71824467"></ellipse>
                        <ellipse id="Oval" cx="413.136267" cy="90.074266" rx="4.72746667" ry="4.71824467"></ellipse>
                        <ellipse id="Oval" cx="464.190444" cy="90.074266" rx="4.72746667" ry="4.71824467"></ellipse>
                        <ellipse id="Oval" cx="481.2044" cy="90.074266" rx="4.72746667" ry="4.71824467"></ellipse>
                        <ellipse id="Oval" cx="498.224511" cy="90.074266" rx="4.72746667" ry="4.71824467"></ellipse>
                        <ellipse id="Oval" cx="515.238467" cy="90.074266" rx="4.72746667" ry="4.71824467"></ellipse>
                        <ellipse id="Oval" cx="532.252422" cy="90.074266" rx="4.72746667" ry="4.71824467"></ellipse>
                        <ellipse id="Oval" cx="4.72746667" cy="107.061176" rx="4.72746667" ry="4.71824467"></ellipse>
                        <ellipse id="Oval" cx="21.7475778" cy="107.061176" rx="4.72746667" ry="4.71824467"></ellipse>
                        <ellipse id="Oval" cx="38.7615333" cy="107.061176" rx="4.72746667" ry="4.71824467"></ellipse>
                        <ellipse id="Oval" cx="55.7754889" cy="107.061176" rx="4.72746667" ry="4.71824467"></ellipse>
                        <ellipse id="Oval" cx="72.7956" cy="107.061176" rx="4.72746667" ry="4.71824467"></ellipse>
                        <ellipse id="Oval" cx="89.8095556" cy="107.061176" rx="4.72746667" ry="4.71824467"></ellipse>
                        <ellipse id="Oval" cx="106.829667" cy="107.061176" rx="4.72746667" ry="4.71824467"></ellipse>
                        <ellipse id="Oval" cx="123.849778" cy="107.061176" rx="4.72746667" ry="4.71824467"></ellipse>
                        <ellipse id="Oval" cx="140.863733" cy="107.061176" rx="4.72746667" ry="4.71824467"></ellipse>
                        <ellipse id="Oval" cx="157.883844" cy="107.061176" rx="4.72746667" ry="4.71824467"></ellipse>
                        <ellipse id="Oval" cx="174.891644" cy="107.061176" rx="4.72746667" ry="4.71824467"></ellipse>
                        <ellipse id="Oval" cx="191.911756" cy="107.061176" rx="4.72746667" ry="4.71824467"></ellipse>
                        <ellipse id="Oval" cx="208.931867" cy="107.061176" rx="4.72746667" ry="4.71824467"></ellipse>
                        <ellipse id="Oval" cx="225.945822" cy="107.061176" rx="4.72746667" ry="4.71824467"></ellipse>
                        <ellipse id="Oval" cx="242.965933" cy="107.061176" rx="4.72746667" ry="4.71824467"></ellipse>
                        <ellipse id="Oval" cx="259.986044" cy="107.061176" rx="4.72746667" ry="4.71824467"></ellipse>
                        <ellipse id="Oval" cx="277" cy="107.061176" rx="4.72746667" ry="4.71824467"></ellipse>
                        <ellipse id="Oval" cx="294.013956" cy="107.061176" rx="4.72746667" ry="4.71824467"></ellipse>
                        <ellipse id="Oval" cx="311.034067" cy="107.061176" rx="4.72746667" ry="4.71824467"></ellipse>
                        <ellipse id="Oval" cx="328.048022" cy="107.061176" rx="4.72746667" ry="4.71824467"></ellipse>
                        <ellipse id="Oval" cx="345.068133" cy="107.061176" rx="4.72746667" ry="4.71824467"></ellipse>
                        <ellipse id="Oval" cx="362.088244" cy="107.061176" rx="4.72746667" ry="4.71824467"></ellipse>
                        <ellipse id="Oval" cx="396.116156" cy="107.061176" rx="4.72746667" ry="4.71824467"></ellipse>
                        <ellipse id="Oval" cx="413.136267" cy="107.061176" rx="4.72746667" ry="4.71824467"></ellipse>
                        <ellipse id="Oval" cx="447.170333" cy="107.061176" rx="4.72746667" ry="4.71824467"></ellipse>
                        <ellipse id="Oval" cx="464.190444" cy="107.061176" rx="4.72746667" ry="4.71824467"></ellipse>
                        <ellipse id="Oval" cx="481.2044" cy="107.061176" rx="4.72746667" ry="4.71824467"></ellipse>
                        <ellipse id="Oval" cx="498.224511" cy="107.061176" rx="4.72746667" ry="4.71824467"></ellipse>
                        <ellipse id="Oval" cx="515.238467" cy="107.061176" rx="4.72746667" ry="4.71824467"></ellipse>
                        <ellipse id="Oval" cx="4.72746667" cy="124.035798" rx="4.72746667" ry="4.71824467"></ellipse>
                        <ellipse id="Oval" cx="21.7475778" cy="124.035798" rx="4.72746667" ry="4.71824467"></ellipse>
                        <ellipse id="Oval" cx="38.7615333" cy="124.035798" rx="4.72746667" ry="4.71824467"></ellipse>
                        <ellipse id="Oval" cx="55.7754889" cy="124.035798" rx="4.72746667" ry="4.71824467"></ellipse>
                        <ellipse id="Oval" cx="72.7956" cy="124.035798" rx="4.72746667" ry="4.71824467"></ellipse>
                        <ellipse id="Oval" cx="89.8095556" cy="124.035798" rx="4.72746667" ry="4.71824467"></ellipse>
                        <ellipse id="Oval" cx="106.829667" cy="124.035798" rx="4.72746667" ry="4.71824467"></ellipse>
                        <ellipse id="Oval" cx="123.849778" cy="124.035798" rx="4.72746667" ry="4.71824467"></ellipse>
                        <ellipse id="Oval" cx="140.863733" cy="124.035798" rx="4.72746667" ry="4.71824467"></ellipse>
                        <ellipse id="Oval" cx="157.883844" cy="124.035798" rx="4.72746667" ry="4.71824467"></ellipse>
                        <ellipse id="Oval" cx="174.891644" cy="124.035798" rx="4.72746667" ry="4.71824467"></ellipse>
                        <ellipse id="Oval" cx="191.911756" cy="124.035798" rx="4.72746667" ry="4.71824467"></ellipse>
                        <ellipse id="Oval" cx="208.931867" cy="124.035798" rx="4.72746667" ry="4.71824467"></ellipse>
                        <ellipse id="Oval" cx="225.945822" cy="124.035798" rx="4.72746667" ry="4.71824467"></ellipse>
                        <ellipse id="Oval" cx="242.965933" cy="124.035798" rx="4.72746667" ry="4.71824467"></ellipse>
                        <ellipse id="Oval" cx="259.986044" cy="124.035798" rx="4.72746667" ry="4.71824467"></ellipse>
                        <ellipse id="Oval" cx="277" cy="124.035798" rx="4.72746667" ry="4.71824467"></ellipse>
                        <ellipse id="Oval" cx="294.013956" cy="124.035798" rx="4.72746667" ry="4.71824467"></ellipse>
                        <ellipse id="Oval" cx="311.034067" cy="124.035798" rx="4.72746667" ry="4.71824467"></ellipse>
                        <ellipse id="Oval" cx="328.048022" cy="124.035798" rx="4.72746667" ry="4.71824467"></ellipse>
                        <ellipse id="Oval" cx="345.068133" cy="124.035798" rx="4.72746667" ry="4.71824467"></ellipse>
                        <ellipse id="Oval" cx="362.088244" cy="124.035798" rx="4.72746667" ry="4.71824467"></ellipse>
                        <ellipse id="Oval" cx="379.1022" cy="124.035798" rx="4.72746667" ry="4.71824467"></ellipse>
                        <ellipse id="Oval" cx="396.116156" cy="124.035798" rx="4.72746667" ry="4.71824467"></ellipse>
                        <ellipse id="Oval" cx="413.136267" cy="124.035798" rx="4.72746667" ry="4.71824467"></ellipse>
                        <ellipse id="Oval" cx="430.150222" cy="124.035798" rx="4.72746667" ry="4.71824467"></ellipse>
                        <ellipse id="Oval" cx="447.170333" cy="124.035798" rx="4.72746667" ry="4.71824467"></ellipse>
                        <ellipse id="Oval" cx="464.190444" cy="124.035798" rx="4.72746667" ry="4.71824467"></ellipse>
                        <ellipse id="Oval" cx="481.2044" cy="124.035798" rx="4.72746667" ry="4.71824467"></ellipse>
                        <ellipse id="Oval" cx="498.224511" cy="124.035798" rx="4.72746667" ry="4.71824467"></ellipse>
                        <ellipse id="Oval" cx="4.72746667" cy="141.022707" rx="4.72746667" ry="4.71824467"></ellipse>
                        <ellipse id="Oval" cx="21.7475778" cy="141.022707" rx="4.72746667" ry="4.71824467"></ellipse>
                        <ellipse id="Oval" cx="38.7615333" cy="141.022707" rx="4.72746667" ry="4.71824467"></ellipse>
                        <ellipse id="Oval" cx="55.7754889" cy="141.022707" rx="4.72746667" ry="4.71824467"></ellipse>
                        <ellipse id="Oval" cx="72.7956" cy="141.022707" rx="4.72746667" ry="4.71824467"></ellipse>
                        <ellipse id="Oval" cx="89.8095556" cy="141.022707" rx="4.72746667" ry="4.71824467"></ellipse>
                        <ellipse id="Oval" cx="106.829667" cy="141.022707" rx="4.72746667" ry="4.71824467"></ellipse>
                        <ellipse id="Oval" cx="123.849778" cy="141.022707" rx="4.72746667" ry="4.71824467"></ellipse>
                        <ellipse id="Oval" cx="140.863733" cy="141.022707" rx="4.72746667" ry="4.71824467"></ellipse>
                        <ellipse id="Oval" cx="157.883844" cy="141.022707" rx="4.72746667" ry="4.71824467"></ellipse>
                        <ellipse id="Oval" cx="174.891644" cy="141.022707" rx="4.72746667" ry="4.71824467"></ellipse>
                        <ellipse id="Oval" cx="191.911756" cy="141.022707" rx="4.72746667" ry="4.71824467"></ellipse>
                        <ellipse id="Oval" cx="208.931867" cy="141.022707" rx="4.72746667" ry="4.71824467"></ellipse>
                        <ellipse id="Oval" cx="225.945822" cy="141.022707" rx="4.72746667" ry="4.71824467"></ellipse>
                        <ellipse id="Oval" cx="242.965933" cy="141.022707" rx="4.72746667" ry="4.71824467"></ellipse>
                        <ellipse id="Oval" cx="259.986044" cy="141.022707" rx="4.72746667" ry="4.71824467"></ellipse>
                        <ellipse id="Oval" cx="277" cy="141.022707" rx="4.72746667" ry="4.71824467"></ellipse>
                        <ellipse id="Oval" cx="294.013956" cy="141.022707" rx="4.72746667" ry="4.71824467"></ellipse>
                        <ellipse id="Oval" cx="311.034067" cy="141.022707" rx="4.72746667" ry="4.71824467"></ellipse>
                        <ellipse id="Oval" cx="328.048022" cy="141.022707" rx="4.72746667" ry="4.71824467"></ellipse>
                        <ellipse id="Oval" cx="345.068133" cy="141.022707" rx="4.72746667" ry="4.71824467"></ellipse>
                        <ellipse id="Oval" cx="362.088244" cy="141.022707" rx="4.72746667" ry="4.71824467"></ellipse>
                        <ellipse id="Oval" cx="379.1022" cy="141.022707" rx="4.72746667" ry="4.71824467"></ellipse>
                        <ellipse id="Oval" cx="396.116156" cy="141.022707" rx="4.72746667" ry="4.71824467"></ellipse>
                        <ellipse id="Oval" cx="413.136267" cy="141.022707" rx="4.72746667" ry="4.71824467"></ellipse>
                        <ellipse id="Oval" cx="430.150222" cy="141.022707" rx="4.72746667" ry="4.71824467"></ellipse>
                        <ellipse id="Oval" cx="447.170333" cy="141.022707" rx="4.72746667" ry="4.71824467"></ellipse>
                        <ellipse id="Oval" cx="464.190444" cy="141.022707" rx="4.72746667" ry="4.71824467"></ellipse>
                        <ellipse id="Oval" cx="481.2044" cy="141.022707" rx="4.72746667" ry="4.71824467"></ellipse>
                        <ellipse id="Oval" cx="498.224511" cy="141.022707" rx="4.72746667" ry="4.71824467"></ellipse>
                        <ellipse id="Oval" cx="4.72746667" cy="158.003473" rx="4.72746667" ry="4.71824467"></ellipse>
                        <ellipse id="Oval" cx="21.7475778" cy="158.003473" rx="4.72746667" ry="4.71824467"></ellipse>
                        <ellipse id="Oval" cx="38.7615333" cy="158.003473" rx="4.72746667" ry="4.71824467"></ellipse>
                        <ellipse id="Oval" cx="55.7754889" cy="158.003473" rx="4.72746667" ry="4.71824467"></ellipse>
                        <ellipse id="Oval" cx="72.7956" cy="158.003473" rx="4.72746667" ry="4.71824467"></ellipse>
                        <ellipse id="Oval" cx="89.8095556" cy="158.003473" rx="4.72746667" ry="4.71824467"></ellipse>
                        <ellipse id="Oval" cx="106.829667" cy="158.003473" rx="4.72746667" ry="4.71824467"></ellipse>
                        <ellipse id="Oval" cx="123.849778" cy="158.003473" rx="4.72746667" ry="4.71824467"></ellipse>
                        <ellipse id="Oval" cx="140.863733" cy="158.003473" rx="4.72746667" ry="4.71824467"></ellipse>
                        <ellipse id="Oval" cx="157.883844" cy="158.003473" rx="4.72746667" ry="4.71824467"></ellipse>
                        <ellipse id="Oval" cx="174.891644" cy="158.003473" rx="4.72746667" ry="4.71824467"></ellipse>
                        <ellipse id="Oval" cx="191.911756" cy="158.003473" rx="4.72746667" ry="4.71824467"></ellipse>
                        <ellipse id="Oval" cx="208.931867" cy="158.003473" rx="4.72746667" ry="4.71824467"></ellipse>
                        <ellipse id="Oval" cx="225.945822" cy="158.003473" rx="4.72746667" ry="4.71824467"></ellipse>
                        <ellipse id="Oval" cx="242.965933" cy="158.003473" rx="4.72746667" ry="4.71824467"></ellipse>
                        <ellipse id="Oval" cx="259.986044" cy="158.003473" rx="4.72746667" ry="4.71824467"></ellipse>
                        <ellipse id="Oval" cx="277" cy="158.003473" rx="4.72746667" ry="4.71824467"></ellipse>
                        <ellipse id="Oval" cx="294.013956" cy="158.003473" rx="4.72746667" ry="4.71824467"></ellipse>
                        <ellipse id="Oval" cx="311.034067" cy="158.003473" rx="4.72746667" ry="4.71824467"></ellipse>
                        <ellipse id="Oval" cx="328.048022" cy="158.003473" rx="4.72746667" ry="4.71824467"></ellipse>
                        <ellipse id="Oval" cx="345.068133" cy="158.003473" rx="4.72746667" ry="4.71824467"></ellipse>
                        <ellipse id="Oval" cx="362.088244" cy="158.003473" rx="4.72746667" ry="4.71824467"></ellipse>
                        <ellipse id="Oval" cx="379.1022" cy="158.003473" rx="4.72746667" ry="4.71824467"></ellipse>
                        <ellipse id="Oval" cx="396.116156" cy="158.003473" rx="4.72746667" ry="4.71824467"></ellipse>
                        <ellipse id="Oval" cx="413.136267" cy="158.003473" rx="4.72746667" ry="4.71824467"></ellipse>
                        <ellipse id="Oval" cx="430.150222" cy="158.003473" rx="4.72746667" ry="4.71824467"></ellipse>
                        <ellipse id="Oval" cx="447.170333" cy="158.003473" rx="4.72746667" ry="4.71824467"></ellipse>
                        <ellipse id="Oval" cx="464.190444" cy="158.003473" rx="4.72746667" ry="4.71824467"></ellipse>
                        <ellipse id="Oval" cx="481.2044" cy="158.003473" rx="4.72746667" ry="4.71824467"></ellipse>
                        <ellipse id="Oval" cx="498.224511" cy="158.003473" rx="4.72746667" ry="4.71824467"></ellipse>
                        <ellipse id="Oval" cx="21.7475778" cy="174.990383" rx="4.72746667" ry="4.71824467"></ellipse>
                        <ellipse id="Oval" cx="38.7615333" cy="174.990383" rx="4.72746667" ry="4.71824467"></ellipse>
                        <ellipse id="Oval" cx="55.7754889" cy="174.990383" rx="4.72746667" ry="4.71824467"></ellipse>
                        <ellipse id="Oval" cx="72.7956" cy="174.990383" rx="4.72746667" ry="4.71824467"></ellipse>
                        <ellipse id="Oval" cx="89.8095556" cy="174.990383" rx="4.72746667" ry="4.71824467"></ellipse>
                        <ellipse id="Oval" cx="106.829667" cy="174.990383" rx="4.72746667" ry="4.71824467"></ellipse>
                        <ellipse id="Oval" cx="123.849778" cy="174.990383" rx="4.72746667" ry="4.71824467"></ellipse>
                        <ellipse id="Oval" cx="140.863733" cy="174.990383" rx="4.72746667" ry="4.71824467"></ellipse>
                        <ellipse id="Oval" cx="157.883844" cy="174.990383" rx="4.72746667" ry="4.71824467"></ellipse>
                        <ellipse id="Oval" cx="174.891644" cy="174.990383" rx="4.72746667" ry="4.71824467"></ellipse>
                        <ellipse id="Oval" cx="191.911756" cy="174.990383" rx="4.72746667" ry="4.71824467"></ellipse>
                        <ellipse id="Oval" cx="208.931867" cy="174.990383" rx="4.72746667" ry="4.71824467"></ellipse>
                        <ellipse id="Oval" cx="225.945822" cy="174.990383" rx="4.72746667" ry="4.71824467"></ellipse>
                        <ellipse id="Oval" cx="242.965933" cy="174.990383" rx="4.72746667" ry="4.71824467"></ellipse>
                        <ellipse id="Oval" cx="259.986044" cy="174.990383" rx="4.72746667" ry="4.71824467"></ellipse>
                        <ellipse id="Oval" cx="277" cy="174.990383" rx="4.72746667" ry="4.71824467"></ellipse>
                        <ellipse id="Oval" cx="294.013956" cy="174.990383" rx="4.72746667" ry="4.71824467"></ellipse>
                        <ellipse id="Oval" cx="311.034067" cy="174.990383" rx="4.72746667" ry="4.71824467"></ellipse>
                        <ellipse id="Oval" cx="328.048022" cy="174.990383" rx="4.72746667" ry="4.71824467"></ellipse>
                        <ellipse id="Oval" cx="345.068133" cy="174.990383" rx="4.72746667" ry="4.71824467"></ellipse>
                        <ellipse id="Oval" cx="362.088244" cy="174.990383" rx="4.72746667" ry="4.71824467"></ellipse>
                        <ellipse id="Oval" cx="379.1022" cy="174.990383" rx="4.72746667" ry="4.71824467"></ellipse>
                        <ellipse id="Oval" cx="396.116156" cy="174.990383" rx="4.72746667" ry="4.71824467"></ellipse>
                        <ellipse id="Oval" cx="413.136267" cy="174.990383" rx="4.72746667" ry="4.71824467"></ellipse>
                        <ellipse id="Oval" cx="430.150222" cy="174.990383" rx="4.72746667" ry="4.71824467"></ellipse>
                        <ellipse id="Oval" cx="447.170333" cy="174.990383" rx="4.72746667" ry="4.71824467"></ellipse>
                        <ellipse id="Oval" cx="464.190444" cy="174.990383" rx="4.72746667" ry="4.71824467"></ellipse>
                        <ellipse id="Oval" cx="481.2044" cy="174.990383" rx="4.72746667" ry="4.71824467"></ellipse>
                        <ellipse id="Oval" cx="498.224511" cy="174.990383" rx="4.72746667" ry="4.71824467"></ellipse>
                        <ellipse id="Oval" cx="21.7475778" cy="191.977293" rx="4.72746667" ry="4.71824467"></ellipse>
                        <ellipse id="Oval" cx="38.7615333" cy="191.977293" rx="4.72746667" ry="4.71824467"></ellipse>
                        <ellipse id="Oval" cx="55.7754889" cy="191.977293" rx="4.72746667" ry="4.71824467"></ellipse>
                        <ellipse id="Oval" cx="72.7956" cy="191.977293" rx="4.72746667" ry="4.71824467"></ellipse>
                        <ellipse id="Oval" cx="89.8095556" cy="191.977293" rx="4.72746667" ry="4.71824467"></ellipse>
                        <ellipse id="Oval" cx="106.829667" cy="191.977293" rx="4.72746667" ry="4.71824467"></ellipse>
                        <ellipse id="Oval" cx="123.849778" cy="191.977293" rx="4.72746667" ry="4.71824467"></ellipse>
                        <ellipse id="Oval" cx="140.863733" cy="191.977293" rx="4.72746667" ry="4.71824467"></ellipse>
                        <ellipse id="Oval" cx="157.883844" cy="191.977293" rx="4.72746667" ry="4.71824467"></ellipse>
                        <ellipse id="Oval" cx="174.891644" cy="191.977293" rx="4.72746667" ry="4.71824467"></ellipse>
                        <ellipse id="Oval" cx="191.911756" cy="191.977293" rx="4.72746667" ry="4.71824467"></ellipse>
                        <ellipse id="Oval" cx="208.931867" cy="191.977293" rx="4.72746667" ry="4.71824467"></ellipse>
                        <ellipse id="Oval" cx="225.945822" cy="191.977293" rx="4.72746667" ry="4.71824467"></ellipse>
                        <ellipse id="Oval" cx="242.965933" cy="191.977293" rx="4.72746667" ry="4.71824467"></ellipse>
                        <ellipse id="Oval" cx="259.986044" cy="191.977293" rx="4.72746667" ry="4.71824467"></ellipse>
                        <ellipse id="Oval" cx="277" cy="191.977293" rx="4.72746667" ry="4.71824467"></ellipse>
                        <ellipse id="Oval" cx="294.013956" cy="191.977293" rx="4.72746667" ry="4.71824467"></ellipse>
                        <ellipse id="Oval" cx="311.034067" cy="191.977293" rx="4.72746667" ry="4.71824467"></ellipse>
                        <ellipse id="Oval" cx="328.048022" cy="191.977293" rx="4.72746667" ry="4.71824467"></ellipse>
                        <ellipse id="Oval" cx="345.068133" cy="191.977293" rx="4.72746667" ry="4.71824467"></ellipse>
                        <ellipse id="Oval" cx="362.088244" cy="191.977293" rx="4.72746667" ry="4.71824467"></ellipse>
                        <ellipse id="Oval" cx="379.1022" cy="191.977293" rx="4.72746667" ry="4.71824467"></ellipse>
                        <ellipse id="Oval" cx="396.116156" cy="191.977293" rx="4.72746667" ry="4.71824467"></ellipse>
                        <ellipse id="Oval" cx="413.136267" cy="191.977293" rx="4.72746667" ry="4.71824467"></ellipse>
                        <ellipse id="Oval" cx="430.150222" cy="191.977293" rx="4.72746667" ry="4.71824467"></ellipse>
                        <ellipse id="Oval" cx="447.170333" cy="191.977293" rx="4.72746667" ry="4.71824467"></ellipse>
                        <ellipse id="Oval" cx="464.190444" cy="191.977293" rx="4.72746667" ry="4.71824467"></ellipse>
                        <ellipse id="Oval" cx="481.2044" cy="191.977293" rx="4.72746667" ry="4.71824467"></ellipse>
                        <ellipse id="Oval" cx="498.224511" cy="191.977293" rx="4.72746667" ry="4.71824467"></ellipse>
                        <ellipse id="Oval" cx="38.7615333" cy="208.958059" rx="4.72746667" ry="4.71824467"></ellipse>
                        <ellipse id="Oval" cx="55.7754889" cy="208.958059" rx="4.72746667" ry="4.71824467"></ellipse>
                        <ellipse id="Oval" cx="72.7956" cy="208.958059" rx="4.72746667" ry="4.71824467"></ellipse>
                        <ellipse id="Oval" cx="89.8095556" cy="208.958059" rx="4.72746667" ry="4.71824467"></ellipse>
                        <ellipse id="Oval" cx="106.829667" cy="208.958059" rx="4.72746667" ry="4.71824467"></ellipse>
                        <ellipse id="Oval" cx="123.849778" cy="208.958059" rx="4.72746667" ry="4.71824467"></ellipse>
                        <ellipse id="Oval" cx="140.863733" cy="208.958059" rx="4.72746667" ry="4.71824467"></ellipse>
                        <ellipse id="Oval" cx="157.883844" cy="208.958059" rx="4.72746667" ry="4.71824467"></ellipse>
                        <ellipse id="Oval" cx="174.891644" cy="208.958059" rx="4.72746667" ry="4.71824467"></ellipse>
                        <ellipse id="Oval" cx="191.911756" cy="208.958059" rx="4.72746667" ry="4.71824467"></ellipse>
                        <ellipse id="Oval" cx="208.931867" cy="208.958059" rx="4.72746667" ry="4.71824467"></ellipse>
                        <ellipse id="Oval" cx="225.945822" cy="208.958059" rx="4.72746667" ry="4.71824467"></ellipse>
                        <ellipse id="Oval" cx="242.965933" cy="208.958059" rx="4.72746667" ry="4.71824467"></ellipse>
                        <ellipse id="Oval" cx="259.986044" cy="208.958059" rx="4.72746667" ry="4.71824467"></ellipse>
                        <ellipse id="Oval" cx="277" cy="208.958059" rx="4.72746667" ry="4.71824467"></ellipse>
                        <ellipse id="Oval" cx="294.013956" cy="208.958059" rx="4.72746667" ry="4.71824467"></ellipse>
                        <ellipse id="Oval" cx="311.034067" cy="208.958059" rx="4.72746667" ry="4.71824467"></ellipse>
                        <ellipse id="Oval" cx="328.048022" cy="208.958059" rx="4.72746667" ry="4.71824467"></ellipse>
                        <ellipse id="Oval" cx="345.068133" cy="208.958059" rx="4.72746667" ry="4.71824467"></ellipse>
                        <ellipse id="Oval" cx="362.088244" cy="208.958059" rx="4.72746667" ry="4.71824467"></ellipse>
                        <ellipse id="Oval" cx="379.1022" cy="208.958059" rx="4.72746667" ry="4.71824467"></ellipse>
                        <ellipse id="Oval" cx="396.116156" cy="208.958059" rx="4.72746667" ry="4.71824467"></ellipse>
                        <ellipse id="Oval" cx="413.136267" cy="208.958059" rx="4.72746667" ry="4.71824467"></ellipse>
                        <ellipse id="Oval" cx="430.150222" cy="208.958059" rx="4.72746667" ry="4.71824467"></ellipse>
                        <ellipse id="Oval" cx="447.170333" cy="208.958059" rx="4.72746667" ry="4.71824467"></ellipse>
                        <ellipse id="Oval" cx="464.190444" cy="208.958059" rx="4.72746667" ry="4.71824467"></ellipse>
                        <ellipse id="Oval" cx="481.2044" cy="208.958059" rx="4.72746667" ry="4.71824467"></ellipse>
                        <ellipse id="Oval" cx="55.7754889" cy="225.938824" rx="4.72746667" ry="4.71824467"></ellipse>
                        <ellipse id="Oval" cx="72.7956" cy="225.938824" rx="4.72746667" ry="4.71824467"></ellipse>
                        <ellipse id="Oval" cx="89.8095556" cy="225.938824" rx="4.72746667" ry="4.71824467"></ellipse>
                        <ellipse id="Oval" cx="106.829667" cy="225.938824" rx="4.72746667" ry="4.71824467"></ellipse>
                        <ellipse id="Oval" cx="123.849778" cy="225.938824" rx="4.72746667" ry="4.71824467"></ellipse>
                        <ellipse id="Oval" cx="140.863733" cy="225.938824" rx="4.72746667" ry="4.71824467"></ellipse>
                        <ellipse id="Oval" cx="157.883844" cy="225.938824" rx="4.72746667" ry="4.71824467"></ellipse>
                        <ellipse id="Oval" cx="174.891644" cy="225.938824" rx="4.72746667" ry="4.71824467"></ellipse>
                        <ellipse id="Oval" cx="191.911756" cy="225.938824" rx="4.72746667" ry="4.71824467"></ellipse>
                        <ellipse id="Oval" cx="208.931867" cy="225.938824" rx="4.72746667" ry="4.71824467"></ellipse>
                        <ellipse id="Oval" cx="225.945822" cy="225.938824" rx="4.72746667" ry="4.71824467"></ellipse>
                        <ellipse id="Oval" cx="242.965933" cy="225.938824" rx="4.72746667" ry="4.71824467"></ellipse>
                        <ellipse id="Oval" cx="259.986044" cy="225.938824" rx="4.72746667" ry="4.71824467"></ellipse>
                        <ellipse id="Oval" cx="277" cy="225.938824" rx="4.72746667" ry="4.71824467"></ellipse>
                        <ellipse id="Oval" cx="294.013956" cy="225.938824" rx="4.72746667" ry="4.71824467"></ellipse>
                        <ellipse id="Oval" cx="311.034067" cy="225.938824" rx="4.72746667" ry="4.71824467"></ellipse>
                        <ellipse id="Oval" cx="328.048022" cy="225.938824" rx="4.72746667" ry="4.71824467"></ellipse>
                        <ellipse id="Oval" cx="345.068133" cy="225.938824" rx="4.72746667" ry="4.71824467"></ellipse>
                        <ellipse id="Oval" cx="362.088244" cy="225.938824" rx="4.72746667" ry="4.71824467"></ellipse>
                        <ellipse id="Oval" cx="379.1022" cy="225.938824" rx="4.72746667" ry="4.71824467"></ellipse>
                        <ellipse id="Oval" cx="396.116156" cy="225.938824" rx="4.72746667" ry="4.71824467"></ellipse>
                        <ellipse id="Oval" cx="413.136267" cy="225.938824" rx="4.72746667" ry="4.71824467"></ellipse>
                        <ellipse id="Oval" cx="430.150222" cy="225.938824" rx="4.72746667" ry="4.71824467"></ellipse>
                        <ellipse id="Oval" cx="447.170333" cy="225.938824" rx="4.72746667" ry="4.71824467"></ellipse>
                        <ellipse id="Oval" cx="464.190444" cy="225.938824" rx="4.72746667" ry="4.71824467"></ellipse>
                        <ellipse id="Oval" cx="89.8095556" cy="242.925734" rx="4.72746667" ry="4.71824467"></ellipse>
                        <ellipse id="Oval" cx="106.829667" cy="242.925734" rx="4.72746667" ry="4.71824467"></ellipse>
                        <ellipse id="Oval" cx="123.849778" cy="242.925734" rx="4.72746667" ry="4.71824467"></ellipse>
                        <ellipse id="Oval" cx="140.863733" cy="242.925734" rx="4.72746667" ry="4.71824467"></ellipse>
                        <ellipse id="Oval" cx="157.883844" cy="242.925734" rx="4.72746667" ry="4.71824467"></ellipse>
                        <ellipse id="Oval" cx="174.891644" cy="242.925734" rx="4.72746667" ry="4.71824467"></ellipse>
                        <ellipse id="Oval" cx="191.911756" cy="242.925734" rx="4.72746667" ry="4.71824467"></ellipse>
                        <ellipse id="Oval" cx="208.931867" cy="242.925734" rx="4.72746667" ry="4.71824467"></ellipse>
                        <ellipse id="Oval" cx="225.945822" cy="242.925734" rx="4.72746667" ry="4.71824467"></ellipse>
                        <ellipse id="Oval" cx="242.965933" cy="242.925734" rx="4.72746667" ry="4.71824467"></ellipse>
                        <ellipse id="Oval" cx="259.986044" cy="242.925734" rx="4.72746667" ry="4.71824467"></ellipse>
                        <ellipse id="Oval" cx="277" cy="242.925734" rx="4.72746667" ry="4.71824467"></ellipse>
                        <ellipse id="Oval" cx="294.013956" cy="242.925734" rx="4.72746667" ry="4.71824467"></ellipse>
                        <ellipse id="Oval" cx="311.034067" cy="242.925734" rx="4.72746667" ry="4.71824467"></ellipse>
                        <ellipse id="Oval" cx="328.048022" cy="242.925734" rx="4.72746667" ry="4.71824467"></ellipse>
                        <ellipse id="Oval" cx="345.068133" cy="242.925734" rx="4.72746667" ry="4.71824467"></ellipse>
                        <ellipse id="Oval" cx="362.088244" cy="242.925734" rx="4.72746667" ry="4.71824467"></ellipse>
                        <ellipse id="Oval" cx="379.1022" cy="242.925734" rx="4.72746667" ry="4.71824467"></ellipse>
                        <ellipse id="Oval" cx="396.116156" cy="242.925734" rx="4.72746667" ry="4.71824467"></ellipse>
                        <ellipse id="Oval" cx="413.136267" cy="242.925734" rx="4.72746667" ry="4.71824467"></ellipse>
                        <ellipse id="Oval" cx="430.150222" cy="242.925734" rx="4.72746667" ry="4.71824467"></ellipse>
                        <ellipse id="Oval" cx="447.170333" cy="242.925734" rx="4.72746667" ry="4.71824467"></ellipse>
                        <ellipse id="Oval" cx="174.891644" cy="259.9065" rx="4.72746667" ry="4.71824467"></ellipse>
                        <ellipse id="Oval" cx="191.911756" cy="259.9065" rx="4.72746667" ry="4.71824467"></ellipse>
                        <ellipse id="Oval" cx="208.931867" cy="259.9065" rx="4.72746667" ry="4.71824467"></ellipse>
                        <ellipse id="Oval" cx="225.945822" cy="259.9065" rx="4.72746667" ry="4.71824467"></ellipse>
                        <ellipse id="Oval" cx="242.965933" cy="259.9065" rx="4.72746667" ry="4.71824467"></ellipse>
                        <ellipse id="Oval" cx="259.986044" cy="259.9065" rx="4.72746667" ry="4.71824467"></ellipse>
                        <ellipse id="Oval" cx="277" cy="259.9065" rx="4.72746667" ry="4.71824467"></ellipse>
                        <ellipse id="Oval" cx="294.013956" cy="259.9065" rx="4.72746667" ry="4.71824467"></ellipse>
                        <ellipse id="Oval" cx="311.034067" cy="259.9065" rx="4.72746667" ry="4.71824467"></ellipse>
                        <ellipse id="Oval" cx="328.048022" cy="259.9065" rx="4.72746667" ry="4.71824467"></ellipse>
                        <ellipse id="Oval" cx="345.068133" cy="259.9065" rx="4.72746667" ry="4.71824467"></ellipse>
                        <ellipse id="Oval" cx="362.088244" cy="259.9065" rx="4.72746667" ry="4.71824467"></ellipse>
                        <ellipse id="Oval" cx="379.1022" cy="259.9065" rx="4.72746667" ry="4.71824467"></ellipse>
                        <ellipse id="Oval" cx="396.116156" cy="259.9065" rx="4.72746667" ry="4.71824467"></ellipse>
                        <ellipse id="Oval" cx="413.136267" cy="259.9065" rx="4.72746667" ry="4.71824467"></ellipse>
                        <ellipse id="Oval" cx="430.150222" cy="259.9065" rx="4.72746667" ry="4.71824467"></ellipse>
                        <ellipse id="Oval" cx="447.170333" cy="259.9065" rx="4.72746667" ry="4.71824467"></ellipse>
                        <ellipse id="Oval" cx="191.911756" cy="276.89341" rx="4.72746667" ry="4.71824467"></ellipse>
                        <ellipse id="Oval" cx="208.931867" cy="276.89341" rx="4.72746667" ry="4.71824467"></ellipse>
                        <ellipse id="Oval" cx="225.945822" cy="276.89341" rx="4.72746667" ry="4.71824467"></ellipse>
                        <ellipse id="Oval" cx="242.965933" cy="276.89341" rx="4.72746667" ry="4.71824467"></ellipse>
                        <ellipse id="Oval" cx="259.986044" cy="276.89341" rx="4.72746667" ry="4.71824467"></ellipse>
                        <ellipse id="Oval" cx="277" cy="276.89341" rx="4.72746667" ry="4.71824467"></ellipse>
                        <ellipse id="Oval" cx="294.013956" cy="276.89341" rx="4.72746667" ry="4.71824467"></ellipse>
                        <ellipse id="Oval" cx="311.034067" cy="276.89341" rx="4.72746667" ry="4.71824467"></ellipse>
                        <ellipse id="Oval" cx="328.048022" cy="276.89341" rx="4.72746667" ry="4.71824467"></ellipse>
                        <ellipse id="Oval" cx="345.068133" cy="276.89341" rx="4.72746667" ry="4.71824467"></ellipse>
                        <ellipse id="Oval" cx="362.088244" cy="276.89341" rx="4.72746667" ry="4.71824467"></ellipse>
                        <ellipse id="Oval" cx="379.1022" cy="276.89341" rx="4.72746667" ry="4.71824467"></ellipse>
                        <ellipse id="Oval" cx="413.136267" cy="276.89341" rx="4.72746667" ry="4.71824467"></ellipse>
                        <ellipse id="Oval" cx="430.150222" cy="276.89341" rx="4.72746667" ry="4.71824467"></ellipse>
                        <ellipse id="Oval" cx="447.170333" cy="276.89341" rx="4.72746667" ry="4.71824467"></ellipse>
                        <ellipse id="Oval" cx="191.911756" cy="293.880319" rx="4.72746667" ry="4.71824467"></ellipse>
                        <ellipse id="Oval" cx="225.945822" cy="293.880319" rx="4.72746667" ry="4.71824467"></ellipse>
                        <ellipse id="Oval" cx="242.965933" cy="293.880319" rx="4.72746667" ry="4.71824467"></ellipse>
                        <ellipse id="Oval" cx="259.986044" cy="293.880319" rx="4.72746667" ry="4.71824467"></ellipse>
                        <ellipse id="Oval" cx="277" cy="293.880319" rx="4.72746667" ry="4.71824467"></ellipse>
                        <ellipse id="Oval" cx="294.013956" cy="293.880319" rx="4.72746667" ry="4.71824467"></ellipse>
                        <ellipse id="Oval" cx="328.048022" cy="293.880319" rx="4.72746667" ry="4.71824467"></ellipse>
                        <ellipse id="Oval" cx="345.068133" cy="293.880319" rx="4.72746667" ry="4.71824467"></ellipse>
                        <ellipse id="Oval" cx="447.170333" cy="293.880319" rx="4.72746667" ry="4.71824467"></ellipse>
                        <ellipse id="Oval" cx="464.190444" cy="293.880319" rx="4.72746667" ry="4.71824467"></ellipse>
                        <ellipse id="Oval" cx="242.965933" cy="310.861085" rx="4.72746667" ry="4.71824467"></ellipse>
                        <ellipse id="Oval" cx="259.986044" cy="310.861085" rx="4.72746667" ry="4.71824467"></ellipse>
                        <ellipse id="Oval" cx="447.170333" cy="310.861085" rx="4.72746667" ry="4.71824467"></ellipse>
                        <ellipse id="Oval" cx="464.190444" cy="310.861085" rx="4.72746667" ry="4.71824467"></ellipse>
                        <ellipse id="Oval" cx="242.965933" cy="327.847995" rx="4.72746667" ry="4.71824467"></ellipse>
                        <ellipse id="Oval" cx="259.986044" cy="327.847995" rx="4.72746667" ry="4.71824467"></ellipse>
                        <ellipse id="Oval" cx="464.190444" cy="327.847995" rx="4.72746667" ry="4.71824467"></ellipse>
                        <ellipse id="Oval" cx="481.2044" cy="327.847995" rx="4.72746667" ry="4.71824467"></ellipse>
                    </g>
                </g>
                <rect id="Rectangle" fill="#DF4317" x="759" y="168" width="209" height="46"></rect>
                <text id="WE-ALL-COUNT." font-family="AktivGrotesk-XBold, Aktiv Grotesk" font-size="22" font-weight="bold" line-spacing="50" fill="#F5F8FB">
                    <tspan x="777" y="188">WE ALL COUNT.</tspan>
                </text>
                <g id="Group-4" transform="translate(0.000000, 190.000000)" fill="#0166C5" stroke="#0166C5" stroke-width="3">
                    <circle id="Oval" cx="52" cy="4" r="4"></circle>
                    <circle id="Oval" cx="67" cy="4" r="4"></circle>
                    <circle id="Oval" cx="82" cy="4" r="4"></circle>
                    <circle id="Oval" cx="36" cy="20" r="4"></circle>
                    <circle id="Oval" cx="52" cy="20" r="4"></circle>
                    <circle id="Oval" cx="67" cy="20" r="4"></circle>
                    <circle id="Oval" cx="82" cy="20" r="4"></circle>
                    <circle id="Oval" cx="98" cy="20" r="4"></circle>
                    <circle id="Oval" cx="20" cy="36" r="4"></circle>
                    <circle id="Oval" cx="36" cy="36" r="4"></circle>
                    <circle id="Oval" cx="52" cy="36" r="4"></circle>
                    <circle id="Oval" cx="67" cy="36" r="4"></circle>
                    <circle id="Oval" cx="82" cy="36" r="4"></circle>
                    <circle id="Oval" cx="98" cy="36" r="4"></circle>
                    <circle id="Oval" cx="36" cy="52" r="4"></circle>
                    <circle id="Oval" cx="52" cy="52" r="4"></circle>
                    <circle id="Oval" cx="67" cy="52" r="4"></circle>
                    <circle id="Oval" cx="82" cy="52" r="4"></circle>
                    <circle id="Oval" cx="98" cy="52" r="4"></circle>
                    <circle id="Oval" cx="20" cy="67" r="4"></circle>
                    <circle id="Oval" cx="36" cy="67" r="4"></circle>
                    <circle id="Oval" cx="52" cy="67" r="4"></circle>
                    <circle id="Oval" cx="67" cy="67" r="4"></circle>
                    <circle id="Oval" cx="82" cy="67" r="4"></circle>
                    <circle id="Oval" cx="98" cy="67" r="4"></circle>
                    <circle id="Oval" cx="4" cy="84" r="4"></circle>
                    <circle id="Oval" cx="20" cy="84" r="4"></circle>
                    <circle id="Oval" cx="36" cy="84" r="4"></circle>
                    <circle id="Oval" cx="52" cy="84" r="4"></circle>
                    <circle id="Oval" cx="67" cy="84" r="4"></circle>
                    <circle id="Oval" cx="82" cy="84" r="4"></circle>
                    <circle id="Oval" cx="98" cy="84" r="4"></circle>
                    <circle id="Oval" cx="20" cy="99" r="4"></circle>
                    <circle id="Oval" cx="36" cy="99" r="4"></circle>
                    <circle id="Oval" cx="52" cy="99" r="4"></circle>
                    <circle id="Oval" cx="67" cy="99" r="4"></circle>
                    <circle id="Oval" cx="98" cy="99" r="4"></circle>
                    <circle id="Oval" cx="114" cy="99" r="4"></circle>
                    <circle id="Oval" cx="36" cy="115" r="4"></circle>
                    <circle id="Oval" cx="52" cy="115" r="4"></circle>
                    <circle id="Oval" cx="130" cy="115" r="4"></circle>
                </g>
                <g id="noun_hawaii_560518" transform="translate(63.000000, 318.000000)" fill="#0166C5" fill-rule="nonzero" stroke="#0166C5">
                    <g id="Group">
                        <path d="M4.125,12.5517861 C4.125,13.049407 3.92745592,13.5266467 3.57582521,13.8785178 C3.22419451,14.2303889 2.74728092,14.4280681 2.25,14.4280681 C1.21446609,14.4280681 0.375,13.588028 0.375,12.5517861 C0.375,11.5155442 1.21446609,10.6755041 2.25,10.6755041 C2.74728092,10.6755041 3.22419451,10.8731833 3.57582521,11.2250544 C3.92745592,11.5769255 4.125,12.0541652 4.125,12.5517861 L4.125,12.5517861 Z" id="Path"></path>
                        <path d="M9.375,7.29819654 C9.375,8.33443847 8.53553391,9.17447852 7.5,9.17447852 C6.46446609,9.17447852 5.625,8.33443847 5.625,7.29819654 C5.625,6.26195462 6.46446609,5.42191456 7.5,5.42191456 C8.53553391,5.42191456 9.375,6.26195462 9.375,7.29819654 Z" id="Path"></path>
                        <path d="M9.375,12.5517861 C9.375,13.588028 8.53553391,14.4280681 7.5,14.4280681 C6.46446609,14.4280681 5.625,13.588028 5.625,12.5517861 C5.625,11.5155442 6.46446609,10.6755041 7.5,10.6755041 C8.53553391,10.6755041 9.375,11.5155442 9.375,12.5517861 Z" id="Path"></path>
                        <path d="M19.875,2.04460699 C19.875,3.08084892 19.0355339,3.92088897 18,3.92088897 C16.9644661,3.92088897 16.125,3.08084892 16.125,2.04460699 C16.125,1.00836507 16.9644661,0.168325009 18,0.168325009 C19.0355339,0.168325009 19.875,1.00836507 19.875,2.04460699 L19.875,2.04460699 Z" id="Path"></path>
                        <path d="M19.875,7.29819654 C19.875,8.33443847 19.0355339,9.17447852 18,9.17447852 C16.9644661,9.17447852 16.125,8.33443847 16.125,7.29819654 C16.125,6.26195462 16.9644661,5.42191456 18,5.42191456 C19.0355339,5.42191456 19.875,6.26195462 19.875,7.29819654 Z" id="Path"></path>
                        <path d="M19.875,12.5517861 C19.875,13.588028 19.0355339,14.4280681 18,14.4280681 C16.9644661,14.4280681 16.125,13.588028 16.125,12.5517861 C16.125,11.5155442 16.9644661,10.6755041 18,10.6755041 C19.0355339,10.6755041 19.875,11.5155442 19.875,12.5517861 Z" id="Path"></path>
                        <path d="M25.125,2.04460699 C25.125,3.08084892 24.2855339,3.92088897 23.25,3.92088897 C22.2144661,3.92088897 21.375,3.08084892 21.375,2.04460699 C21.375,1.00836507 22.2144661,0.168325009 23.25,0.168325009 C24.2855339,0.168325009 25.125,1.00836507 25.125,2.04460699 L25.125,2.04460699 Z" id="Path"></path>
                        <path d="M25.125,7.29819654 C25.125,8.33443847 24.2855339,9.17447852 23.25,9.17447852 C22.2144661,9.17447852 21.375,8.33443847 21.375,7.29819654 C21.375,6.26195462 22.2144661,5.42191456 23.25,5.42191456 C24.2855339,5.42191456 25.125,6.26195462 25.125,7.29819654 Z" id="Path"></path>
                        <path d="M25.125,12.5517861 C25.125,13.588028 24.2855339,14.4280681 23.25,14.4280681 C22.2144661,14.4280681 21.375,13.588028 21.375,12.5517861 C21.375,11.5155442 22.2144661,10.6755041 23.25,10.6755041 C24.2855339,10.6755041 25.125,11.5155442 25.125,12.5517861 Z" id="Path"></path>
                        <path d="M30.375,7.29819654 C30.375,8.33443847 29.5355339,9.17447852 28.5,9.17447852 C27.4644661,9.17447852 26.625,8.33443847 26.625,7.29819654 C26.625,6.26195462 27.4644661,5.42191456 28.5,5.42191456 C29.5355339,5.42191456 30.375,6.26195462 30.375,7.29819654 Z" id="Path"></path>
                        <path d="M51.375,17.8053006 C51.375,18.8415425 50.5355339,19.6815826 49.5,19.6815826 C48.4644661,19.6815826 47.625,18.8415425 47.625,17.8053006 C47.6250414,16.769088 48.4644954,15.9290937 49.5,15.9290937 C50.5355046,15.9290937 51.3749586,16.769088 51.375,17.8053006 L51.375,17.8053006 Z" id="Path"></path>
                        <path d="M56.625,17.8053006 C56.625,18.8415425 55.7855339,19.6815826 54.75,19.6815826 C53.7144661,19.6815826 52.875,18.8415425 52.875,17.8053006 C52.8750414,16.769088 53.7144954,15.9290937 54.75,15.9290937 C55.7855046,15.9290937 56.6249586,16.769088 56.625,17.8053006 L56.625,17.8053006 Z" id="Path"></path>
                        <path d="M56.625,23.0588901 C56.625,24.0951321 55.7855339,24.9351721 54.75,24.9351721 C53.7144661,24.9351721 52.875,24.0951321 52.875,23.0588901 C52.875,22.0226482 53.7144661,21.1826082 54.75,21.1826082 C55.7855339,21.1826082 56.625,22.0226482 56.625,23.0588901 Z" id="Path"></path>
                        <path d="M56.625,28.3124797 C56.625,29.3487216 55.7855339,30.1887617 54.75,30.1887617 C53.7144661,30.1887617 52.875,29.3487216 52.875,28.3124797 C52.875,27.2762378 53.7144661,26.4361977 54.75,26.4361977 C55.7855339,26.4361977 56.625,27.2762378 56.625,28.3124797 L56.625,28.3124797 Z" id="Path"></path>
                        <path d="M61.875,12.5517861 C61.875,13.588028 61.0355339,14.4280681 60,14.4280681 C58.9644661,14.4280681 58.125,13.588028 58.125,12.5517861 C58.125,11.5155442 58.9644661,10.6755041 60,10.6755041 C61.0355339,10.6755041 61.875,11.5155442 61.875,12.5517861 Z" id="Path"></path>
                        <path d="M61.875,17.8053006 C61.875,18.8415425 61.0355339,19.6815826 60,19.6815826 C58.9644661,19.6815826 58.125,18.8415425 58.125,17.8053006 C58.1250414,16.769088 58.9644954,15.9290937 60,15.9290937 C61.0355046,15.9290937 61.8749586,16.769088 61.875,17.8053006 L61.875,17.8053006 Z" id="Path"></path>
                        <path d="M61.875,23.0588901 C61.875,24.0951321 61.0355339,24.9351721 60,24.9351721 C58.9644661,24.9351721 58.125,24.0951321 58.125,23.0588901 C58.125,22.0226482 58.9644661,21.1826082 60,21.1826082 C61.0355339,21.1826082 61.875,22.0226482 61.875,23.0588901 Z" id="Path"></path>
                        <path d="M67.125,23.0588901 C67.125,24.0951321 66.2855339,24.9351721 65.25,24.9351721 C64.2144661,24.9351721 63.375,24.0951321 63.375,23.0588901 C63.375,22.0226482 64.2144661,21.1826082 65.25,21.1826082 C66.2855339,21.1826082 67.125,22.0226482 67.125,23.0588901 Z" id="Path"></path>
                        <path d="M67.125,28.3124797 C67.125,29.3487216 66.2855339,30.1887617 65.25,30.1887617 C64.2144661,30.1887617 63.375,29.3487216 63.375,28.3124797 C63.375,27.2762378 64.2144661,26.4361977 65.25,26.4361977 C66.2855339,26.4361977 67.125,27.2762378 67.125,28.3124797 L67.125,28.3124797 Z" id="Path"></path>
                        <path d="M77.625,28.3124797 C77.625,29.3487216 76.7855339,30.1887617 75.75,30.1887617 C74.7144661,30.1887617 73.875,29.3487216 73.875,28.3124797 C73.875,27.2762378 74.7144661,26.4361977 75.75,26.4361977 C76.7855339,26.4361977 77.625,27.2762378 77.625,28.3124797 L77.625,28.3124797 Z" id="Path"></path>
                        <path d="M82.875,28.3124797 C82.875,29.3487216 82.0355339,30.1887617 81,30.1887617 C79.9644661,30.1887617 79.125,29.3487216 79.125,28.3124797 C79.125,27.2762378 79.9644661,26.4361977 81,26.4361977 C82.0355339,26.4361977 82.875,27.2762378 82.875,28.3124797 L82.875,28.3124797 Z" id="Path"></path>
                        <path d="M82.875,33.5660692 C82.875,34.6023112 82.0355339,35.4423512 81,35.4423512 C79.9644661,35.4423512 79.125,34.6023112 79.125,33.5660692 C79.125,32.5298273 79.9644661,31.6897873 81,31.6897873 C82.0355339,31.6897873 82.875,32.5298273 82.875,33.5660692 Z" id="Path"></path>
                        <path d="M82.875,38.8196588 C82.875,39.3172823 82.6774617,39.7945258 82.3258305,40.1464002 C81.9741994,40.4982746 81.4972835,40.6959558 81,40.6959558 C80.5027165,40.6959558 80.0258006,40.4982746 79.6741695,40.1464002 C79.3225383,39.7945258 79.125,39.3172823 79.125,38.8196588 C79.125,37.7834169 79.9644661,36.9433768 81,36.9433768 C82.0355339,36.9433768 82.875,37.7834169 82.875,38.8196588 L82.875,38.8196588 Z" id="Path"></path>
                        <path d="M88.125,28.3124797 C88.125,29.3487216 87.2855339,30.1887617 86.25,30.1887617 C85.2144661,30.1887617 84.375,29.3487216 84.375,28.3124797 C84.375,27.2762378 85.2144661,26.4361977 86.25,26.4361977 C87.2855339,26.4361977 88.125,27.2762378 88.125,28.3124797 L88.125,28.3124797 Z" id="Path"></path>
                        <path d="M88.125,33.5660692 C88.125,34.6023112 87.2855339,35.4423512 86.25,35.4423512 C85.2144661,35.4423512 84.375,34.6023112 84.375,33.5660692 C84.375,32.5298273 85.2144661,31.6897873 86.25,31.6897873 C87.2855339,31.6897873 88.125,32.5298273 88.125,33.5660692 L88.125,33.5660692 Z" id="Path"></path>
                        <path d="M88.125,38.8196588 C88.125,39.3172823 87.9274617,39.7945258 87.5758305,40.1464002 C87.2241994,40.4982746 86.7472835,40.6959558 86.25,40.6959558 C85.7527165,40.6959558 85.2758006,40.4982746 84.9241695,40.1464002 C84.5725383,39.7945258 84.375,39.3172823 84.375,38.8196588 C84.375,37.7834169 85.2144661,36.9433768 86.25,36.9433768 C87.2855339,36.9433768 88.125,37.7834169 88.125,38.8196588 L88.125,38.8196588 Z" id="Path"></path>
                        <path d="M93.375,28.3124797 C93.375,29.3487216 92.5355339,30.1887617 91.5,30.1887617 C90.4644661,30.1887617 89.625,29.3487216 89.625,28.3124797 C89.625,27.2762378 90.4644661,26.4361977 91.5,26.4361977 C92.5355339,26.4361977 93.375,27.2762378 93.375,28.3124797 L93.375,28.3124797 Z" id="Path"></path>
                        <path d="M93.375,33.5660692 C93.375,34.6023112 92.5355339,35.4423512 91.5,35.4423512 C90.4644661,35.4423512 89.625,34.6023112 89.625,33.5660692 C89.625,32.5298273 90.4644661,31.6897873 91.5,31.6897873 C92.5355339,31.6897873 93.375,32.5298273 93.375,33.5660692 Z" id="Path"></path>
                        <path d="M93.375,38.8196588 C93.375,39.3172823 93.1774617,39.7945258 92.8258305,40.1464002 C92.4741994,40.4982746 91.9972835,40.6959558 91.5,40.6959558 C91.0027165,40.6959558 90.5258006,40.4982746 90.1741695,40.1464002 C89.8225383,39.7945258 89.625,39.3172823 89.625,38.8196588 C89.625,37.7834169 90.4644661,36.9433768 91.5,36.9433768 C92.5355339,36.9433768 93.375,37.7834169 93.375,38.8196588 L93.375,38.8196588 Z" id="Path"></path>
                        <path d="M98.625,33.5660692 C98.625,34.6023112 97.7855339,35.4423512 96.75,35.4423512 C95.7144661,35.4423512 94.875,34.6023112 94.875,33.5660692 C94.875,32.5298273 95.7144661,31.6897873 96.75,31.6897873 C97.7855339,31.6897873 98.625,32.5298273 98.625,33.5660692 Z" id="Path"></path>
                        <path d="M98.625,38.8196588 C98.625,39.3172823 98.4274617,39.7945258 98.0758305,40.1464002 C97.7241994,40.4982746 97.2472835,40.6959558 96.75,40.6959558 C96.2527165,40.6959558 95.7758006,40.4982746 95.4241695,40.1464002 C95.0725383,39.7945258 94.875,39.3172823 94.875,38.8196588 C94.875,37.7834169 95.7144661,36.9433768 96.75,36.9433768 C97.7855339,36.9433768 98.625,37.7834169 98.625,38.8196588 L98.625,38.8196588 Z" id="Path"></path>
                        <path d="M98.625,44.0732633 C98.625,45.1095053 97.7855339,45.9495453 96.75,45.9495453 C95.7144661,45.9495453 94.875,45.1095053 94.875,44.0732633 C94.875,43.0370214 95.7144661,42.1969814 96.75,42.1969814 C97.7855339,42.1969814 98.625,43.0370214 98.625,44.0732633 L98.625,44.0732633 Z" id="Path"></path>
                        <path d="M103.875,33.5660692 C103.875,34.6023112 103.035534,35.4423512 102,35.4423512 C100.964466,35.4423512 100.125,34.6023112 100.125,33.5660692 C100.125,32.5298273 100.964466,31.6897873 102,31.6897873 C103.035534,31.6897873 103.875,32.5298273 103.875,33.5660692 Z" id="Path"></path>
                        <path d="M103.875,38.8196588 C103.875,39.3172823 103.677462,39.7945258 103.325831,40.1464002 C102.974199,40.4982746 102.497284,40.6959558 102,40.6959558 C101.502716,40.6959558 101.025801,40.4982746 100.674169,40.1464002 C100.322538,39.7945258 100.125,39.3172823 100.125,38.8196588 C100.125,37.7834169 100.964466,36.9433768 102,36.9433768 C103.035534,36.9433768 103.875,37.7834169 103.875,38.8196588 L103.875,38.8196588 Z" id="Path"></path>
                        <path d="M103.875,44.0732633 C103.875,45.1095053 103.035534,45.9495453 102,45.9495453 C100.964466,45.9495453 100.125,45.1095053 100.125,44.0732633 C100.125,43.0370214 100.964466,42.1969814 102,42.1969814 C103.035534,42.1969814 103.875,43.0370214 103.875,44.0732633 L103.875,44.0732633 Z" id="Path"></path>
                        <path d="M103.875,65.0877717 C103.875,66.1240136 103.035534,66.9640536 102,66.9640536 C100.964466,66.9640536 100.125,66.1240136 100.125,65.0877717 C100.125,64.0515297 100.964466,63.2114897 102,63.2114897 C103.035534,63.2114897 103.875,64.0515297 103.875,65.0877717 Z" id="Path"></path>
                        <path d="M109.125,38.8196588 C109.125,39.3172823 108.927462,39.7945258 108.575831,40.1464002 C108.224199,40.4982746 107.747284,40.6959558 107.25,40.6959558 C106.752716,40.6959558 106.275801,40.4982746 105.924169,40.1464002 C105.572538,39.7945258 105.375,39.3172823 105.375,38.8196588 C105.375,37.7834169 106.214466,36.9433768 107.25,36.9433768 C108.285534,36.9433768 109.125,37.7834169 109.125,38.8196588 L109.125,38.8196588 Z" id="Path"></path>
                        <path d="M109.125,44.0732633 C109.125,45.1095053 108.285534,45.9495453 107.25,45.9495453 C106.214466,45.9495453 105.375,45.1095053 105.375,44.0732633 C105.375,43.0370214 106.214466,42.1969814 107.25,42.1969814 C108.285534,42.1969814 109.125,43.0370214 109.125,44.0732633 L109.125,44.0732633 Z" id="Path"></path>
                        <path d="M109.125,54.5805926 C109.125,55.6168345 108.285534,56.4568745 107.25,56.4568745 C106.214466,56.4568745 105.375,55.6168345 105.375,54.5805926 C105.37496,54.0829456 105.572487,53.6056674 105.924122,53.2537638 C106.275757,52.9018602 106.752693,52.7041605 107.25,52.7041605 C107.747307,52.7041605 108.224243,52.9018602 108.575878,53.2537638 C108.927513,53.6056674 109.12504,54.0829456 109.125,54.5805926 Z" id="Path"></path>
                        <path d="M109.125,59.8341821 C109.125,60.870424 108.285534,61.7104641 107.25,61.7104641 C106.214466,61.7104641 105.375,60.870424 105.375,59.8341821 C105.375,58.7979402 106.214466,57.9579001 107.25,57.9579001 C108.285534,57.9579001 109.125,58.7979402 109.125,59.8341821 L109.125,59.8341821 Z" id="Path"></path>
                        <path d="M109.125,65.0877717 C109.125,66.1240136 108.285534,66.9640536 107.25,66.9640536 C106.214466,66.9640536 105.375,66.1240136 105.375,65.0877717 C105.375,64.0515297 106.214466,63.2114897 107.25,63.2114897 C108.285534,63.2114897 109.125,64.0515297 109.125,65.0877717 Z" id="Path"></path>
                        <path d="M109.125,70.3413612 C109.125,71.3776031 108.285534,72.2176432 107.25,72.2176432 C106.214466,72.2176432 105.375,71.3776031 105.375,70.3413612 C105.375,69.3051193 106.214466,68.4650792 107.25,68.4650792 C108.285534,68.4650792 109.125,69.3051193 109.125,70.3413612 Z" id="Path"></path>
                        <path d="M109.125,75.5949508 C109.125,76.6311927 108.285534,77.4712327 107.25,77.4712327 C106.214466,77.4712327 105.375,76.6311927 105.375,75.5949508 C105.375,74.5587088 106.214466,73.7186688 107.25,73.7186688 C108.285534,73.7186688 109.125,74.5587088 109.125,75.5949508 L109.125,75.5949508 Z" id="Path"></path>
                        <path d="M109.125,80.8485403 C109.125,81.8847822 108.285534,82.7248223 107.25,82.7248223 C106.214466,82.7248223 105.375,81.8847822 105.375,80.8485403 C105.375,79.8122984 106.214466,78.9722583 107.25,78.9722583 C108.285534,78.9722583 109.125,79.8122984 109.125,80.8485403 Z" id="Path"></path>
                        <path d="M114.375,54.5805926 C114.375,55.6168345 113.535534,56.4568745 112.5,56.4568745 C111.464466,56.4568745 110.625,55.6168345 110.625,54.5805926 C110.62496,54.0829456 110.822487,53.6056674 111.174122,53.2537638 C111.525757,52.9018602 112.002693,52.7041605 112.5,52.7041605 C112.997307,52.7041605 113.474243,52.9018602 113.825878,53.2537638 C114.177513,53.6056674 114.37504,54.0829456 114.375,54.5805926 Z" id="Path"></path>
                        <path d="M114.375,59.8341821 C114.375,60.870424 113.535534,61.7104641 112.5,61.7104641 C111.464466,61.7104641 110.625,60.870424 110.625,59.8341821 C110.625,58.7979402 111.464466,57.9579001 112.5,57.9579001 C113.535534,57.9579001 114.375,58.7979402 114.375,59.8341821 L114.375,59.8341821 Z" id="Path"></path>
                        <path d="M114.375,65.0877717 C114.375,66.1240136 113.535534,66.9640536 112.5,66.9640536 C111.464466,66.9640536 110.625,66.1240136 110.625,65.0877717 C110.625,64.0515297 111.464466,63.2114897 112.5,63.2114897 C113.535534,63.2114897 114.375,64.0515297 114.375,65.0877717 Z" id="Path"></path>
                        <path d="M114.375,70.3413612 C114.375,71.3776031 113.535534,72.2176432 112.5,72.2176432 C111.464466,72.2176432 110.625,71.3776031 110.625,70.3413612 C110.625,69.3051193 111.464466,68.4650792 112.5,68.4650792 C113.535534,68.4650792 114.375,69.3051193 114.375,70.3413612 Z" id="Path"></path>
                        <path d="M114.375,75.5949508 C114.375,76.6311927 113.535534,77.4712327 112.5,77.4712327 C111.464466,77.4712327 110.625,76.6311927 110.625,75.5949508 C110.625,74.5587088 111.464466,73.7186688 112.5,73.7186688 C113.535534,73.7186688 114.375,74.5587088 114.375,75.5949508 L114.375,75.5949508 Z" id="Path"></path>
                        <path d="M114.375,80.8485403 C114.375,81.8847822 113.535534,82.7248223 112.5,82.7248223 C111.464466,82.7248223 110.625,81.8847822 110.625,80.8485403 C110.625,79.8122984 111.464466,78.9722583 112.5,78.9722583 C113.535534,78.9722583 114.375,79.8122984 114.375,80.8485403 Z" id="Path"></path>
                        <path d="M114.375,86.1021298 C114.375,87.1383718 113.535534,87.9784118 112.5,87.9784118 C111.464466,87.9784118 110.625,87.1383718 110.625,86.1021298 C110.625,85.0658879 111.464466,84.2258479 112.5,84.2258479 C113.535534,84.2258479 114.375,85.0658879 114.375,86.1021298 Z" id="Path"></path>
                        <path d="M119.625,54.5805926 C119.625,55.6168345 118.785534,56.4568745 117.75,56.4568745 C116.714466,56.4568745 115.875,55.6168345 115.875,54.5805926 C115.87496,54.0829456 116.072487,53.6056674 116.424122,53.2537638 C116.775757,52.9018602 117.252693,52.7041605 117.75,52.7041605 C118.247307,52.7041605 118.724243,52.9018602 119.075878,53.2537638 C119.427513,53.6056674 119.62504,54.0829456 119.625,54.5805926 Z" id="Path"></path>
                        <path d="M119.625,59.8341821 C119.625,60.870424 118.785534,61.7104641 117.75,61.7104641 C116.714466,61.7104641 115.875,60.870424 115.875,59.8341821 C115.875,58.7979402 116.714466,57.9579001 117.75,57.9579001 C118.785534,57.9579001 119.625,58.7979402 119.625,59.8341821 L119.625,59.8341821 Z" id="Path"></path>
                        <path d="M119.625,65.0877717 C119.625,66.1240136 118.785534,66.9640536 117.75,66.9640536 C116.714466,66.9640536 115.875,66.1240136 115.875,65.0877717 C115.875,64.0515297 116.714466,63.2114897 117.75,63.2114897 C118.785534,63.2114897 119.625,64.0515297 119.625,65.0877717 Z" id="Path"></path>
                        <path d="M119.625,70.3413612 C119.625,71.3776031 118.785534,72.2176432 117.75,72.2176432 C116.714466,72.2176432 115.875,71.3776031 115.875,70.3413612 C115.875,69.3051193 116.714466,68.4650792 117.75,68.4650792 C118.785534,68.4650792 119.625,69.3051193 119.625,70.3413612 Z" id="Path"></path>
                        <path d="M119.625,75.5949508 C119.625,76.6311927 118.785534,77.4712327 117.75,77.4712327 C116.714466,77.4712327 115.875,76.6311927 115.875,75.5949508 C115.875,74.5587088 116.714466,73.7186688 117.75,73.7186688 C118.785534,73.7186688 119.625,74.5587088 119.625,75.5949508 L119.625,75.5949508 Z" id="Path"></path>
                        <path d="M119.625,80.8485403 C119.625,81.8847822 118.785534,82.7248223 117.75,82.7248223 C116.714466,82.7248223 115.875,81.8847822 115.875,80.8485403 C115.875,79.8122984 116.714466,78.9722583 117.75,78.9722583 C118.785534,78.9722583 119.625,79.8122984 119.625,80.8485403 Z" id="Path"></path>
                        <path d="M119.625,86.1021298 C119.625,87.1383718 118.785534,87.9784118 117.75,87.9784118 C116.714466,87.9784118 115.875,87.1383718 115.875,86.1021298 C115.875,85.0658879 116.714466,84.2258479 117.75,84.2258479 C118.785534,84.2258479 119.625,85.0658879 119.625,86.1021298 Z" id="Path"></path>
                        <path d="M124.875,59.8341821 C124.875,60.870424 124.035534,61.7104641 123,61.7104641 C121.964466,61.7104641 121.125,60.870424 121.125,59.8341821 C121.125,58.7979402 121.964466,57.9579001 123,57.9579001 C124.035534,57.9579001 124.875,58.7979402 124.875,59.8341821 L124.875,59.8341821 Z" id="Path"></path>
                        <path d="M124.875,65.0877717 C124.875,66.1240136 124.035534,66.9640536 123,66.9640536 C121.964466,66.9640536 121.125,66.1240136 121.125,65.0877717 C121.125,64.0515297 121.964466,63.2114897 123,63.2114897 C124.035534,63.2114897 124.875,64.0515297 124.875,65.0877717 Z" id="Path"></path>
                        <path d="M124.875,70.3413612 C124.875,71.3776031 124.035534,72.2176432 123,72.2176432 C121.964466,72.2176432 121.125,71.3776031 121.125,70.3413612 C121.125,69.3051193 121.964466,68.4650792 123,68.4650792 C124.035534,68.4650792 124.875,69.3051193 124.875,70.3413612 Z" id="Path"></path>
                        <path d="M124.875,75.5949508 C124.875,76.6311927 124.035534,77.4712327 123,77.4712327 C121.964466,77.4712327 121.125,76.6311927 121.125,75.5949508 C121.125,74.5587088 121.964466,73.7186688 123,73.7186688 C124.035534,73.7186688 124.875,74.5587088 124.875,75.5949508 L124.875,75.5949508 Z" id="Path"></path>
                        <path d="M124.875,80.8485403 C124.875,81.8847822 124.035534,82.7248223 123,82.7248223 C121.964466,82.7248223 121.125,81.8847822 121.125,80.8485403 C121.125,79.8122984 121.964466,78.9722583 123,78.9722583 C124.035534,78.9722583 124.875,79.8122984 124.875,80.8485403 Z" id="Path"></path>
                        <path d="M130.125,59.8341821 C130.125,60.870424 129.285534,61.7104641 128.25,61.7104641 C127.214466,61.7104641 126.375,60.870424 126.375,59.8341821 C126.375,58.7979402 127.214466,57.9579001 128.25,57.9579001 C129.285534,57.9579001 130.125,58.7979402 130.125,59.8341821 L130.125,59.8341821 Z" id="Path"></path>
                        <path d="M130.125,65.0877717 C130.125,66.1240136 129.285534,66.9640536 128.25,66.9640536 C127.214466,66.9640536 126.375,66.1240136 126.375,65.0877717 C126.375,64.0515297 127.214466,63.2114897 128.25,63.2114897 C129.285534,63.2114897 130.125,64.0515297 130.125,65.0877717 Z" id="Path"></path>
                        <path d="M130.125,70.3413612 C130.125,71.3776031 129.285534,72.2176432 128.25,72.2176432 C127.214466,72.2176432 126.375,71.3776031 126.375,70.3413612 C126.375,69.3051193 127.214466,68.4650792 128.25,68.4650792 C129.285534,68.4650792 130.125,69.3051193 130.125,70.3413612 Z" id="Path"></path>
                        <path d="M130.125,75.5949508 C130.125,76.6311927 129.285534,77.4712327 128.25,77.4712327 C127.214466,77.4712327 126.375,76.6311927 126.375,75.5949508 C126.375,74.5587088 127.214466,73.7186688 128.25,73.7186688 C129.285534,73.7186688 130.125,74.5587088 130.125,75.5949508 L130.125,75.5949508 Z" id="Path"></path>
                        <path d="M135.375,70.3413612 C135.375,71.3776031 134.535534,72.2176432 133.5,72.2176432 C132.464466,72.2176432 131.625,71.3776031 131.625,70.3413612 C131.625,69.3051193 132.464466,68.4650792 133.5,68.4650792 C134.535534,68.4650792 135.375,69.3051193 135.375,70.3413612 L135.375,70.3413612 Z" id="Path"></path>
                        <path d="M135.375,75.5949508 C135.375,76.6311927 134.535534,77.4712327 133.5,77.4712327 C132.464466,77.4712327 131.625,76.6311927 131.625,75.5949508 C131.625,74.5587088 132.464466,73.7186688 133.5,73.7186688 C134.535534,73.7186688 135.375,74.5587088 135.375,75.5949508 L135.375,75.5949508 Z" id="Path"></path>
                        <path d="M140.625,70.3413612 C140.625,71.3776031 139.785534,72.2176432 138.75,72.2176432 C137.714466,72.2176432 136.875,71.3776031 136.875,70.3413612 C136.875,69.3051193 137.714466,68.4650792 138.75,68.4650792 C139.785534,68.4650792 140.625,69.3051193 140.625,70.3413612 Z" id="Path"></path>
                    </g>
                </g>
            </g>
        </g>
    </g>
</svg>