<?xml version="1.0" encoding="utf-8"?>
<!-- Generator: Adobe Illustrator 19.2.1, SVG Export Plug-In . SVG Version: 6.00 Build 0)  -->
<svg version="1.1" id="Layer_1" xmlns="http://www.w3.org/2000/svg" xmlns:xlink="http://www.w3.org/1999/xlink" x="0px" y="0px"
	 viewBox="0 0 499 91.8" style="enable-background:new 0 0 499 91.8;" xml:space="preserve">
<style type="text/css">
	.st0{fill:#FFFFFF;}
	.st1{fill:none;stroke:#FFFFFF;stroke-width:2;stroke-miterlimit:10;}
</style>
<g>
	<path class="st0" d="M150.1,27.3c-0.6,1.3-1.2,2.9-1.6,4c-0.1,0.4-0.2,0.5-0.8,0.5c-3.1,0-4.7,0-7.8,0c-0.4,0-0.4-0.2-0.2-0.7
		c4.9-10.4,11.7-24.2,16-32.2c0-0.1,1.1-0.1,1.1,0c4.5,8.8,10.9,21.8,16.1,32.2c0.3,0.6,0.2,0.7-0.2,0.7c-2.3,0-5.2,0-8.8,0
		c-0.2,0-0.4,0-0.6-0.4c-0.6-1.3-1.3-3-1.7-4.2H150.1z M158.9,21.2l-3.3-7.1l-3.2,7.1H158.9z"/>
	<path class="st0" d="M197.3,11.9c0.8-2.9,3.8-4.5,7.1-4.5c3.8,0,7.4,1.4,7.4,7.5v16.2c0,0.6,0,0.7-0.4,0.7c-2.6,0-4.5,0-7.1,0
		c-0.3,0-0.4,0-0.4-0.5V17.9c0-2.3-0.9-3.7-3-3.7c-1.7,0-2.9,1.1-3.2,2.1v14.8c0,0.6,0,0.7-0.4,0.7c-2.6,0-4.5,0-7.1,0
		c-0.3,0-0.4,0-0.4-0.5V17.9c0-2.6-1.3-3.7-3-3.7c-1.7,0-3,1.2-3.2,2.1v15c0,0.4,0,0.5-0.3,0.5c-2.5,0-4.7,0-7.3,0
		c-0.3,0-0.4,0-0.4-0.7c0-8.6,0-13.8,0-22.5c0-0.6,0-0.6,0.3-0.6c2.5,0,4.6,0,7,0c0.4,0,0.4,0,0.4,0.6v3.2c1-2.7,3.6-4.5,7-4.5
		C194,7.4,196.3,8.7,197.3,11.9z"/>
	<path class="st0" d="M239,18.2c0,1.6-0.1,2.4-0.3,3.2c-0.1,0.5-0.2,0.6-0.9,0.6c-4.1,0-14,0-14,0c0,2.5,2,4.1,4.8,4.1
		c2.2,0,3.7-1.4,4.5-2.3c0.1-0.2,0.4-0.1,0.7,0.2c1,1.4,2.3,3.2,3.2,4.7c0.3,0.4,0.1,0.8-0.2,1.1c-1.5,1.3-4.7,2.8-8.3,2.8
		c-7.1,0-12.4-4.7-12.4-12.7c0-7.1,4.7-12.4,12.4-12.4C234.2,7.5,239,11.6,239,18.2z M231.7,17.9c-0.2-2.5-1.6-4-4-4
		c-2.6,0-3.7,2-3.9,4H231.7z"/>
	<path class="st0" d="M250.6,16.9v14.4c0,0.4-0.1,0.5-0.4,0.5c-2.6,0-4.5,0-7.2,0c-0.3,0-0.4,0-0.4-0.7c0-8.6,0-13.8,0-22.5
		c0-0.6,0-0.6,0.4-0.6c2.7,0,4.4,0,7,0c0.3,0,0.4,0,0.4,0.6V11c1-2.3,3.6-3.6,5.6-3.6c3.5,0,5.9,1.9,6,5.7c-1,1-4.3,4.5-4.9,5
		c-0.2,0.2-0.7,0.3-1.2,0.3c0-2.1-0.9-3.2-2.6-3.2C251.9,15.1,251.1,16.1,250.6,16.9z"/>
	<path class="st0" d="M273,4.9c0,0.4-0.1,0.5-0.4,0.5c-2.6,0-4.5,0-7.2,0c-0.3,0-0.4-0.3-0.4-0.6V0c0-0.3,0-0.6,0.3-0.6
		c2.4,0,5.1,0,7.2,0c0.4,0,0.5,0,0.5,0.6V4.9z M273,31.3c0,0.4-0.1,0.5-0.4,0.5c-2.6,0-4.5,0-7.2,0c-0.3,0-0.4,0-0.4-0.7
		c0-8.6,0-13.8,0-22.5c0-0.6,0-0.6,0.3-0.6c2.7,0,4.6,0,7.2,0c0.4,0,0.5,0,0.5,0.6V31.3z"/>
	<path class="st0" d="M300.6,25c0.3,0.2,0.4,0.5,0.3,0.8c-2.1,4.3-5.6,6.8-11,6.8c-7.4,0-12.6-4.8-12.6-12.4c0-7.2,5-12.8,12.5-12.8
		c5.2,0,9.3,2.3,11.1,7c0.1,0.4,0,0.6-0.3,0.7l-6.2,2.6c-0.2,0-0.3,0-0.4-0.3c-0.6-1.4-2.4-2.3-4.1-2.3c-3.1,0-4.8,2.1-4.8,5
		c0,3,2.1,4.9,4.9,4.9c1.9,0,3.5-1.1,4-2.3c0.1-0.3,0.3-0.4,0.7-0.2L300.6,25z"/>
	<path class="st0" d="M320.5,28.5c-0.8,2.4-3.8,3.7-6.6,3.7c-6.3,0-11.1-4.5-11.1-12.2c0-7.1,5-12.1,10.9-12.1
		c3.2,0,5.6,1.9,6.3,3.7V8.7c0-0.4,0.1-0.6,0.4-0.6c2.7,0,4.6,0,7.2,0c0.2,0,0.3,0.2,0.3,0.4c0,9,0,14,0,22.6c0,0.5-0.1,0.7-0.4,0.7
		c-1.3,0-5.9,0-6.7,0c-0.3,0-0.5-0.2-0.5-0.4V28.5z M310.6,20.2c0,2.9,2.2,4.8,4.8,4.8c2.6,0,4.7-2,4.7-4.9c0-3.1-2.1-4.9-4.7-4.9
		C312.4,15.2,310.6,17.3,310.6,20.2z"/>
	<path class="st0" d="M335.2,13.1c-0.1,0.2-0.7,0.3-1.4,0.3c-0.8,0-1.2-0.4-1.2-0.7c0-5.8,0-6.6,0-12.2c0-0.5,0.1-0.5,0.3-0.5
		c3.4,0,6,0,8.6,0c0.3,0,0.2,1.1,0.1,1.3C339.1,6,337.5,8.5,335.2,13.1z"/>
	<path class="st0" d="M340.2,26.5l5.1-2c0.2,0,0.4,0,0.4,0.2c0.5,1.4,2.1,2.5,3.8,2.5c2.1,0,3.1-0.8,3.1-1.9c0-1.3-1-1.9-4.6-2.8
		c-4.5-1.1-7.6-2.7-7.6-7.4c0-4.9,4-7.7,10.6-7.7c5.2,0,8.3,2,9.3,5.1c0,0.3,0,0.6-0.2,0.7l-5.2,1.8c-0.3,0.1-0.3,0.1-0.5-0.1
		c-0.8-1.3-2-2.1-3.6-2.1c-1.8,0-2.6,0.6-2.6,1.6c0,0.9,1.1,1.4,5.1,2.2c4.7,1,7.9,3,7.9,7.4c0,5.3-3.9,8.7-10.8,8.7
		c-6,0-8.8-2.2-10.3-5.5C339.9,26.9,339.9,26.6,340.2,26.5z"/>
</g>
<g>
	<path class="st0" d="M162.2,61.8c-0.9-0.1-1.7-0.3-2.3-0.3c-6.2-1-8.8-2.3-8.8-5.5c0-2.6,1.5-4.4,6.4-4.4c3.6,0,6.8,2.7,7.7,5.5
		c0.1,0.3,0.3,0.5,0.8,0.3l8.1-3.2c0.4-0.1,0.7-0.4,0.5-1.2c-1.8-5.8-7.5-10.2-16.6-10.2c-12.2,0-18.4,6.3-18.4,15.3
		c0,8.6,5.8,13.3,14.2,14.1c0.5,0.1,1.2,0.1,1.7,0.2c6.4,0.8,8.4,2.6,8.4,5.4c0,3.2-2.2,4.6-7,4.6c-4.4,0-7.5-3-8.4-5.6
		c-0.1-0.6-0.1-0.6-0.8-0.3l-8.5,3.5c-0.5,0.2-0.6,0.6-0.3,1.3c2.3,6.8,8.2,10.6,17.6,10.6c10.8,0,19.6-4.7,19.6-15.3
		C176.1,67.7,171,63,162.2,61.8z"/>
	<path class="st0" d="M215.1,79.8L194.9,80v-8h19.3c0.6,0,0.7-0.1,0.7-1c0-2.8,0-5,0-8.4c0-0.8-0.1-1-0.7-1h-19.3v-7.8l19.8,0.2
		c0.6,0,0.8-0.3,0.8-1c0-3,0-5,0-8.4c0-0.8-0.1-0.9-0.8-0.9h-31.2c-0.7,0-0.6,0.1-0.6,0.7c0,13.3,0,33.1,0,45.2c0,0.8,0.1,1,0.8,1
		h31.6c0.7,0,0.8-0.1,0.8-1c0-2.8,0-5.5,0-8.9C215.9,79.8,215.9,79.8,215.1,79.8z"/>
	<path class="st0" d="M258.2,79.8L238,80v-8h19.3c0.6,0,0.7-0.1,0.7-1c0-2.8,0-5,0-8.4c0-0.8-0.1-1-0.7-1H238v-7.8l19.8,0.2
		c0.6,0,0.8-0.3,0.8-1c0-3,0-5,0-8.4c0-0.8-0.1-0.9-0.8-0.9h-31.2c-0.7,0-0.6,0.1-0.6,0.7c0,13.3,0,33.1,0,45.2c0,0.8,0.1,1,0.8,1
		h31.6c0.7,0,0.8-0.1,0.8-1c0-2.8,0-5.5,0-8.9C259,79.8,259,79.8,258.2,79.8z"/>
	<path class="st0" d="M287.9,43.8h-19.2c-0.5,0-0.6,0.1-0.6,0.7c0,8.6,0,15.6,0,22.5c0,7.1,0,14.2,0,23c0,0.7,0.1,0.6,0.6,0.6h17.6
		c13.7,0,22.8-8.4,22.8-23.4C309.1,52,301.1,43.8,287.9,43.8z M286.6,80.7h-6.4V53.6h6.5c6,0,9.4,5.9,9.4,13.4
		C296.2,75.1,293.5,80.7,286.6,80.7z"/>
	<path class="st0" d="M361.6,43.8h-30.3c-0.5,0-0.6,0.1-0.6,0.9c0,15.3,0,31.8,0,45c0,1,0.1,1,0.6,1h11.3c0.6,0,0.6-0.2,0.6-1
		c0-5,0-15.3,0-15.3l16.3,0.1c0.6,0,0.9-0.1,1-0.8c0.2-3.3,0.1-6.4,0-9.3c0-0.6-0.3-0.8-0.9-0.8l-16.4,0.2v-9.4l18.4,0.1
		c0.6,0,0.5-0.1,0.6-0.7c0.3-2.7,0.2-6.4,0-9.4C362.1,43.9,362.2,43.8,361.6,43.8z"/>
	<path class="st0" d="M407.4,43.8c-3.7,0-8,0-11.3,0c-0.4,0-0.4,0.1-0.4,0.5v30.8c0,4.7-3.9,6.6-7.3,6.6c-3.4,0-7.3-1.9-7.3-6.6
		V44.3c0-0.6,0-0.6-0.5-0.6c-3.3,0-7.8,0-11.6,0c-0.3,0-0.3,0-0.3,0.4v28.7c0,11.4,6.4,18.9,19.5,18.9c13.7,0,19.5-7,19.5-18.2V44.3
		C407.8,43.8,407.8,43.8,407.4,43.8z"/>
	<path class="st0" d="M477.8,43.8h-19.2c-0.5,0-0.6,0.1-0.6,0.7c0,8.6,0,15.6,0,22.5c0,7.1,0,14.2,0,23c0,0.7,0.1,0.6,0.6,0.6h17.6
		c13.7,0,22.8-8.4,22.8-23.4C499,52,491.1,43.8,477.8,43.8z M476.6,80.7h-6.4V53.6h6.5c6,0,9.4,5.9,9.4,13.4
		C486.1,75.1,483.5,80.7,476.6,80.7z"/>
	<path class="st0" d="M449.3,40.6c-5-4.2-7.6-6.2-11.7-9.1c-0.4-0.3-1-0.4-1,0.6c0,1,0,42.3,0,42.3c4.9,4.2,7.2,6.2,11.5,9.4
		c1,0.7,1.1,0.2,1.1-0.9C449.4,66.9,449.3,40.6,449.3,40.6z"/>
	<path class="st0" d="M428.7,90.6c0-12.3,0-23.6,0-23.6c-5-4.2-7.6-6.2-11.7-9.1c-0.4-0.3-1-0.4-1,0.6c0,0.7,0,19.7,0,32.1H428.7z"
		/>
</g>
<line class="st1" x1="108.3" y1="-1.1" x2="108.3" y2="91.5"/>
<path class="st0" d="M15.8,51.7c1.7-0.2,2.5-0.4,2.5-2.3V35.7c-1.6-2-2.1-2.1-2.4-2.1v-0.7H22l10,12.3H32v-8.7
	c0-1.7-0.3-2.7-2.7-2.8v-0.7h6.2v0.7c-2.1,0.3-2.2,0.9-2.2,2.3v16.9h-0.8L19.7,37.3h-0.1v11.5c0,2.1,0.6,2.6,2.7,2.8v0.7h-6.5V51.7z
	"/>
<path class="st0" d="M15.8,51.7c1.7-0.2,2.5-0.4,2.5-2.3V35.7c-1.6-2-2.1-2.1-2.4-2.1v-0.7H22l10,12.3H32v-8.7
	c0-1.7-0.3-2.7-2.7-2.8v-0.7h6.2v0.7c-2.1,0.3-2.2,0.9-2.2,2.3v16.9h-0.8L19.7,37.3h-0.1v11.5c0,2.1,0.6,2.6,2.7,2.8v0.7h-6.5V51.7z
	"/>
<path class="st0" d="M49.2,38.7c-0.5-2-2.2-5.3-5.6-5.3c-1.5,0-3.1,0.9-3.1,2.7c0,1.6,0.5,2.2,3,3.4l4.2,2.1c1,0.5,3.2,2.2,3.2,5.3
	c0,2.5-1.8,6-7.1,6c-2.7,0-4-1-4.9-1c-0.6,0-0.7,0.5-0.9,1h-0.8v-7.1H38c0.6,2.9,2.2,6.2,5.9,6.2c3.5,0,3.6-2.8,3.6-3.2
	c0-1.9-1.4-2.6-3.2-3.5l-1.9-0.9c-4.9-2.4-4.9-4.8-4.9-6.2c0-1.8,0.9-5.7,6.4-5.7c2.3,0,3.7,0.9,4.5,0.9c0.7,0,0.8-0.4,0.9-1H50v6.2
	H49.2z"/>
<path class="st0" d="M49.2,38.7c-0.5-2-2.2-5.3-5.6-5.3c-1.5,0-3.1,0.9-3.1,2.7c0,1.6,0.5,2.2,3,3.4l4.2,2.1c1,0.5,3.2,2.2,3.2,5.3
	c0,2.5-1.8,6-7.1,6c-2.7,0-4-1-4.9-1c-0.6,0-0.7,0.5-0.9,1h-0.8v-7.1H38c0.6,2.9,2.2,6.2,5.9,6.2c3.5,0,3.6-2.8,3.6-3.2
	c0-1.9-1.4-2.6-3.2-3.5l-1.9-0.9c-4.9-2.4-4.9-4.8-4.9-6.2c0-1.8,0.9-5.7,6.4-5.7c2.3,0,3.7,0.9,4.5,0.9c0.7,0,0.8-0.4,0.9-1H50v6.2
	H49.2z"/>
<path class="st0" d="M52.6,32.9h16.3v5.8h-0.7c-0.6-3-1.4-4.8-6.4-4.8c-1.6,0-2.1,0.1-2.1,1.4v6.7c3.6,0.1,4-2,4.4-4.3h0.7v9.7h-0.7
	c-0.3-2.4-0.8-4.5-4.4-4.5v6.7c0,1.9,1.2,2,3.2,2v0.7H52.6v-0.7c1.6-0.2,2.5-0.3,2.5-2V35.7c0-1.9-1.2-2-2.5-2V32.9z"/>
<path class="st0" d="M52.6,32.9h16.3v5.8h-0.7c-0.6-3-1.4-4.8-6.4-4.8c-1.6,0-2.1,0.1-2.1,1.4v6.7c3.6,0.1,4-2,4.4-4.3h0.7v9.7h-0.7
	c-0.3-2.4-0.8-4.5-4.4-4.5v6.7c0,1.9,1.2,2,3.2,2v0.7H52.6v-0.7c1.6-0.2,2.5-0.3,2.5-2V35.7c0-1.9-1.2-2-2.5-2V32.9z"/>
<path class="st0" d="M42.3,13c-16.4,0-29.7,13.3-29.7,29.7c0,16.4,13.3,29.7,29.7,29.7c16.4,0,29.7-13.3,29.7-29.7
	C72.1,26.3,58.8,13,42.3,13 M42.3,71.9c-16.1,0-29.1-13-29.1-29.1c0-16.1,13-29.1,29.1-29.1c16.1,0,29.1,13,29.1,29.1
	C71.5,58.8,58.4,71.9,42.3,71.9"/>
<path class="st0" d="M42.3,13c-16.4,0-29.7,13.3-29.7,29.7c0,16.4,13.3,29.7,29.7,29.7c16.4,0,29.7-13.3,29.7-29.7
	C72.1,26.3,58.8,13,42.3,13z M42.3,71.9c-16.1,0-29.1-13-29.1-29.1c0-16.1,13-29.1,29.1-29.1c16.1,0,29.1,13,29.1,29.1
	C71.5,58.8,58.4,71.9,42.3,71.9z"/>
<path class="st0" d="M78.1,38c-0.3-0.7-0.5-1.4-0.7-2.1c-0.1-1.4-0.1-2.7-0.1-3.9c0.5-2.5,2.3-3.9,4.5-4.7c-0.3-0.6-0.6-1.4-0.8-1.9
	c-2.4,1.1-5.2,1.4-7.4-0.7c-0.5-0.5-0.9-1-1.3-1.5c-0.7-1.3-1.3-2.6-1.7-3.8c-0.5-2.5,0.7-4.5,2.4-6.1c-0.5-0.5-1.1-1.1-1.5-1.5
	c-1.8,2-4.3,3.3-7.1,2.2c-0.5-0.2-1.1-0.5-1.6-0.7c-1.2-0.9-2.3-2-3.2-3c-1.4-2.1-1.1-4.4-0.1-6.5c-0.6-0.3-1.4-0.6-1.9-0.8
	c-0.9,2.5-2.7,4.7-5.7,4.7c-0.9,0-1.8-0.1-2.7-0.2C48,7.2,47,6.7,46,6.3c-2.2-1.4-2.7-3.6-2.6-6c-0.7,0-1.5,0-2.1,0
	c0.2,2.6-0.7,5.3-3.4,6.6c-0.6,0.2-1.2,0.5-1.9,0.7c-1.5,0.2-2.9,0.2-4.2,0.1c-2.5-0.5-3.9-2.3-4.7-4.5c-0.6,0.3-1.4,0.6-1.9,0.8
	c1.1,2.4,1.4,5.2-0.7,7.4c-0.5,0.5-1.1,1-1.7,1.5c-1.3,0.7-2.6,1.2-3.7,1.7c-2.5,0.5-4.5-0.7-6.1-2.4c-0.5,0.5-1.1,1.1-1.5,1.5
	c2,1.8,3.2,4.3,2.2,7.1c-0.3,0.6-0.5,1.1-0.8,1.7c-0.9,1.1-1.9,2.1-2.8,3c-2.1,1.4-4.4,1.1-6.5,0.1c-0.3,0.6-0.6,1.4-0.8,1.9
	c2.5,0.9,4.7,2.7,4.7,5.7c0,0.8-0.1,1.6-0.1,2.3C7,36.8,6.5,38,6,39c-1.4,2.2-3.6,2.7-6,2.6c0,0.7,0,1.5,0,2.1
	c2.6-0.2,5.3,0.7,6.6,3.4c0.2,0.6,0.5,1.3,0.7,1.9c0.2,1.5,0.2,2.9,0.1,4.2c-0.5,2.5-2.3,3.9-4.5,4.7c0.3,0.6,0.6,1.4,0.8,1.9
	c2.4-1.1,5.2-1.4,7.4,0.7c0.5,0.5,1,1.1,1.5,1.6c0.7,1.3,1.2,2.6,1.7,3.7c0.5,2.5-0.7,4.5-2.4,6.1c0.5,0.5,1.1,1.1,1.5,1.5
	c1.8-2,4.3-3.2,7.1-2.2c0.6,0.3,1.2,0.6,1.8,0.9c1.1,0.9,2.1,1.9,3,2.8c1.4,2.1,1.1,4.4,0.1,6.5c0.6,0.3,1.4,0.6,1.9,0.8
	c0.9-2.5,2.7-4.7,5.7-4.7c0.8,0,1.5,0.1,2.3,0.1c1.3,0.4,2.6,0.9,3.7,1.4c2.2,1.4,2.7,3.6,2.6,6c0.7,0,1.5,0,2.1,0
	c-0.2-2.6,0.7-5.3,3.4-6.6c0.7-0.3,1.4-0.5,2.2-0.8c1.4-0.1,2.7-0.1,3.9-0.1c2.5,0.5,3.9,2.3,4.7,4.5c0.6-0.3,1.4-0.6,1.9-0.8
	c-1.1-2.4-1.4-5.2,0.7-7.4c0.5-0.5,1.1-1,1.7-1.5c1.2-0.6,2.4-1.2,3.5-1.6c2.5-0.5,4.5,0.7,6.1,2.4c0.5-0.5,1.1-1.1,1.5-1.5
	c-2-1.8-3.3-4.3-2.2-7.1c0.3-0.8,0.7-1.5,1.1-2.3c0.8-1,1.8-1.9,2.6-2.7c2.1-1.4,4.4-1.1,6.5-0.1c0.3-0.6,0.6-1.4,0.8-1.9
	c-2.5-0.9-4.7-2.7-4.7-5.7c0-0.8,0.1-1.7,0.2-2.5c0.4-1.2,0.9-2.4,1.3-3.4c1.4-2.2,3.6-2.7,6-2.6c0-0.7,0-1.5,0-2.1
	C82.1,41.6,79.3,40.7,78.1,38 M76.3,39.3l-0.4,0.5c-0.7,0.7-1.8,0.5-2.8,0.4c-0.6-0.2-1.2-0.3-1.8-0.4c0.1,0.8,0.1,1.6,0.1,2.4
	c0,0,0,0,0,0c0.2,0.3,0.1,0.6,0,0.8c0,0.8,0,1.7-0.1,2.5c0.7-0.2,1.5-0.3,2.2-0.5c0.8-0.1,1.6-0.2,2.2,0.5c0.6,1.1,0.4,2.8,0.3,4.1
	c0,0.1,0,0.2,0,0.2c-0.2,0.9-0.5,1.9-1,2.7l-0.5,0.3c-0.9,0.4-1.9-0.3-2.7-0.7c-0.5-0.4-1-0.7-1.5-1.1c-0.2,0.8-0.5,1.5-0.8,2.3
	c0,0,0,0,0,0.1c0,0.4-0.1,0.6-0.4,0.7c-0.3,0.8-0.7,1.5-1.1,2.3c0.8,0.1,1.5,0.3,2.3,0.4c0.8,0.2,1.6,0.5,1.9,1.3
	c0.2,1.2-0.7,2.8-1.3,3.9c0,0,0,0.1-0.1,0.1c-0.6,0.9-1.2,1.8-2.1,2.4l-0.6,0.1c-1,0-1.6-1-2.2-1.7c-0.3-0.6-0.7-1.1-1-1.7
	c-0.5,0.6-1,1.2-1.6,1.8c0,0,0,0.1,0,0.1c-0.1,0.4-0.4,0.5-0.7,0.5c-0.6,0.6-1.2,1.1-1.8,1.6c0.7,0.4,1.3,0.8,2,1.3
	c0.6,0.5,1.3,1,1.2,1.9c-0.3,1.1-1.5,2.1-2.5,2.9c-0.9,0.6-1.9,1.2-3.1,1.5L58,72.7c-0.9-0.4-1.1-1.5-1.4-2.4
	c-0.1-0.6-0.2-1.3-0.3-1.9c-0.7,0.4-1.4,0.7-2.2,1.1c0,0,0,0.1,0,0.1c-0.3,0.3-0.6,0.3-0.8,0.2c-0.8,0.3-1.5,0.6-2.3,0.8
	c0.5,0.6,0.9,1.3,1.3,1.9c0.4,0.7,0.8,1.5,0.4,2.2c-0.7,0.9-2.2,1.4-3.4,1.7c-1.1,0.2-2.3,0.4-3.5,0.3l-0.5-0.4
	c-0.7-0.7-0.5-1.8-0.4-2.8c0.2-0.6,0.3-1.3,0.4-1.9c-0.8,0.1-1.6,0.1-2.4,0.2c0,0,0,0.1-0.1,0.1c-0.4,0.2-0.6,0.1-0.9-0.1
	c-0.8,0-1.7,0-2.5-0.1c0.2,0.8,0.3,1.5,0.5,2.3c0.1,0.8,0.2,1.6-0.5,2.2c-1,0.6-2.5,0.4-3.7,0.3c-1.2-0.2-2.4-0.5-3.5-1.1l-0.3-0.5
	c-0.4-0.9,0.3-1.9,0.7-2.7c0.4-0.5,0.7-1,1.1-1.5c-0.8-0.2-1.5-0.5-2.3-0.8c0,0,0,0-0.1,0.1c-0.4,0-0.6-0.1-0.7-0.4
	c-0.8-0.3-1.5-0.7-2.2-1.1c-0.1,0.8-0.3,1.5-0.4,2.3c-0.2,0.8-0.5,1.6-1.3,1.9c-1,0.2-2.2-0.4-3.3-1c-1-0.7-2.1-1.4-2.9-2.5
	l-0.1-0.6c0-1,1-1.6,1.7-2.2c0.5-0.3,1.1-0.7,1.6-1c-0.6-0.5-1.2-1-1.8-1.6c0,0,0,0,0,0c-0.4-0.1-0.5-0.3-0.5-0.6
	c-0.6-0.6-1.2-1.2-1.7-1.9c-0.4,0.6-0.8,1.3-1.2,1.9c-0.5,0.6-1,1.3-1.9,1.2c-1.1-0.3-2-1.4-2.8-2.3c-0.7-1-1.4-2.1-1.7-3.4l0.2-0.6
	c0.4-0.9,1.5-1.1,2.4-1.4c0.6-0.1,1.2-0.2,1.8-0.3c-0.4-0.7-0.7-1.4-1.1-2.2c0,0,0,0,0,0c-0.3-0.3-0.3-0.5-0.3-0.7
	c-0.3-0.8-0.6-1.6-0.8-2.4c-0.6,0.4-1.2,0.9-1.9,1.3c-0.7,0.4-1.5,0.8-2.2,0.4c-0.8-0.6-1.3-1.9-1.6-3c-0.2-1.2-0.5-2.6-0.3-4
	l0.4-0.5c0.7-0.7,1.8-0.5,2.8-0.4c0.6,0.1,1.2,0.3,1.8,0.4c-0.1-0.8-0.1-1.6-0.1-2.4c0,0,0,0,0,0c-0.2-0.3-0.1-0.6,0-0.8
	c0-0.8,0.1-1.7,0.1-2.5c-0.7,0.2-1.5,0.3-2.2,0.5c-0.8,0.1-1.6,0.2-2.2-0.5c-0.6-1.1-0.4-2.7-0.3-4c0.2-1.1,0.5-2.2,1.1-3.1l0.5-0.3
	c0.9-0.4,1.9,0.3,2.7,0.7c0.5,0.4,1.1,0.8,1.6,1.1c0.2-0.8,0.5-1.5,0.8-2.3c0,0-0.1-0.1-0.1-0.1c0-0.4,0.2-0.7,0.5-0.8
	c0.3-0.8,0.7-1.5,1.1-2.2c-0.8-0.1-1.6-0.3-2.3-0.4c-0.8-0.2-1.6-0.5-1.9-1.3c-0.1-1,0.4-2.1,0.9-3.1c0.7-1,1.4-2.2,2.5-3l0.6-0.1
	c1,0,1.6,1,2.2,1.7c0.3,0.6,0.7,1.1,1,1.6c0.5-0.6,1-1.2,1.6-1.8c0,0,0-0.1,0-0.1c0.1-0.4,0.4-0.5,0.7-0.5c0.6-0.6,1.2-1.1,1.8-1.7
	c-0.7-0.4-1.3-0.8-2-1.3c-0.6-0.5-1.3-1-1.2-1.9c0.3-1.1,1.4-2,2.3-2.8c1-0.7,2.1-1.4,3.4-1.8l0.6,0.2c0.9,0.4,1.1,1.5,1.4,2.4
	c0.1,0.6,0.2,1.3,0.3,1.9c0.7-0.4,1.4-0.7,2.2-1c0,0,0-0.1,0-0.1c0.3-0.3,0.6-0.3,0.8-0.2c0.8-0.3,1.5-0.6,2.3-0.8
	c-0.5-0.6-0.9-1.3-1.3-1.9c-0.4-0.7-0.8-1.5-0.4-2.2c0.6-0.8,1.8-1.3,2.9-1.6c1.3-0.2,2.6-0.5,4-0.3l0.5,0.4
	c0.7,0.7,0.5,1.8,0.4,2.8c-0.2,0.6-0.3,1.2-0.4,1.9c0.8-0.1,1.6-0.1,2.4-0.1c0,0,0-0.1,0.1-0.1c0.4-0.2,0.6-0.1,0.9,0.1
	c0.8,0,1.7,0.1,2.5,0.1c-0.2-0.8-0.4-1.5-0.5-2.3c-0.1-0.8-0.2-1.6,0.5-2.2c1.1-0.6,2.8-0.4,4.1-0.3C49.6,9,49.8,9,50.1,9
	c0.8,0.2,1.5,0.4,2.2,0.8l0.3,0.5c0.4,0.9-0.3,1.9-0.7,2.7c-0.4,0.6-0.8,1.1-1.2,1.7c0.8,0.2,1.5,0.5,2.2,0.8
	c0.1-0.1,0.1-0.1,0.2-0.2c0.5,0,0.7,0.2,0.8,0.6c0.7,0.3,1.4,0.7,2.1,1c0.1-0.8,0.3-1.6,0.4-2.4c0.2-0.8,0.5-1.6,1.3-1.9
	c0.9-0.1,2,0.3,2.9,0.8c1.1,0.8,2.4,1.5,3.3,2.7l0.1,0.6c0,1-1,1.6-1.7,2.2c-0.6,0.3-1.1,0.7-1.7,1c0.6,0.5,1.2,1,1.8,1.6
	c0,0,0.1,0,0.1,0c0.4,0.2,0.5,0.4,0.5,0.7c0.6,0.6,1.1,1.2,1.6,1.8c0.4-0.7,0.8-1.3,1.3-2c0.5-0.6,1-1.3,1.9-1.2
	c1,0.2,1.9,1.2,2.6,2.1c0.7,1.1,1.5,2.2,1.9,3.6l-0.2,0.6c-0.4,0.9-1.5,1.1-2.4,1.4c-0.6,0.1-1.2,0.2-1.9,0.3
	c0.4,0.7,0.7,1.4,1.1,2.2c0,0,0,0,0.1,0c0.3,0.3,0.3,0.5,0.3,0.8c0.3,0.8,0.6,1.6,0.8,2.4c0.6-0.4,1.2-0.9,1.9-1.3
	c0.7-0.4,1.5-0.8,2.2-0.4c0.9,0.7,1.4,2.2,1.7,3.4C76.2,36.9,76.4,38.1,76.3,39.3"/>
</svg>
