<svg id="Layer_1" data-name="Layer 1" xmlns="http://www.w3.org/2000/svg" viewBox="0 0 214 50.04"><defs><style>.cls-1{fill:#fff;}</style></defs><title>logo-white-sbir-sttr</title><path class="cls-1" d="M74.2,47.4a1.83,1.83,0,0,0,1.8.9,0.9,0.9,0,0,0,1.1-.8c0-.5-0.2-0.7-0.9-0.8A8.08,8.08,0,0,1,74,46a2,2,0,0,1-1-2c0-1.7,1-2.6,3-2.6a3.12,3.12,0,0,1,3,1.5l-1.6,1a1.72,1.72,0,0,0-1.4-.8,0.75,0.75,0,0,0-.9.7c0,0.4.3,0.8,1.5,1.1a6.36,6.36,0,0,1,1.8.6,2.32,2.32,0,0,1,.9,1.9,2.28,2.28,0,0,1-.7,1.9,4.2,4.2,0,0,1-2.4.7,5.42,5.42,0,0,1-2.5-.6,2.19,2.19,0,0,1-.9-1Z" transform="translate(0 0.04)"/><path class="cls-1" d="M81.4,41.4h3.4a3.14,3.14,0,0,1,2.1.5,2.57,2.57,0,0,1,.7,1.8,2.24,2.24,0,0,1-.6,1.7,2.46,2.46,0,0,1-2,4.4H81.4V41.4Zm3.2,3.3a0.8,0.8,0,1,0,0-1.6H83.4v1.7h1.2V44.7Zm0.2,3.5c0.6,0,.8-0.2.8-0.9s-0.2-.9-0.8-0.9H83.5v1.8h1.3Z" transform="translate(0 0.04)"/><path class="cls-1" d="M90.1,41.4h2.1v8.5H90.1V41.4Z" transform="translate(0 0.04)"/><path class="cls-1" d="M97.2,49.9H95.1V41.4h3.3a2.89,2.89,0,0,1,2.2.6,2.21,2.21,0,0,1,.6,1.9c0,1.5-.4,2.1-1.5,2.5l1.8,3.4H99.2l-1.5-3.3H97.1Zm1-4.9a0.83,0.83,0,0,0,1-1c0-.8-0.2-1-1-1h-1v2h1Z" transform="translate(0 0.04)"/><path class="cls-1" d="M103.7,48h2.1v1.8h-2.1V48Z" transform="translate(0 0.04)"/><path class="cls-1" d="M109.3,47.4a1.83,1.83,0,0,0,1.8.9,0.9,0.9,0,0,0,1.1-.8c0-.5-0.2-0.7-0.9-0.8a8.08,8.08,0,0,1-2.2-.7,2,2,0,0,1-1-2c0-1.7,1-2.6,3-2.6a3.12,3.12,0,0,1,3,1.5l-1.6,1a1.72,1.72,0,0,0-1.4-.8,0.75,0.75,0,0,0-.9.7c0,0.4.3,0.8,1.5,1.1a6.36,6.36,0,0,1,1.8.6,2.32,2.32,0,0,1,.9,1.9,2.28,2.28,0,0,1-.7,1.9,4.2,4.2,0,0,1-2.4.7,5.42,5.42,0,0,1-2.5-.6,2.19,2.19,0,0,1-.9-1Z" transform="translate(0 0.04)"/><path class="cls-1" d="M118.3,43.1h-2.2V41.4h6.5v1.7h-2.2v6.8h-2.1V43.1Z" transform="translate(0 0.04)"/><path class="cls-1" d="M126.7,43.1h-2.2V41.4H131v1.7h-2.2v6.8h-2.1V43.1Z" transform="translate(0 0.04)"/><path class="cls-1" d="M135.4,49.9h-2.1V41.4h3.3a2.89,2.89,0,0,1,2.2.6,2.21,2.21,0,0,1,.6,1.9c0,1.5-.4,2.1-1.5,2.5l1.8,3.4h-2.3l-1.5-3.3h-0.6Zm1-4.9a0.83,0.83,0,0,0,1-1c0-.8-0.2-1-1-1h-1v2h1Z" transform="translate(0 0.04)"/><path class="cls-1" d="M76.3,11.2a10.41,10.41,0,0,0-.6,1.6,0.34,0.34,0,0,1-.4.2H72.2c-0.1,0-.2-0.1-0.1-0.3C74,8.6,76.7,3.1,78.4,0a0.55,0.55,0,0,1,.4,0c1.8,3.5,4.3,8.6,6.3,12.7,0.1,0.2.1,0.3-.1,0.3H81.5c-0.1,0-.2,0-0.2-0.1-0.2-.5-0.5-1.2-0.7-1.6Zm3.5-2.4L78.4,6,77.1,8.8h2.7Z" transform="translate(0 0.04)"/><path class="cls-1" d="M94.9,5.2a2.71,2.71,0,0,1,2.8-1.8c1.5,0,2.9.6,2.9,3v6.4c0,0.2,0,.3-0.2.3H97.6a0.16,0.16,0,0,1-.2-0.2V7.5A1.25,1.25,0,0,0,96.2,6a1.44,1.44,0,0,0-1.3.8v5.9c0,0.2,0,.3-0.2.3H92a0.16,0.16,0,0,1-.2-0.2V7.5A1.26,1.26,0,0,0,90.6,6a1.56,1.56,0,0,0-1.3.8v5.9c0,0.2,0,.2-0.1.2H86.3c-0.1,0-.1,0-0.1-0.3V3.9c0-.2,0-0.2.1-0.2h2.8a0.16,0.16,0,0,1,.2.2V5.2a2.83,2.83,0,0,1,2.8-1.8C93.6,3.4,94.5,3.9,94.9,5.2Z" transform="translate(0 0.04)"/><path class="cls-1" d="M111.4,7.7a6.15,6.15,0,0,1-.1,1.3c0,0.2-.1.2-0.4,0.2h-5.5a1.63,1.63,0,0,0,1.8,1.6h0.1a2.43,2.43,0,0,0,1.8-.9c0.1-.1.2,0,0.3,0.1,0.4,0.5.9,1.3,1.3,1.9,0.1,0.2.1,0.3-.1,0.4a5.46,5.46,0,0,1-3.3,1.1,4.7,4.7,0,0,1-4.9-5,4.74,4.74,0,0,1,4.4-4.9h0.5a4.1,4.1,0,0,1,4.2,3.9A0.37,0.37,0,0,0,111.4,7.7Zm-2.9-.2a1.62,1.62,0,0,0-1.4-1.6H107a1.58,1.58,0,0,0-1.6,1.6h3.1Z" transform="translate(0 0.04)"/><path class="cls-1" d="M115.9,7.1v5.7c0,0.2,0,.2-0.1.2h-2.9c-0.1,0-.1,0-0.1-0.3V3.9c0-.2,0-0.2.1-0.2h2.8c0.1,0,.1,0,0.1.2V4.8A2.4,2.4,0,0,1,118,3.4a2.23,2.23,0,0,1,2.4,2V5.7c-0.4.4-1.7,1.8-1.9,2a0.75,0.75,0,0,1-.5.1,1.1,1.1,0,0,0-1-1.3A1,1,0,0,0,115.9,7.1Z" transform="translate(0 0.04)"/><path class="cls-1" d="M124.8,2.4c0,0.2,0,.2-0.2.2h-2.8c-0.1,0-.1-0.1-0.1-0.2v-2c0-.1,0-0.2.1-0.2h2.8a0.16,0.16,0,0,1,.2.2v2Zm0,10.4c0,0.2,0,.2-0.2.2h-2.8c-0.1,0-.1,0-0.1-0.3V3.9c0-.2,0-0.2.1-0.2h2.8a0.16,0.16,0,0,1,.2.2v8.9Z" transform="translate(0 0.04)"/><path class="cls-1" d="M135.7,10.3c0.1,0.1.2,0.2,0.1,0.3h0a4.51,4.51,0,0,1-4.4,2.7,4.7,4.7,0,0,1-5-4.9,4.88,4.88,0,0,1,4.5-5.1h0.4a4.37,4.37,0,0,1,4.4,2.8c0.1,0.1,0,.2-0.1.3l-2.4,1c-0.1,0-.1,0-0.1-0.1a1.93,1.93,0,0,0-2.7-.5,2.2,2.2,0,0,0-.9,1.6,1.81,1.81,0,0,0,1.8,1.9h0.2a1.7,1.7,0,0,0,1.6-.9c0.1-.1.1-0.2,0.3-0.1Z" transform="translate(0 0.04)"/><path class="cls-1" d="M143.5,11.7a2.61,2.61,0,0,1-2.6,1.5c-2.5,0-4.4-1.8-4.4-4.8a4.54,4.54,0,0,1,4.4-4.8,2.75,2.75,0,0,1,2.5,1.5V3.9c0-.2,0-0.2.1-0.2h2.9c0.1,0,.1.1,0.1,0.2v8.9a0.44,0.44,0,0,1-.1.3h-2.6c-0.1,0-.2,0-0.2-0.1h0Zm-3.9-3.2a1.9,1.9,0,1,0,3.8,0,1.74,1.74,0,0,0-1.7-1.9h-0.2a1.88,1.88,0,0,0-1.9,1.8V8.5Z" transform="translate(0 0.04)"/><path class="cls-1" d="M149.3,5.6a0.62,0.62,0,0,1-.5.1c-0.3,0-.5-0.1-0.5-0.3V0.6c0-.2.1-0.2,0.1-0.2h3.4a0.45,0.45,0,0,1,0,.5C150.9,2.8,150.3,3.8,149.3,5.6Z" transform="translate(0 0.04)"/><path class="cls-1" d="M151.3,10.9l2-.8a0.2,0.2,0,0,1,.2.1,1.64,1.64,0,0,0,1.5,1c0.8,0,1.2-.3,1.2-0.7s-0.4-.7-1.8-1.1c-1.8-.4-3-1.1-3-2.9s1.6-3.1,4.2-3.1c2.1,0,3.3.8,3.6,2a0.37,0.37,0,0,1-.1.3l-2.1.7c-0.1.1-.1,0.1-0.2-0.1a1.6,1.6,0,0,0-1.4-.8c-0.7,0-1,.2-1,0.6s0.4,0.6,2,.9c1.9,0.4,3.1,1.2,3.1,2.9,0,2.1-1.6,3.4-4.3,3.4-2.4,0-3.5-.9-4.1-2.2A0.38,0.38,0,0,0,151.3,10.9Z" transform="translate(0 0.04)"/><path class="cls-1" d="M81,24.8a3.44,3.44,0,0,0-.9-0.1c-2.5-.4-3.5-0.9-3.5-2.2,0-1,.6-1.7,2.5-1.7A3.34,3.34,0,0,1,82.2,23c0.1,0.1.1,0.2,0.3,0.1l3.2-1.3a0.34,0.34,0,0,0,.2-0.5c-0.7-2.3-2.9-4-6.6-4-4.8,0-7.3,2.5-7.3,6s2.3,5.2,5.6,5.6L78.3,29c2.5,0.3,3.3,1,3.3,2.1,0,1.3-.9,1.8-2.7,1.8a3.56,3.56,0,0,1-3.3-2.2c-0.1-.2-0.1-0.2-0.3-0.1L72,32c-0.2.1-.2,0.2-0.1,0.5,0.9,2.7,3.2,4.2,7,4.2,4.3,0,7.7-1.9,7.7-6.1C86.5,27.2,84.6,25.3,81,24.8Z" transform="translate(0 0.04)"/><path class="cls-1" d="M101.9,32l-8,.1V28.9h7.6c0.2,0,.3-0.1.3-0.4V25.1c0-.3,0-0.4-0.3-0.4H93.9V21.6l7.8,0.1c0.2,0,.3-0.1.3-0.4V18c0-.3,0-0.4-0.3-0.4H89.4c-0.3,0-.2,0-0.2.3V35.7c0,0.3,0,.4.3,0.4H102c0.3,0,.3-0.1.3-0.4V32.2C102.2,32,102.2,32,101.9,32Z" transform="translate(0 0.04)"/><path class="cls-1" d="M118.9,32l-8,.1V28.9h7.6c0.2,0,.3-0.1.3-0.4V25.1c0-.3,0-0.4-0.3-0.4H111V21.6l7.8,0.1c0.2,0,.3-0.1.3-0.4V18c0-.3,0-0.4-0.3-0.4H106.5c-0.3,0-.2,0-0.2.3V35.7c0,0.3,0,.4.3,0.4h12.5c0.3,0,.3-0.1.3-0.4V32.2C119.3,32,119.3,32,118.9,32Z" transform="translate(0 0.04)"/><path class="cls-1" d="M130.7,17.7h-7.6c-0.2,0-.2.1-0.2,0.3V36c0,0.3,0,.2.2,0.2h7c5.4,0,9-3.3,9-9.2S135.9,17.7,130.7,17.7Zm-0.5,14.6h-2.5V21.6h2.6c2.4,0,3.7,2.3,3.7,5.3-0.1,3.2-1.1,5.4-3.8,5.4h0Z" transform="translate(0 0.04)"/><path class="cls-1" d="M159.8,17.7h-12c-0.2,0-.2,0-0.2.4V35.8c0,0.4.1,0.4,0.2,0.4h4.4c0.2,0,.2-0.1.2-0.4v-6l6.4,0.1a0.35,0.35,0,0,0,.4-0.3,22.85,22.85,0,0,0,0-3.7c0-.2-0.1-0.3-0.4-0.3l-6.5.1V22l7.3,0.1c0.2,0,.2,0,0.2-0.3a22.85,22.85,0,0,0,0-3.7C160,17.8,160,17.7,159.8,17.7Z" transform="translate(0 0.04)"/><path class="cls-1" d="M177.9,17.7h-4.5c-0.2,0-.2,0-0.2.2V30.1a2.64,2.64,0,0,1-2.9,2.6,2.7,2.7,0,0,1-2.9-2.6V18c0-.2,0-0.2-0.2-0.2h-4.6c-0.1,0-.1,0-0.1.2V29.3c0,4.5,2.5,7.4,7.7,7.4,5.4,0,7.7-2.8,7.7-7.2V17.9C178,17.7,178,17.7,177.9,17.7Z" transform="translate(0 0.04)"/><path class="cls-1" d="M205.6,17.7H198c-0.2,0-.2.1-0.2,0.3V36c0,0.3,0,.2.2,0.2h7c5.4,0,9-3.3,9-9.2S210.9,17.7,205.6,17.7Zm-0.5,14.6h-2.5V21.6h2.6c2.4,0,3.7,2.3,3.7,5.3,0,3.2-1,5.4-3.8,5.4h0Z" transform="translate(0 0.04)"/><path class="cls-1" d="M194.4,16.5c-2-1.7-3-2.4-4.6-3.6-0.2-.1-0.4-0.1-0.4.2V29.8c1.9,1.7,2.8,2.4,4.5,3.7,0.4,0.3.4,0.1,0.4-.4C194.4,26.9,194.4,16.5,194.4,16.5Z" transform="translate(0 0.04)"/><path class="cls-1" d="M186.2,36.2V26.9c-2-1.7-3-2.4-4.6-3.6-0.2-.1-0.4-0.1-0.4.2V36.2h5Z" transform="translate(0 0.04)"/><rect class="cls-1" x="59.6" y="0.04" width="1" height="50"/><path class="cls-1" d="M9.3,30.3c1-.1,1.5-0.2,1.5-1.4v-8c-0.9-1.2-1.2-1.2-1.4-1.2V19.3H13l5.9,7.2h0V21.4c0-1-.2-1.6-1.6-1.7V19.3h3.6v0.4c-1.2.2-1.3,0.5-1.3,1.4v10H19.1l-7.5-9.2h0v6.8c0,1.2.4,1.5,1.6,1.7v0.4H9.3V30.3Z" transform="translate(0 0.04)"/><path class="cls-1" d="M9.3,30.3c1-.1,1.5-0.2,1.5-1.4v-8c-0.9-1.2-1.2-1.2-1.4-1.2V19.3H13l5.9,7.2h0V21.4c0-1-.2-1.6-1.6-1.7V19.3h3.6v0.4c-1.2.2-1.3,0.5-1.3,1.4v10H19.1l-7.5-9.2h0v6.8c0,1.2.4,1.5,1.6,1.7v0.4H9.3V30.3Z" transform="translate(0 0.04)"/><path class="cls-1" d="M29,22.6c-0.3-1.2-1.3-3.1-3.3-3.1a1.63,1.63,0,0,0-1.8,1.6c0,0.9.3,1.3,1.7,2l2.5,1.2A3.53,3.53,0,0,1,30,27.4c0,1.5-1.1,3.5-4.2,3.5a12.19,12.19,0,0,1-2.9-.6c-0.4,0-.4.3-0.5,0.6H21.9V26.7h0.5c0.3,1.7,1.3,3.6,3.5,3.6A1.91,1.91,0,0,0,28,28.4c0-1.1-.8-1.5-1.9-2.1L24.9,26C22,24.6,22,23.1,22,22.3c0-1,.5-3.3,3.8-3.3a9.81,9.81,0,0,1,2.6.6A0.65,0.65,0,0,0,29,19h0.5v3.7H29V22.6Z" transform="translate(0 0.04)"/><path class="cls-1" d="M29,22.6c-0.3-1.2-1.3-3.1-3.3-3.1a1.63,1.63,0,0,0-1.8,1.6c0,0.9.3,1.3,1.7,2l2.5,1.2A3.53,3.53,0,0,1,30,27.4c0,1.5-1.1,3.5-4.2,3.5a12.19,12.19,0,0,1-2.9-.6c-0.4,0-.4.3-0.5,0.6H21.9V26.7h0.5c0.3,1.7,1.3,3.6,3.5,3.6A1.91,1.91,0,0,0,28,28.4c0-1.1-.8-1.5-1.9-2.1L24.9,26C22,24.6,22,23.1,22,22.3c0-1,.5-3.3,3.8-3.3a9.81,9.81,0,0,1,2.6.6A0.65,0.65,0,0,0,29,19h0.5v3.7H29V22.6Z" transform="translate(0 0.04)"/><path class="cls-1" d="M31,19.2h9.6v3.4H40.2c-0.4-1.8-.8-2.8-3.7-2.8-0.9,0-1.2.1-1.2,0.8v3.9c2.1,0,2.4-1.2,2.6-2.5h0.4v5.7H37.9c-0.2-1.4-.5-2.6-2.6-2.6v4c0,1.1.7,1.2,1.9,1.2v0.4H31V30.3c1-.1,1.5-0.2,1.5-1.2V20.9c0-1.1-.7-1.2-1.5-1.2V19.2Z" transform="translate(0 0.04)"/><path class="cls-1" d="M31,19.2h9.6v3.4H40.2c-0.4-1.8-.8-2.8-3.7-2.8-0.9,0-1.2.1-1.2,0.8v3.9c2.1,0,2.4-1.2,2.6-2.5h0.4v5.7H37.9c-0.2-1.4-.5-2.6-2.6-2.6v4c0,1.1.7,1.2,1.9,1.2v0.4H31V30.3c1-.1,1.5-0.2,1.5-1.2V20.9c0-1.1-.7-1.2-1.5-1.2V19.2Z" transform="translate(0 0.04)"/><path class="cls-1" d="M25,7.5A17.5,17.5,0,1,0,42.4,25,17.31,17.31,0,0,0,25,7.5m0,34.7A17.2,17.2,0,1,1,42.2,25,17.2,17.2,0,0,1,25,42.2" transform="translate(0 0.04)"/><path class="cls-1" d="M25,7.5A17.5,17.5,0,1,0,42.4,25,17.31,17.31,0,0,0,25,7.5Zm0,34.7A17.2,17.2,0,1,1,42.2,25,17.2,17.2,0,0,1,25,42.2Z" transform="translate(0 0.04)"/><path class="cls-1" d="M46.1,22.2a5,5,0,0,1-.4-1.3,18.48,18.48,0,0,1-.1-2.3,3.83,3.83,0,0,1,2.7-2.8,11.73,11.73,0,0,0-.5-1.1,3.61,3.61,0,0,1-4.3-.4c-0.3-.3-0.5-0.6-0.8-0.9a14.6,14.6,0,0,1-1-2.3A3.32,3.32,0,0,1,43,7.7l-0.9-.9a3.7,3.7,0,0,1-4.2,1.3C37.6,8,37.3,7.8,37,7.7c-0.7-.6-1.3-1.2-1.9-1.7A3.71,3.71,0,0,1,35,2.2a11.73,11.73,0,0,1-1.1-.5,3.75,3.75,0,0,1-3.4,2.8,8.6,8.6,0,0,1-1.6-.1c-0.7-.2-1.3-0.5-1.9-0.7A3.46,3.46,0,0,1,25.5.2H24.3a3.69,3.69,0,0,1-2,3.9,1.54,1.54,0,0,0-1.1.2,21.75,21.75,0,0,1-2.5.1A3.7,3.7,0,0,1,16,1.7a11.73,11.73,0,0,0-1.1.5,3.61,3.61,0,0,1-.4,4.3,9,9,0,0,1-1,.9,21.4,21.4,0,0,1-2.2,1A3.75,3.75,0,0,1,7.7,7a7.27,7.27,0,0,0-.9.8A3.7,3.7,0,0,1,8.1,12c-0.2.3-.3,0.7-0.5,1a9.76,9.76,0,0,1-1.7,1.8,3.71,3.71,0,0,1-3.8.1A11.73,11.73,0,0,1,1.6,16a3.75,3.75,0,0,1,2.8,3.4,6.6,6.6,0,0,1-.1,1.4,10.23,10.23,0,0,1-.8,2.1A3.46,3.46,0,0,1,0,24.4v1.2a3.69,3.69,0,0,1,3.9,2,5.64,5.64,0,0,0,.4,1.2,21.75,21.75,0,0,1,.1,2.5A3.87,3.87,0,0,1,1.7,34a11.73,11.73,0,0,0,.5,1.1,3.61,3.61,0,0,1,4.3.4,9,9,0,0,1,.9,1,21.4,21.4,0,0,1,1,2.2A3.83,3.83,0,0,1,7,42.3l0.9,0.9a3.7,3.7,0,0,1,4.2-1.3c0.4,0.2.7,0.3,1.1,0.5A9.76,9.76,0,0,1,15,44.1a3.71,3.71,0,0,1,.1,3.8,11.73,11.73,0,0,1,1.1.5,3.75,3.75,0,0,1,3.4-2.8,5.7,5.7,0,0,1,1.3.1,11.26,11.26,0,0,1,2.2.8A3.46,3.46,0,0,1,24.6,50h1.2a3.69,3.69,0,0,1,2-3.9,5,5,0,0,1,1.3-.4,18.48,18.48,0,0,1,2.3-.1,3.83,3.83,0,0,1,2.8,2.7,11.73,11.73,0,0,0,1.1-.5,3.61,3.61,0,0,1,.4-4.3,9,9,0,0,1,1-.9,9.49,9.49,0,0,1,2.1-.9,3.83,3.83,0,0,1,3.6,1.4l0.9-.9A3.7,3.7,0,0,1,42,38a5.39,5.39,0,0,1,.7-1.3c0.5-.6,1-1.1,1.5-1.6A3.71,3.71,0,0,1,48,35a11.73,11.73,0,0,1,.5-1.1,3.75,3.75,0,0,1-2.8-3.4,7.57,7.57,0,0,1,.1-1.5,11.92,11.92,0,0,1,.8-2,3.46,3.46,0,0,1,3.5-1.5V24.3a3.82,3.82,0,0,1-4-2.1M45,23l-0.2.3a1.8,1.8,0,0,1-1.6.2l-1.1-.3c0,0.5.1,0.9,0.1,1.4h0a0.45,0.45,0,0,1,0,.5,7.57,7.57,0,0,1-.1,1.5l1.3-.3a1.44,1.44,0,0,1,1.3.3,4.83,4.83,0,0,1,.2,2.4v0.1a4.42,4.42,0,0,1-.6,1.6l-0.3.2a2.4,2.4,0,0,1-1.6-.4,5.5,5.5,0,0,1-.9-0.7,5,5,0,0,1-.5,1.3h0a0.39,0.39,0,0,1-.2.4c-0.2.5-.4,0.9-0.6,1.3,0.4,0.1.9,0.1,1.3,0.2a1.64,1.64,0,0,1,1.1.7,4.26,4.26,0,0,1-.8,2.3v0.1a5.71,5.71,0,0,1-1.3,1.4H40.2a1.89,1.89,0,0,1-1.3-1c-0.2-.3-0.4-0.7-0.6-1-0.3.4-.6,0.7-0.9,1.1v0.1a0.42,0.42,0,0,1-.4.3,11,11,0,0,1-1.1,1,8.34,8.34,0,0,1,1.2.8,1.36,1.36,0,0,1,.7,1.1,3.91,3.91,0,0,1-1.4,1.7,6.08,6.08,0,0,1-1.8.9l-0.3-.1a1.84,1.84,0,0,1-.8-1.4c-0.1-.4-0.1-0.8-0.2-1.1-0.4.2-.8,0.4-1.3,0.6v0.1a0.35,0.35,0,0,1-.5.1c-0.4.2-.9,0.3-1.4,0.5,0.3,0.4.5,0.7,0.8,1.1a1.26,1.26,0,0,1,.2,1.3,3.48,3.48,0,0,1-2,1,6.73,6.73,0,0,1-2,.1l-0.3-.2a1.8,1.8,0,0,1-.2-1.6c0.1-.4.2-0.7,0.3-1.1-0.5,0-.9.1-1.4,0.1V42a0.33,0.33,0,0,1-.5-0.1,7.57,7.57,0,0,1-1.5-.1c0.1,0.4.2,0.9,0.3,1.3a1.44,1.44,0,0,1-.3,1.3,4.07,4.07,0,0,1-2.2.2,5.79,5.79,0,0,1-2.1-.7L19,44a2.4,2.4,0,0,1,.4-1.6,5.5,5.5,0,0,1,.7-0.9,5,5,0,0,1-1.3-.5h0a0.39,0.39,0,0,1-.4-0.2c-0.5-.2-0.9-0.4-1.3-0.6-0.1.4-.2,0.9-0.3,1.3a1.64,1.64,0,0,1-.7,1.1,2.86,2.86,0,0,1-1.9-.6,4.86,4.86,0,0,1-1.7-1.5V40.2a1.89,1.89,0,0,1,1-1.3l0.9-.6c-0.4-.3-0.7-0.6-1.1-0.9h0a0.43,0.43,0,0,1-.3-0.3c-0.3-.4-0.7-0.7-1-1.1a10.54,10.54,0,0,1-.7,1.1,1.36,1.36,0,0,1-1.1.7,3.56,3.56,0,0,1-1.6-1.4,6.26,6.26,0,0,1-1-2l0.1-.3a1.84,1.84,0,0,1,1.4-.8c0.4-.1.7-0.1,1.1-0.2-0.2-.4-0.4-0.8-0.6-1.3h0C9,31.7,9,31.5,9,31.4A7.84,7.84,0,0,1,8.5,30l-1.1.8a1.48,1.48,0,0,1-1.3.2,3.67,3.67,0,0,1-1-1.7A6.47,6.47,0,0,1,5,26.9l0.2-.3a1.8,1.8,0,0,1,1.6-.2l1.1,0.3c0-.5-0.1-0.9-0.1-1.4h0a0.45,0.45,0,0,1,0-.5,7.57,7.57,0,0,1,.1-1.5l-1.3.3a1.44,1.44,0,0,1-1.3-.3A3.6,3.6,0,0,1,5.1,21a5.46,5.46,0,0,1,.6-1.8L6,18.9a2.4,2.4,0,0,1,1.6.4,5.5,5.5,0,0,1,.9.7A5,5,0,0,1,9,18.7V18.6a0.46,0.46,0,0,1,.3-0.5c0.2-.4.4-0.9,0.6-1.3l-1.4-.3a1.64,1.64,0,0,1-1.1-.7A2.9,2.9,0,0,1,7.9,14a8.45,8.45,0,0,1,1.5-1.8H9.7a1.89,1.89,0,0,1,1.3,1,8.79,8.79,0,0,1,.6,1c0.3-.4.6-0.7,0.9-1.1V13a0.42,0.42,0,0,1,.4-0.3,11,11,0,0,1,1.1-1c-0.4-.2-0.8-0.5-1.2-0.7a1.36,1.36,0,0,1-.7-1.1,3.56,3.56,0,0,1,1.4-1.6,7.5,7.5,0,0,1,2-1l0.3,0.1a1.84,1.84,0,0,1,.8,1.4c0.1,0.4.1,0.7,0.2,1.1,0.4-.2.8-0.4,1.3-0.6V9.2A0.65,0.65,0,0,1,18.6,9c0.5-.2.9-0.3,1.4-0.5-0.3-.4-0.5-0.7-0.8-1.1A1.48,1.48,0,0,1,19,6.1a3.5,3.5,0,0,1,1.7-.9A4.44,4.44,0,0,1,23,5l0.3,0.2a1.8,1.8,0,0,1,.2,1.6c-0.1.4-.2,0.7-0.3,1.1,0.5,0,.9-0.1,1.4-0.1V7.7a0.33,0.33,0,0,1,.5.1,7.57,7.57,0,0,1,1.5.1c-0.1-.4-0.2-0.9-0.3-1.4a1.44,1.44,0,0,1,.3-1.3A4.83,4.83,0,0,1,29,5a0.9,0.9,0,0,1,.5.1,5,5,0,0,1,1.3.5L31,5.9a2.4,2.4,0,0,1-.4,1.6c-0.2.3-.5,0.7-0.7,1,0.4,0.1.9,0.3,1.3,0.4l0.1-.1a0.46,0.46,0,0,1,.5.3c0.4,0.2.9,0.4,1.3,0.6,0.1-.5.2-1,0.3-1.4a1.64,1.64,0,0,1,.7-1.1,2.79,2.79,0,0,1,1.7.5,9.5,9.5,0,0,1,1.9,1.6V9.6a1.89,1.89,0,0,1-1,1.3c-0.3.2-.7,0.4-1,0.6,0.4,0.3.7,0.6,1.1,0.9h0.1a0.42,0.42,0,0,1,.3.4,11,11,0,0,1,1,1.1,8.34,8.34,0,0,1,.8-1.2,1.36,1.36,0,0,1,1.1-.7,2.89,2.89,0,0,1,1.5,1.2,7,7,0,0,1,1.1,2.1l-0.1.3a1.84,1.84,0,0,1-1.4.8c-0.4.1-.7,0.1-1.1,0.2,0.2,0.4.4,0.8,0.6,1.3h0a0.48,0.48,0,0,1,.2.4,7.84,7.84,0,0,1,.5,1.4l1.1-.8a1.26,1.26,0,0,1,1.3-.2,4.21,4.21,0,0,1,1,2A6.33,6.33,0,0,1,45,23" transform="translate(0 0.04)"/></svg>