<?xml version="1.0" encoding="utf-8"?>
<!-- Generator: Adobe Illustrator 19.2.1, SVG Export Plug-In . SVG Version: 6.00 Build 0)  -->
<svg version="1.1" id="Layer_1" xmlns="http://www.w3.org/2000/svg" xmlns:xlink="http://www.w3.org/1999/xlink" x="0px" y="0px"
	 viewBox="0 0 214 50" style="enable-background:new 0 0 214 50;" xml:space="preserve">
<style type="text/css">
	.st0{fill:#0071BC;}
	.st1{fill:#112E51;}
</style>
<title>ASF Logo</title>
<g>
	<path class="st0" d="M74.2,47.4c0.3,0.6,1.1,1,1.8,0.9c0.7,0,1.1-0.3,1.1-0.8s-0.2-0.7-0.9-0.8c-0.8-0.1-1.5-0.4-2.2-0.7
		c-0.7-0.4-1.1-1.2-1-2c0-1.7,1-2.6,3-2.6c1.5,0,2.4,0.5,3,1.5l-1.6,1c-0.3-0.5-0.9-0.8-1.4-0.8c-0.6,0-0.9,0.3-0.9,0.7
		s0.3,0.8,1.5,1.1c0.6,0.1,1.2,0.3,1.8,0.6c0.6,0.4,0.9,1.2,0.9,1.9c0.1,0.7-0.2,1.4-0.7,1.9C77.9,49.8,77,50,76.2,50
		c-0.9,0-1.7-0.2-2.5-0.6c-0.4-0.2-0.7-0.6-0.9-1L74.2,47.4z"/>
	<path class="st0" d="M81.4,41.4h3.4c0.7-0.1,1.5,0.1,2.1,0.5c0.5,0.5,0.7,1.2,0.7,1.8c0.1,0.6-0.2,1.2-0.6,1.7c1.1,1.1,1.1,2.9,0,4
		c-0.6,0.4-1.3,0.5-2,0.4h-3.6V41.4z M84.6,44.7c0.6,0,0.8-0.2,0.8-0.8s-0.2-0.8-0.8-0.8h-1.2v1.7h1.2V44.7z M84.8,48.2
		c0.6,0,0.8-0.2,0.8-0.9s-0.2-0.9-0.8-0.9h-1.3v1.8C83.5,48.2,84.8,48.2,84.8,48.2z"/>
	<path class="st0" d="M90.1,41.4h2.1v8.5h-2.1V41.4z"/>
	<path class="st0" d="M97.2,49.9h-2.1v-8.5h3.3c1.2,0,1.8,0.2,2.2,0.6c0.5,0.5,0.7,1.2,0.6,1.9c0,1.5-0.4,2.1-1.5,2.5l1.8,3.4h-2.3
		l-1.5-3.3h-0.6L97.2,49.9z M98.2,45c0.7,0,1-0.2,1-1s-0.2-1-1-1h-1v2H98.2z"/>
	<path class="st0" d="M103.7,48h2.1v1.8h-2.1V48z"/>
	<path class="st0" d="M109.3,47.4c0.3,0.6,1.1,1,1.8,0.9c0.7,0,1.1-0.3,1.1-0.8s-0.2-0.7-0.9-0.8c-0.8-0.1-1.5-0.4-2.2-0.7
		c-0.7-0.4-1.1-1.2-1-2c0-1.7,1-2.6,3-2.6c1.5,0,2.4,0.5,3,1.5l-1.6,1c-0.3-0.5-0.9-0.8-1.4-0.8c-0.6,0-0.9,0.3-0.9,0.7
		s0.3,0.8,1.5,1.1c0.6,0.1,1.2,0.3,1.8,0.6c0.6,0.4,0.9,1.2,0.9,1.9c0.1,0.7-0.2,1.4-0.7,1.9c-0.7,0.5-1.6,0.7-2.4,0.7
		c-0.9,0-1.7-0.2-2.5-0.6c-0.4-0.2-0.7-0.6-0.9-1L109.3,47.4z"/>
	<path class="st0" d="M118.3,43.1h-2.2v-1.7h6.5v1.7h-2.2v6.8h-2.1C118.3,49.9,118.3,43.1,118.3,43.1z"/>
	<path class="st0" d="M126.7,43.1h-2.2v-1.7h6.5v1.7h-2.2v6.8h-2.1C126.7,49.9,126.7,43.1,126.7,43.1z"/>
	<path class="st0" d="M135.4,49.9h-2.1v-8.5h3.3c1.2,0,1.8,0.2,2.2,0.6c0.5,0.5,0.7,1.2,0.6,1.9c0,1.5-0.4,2.1-1.5,2.5l1.8,3.4h-2.3
		l-1.5-3.3h-0.6L135.4,49.9z M136.4,45c0.7,0,1-0.2,1-1s-0.2-1-1-1h-1v2H136.4z"/>
</g>
<path class="st0" d="M76.3,11.2c-0.2,0.5-0.5,1.1-0.6,1.6C75.6,13,75.5,13,75.3,13h-3.1c-0.1,0-0.2-0.1-0.1-0.3
	C74,8.6,76.7,3.1,78.4,0c0-0.1,0.4,0,0.4,0c1.8,3.5,4.3,8.6,6.3,12.7c0.1,0.2,0.1,0.3-0.1,0.3h-3.5c-0.1,0-0.2,0-0.2-0.1
	c-0.2-0.5-0.5-1.2-0.7-1.6L76.3,11.2z M79.8,8.8L78.4,6l-1.3,2.8H79.8z"/>
<path class="st0" d="M94.9,5.2c0.4-1.2,1.6-1.9,2.8-1.8c1.5,0,2.9,0.6,2.9,3v6.4c0,0.2,0,0.3-0.2,0.3h-2.8c-0.1,0-0.2,0-0.2-0.2V7.5
	C97.4,6.6,97,6,96.2,6c-0.5,0-1.1,0.3-1.3,0.8v5.9c0,0.2,0,0.3-0.2,0.3H92c-0.1,0-0.2,0-0.2-0.2V7.5c0-1-0.5-1.5-1.2-1.5
	c-0.5,0-1,0.3-1.3,0.8v5.9c0,0.2,0,0.2-0.1,0.2h-2.9c-0.1,0-0.1,0-0.1-0.3V3.9c0-0.2,0-0.2,0.1-0.2h2.8c0.1,0,0.2,0,0.2,0.2v1.3
	c0.4-1.1,1.6-1.9,2.8-1.8C93.6,3.4,94.5,3.9,94.9,5.2z"/>
<path class="st0" d="M111.4,7.7c0,0.4,0,0.8-0.1,1.3c0,0.2-0.1,0.2-0.4,0.2h-5.5c0,0.9,0.8,1.7,1.8,1.6h0.1c0.7,0,1.4-0.4,1.8-0.9
	c0.1-0.1,0.2,0,0.3,0.1c0.4,0.5,0.9,1.3,1.3,1.9c0.1,0.2,0.1,0.3-0.1,0.4c-0.9,0.7-2.1,1.1-3.3,1.1c-2.8,0-4.9-1.9-4.9-5
	c-0.1-2.5,1.8-4.7,4.4-4.9c0.2,0,0.3,0,0.5,0c2.2-0.1,4.1,1.7,4.2,3.9C111.4,7.5,111.4,7.6,111.4,7.7z M108.5,7.5
	c0-0.8-0.6-1.5-1.4-1.6H107c-0.9,0-1.6,0.7-1.6,1.6H108.5z"/>
<path class="st0" d="M115.9,7.1v5.7c0,0.2,0,0.2-0.1,0.2h-2.9c-0.1,0-0.1,0-0.1-0.3V3.9c0-0.2,0-0.2,0.1-0.2h2.8
	c0.1,0,0.1,0,0.1,0.2v0.9c0.4-0.9,1.3-1.4,2.2-1.4c1.2-0.1,2.3,0.8,2.4,2c0,0.1,0,0.2,0,0.3c-0.4,0.4-1.7,1.8-1.9,2
	c-0.1,0.1-0.3,0.1-0.5,0.1c0-0.8-0.4-1.3-1-1.3C116.5,6.4,116.1,6.7,115.9,7.1z"/>
<path class="st0" d="M124.8,2.4c0,0.2,0,0.2-0.2,0.2h-2.8c-0.1,0-0.1-0.1-0.1-0.2v-2c0-0.1,0-0.2,0.1-0.2h2.8c0.1,0,0.2,0,0.2,0.2
	V2.4z M124.8,12.8c0,0.2,0,0.2-0.2,0.2h-2.8c-0.1,0-0.1,0-0.1-0.3V3.9c0-0.2,0-0.2,0.1-0.2h2.8c0.1,0,0.2,0,0.2,0.2V12.8z"/>
<path class="st0" d="M135.7,10.3c0.1,0.1,0.2,0.2,0.1,0.3l0,0c-0.7,1.7-2.5,2.8-4.4,2.7c-2.9,0-5-1.9-5-4.9
	c-0.1-2.7,1.9-4.9,4.5-5.1c0.1,0,0.3,0,0.4,0c2,0,3.7,0.9,4.4,2.8c0.1,0.1,0,0.2-0.1,0.3l-2.4,1c-0.1,0-0.1,0-0.1-0.1
	c-0.6-0.9-1.8-1.1-2.7-0.5c-0.5,0.4-0.9,1-0.9,1.6c0,1,0.7,1.9,1.8,1.9c0.1,0,0.1,0,0.2,0c0.7,0,1.3-0.3,1.6-0.9
	c0.1-0.1,0.1-0.2,0.3-0.1L135.7,10.3z"/>
<path class="st0" d="M143.5,11.7c-0.3,1-1.5,1.5-2.6,1.5c-2.5,0-4.4-1.8-4.4-4.8c0-2.8,2-4.8,4.4-4.8c1,0,2,0.5,2.5,1.5V3.9
	c0-0.2,0-0.2,0.1-0.2h2.9c0.1,0,0.1,0.1,0.1,0.2v8.9c0,0.2-0.1,0.3-0.1,0.3h-2.6c-0.1,0-0.2,0-0.2-0.1l0,0L143.5,11.7z M139.6,8.5
	c0,1,0.9,1.9,1.9,1.9s1.9-0.9,1.9-1.9c0.1-1-0.7-1.9-1.7-1.9c-0.1,0-0.1,0-0.2,0c-1,0-1.9,0.8-1.9,1.8
	C139.6,8.3,139.6,8.4,139.6,8.5z"/>
<path class="st0" d="M149.3,5.6c0,0.1-0.3,0.1-0.5,0.1c-0.3,0-0.5-0.1-0.5-0.3V0.6c0-0.2,0.1-0.2,0.1-0.2h3.4c0.1,0,0.1,0.4,0,0.5
	C150.9,2.8,150.3,3.8,149.3,5.6z"/>
<path class="st0" d="M151.3,10.9l2-0.8c0.1,0,0.1,0,0.2,0.1c0.3,0.6,0.8,1,1.5,1c0.8,0,1.2-0.3,1.2-0.7s-0.4-0.7-1.8-1.1
	c-1.8-0.4-3-1.1-3-2.9s1.6-3.1,4.2-3.1c2.1,0,3.3,0.8,3.6,2c0,0.1,0,0.2-0.1,0.3L157,6.4c-0.1,0.1-0.1,0.1-0.2-0.1
	c-0.3-0.5-0.8-0.8-1.4-0.8c-0.7,0-1,0.2-1,0.6s0.4,0.6,2,0.9c1.9,0.4,3.1,1.2,3.1,2.9c0,2.1-1.6,3.4-4.3,3.4c-2.4,0-3.5-0.9-4.1-2.2
	C151.2,11.1,151.2,11,151.3,10.9z"/>
<path class="st1" d="M81,24.8c-0.4-0.1-0.7-0.1-0.9-0.1c-2.5-0.4-3.5-0.9-3.5-2.2c0-1,0.6-1.7,2.5-1.7c1.4,0,2.6,0.9,3.1,2.2
	c0.1,0.1,0.1,0.2,0.3,0.1l3.2-1.3c0.2-0.1,0.3-0.2,0.2-0.5c-0.7-2.3-2.9-4-6.6-4c-4.8,0-7.3,2.5-7.3,6c0,3.4,2.3,5.2,5.6,5.6
	l0.7,0.1c2.5,0.3,3.3,1,3.3,2.1c0,1.3-0.9,1.8-2.7,1.8c-1.4,0-2.7-0.8-3.3-2.2c-0.1-0.2-0.1-0.2-0.3-0.1L72,32
	c-0.2,0.1-0.2,0.2-0.1,0.5c0.9,2.7,3.2,4.2,7,4.2c4.3,0,7.7-1.9,7.7-6.1C86.5,27.2,84.6,25.3,81,24.8z"/>
<path class="st1" d="M101.9,32l-8,0.1v-3.2h7.6c0.2,0,0.3-0.1,0.3-0.4v-3.4c0-0.3,0-0.4-0.3-0.4h-7.6v-3.1l7.8,0.1
	c0.2,0,0.3-0.1,0.3-0.4V18c0-0.3,0-0.4-0.3-0.4H89.4c-0.3,0-0.2,0-0.2,0.3v17.8c0,0.3,0,0.4,0.3,0.4H102c0.3,0,0.3-0.1,0.3-0.4v-3.5
	C102.2,32,102.2,32,101.9,32z"/>
<path class="st1" d="M118.9,32l-8,0.1v-3.2h7.6c0.2,0,0.3-0.1,0.3-0.4v-3.4c0-0.3,0-0.4-0.3-0.4H111v-3.1l7.8,0.1
	c0.2,0,0.3-0.1,0.3-0.4V18c0-0.3,0-0.4-0.3-0.4h-12.3c-0.3,0-0.2,0-0.2,0.3v17.8c0,0.3,0,0.4,0.3,0.4h12.5c0.3,0,0.3-0.1,0.3-0.4
	v-3.5C119.3,32,119.3,32,118.9,32z"/>
<path class="st1" d="M130.7,17.7h-7.6c-0.2,0-0.2,0.1-0.2,0.3v18c0,0.3,0,0.2,0.2,0.2h7c5.4,0,9-3.3,9-9.2S135.9,17.7,130.7,17.7z
	 M130.2,32.3h-2.5V21.6h2.6c2.4,0,3.7,2.3,3.7,5.3C133.9,30.1,132.9,32.3,130.2,32.3L130.2,32.3z"/>
<path class="st1" d="M159.8,17.7h-12c-0.2,0-0.2,0-0.2,0.4v17.7c0,0.4,0.1,0.4,0.2,0.4h4.4c0.2,0,0.2-0.1,0.2-0.4v-6l6.4,0.1
	c0.2,0,0.4-0.1,0.4-0.3c0.1-1.2,0.1-2.5,0-3.7c0-0.2-0.1-0.3-0.4-0.3l-6.5,0.1V22l7.3,0.1c0.2,0,0.2,0,0.2-0.3
	c0.1-1.2,0.1-2.5,0-3.7C160,17.8,160,17.7,159.8,17.7z"/>
<path class="st1" d="M177.9,17.7h-4.5c-0.2,0-0.2,0-0.2,0.2v12.2c0,1.9-1.6,2.6-2.9,2.6c-1.3,0-2.9-0.8-2.9-2.6V18
	c0-0.2,0-0.2-0.2-0.2h-4.6c-0.1,0-0.1,0-0.1,0.2v11.3c0,4.5,2.5,7.4,7.7,7.4c5.4,0,7.7-2.8,7.7-7.2V17.9
	C178,17.7,178,17.7,177.9,17.7z"/>
<path class="st1" d="M205.6,17.7H198c-0.2,0-0.2,0.1-0.2,0.3v18c0,0.3,0,0.2,0.2,0.2h7c5.4,0,9-3.3,9-9.2S210.9,17.7,205.6,17.7z
	 M205.1,32.3h-2.5V21.6h2.6c2.4,0,3.7,2.3,3.7,5.3C208.9,30.1,207.9,32.3,205.1,32.3L205.1,32.3z"/>
<path class="st1" d="M194.4,16.5c-2-1.7-3-2.4-4.6-3.6c-0.2-0.1-0.4-0.1-0.4,0.2c0,0.4,0,16.7,0,16.7c1.9,1.7,2.8,2.4,4.5,3.7
	c0.4,0.3,0.4,0.1,0.4-0.4C194.4,26.9,194.4,16.5,194.4,16.5z"/>
<path class="st1" d="M186.2,36.2c0-4.9,0-9.3,0-9.3c-2-1.7-3-2.4-4.6-3.6c-0.2-0.1-0.4-0.1-0.4,0.2c0,0.3,0,7.8,0,12.7H186.2z"/>
<rect x="59.6" class="st1" width="1" height="50"/>
<g>
	<path class="st1" d="M9.3,30.3c1-0.1,1.5-0.2,1.5-1.4v-8c-0.9-1.2-1.2-1.2-1.4-1.2v-0.4H13l5.9,7.2l0,0v-5.1c0-1-0.2-1.6-1.6-1.7
		v-0.4h3.6v0.4c-1.2,0.2-1.3,0.5-1.3,1.4v10h-0.5l-7.5-9.2l0,0v6.8c0,1.2,0.4,1.5,1.6,1.7v0.4H9.3V30.3z"/>
	<path class="st1" d="M9.3,30.3c1-0.1,1.5-0.2,1.5-1.4v-8c-0.9-1.2-1.2-1.2-1.4-1.2v-0.4H13l5.9,7.2l0,0v-5.1c0-1-0.2-1.6-1.6-1.7
		v-0.4h3.6v0.4c-1.2,0.2-1.3,0.5-1.3,1.4v10h-0.5l-7.5-9.2l0,0v6.8c0,1.2,0.4,1.5,1.6,1.7v0.4H9.3V30.3z"/>
	<path class="st1" d="M29,22.6c-0.3-1.2-1.3-3.1-3.3-3.1c-0.9,0-1.8,0.5-1.8,1.6c0,0.9,0.3,1.3,1.7,2l2.5,1.2
		c0.6,0.3,1.9,1.3,1.9,3.1c0,1.5-1.1,3.5-4.2,3.5c-1.6,0-2.4-0.6-2.9-0.6c-0.4,0-0.4,0.3-0.5,0.6h-0.5v-4.2h0.5
		c0.3,1.7,1.3,3.6,3.5,3.6c2,0,2.1-1.7,2.1-1.9c0-1.1-0.8-1.5-1.9-2.1L24.9,26C22,24.6,22,23.1,22,22.3c0-1,0.5-3.3,3.8-3.3
		c1.4,0,2.2,0.6,2.6,0.6s0.5-0.3,0.6-0.6h0.5v3.7H29V22.6z"/>
	<path class="st1" d="M29,22.6c-0.3-1.2-1.3-3.1-3.3-3.1c-0.9,0-1.8,0.5-1.8,1.6c0,0.9,0.3,1.3,1.7,2l2.5,1.2
		c0.6,0.3,1.9,1.3,1.9,3.1c0,1.5-1.1,3.5-4.2,3.5c-1.6,0-2.4-0.6-2.9-0.6c-0.4,0-0.4,0.3-0.5,0.6h-0.5v-4.2h0.5
		c0.3,1.7,1.3,3.6,3.5,3.6c2,0,2.1-1.7,2.1-1.9c0-1.1-0.8-1.5-1.9-2.1L24.9,26C22,24.6,22,23.1,22,22.3c0-1,0.5-3.3,3.8-3.3
		c1.4,0,2.2,0.6,2.6,0.6s0.5-0.3,0.6-0.6h0.5v3.7H29V22.6z"/>
	<path class="st1" d="M31,19.2h9.6v3.4h-0.4c-0.4-1.8-0.8-2.8-3.7-2.8c-0.9,0-1.2,0.1-1.2,0.8v3.9c2.1,0,2.4-1.2,2.6-2.5h0.4v5.7
		h-0.4c-0.2-1.4-0.5-2.6-2.6-2.6v4c0,1.1,0.7,1.2,1.9,1.2v0.4H31v-0.4c1-0.1,1.5-0.2,1.5-1.2v-8.2c0-1.1-0.7-1.2-1.5-1.2V19.2z"/>
	<path class="st1" d="M31,19.2h9.6v3.4h-0.4c-0.4-1.8-0.8-2.8-3.7-2.8c-0.9,0-1.2,0.1-1.2,0.8v3.9c2.1,0,2.4-1.2,2.6-2.5h0.4v5.7
		h-0.4c-0.2-1.4-0.5-2.6-2.6-2.6v4c0,1.1,0.7,1.2,1.9,1.2v0.4H31v-0.4c1-0.1,1.5-0.2,1.5-1.2v-8.2c0-1.1-0.7-1.2-1.5-1.2V19.2z"/>
	<path class="st1" d="M25,7.5C15.3,7.5,7.4,15.3,7.4,25s7.9,17.5,17.5,17.5c9.7,0,17.5-7.9,17.5-17.5C42.5,15.3,34.7,7.5,25,7.5
		 M25,42.2c-9.5,0-17.2-7.7-17.2-17.2S15.5,7.8,25,7.8S42.2,15.5,42.2,25S34.5,42.2,25,42.2"/>
	<path class="st1" d="M25,7.5C15.3,7.5,7.4,15.3,7.4,25s7.9,17.5,17.5,17.5c9.7,0,17.5-7.9,17.5-17.5C42.5,15.3,34.7,7.5,25,7.5z
		 M25,42.2c-9.5,0-17.2-7.7-17.2-17.2S15.5,7.8,25,7.8S42.2,15.5,42.2,25S34.5,42.2,25,42.2z"/>
	<path class="st1" d="M46.1,22.2c-0.2-0.4-0.3-0.8-0.4-1.3c-0.1-0.8-0.1-1.6-0.1-2.3c0.3-1.5,1.4-2.3,2.7-2.8
		c-0.2-0.4-0.3-0.8-0.5-1.1c-1.4,0.7-3.1,0.8-4.3-0.4c-0.3-0.3-0.5-0.6-0.8-0.9c-0.4-0.8-0.8-1.6-1-2.3C41.3,9.8,42,8.6,43,7.7
		c-0.3-0.3-0.6-0.6-0.9-0.9c-1,1.2-2.5,1.9-4.2,1.3C37.6,8,37.3,7.8,37,7.7c-0.7-0.6-1.3-1.2-1.9-1.7c-0.9-1.3-0.6-2.6-0.1-3.8
		c-0.4-0.2-0.8-0.3-1.1-0.5c-0.5,1.5-1.6,2.7-3.4,2.8c-0.5,0-1.1,0-1.6-0.1c-0.7-0.2-1.3-0.5-1.9-0.7c-1.3-0.8-1.6-2.1-1.5-3.5
		c-0.4,0-0.9,0-1.2,0c0.1,1.6-0.4,3.2-2,3.9c-0.3-0.1-0.7,0-1.1,0.2c-0.9,0.1-1.7,0.1-2.5,0.1C17.2,4.1,16.5,3,16,1.7
		c-0.4,0.2-0.8,0.3-1.1,0.5c0.7,1.4,0.8,3.1-0.4,4.3c-0.3,0.3-0.6,0.6-1,0.9c-0.7,0.4-1.5,0.7-2.2,1C9.8,8.7,8.6,8,7.7,7
		C7.4,7.2,7,7.6,6.8,7.8c1.2,1,1.9,2.5,1.3,4.2c-0.2,0.3-0.3,0.7-0.5,1c-0.5,0.7-1.1,1.3-1.7,1.8c-1.3,0.9-2.6,0.6-3.8,0.1
		c-0.2,0.4-0.3,0.8-0.5,1.1c1.5,0.5,2.7,1.6,2.8,3.4c0,0.5,0,0.9-0.1,1.4c-0.2,0.8-0.5,1.5-0.8,2.1c-0.8,1.3-2.1,1.6-3.5,1.5
		c0,0.4,0,0.9,0,1.2c1.6-0.1,3.2,0.4,3.9,2C4,28,4.1,28.4,4.3,28.8c0.1,0.9,0.1,1.7,0.1,2.5C4.1,32.7,3,33.5,1.7,34
		c0.2,0.4,0.3,0.8,0.5,1.1c1.4-0.7,3.1-0.8,4.3,0.4c0.3,0.3,0.6,0.6,0.9,1c0.4,0.7,0.7,1.5,1,2.2C8.7,40.2,8,41.3,7,42.3
		c0.3,0.3,0.6,0.6,0.9,0.9c1-1.2,2.5-1.9,4.2-1.3c0.4,0.2,0.7,0.3,1.1,0.5c0.7,0.5,1.3,1.1,1.8,1.7c0.9,1.3,0.6,2.6,0.1,3.8
		c0.4,0.2,0.8,0.3,1.1,0.5c0.5-1.5,1.6-2.7,3.4-2.8c0.4,0,0.9,0,1.3,0.1c0.8,0.2,1.6,0.5,2.2,0.8c1.3,0.8,1.6,2.1,1.5,3.5
		c0.4,0,0.9,0,1.2,0c-0.1-1.6,0.4-3.2,2-3.9c0.4-0.2,0.8-0.3,1.3-0.4c0.8-0.1,1.6-0.1,2.3-0.1c1.5,0.3,2.3,1.4,2.8,2.7
		c0.4-0.2,0.8-0.3,1.1-0.5c-0.7-1.4-0.8-3.1,0.4-4.3c0.3-0.3,0.6-0.6,1-0.9c0.7-0.4,1.4-0.7,2.1-0.9c1.5-0.3,2.6,0.4,3.6,1.4
		c0.3-0.3,0.6-0.6,0.9-0.9c-1.2-1-1.9-2.5-1.3-4.2c0.2-0.5,0.4-0.9,0.7-1.3c0.5-0.6,1-1.1,1.5-1.6c1.3-0.9,2.6-0.6,3.8-0.1
		c0.2-0.4,0.3-0.8,0.5-1.1c-1.5-0.5-2.7-1.6-2.8-3.4c0-0.5,0-1,0.1-1.5c0.2-0.7,0.5-1.4,0.8-2c0.8-1.3,2.1-1.6,3.5-1.5
		c0-0.4,0-0.9,0-1.2C48.4,24.4,46.8,23.8,46.1,22.2 M45,23l-0.2,0.3c-0.4,0.4-1.1,0.3-1.6,0.2c-0.4-0.1-0.7-0.2-1.1-0.3
		c0,0.5,0.1,0.9,0.1,1.4l0,0c0.1,0.2,0.1,0.4,0,0.5c0,0.5,0,1-0.1,1.5c0.4-0.1,0.9-0.2,1.3-0.3c0.5,0,1-0.1,1.3,0.3
		c0.4,0.6,0.2,1.7,0.2,2.4v0.1c-0.1,0.6-0.3,1.1-0.6,1.6L44,30.9c-0.5,0.2-1.1-0.2-1.6-0.4c-0.3-0.2-0.6-0.4-0.9-0.7
		c-0.1,0.5-0.3,0.9-0.5,1.3l0,0c0,0.2-0.1,0.4-0.2,0.4c-0.2,0.5-0.4,0.9-0.6,1.3c0.4,0.1,0.9,0.1,1.3,0.2c0.4,0.1,0.9,0.3,1.1,0.7
		c0.1,0.7-0.4,1.6-0.8,2.3c0,0,0,0,0,0.1c-0.4,0.5-0.7,1-1.3,1.4h-0.3c-0.6,0-1-0.6-1.3-1c-0.2-0.3-0.4-0.7-0.6-1
		c-0.3,0.4-0.6,0.7-0.9,1.1c0,0,0,0,0,0.1C37.3,36.9,37.2,37,37,37c-0.3,0.3-0.7,0.7-1.1,1c0.4,0.2,0.8,0.5,1.2,0.8s0.7,0.6,0.7,1.1
		c-0.2,0.7-0.9,1.3-1.4,1.7c-0.6,0.4-1.1,0.7-1.8,0.9l-0.3-0.1c-0.5-0.2-0.7-0.9-0.8-1.4c-0.1-0.4-0.1-0.8-0.2-1.1
		c-0.4,0.2-0.8,0.4-1.3,0.6c0,0,0,0,0,0.1c-0.2,0.2-0.3,0.2-0.5,0.1c-0.4,0.2-0.9,0.3-1.4,0.5c0.3,0.4,0.5,0.7,0.8,1.1
		c0.2,0.4,0.5,0.9,0.2,1.3c-0.4,0.6-1.3,0.8-2,1c-0.7,0.1-1.3,0.2-2,0.1l-0.3-0.2c-0.4-0.4-0.3-1.1-0.2-1.6c0.1-0.4,0.2-0.7,0.3-1.1
		c-0.5,0-0.9,0.1-1.4,0.1c0,0,0,0,0,0.1c-0.2,0.1-0.4,0.1-0.5-0.1c-0.5,0-1,0-1.5-0.1c0.1,0.4,0.2,0.9,0.3,1.3c0,0.5,0.1,1-0.3,1.3
		c-0.6,0.3-1.5,0.3-2.2,0.2s-1.4-0.3-2.1-0.7L19,44c-0.2-0.5,0.2-1.1,0.4-1.6c0.2-0.3,0.4-0.6,0.7-0.9c-0.5-0.1-0.9-0.3-1.3-0.5l0,0
		c-0.2,0-0.4-0.1-0.4-0.2c-0.5-0.2-0.9-0.4-1.3-0.6c-0.1,0.4-0.2,0.9-0.3,1.3c-0.1,0.4-0.3,0.9-0.7,1.1c-0.6,0.1-1.3-0.2-1.9-0.6
		c-0.6-0.4-1.3-0.8-1.7-1.5v-0.3c0-0.6,0.6-1,1-1.3c0.3-0.2,0.6-0.4,0.9-0.6c-0.4-0.3-0.7-0.6-1.1-0.9l0,0c-0.2-0.1-0.3-0.2-0.3-0.3
		c-0.3-0.4-0.7-0.7-1-1.1c-0.2,0.4-0.5,0.8-0.7,1.1c-0.3,0.4-0.6,0.7-1.1,0.7C9.6,37.6,9,37,8.6,36.4c-0.4-0.6-0.8-1.2-1-2l0.1-0.3
		c0.2-0.5,0.9-0.7,1.4-0.8c0.4-0.1,0.7-0.1,1.1-0.2c-0.2-0.4-0.4-0.8-0.6-1.3l0,0C9,31.7,9,31.5,9,31.4c-0.2-0.5-0.4-0.9-0.5-1.4
		c-0.4,0.3-0.7,0.5-1.1,0.8C7,31,6.6,31.2,6.1,31c-0.5-0.4-0.8-1.1-1-1.7C5,28.5,4.8,27.7,5,26.9l0.2-0.3c0.4-0.4,1.1-0.3,1.6-0.2
		c0.4,0.1,0.7,0.2,1.1,0.3c0-0.5-0.1-0.9-0.1-1.4l0,0c-0.1-0.2-0.1-0.4,0-0.5c0-0.5,0-1,0.1-1.5c-0.4,0.1-0.9,0.2-1.3,0.3
		c-0.5,0-1,0.1-1.3-0.3C4.9,22.7,5,21.7,5.1,21c0.1-0.6,0.3-1.3,0.6-1.8L6,18.9c0.5-0.2,1.1,0.2,1.6,0.4c0.3,0.2,0.6,0.4,0.9,0.7
		c0.1-0.5,0.3-0.9,0.5-1.3c0,0,0,0,0-0.1c0-0.3,0.1-0.4,0.3-0.5c0.2-0.4,0.4-0.9,0.6-1.3c-0.5-0.1-0.9-0.2-1.4-0.3
		c-0.4-0.1-0.9-0.3-1.1-0.7c-0.1-0.6,0.2-1.3,0.5-1.8c0.4-0.6,0.9-1.3,1.5-1.8h0.3c0.6,0,1,0.6,1.3,1c0.2,0.3,0.4,0.6,0.6,1
		c0.3-0.4,0.6-0.7,0.9-1.1c0,0,0,0,0-0.1c0.1-0.2,0.2-0.3,0.4-0.3c0.3-0.3,0.7-0.7,1.1-1c-0.4-0.2-0.8-0.5-1.2-0.7
		c-0.4-0.3-0.7-0.6-0.7-1.1c0.2-0.6,0.8-1.2,1.4-1.6c0.6-0.4,1.3-0.8,2-1l0.3,0.1c0.5,0.2,0.7,0.9,0.8,1.4c0.1,0.4,0.1,0.7,0.2,1.1
		c0.4-0.2,0.8-0.4,1.3-0.6c0,0,0,0,0-0.1C18.3,9,18.5,9,18.6,9c0.5-0.2,0.9-0.3,1.4-0.5c-0.3-0.4-0.5-0.7-0.8-1.1
		C19,7,18.8,6.6,19,6.1c0.4-0.5,1.1-0.7,1.7-0.9C21.4,5,22.2,4.8,23,5l0.3,0.2c0.4,0.4,0.3,1.1,0.2,1.6c-0.1,0.4-0.2,0.7-0.3,1.1
		c0.5,0,0.9-0.1,1.4-0.1c0,0,0,0,0-0.1c0.2-0.1,0.4-0.1,0.5,0.1c0.5,0,1,0,1.5,0.1c-0.1-0.4-0.2-0.9-0.3-1.4c0-0.5-0.1-1,0.3-1.3
		C27.2,4.8,28.3,5,29,5c0.2,0,0.3,0,0.5,0.1c0.5,0.1,0.9,0.3,1.3,0.5L31,5.9c0.2,0.5-0.2,1.1-0.4,1.6c-0.2,0.3-0.5,0.7-0.7,1
		c0.4,0.1,0.9,0.3,1.3,0.4l0.1-0.1c0.3,0,0.4,0.1,0.5,0.3c0.4,0.2,0.9,0.4,1.3,0.6c0.1-0.5,0.2-1,0.3-1.4c0.1-0.4,0.3-0.9,0.7-1.1
		c0.5-0.1,1.2,0.2,1.7,0.5c0.6,0.5,1.4,0.9,1.9,1.6v0.3c0,0.6-0.6,1-1,1.3c-0.3,0.2-0.7,0.4-1,0.6c0.4,0.3,0.7,0.6,1.1,0.9h0.1
		c0.2,0.1,0.3,0.2,0.3,0.4c0.3,0.3,0.7,0.7,1,1.1c0.2-0.4,0.5-0.8,0.8-1.2s0.6-0.7,1.1-0.7c0.6,0.1,1.1,0.7,1.5,1.2
		c0.4,0.6,0.9,1.3,1.1,2.1l-0.1,0.3c-0.2,0.5-0.9,0.7-1.4,0.8c-0.4,0.1-0.7,0.1-1.1,0.2c0.2,0.4,0.4,0.8,0.6,1.3l0,0
		c0.2,0.2,0.2,0.3,0.2,0.4c0.2,0.5,0.4,0.9,0.5,1.4c0.4-0.3,0.7-0.5,1.1-0.8c0.4-0.2,0.9-0.5,1.3-0.2c0.5,0.4,0.8,1.3,1,2
		C45,21.6,45.1,22.3,45,23"/>
</g>
</svg>
